<?xml version="1.0" encoding="UTF-8" standalone="yes"?>
<svg xmlns="http://www.w3.org/2000/svg" xmlns:xlink="http://www.w3.org/1999/xlink" width="203.798309pt" height="666.337646pt" version="1.1" viewBox="-553.174805 214.809814 203.798309 666.337646">
  <!--
	Exported with Concepts: Smarter Sketching
	Version: 871 on iOS 13.6
	https://concepts.app/
	-->
  <title>Tensor</title>
  <desc>Drawing exported from Concepts: Smarter Sketching</desc>
  <g id="Capa_Copiar_1" opacity="1.000">
    <path id="STROKE_632ef4b2-f016-4513-b958-9f8d3fdac148" opacity="1.000" fill="#f45e58" stroke="#f45e58" stroke-width="0.500" stroke-opacity="1.000" stroke-linecap="round" stroke-linejoin="round" d="M -487.318 273.104 Q -487.554 273.104 -482.707 273.104 Q -477.859 273.104 -475.134 273.104 Q -472.409 273.104 -471.227 273.104 Q -470.044 273.104 -469.485 273.104 Q -468.927 273.104 -468.931 273.104 Q -468.936 273.104 -468.640 273.104 Q -468.345 273.104 -468.071 273.104 Q -467.798 273.104 -467.308 273.104 Q -466.817 273.104 -466.026 273.104 Q -465.234 273.104 -464.737 273.104 Q -464.240 273.104 -463.807 273.104 Q -463.374 273.104 -463.455 273.104 Q -463.535 273.104 -463.377 273.104 Q -463.219 273.104 -463.486 273.104 Q -463.754 273.104 -462.885 273.104 Q -462.016 273.104 -462.016 273.104 Q -462.016 266.506 -462.016 262.638 Q -462.016 258.770 -462.016 257.033 Q -462.016 255.296 -462.016 254.716 Q -462.016 254.136 -462.016 253.628 Q -462.016 253.119 -462.016 252.761 Q -462.016 252.402 -462.016 252.420 Q -462.016 252.437 -462.016 252.240 Q -462.016 252.043 -462.016 251.341 Q -462.016 250.639 -462.016 250.272 Q -462.016 249.905 -462.016 249.666 Q -462.016 249.427 -462.016 249.212 Q -462.016 248.997 -462.016 248.861 Q -462.016 248.725 -462.016 247.114 Q -462.016 245.503 -462.016 244.484 Q -462.016 243.465 -462.016 243.010 Q -462.016 242.554 -462.016 242.225 Q -462.016 241.895 -462.016 241.768 Q -462.016 241.642 -462.016 241.832 Q -462.016 242.022 -462.016 240.996 Q -462.016 239.970 -462.016 237.344 Q -462.016 234.717 -462.016 233.274 Q -462.016 231.830 -462.016 231.391 Q -462.016 230.952 -462.016 230.296 Q -462.016 229.639 -462.016 229.244 Q -462.016 228.850 -462.016 228.404 Q -462.016 227.958 -462.016 227.917 Q -462.016 227.875 -462.016 227.907 Q -462.016 227.939 -462.016 227.735 Q -462.016 227.532 -462.016 225.900 Q -462.016 224.269 -462.016 224.269 Q -468.452 224.269 -472.483 224.269 Q -476.514 224.269 -479.393 224.269 Q -482.273 224.269 -484.902 224.269 Q -487.532 224.269 -488.594 224.269 Q -489.656 224.269 -490.651 224.269 Q -491.647 224.269 -492.428 224.269 Q -493.208 224.269 -493.700 224.269 Q -494.191 224.269 -494.626 224.269 Q -495.061 224.269 -495.039 224.269 Q -495.018 224.269 -495.069 224.269 Q -495.120 224.269 -495.443 224.269 Q -495.765 224.269 -495.778 224.269 Q -495.790 224.269 -495.903 224.269 Q -496.017 224.269 -496.197 224.269 Q -496.376 224.269 -496.948 224.269 Q -497.520 224.269 -498.462 224.269 Q -499.403 224.269 -500.035 224.269 Q -500.667 224.269 -501.003 224.269 Q -501.339 224.269 -501.453 224.269 Q -501.567 224.269 -501.863 224.269 Q -502.158 224.269 -502.536 224.269 Q -502.914 224.269 -505.295 224.269 Q -507.676 224.269 -509.213 224.269 Q -510.750 224.269 -510.750 224.269 Q -510.750 231.222 -510.750 236.310 Q -510.750 241.399 -510.750 244.271 Q -510.750 247.142 -510.750 248.354 Q -510.750 249.565 -510.750 250.430 Q -510.750 251.295 -510.750 251.318 Q -510.750 251.342 -510.750 252.158 Q -510.750 252.973 -510.750 253.753 Q -510.750 254.533 -510.750 255.042 Q -510.750 255.550 -510.750 255.946 Q -510.750 256.343 -510.750 256.806 Q -510.750 257.270 -510.750 257.216 Q -510.750 257.162 -510.750 257.277 Q -510.750 257.391 -510.750 257.653 Q -510.750 257.915 -510.750 257.918 Q -510.750 257.921 -510.750 258.181 Q -510.750 258.441 -510.750 258.595 Q -510.750 258.750 -510.750 258.958 Q -510.750 259.165 -510.750 259.391 Q -510.750 259.617 -510.750 259.578 Q -510.750 259.540 -510.750 259.686 Q -510.750 259.832 -510.750 259.840 Q -510.750 259.848 -510.750 262.801 Q -510.750 265.755 -510.750 267.775 Q -510.750 269.795 -510.750 270.583 Q -510.750 271.371 -510.750 271.497 Q -510.750 271.623 -510.750 271.578 Q -510.750 271.532 -510.750 271.716 Q -510.750 271.900 -510.750 271.684 Q -510.750 271.468 -510.750 272.043 Q -510.750 272.617 -510.750 274.122 "></path>
    <path id="STROKE_f8157780-d80c-4fe6-b104-097d0ac80591" opacity="1.000" fill="#f45e58" stroke="#f45e58" stroke-width="0.500" stroke-opacity="1.000" stroke-linecap="round" stroke-linejoin="round" d="M -438.318 276.857 Q -438.554 276.857 -433.707 276.857 Q -428.860 276.857 -426.135 276.857 Q -423.410 276.857 -422.227 276.857 Q -421.044 276.857 -420.486 276.857 Q -419.927 276.857 -419.932 276.857 Q -419.936 276.857 -419.641 276.857 Q -419.345 276.857 -419.072 276.857 Q -418.798 276.857 -418.308 276.857 Q -417.818 276.857 -417.026 276.857 Q -416.235 276.857 -415.738 276.857 Q -415.241 276.857 -414.807 276.857 Q -414.374 276.857 -414.455 276.857 Q -414.536 276.857 -414.378 276.857 Q -414.220 276.857 -414.487 276.857 Q -414.754 276.857 -413.885 276.857 Q -413.016 276.857 -413.016 276.857 Q -413.016 270.259 -413.016 266.391 Q -413.016 262.523 -413.016 260.786 Q -413.016 259.049 -413.016 258.469 Q -413.016 257.889 -413.016 257.380 Q -413.016 256.872 -413.016 256.514 Q -413.016 256.155 -413.016 256.173 Q -413.016 256.190 -413.016 255.993 Q -413.016 255.795 -413.016 255.093 Q -413.016 254.391 -413.016 254.024 Q -413.016 253.657 -413.016 253.419 Q -413.016 253.180 -413.016 252.965 Q -413.016 252.750 -413.016 252.614 Q -413.016 252.478 -413.016 250.867 Q -413.016 249.256 -413.016 248.237 Q -413.016 247.218 -413.016 246.762 Q -413.016 246.307 -413.016 245.977 Q -413.016 245.648 -413.016 245.521 Q -413.016 245.394 -413.016 245.585 Q -413.016 245.775 -413.016 244.749 Q -413.016 243.723 -413.016 241.096 Q -413.016 238.470 -413.016 237.026 Q -413.016 235.583 -413.016 235.144 Q -413.016 234.705 -413.016 234.048 Q -413.016 233.392 -413.016 232.997 Q -413.016 232.602 -413.016 232.157 Q -413.016 231.711 -413.016 231.670 Q -413.016 231.628 -413.016 231.660 Q -413.016 231.692 -413.016 231.488 Q -413.016 231.284 -413.016 229.653 Q -413.016 228.021 -413.016 228.021 Q -419.452 228.021 -423.483 228.021 Q -427.514 228.021 -430.394 228.021 Q -433.273 228.021 -435.903 228.021 Q -438.532 228.021 -439.594 228.021 Q -440.656 228.021 -441.652 228.021 Q -442.647 228.021 -443.428 228.021 Q -444.209 228.021 -444.700 228.021 Q -445.191 228.021 -445.627 228.021 Q -446.062 228.021 -446.040 228.021 Q -446.018 228.021 -446.069 228.021 Q -446.120 228.021 -446.443 228.021 Q -446.766 228.021 -446.778 228.021 Q -446.790 228.021 -446.904 228.021 Q -447.017 228.021 -447.197 228.021 Q -447.376 228.021 -447.949 228.021 Q -448.521 228.021 -449.462 228.021 Q -450.403 228.021 -451.035 228.021 Q -451.667 228.021 -452.003 228.021 Q -452.340 228.021 -452.454 228.021 Q -452.568 228.021 -452.863 228.021 Q -453.158 228.021 -453.536 228.021 Q -453.914 228.021 -456.296 228.021 Q -458.677 228.021 -460.214 228.021 Q -461.751 228.021 -461.751 228.021 Q -461.751 234.975 -461.751 240.063 Q -461.751 245.152 -461.751 248.023 Q -461.751 250.895 -461.751 252.106 Q -461.751 253.318 -461.751 254.182 Q -461.751 255.047 -461.751 255.071 Q -461.751 255.095 -461.751 255.910 Q -461.751 256.726 -461.751 257.506 Q -461.751 258.286 -461.751 258.794 Q -461.751 259.302 -461.751 259.699 Q -461.751 260.096 -461.751 260.559 Q -461.751 261.023 -461.751 260.969 Q -461.751 260.915 -461.751 261.029 Q -461.751 261.144 -461.751 261.406 Q -461.751 261.668 -461.751 261.671 Q -461.751 261.673 -461.751 261.934 Q -461.751 262.194 -461.751 262.348 Q -461.751 262.503 -461.751 262.710 Q -461.751 262.918 -461.751 263.144 Q -461.751 263.370 -461.751 263.331 Q -461.751 263.292 -461.751 263.439 Q -461.751 263.585 -461.751 263.593 Q -461.751 263.600 -461.751 266.554 Q -461.751 269.508 -461.751 271.528 Q -461.751 273.548 -461.751 274.336 Q -461.751 275.124 -461.751 275.250 Q -461.751 275.376 -461.751 275.331 Q -461.751 275.285 -461.751 275.469 Q -461.751 275.652 -461.751 275.437 Q -461.751 275.221 -461.751 275.795 Q -461.751 276.370 -461.751 277.875 "></path>
    <path id="STROKE_0d5ac701-7277-499d-a0ba-10523936c16d" opacity="1.000" fill="#f45e58" stroke="#f45e58" stroke-width="0.500" stroke-opacity="1.000" stroke-linecap="round" stroke-linejoin="round" d="M -389.156 324.499 Q -389.393 324.499 -384.545 324.499 Q -379.698 324.499 -376.973 324.499 Q -374.248 324.499 -373.065 324.499 Q -371.883 324.499 -371.324 324.499 Q -370.766 324.499 -370.770 324.499 Q -370.774 324.499 -370.479 324.499 Q -370.184 324.499 -369.910 324.499 Q -369.637 324.499 -369.146 324.499 Q -368.656 324.499 -367.865 324.499 Q -367.073 324.499 -366.576 324.499 Q -366.079 324.499 -365.646 324.499 Q -365.213 324.499 -365.294 324.499 Q -365.374 324.499 -365.216 324.499 Q -365.058 324.499 -365.325 324.499 Q -365.592 324.499 -364.723 324.499 Q -363.854 324.499 -363.854 324.499 Q -363.854 317.902 -363.854 314.034 Q -363.854 310.166 -363.854 308.429 Q -363.854 306.691 -363.854 306.111 Q -363.854 305.531 -363.854 305.023 Q -363.854 304.515 -363.854 304.156 Q -363.854 303.798 -363.854 303.815 Q -363.854 303.833 -363.854 303.635 Q -363.854 303.438 -363.854 302.736 Q -363.854 302.034 -363.854 301.667 Q -363.854 301.300 -363.854 301.061 Q -363.854 300.822 -363.854 300.608 Q -363.854 300.393 -363.854 300.257 Q -363.854 300.121 -363.854 298.510 Q -363.854 296.899 -363.854 295.880 Q -363.854 294.860 -363.854 294.405 Q -363.854 293.950 -363.854 293.620 Q -363.854 293.290 -363.854 293.164 Q -363.854 293.037 -363.854 293.227 Q -363.854 293.418 -363.854 292.392 Q -363.854 291.365 -363.854 288.739 Q -363.854 286.113 -363.854 284.669 Q -363.854 283.225 -363.854 282.787 Q -363.854 282.348 -363.854 281.691 Q -363.854 281.034 -363.854 280.640 Q -363.854 280.245 -363.854 279.799 Q -363.854 279.354 -363.854 279.312 Q -363.854 279.271 -363.854 279.303 Q -363.854 279.334 -363.854 279.131 Q -363.854 278.927 -363.854 277.295 Q -363.854 275.664 -363.854 275.664 Q -370.290 275.664 -374.321 275.664 Q -378.352 275.664 -381.232 275.664 Q -384.112 275.664 -386.741 275.664 Q -389.370 275.664 -390.432 275.664 Q -391.494 275.664 -392.490 275.664 Q -393.485 275.664 -394.266 275.664 Q -395.047 275.664 -395.539 275.664 Q -396.030 275.664 -396.465 275.664 Q -396.900 275.664 -396.878 275.664 Q -396.856 275.664 -396.908 275.664 Q -396.959 275.664 -397.281 275.664 Q -397.604 275.664 -397.616 275.664 Q -397.628 275.664 -397.742 275.664 Q -397.856 275.664 -398.035 275.664 Q -398.215 275.664 -398.787 275.664 Q -399.359 275.664 -400.300 275.664 Q -401.242 275.664 -401.874 275.664 Q -402.505 275.664 -402.842 275.664 Q -403.178 275.664 -403.292 275.664 Q -403.406 275.664 -403.701 275.664 Q -403.997 275.664 -404.375 275.664 Q -404.753 275.664 -407.134 275.664 Q -409.515 275.664 -411.052 275.664 Q -412.589 275.664 -412.589 275.664 Q -412.589 282.617 -412.589 287.706 Q -412.589 292.794 -412.589 295.666 Q -412.589 298.537 -412.589 299.749 Q -412.589 300.960 -412.589 301.825 Q -412.589 302.690 -412.589 302.714 Q -412.589 302.738 -412.589 303.553 Q -412.589 304.368 -412.589 305.148 Q -412.589 305.929 -412.589 306.437 Q -412.589 306.945 -412.589 307.342 Q -412.589 307.738 -412.589 308.202 Q -412.589 308.665 -412.589 308.611 Q -412.589 308.557 -412.589 308.672 Q -412.589 308.787 -412.589 309.049 Q -412.589 309.311 -412.589 309.313 Q -412.589 309.316 -412.589 309.576 Q -412.589 309.836 -412.589 309.991 Q -412.589 310.145 -412.589 310.353 Q -412.589 310.561 -412.589 310.787 Q -412.589 311.013 -412.589 310.974 Q -412.589 310.935 -412.589 311.081 Q -412.589 311.228 -412.589 311.235 Q -412.589 311.243 -412.589 314.197 Q -412.589 317.151 -412.589 319.171 Q -412.589 321.191 -412.589 321.979 Q -412.589 322.767 -412.589 322.893 Q -412.589 323.019 -412.589 322.973 Q -412.589 322.928 -412.589 323.111 Q -412.589 323.295 -412.589 323.079 Q -412.589 322.863 -412.589 323.438 Q -412.589 324.012 -412.589 325.517 "></path>
    <path id="STROKE_d5b56d17-46ed-407b-b5a8-2c9fd5389df9" opacity="1.000" fill="#f45e58" stroke="#f45e58" stroke-width="0.500" stroke-opacity="1.000" stroke-linecap="round" stroke-linejoin="round" d="M -487.318 324.499 Q -487.554 324.499 -482.707 324.499 Q -477.859 324.499 -475.134 324.499 Q -472.409 324.499 -471.227 324.499 Q -470.044 324.499 -469.485 324.499 Q -468.927 324.499 -468.931 324.499 Q -468.936 324.499 -468.640 324.499 Q -468.345 324.499 -468.071 324.499 Q -467.798 324.499 -467.308 324.499 Q -466.817 324.499 -466.026 324.499 Q -465.234 324.499 -464.737 324.499 Q -464.240 324.499 -463.807 324.499 Q -463.374 324.499 -463.455 324.499 Q -463.535 324.499 -463.377 324.499 Q -463.219 324.499 -463.486 324.499 Q -463.754 324.499 -462.885 324.499 Q -462.016 324.499 -462.016 324.499 Q -462.016 317.902 -462.016 314.034 Q -462.016 310.166 -462.016 308.429 Q -462.016 306.691 -462.016 306.111 Q -462.016 305.531 -462.016 305.023 Q -462.016 304.515 -462.016 304.156 Q -462.016 303.798 -462.016 303.815 Q -462.016 303.833 -462.016 303.635 Q -462.016 303.438 -462.016 302.736 Q -462.016 302.034 -462.016 301.667 Q -462.016 301.300 -462.016 301.061 Q -462.016 300.822 -462.016 300.608 Q -462.016 300.393 -462.016 300.257 Q -462.016 300.121 -462.016 298.510 Q -462.016 296.899 -462.016 295.880 Q -462.016 294.860 -462.016 294.405 Q -462.016 293.950 -462.016 293.620 Q -462.016 293.290 -462.016 293.164 Q -462.016 293.037 -462.016 293.227 Q -462.016 293.418 -462.016 292.392 Q -462.016 291.365 -462.016 288.739 Q -462.016 286.113 -462.016 284.669 Q -462.016 283.225 -462.016 282.787 Q -462.016 282.348 -462.016 281.691 Q -462.016 281.034 -462.016 280.640 Q -462.016 280.245 -462.016 279.799 Q -462.016 279.354 -462.016 279.312 Q -462.016 279.271 -462.016 279.303 Q -462.016 279.334 -462.016 279.131 Q -462.016 278.927 -462.016 277.295 Q -462.016 275.664 -462.016 275.664 Q -468.452 275.664 -472.483 275.664 Q -476.514 275.664 -479.393 275.664 Q -482.273 275.664 -484.902 275.664 Q -487.532 275.664 -488.594 275.664 Q -489.656 275.664 -490.651 275.664 Q -491.647 275.664 -492.428 275.664 Q -493.208 275.664 -493.700 275.664 Q -494.191 275.664 -494.626 275.664 Q -495.061 275.664 -495.039 275.664 Q -495.018 275.664 -495.069 275.664 Q -495.120 275.664 -495.443 275.664 Q -495.765 275.664 -495.778 275.664 Q -495.790 275.664 -495.903 275.664 Q -496.017 275.664 -496.197 275.664 Q -496.376 275.664 -496.948 275.664 Q -497.520 275.664 -498.462 275.664 Q -499.403 275.664 -500.035 275.664 Q -500.667 275.664 -501.003 275.664 Q -501.339 275.664 -501.453 275.664 Q -501.567 275.664 -501.863 275.664 Q -502.158 275.664 -502.536 275.664 Q -502.914 275.664 -505.295 275.664 Q -507.676 275.664 -509.213 275.664 Q -510.750 275.664 -510.750 275.664 Q -510.750 282.617 -510.750 287.706 Q -510.750 292.794 -510.750 295.666 Q -510.750 298.537 -510.750 299.749 Q -510.750 300.960 -510.750 301.825 Q -510.750 302.690 -510.750 302.714 Q -510.750 302.738 -510.750 303.553 Q -510.750 304.368 -510.750 305.148 Q -510.750 305.929 -510.750 306.437 Q -510.750 306.945 -510.750 307.342 Q -510.750 307.738 -510.750 308.202 Q -510.750 308.665 -510.750 308.611 Q -510.750 308.557 -510.750 308.672 Q -510.750 308.787 -510.750 309.049 Q -510.750 309.311 -510.750 309.313 Q -510.750 309.316 -510.750 309.576 Q -510.750 309.836 -510.750 309.991 Q -510.750 310.145 -510.750 310.353 Q -510.750 310.561 -510.750 310.787 Q -510.750 311.013 -510.750 310.974 Q -510.750 310.935 -510.750 311.081 Q -510.750 311.228 -510.750 311.235 Q -510.750 311.243 -510.750 314.197 Q -510.750 317.151 -510.750 319.171 Q -510.750 321.191 -510.750 321.979 Q -510.750 322.767 -510.750 322.893 Q -510.750 323.019 -510.750 322.973 Q -510.750 322.928 -510.750 323.111 Q -510.750 323.295 -510.750 323.079 Q -510.750 322.863 -510.750 323.438 Q -510.750 324.012 -510.750 325.517 "></path>
    <path id="STROKE_87f5ccd7-85f9-47f4-b66e-726383a15630" opacity="1.000" fill="#f45e58" stroke="#f45e58" stroke-width="0.500" stroke-opacity="1.000" stroke-linecap="round" stroke-linejoin="round" d="M -438.318 324.499 Q -438.554 324.499 -433.707 324.499 Q -428.860 324.499 -426.135 324.499 Q -423.410 324.499 -422.227 324.499 Q -421.044 324.499 -420.486 324.499 Q -419.927 324.499 -419.932 324.499 Q -419.936 324.499 -419.641 324.499 Q -419.345 324.499 -419.072 324.499 Q -418.798 324.499 -418.308 324.499 Q -417.818 324.499 -417.026 324.499 Q -416.235 324.499 -415.738 324.499 Q -415.241 324.499 -414.807 324.499 Q -414.374 324.499 -414.455 324.499 Q -414.536 324.499 -414.378 324.499 Q -414.220 324.499 -414.487 324.499 Q -414.754 324.499 -413.885 324.499 Q -413.016 324.499 -413.016 324.499 Q -413.016 317.902 -413.016 314.034 Q -413.016 310.166 -413.016 308.429 Q -413.016 306.691 -413.016 306.111 Q -413.016 305.531 -413.016 305.023 Q -413.016 304.515 -413.016 304.156 Q -413.016 303.798 -413.016 303.815 Q -413.016 303.833 -413.016 303.635 Q -413.016 303.438 -413.016 302.736 Q -413.016 302.034 -413.016 301.667 Q -413.016 301.300 -413.016 301.061 Q -413.016 300.822 -413.016 300.608 Q -413.016 300.393 -413.016 300.257 Q -413.016 300.121 -413.016 298.510 Q -413.016 296.899 -413.016 295.880 Q -413.016 294.860 -413.016 294.405 Q -413.016 293.950 -413.016 293.620 Q -413.016 293.290 -413.016 293.164 Q -413.016 293.037 -413.016 293.227 Q -413.016 293.418 -413.016 292.392 Q -413.016 291.365 -413.016 288.739 Q -413.016 286.113 -413.016 284.669 Q -413.016 283.225 -413.016 282.787 Q -413.016 282.348 -413.016 281.691 Q -413.016 281.034 -413.016 280.640 Q -413.016 280.245 -413.016 279.799 Q -413.016 279.354 -413.016 279.312 Q -413.016 279.271 -413.016 279.303 Q -413.016 279.334 -413.016 279.131 Q -413.016 278.927 -413.016 277.295 Q -413.016 275.664 -413.016 275.664 Q -419.452 275.664 -423.483 275.664 Q -427.514 275.664 -430.394 275.664 Q -433.273 275.664 -435.903 275.664 Q -438.532 275.664 -439.594 275.664 Q -440.656 275.664 -441.652 275.664 Q -442.647 275.664 -443.428 275.664 Q -444.209 275.664 -444.700 275.664 Q -445.191 275.664 -445.627 275.664 Q -446.062 275.664 -446.040 275.664 Q -446.018 275.664 -446.069 275.664 Q -446.120 275.664 -446.443 275.664 Q -446.766 275.664 -446.778 275.664 Q -446.790 275.664 -446.904 275.664 Q -447.017 275.664 -447.197 275.664 Q -447.376 275.664 -447.949 275.664 Q -448.521 275.664 -449.462 275.664 Q -450.403 275.664 -451.035 275.664 Q -451.667 275.664 -452.003 275.664 Q -452.340 275.664 -452.454 275.664 Q -452.568 275.664 -452.863 275.664 Q -453.158 275.664 -453.536 275.664 Q -453.914 275.664 -456.296 275.664 Q -458.677 275.664 -460.214 275.664 Q -461.751 275.664 -461.751 275.664 Q -461.751 282.617 -461.751 287.706 Q -461.751 292.794 -461.751 295.666 Q -461.751 298.537 -461.751 299.749 Q -461.751 300.960 -461.751 301.825 Q -461.751 302.690 -461.751 302.714 Q -461.751 302.738 -461.751 303.553 Q -461.751 304.368 -461.751 305.148 Q -461.751 305.929 -461.751 306.437 Q -461.751 306.945 -461.751 307.342 Q -461.751 307.738 -461.751 308.202 Q -461.751 308.665 -461.751 308.611 Q -461.751 308.557 -461.751 308.672 Q -461.751 308.787 -461.751 309.049 Q -461.751 309.311 -461.751 309.313 Q -461.751 309.316 -461.751 309.576 Q -461.751 309.836 -461.751 309.991 Q -461.751 310.145 -461.751 310.353 Q -461.751 310.561 -461.751 310.787 Q -461.751 311.013 -461.751 310.974 Q -461.751 310.935 -461.751 311.081 Q -461.751 311.228 -461.751 311.235 Q -461.751 311.243 -461.751 314.197 Q -461.751 317.151 -461.751 319.171 Q -461.751 321.191 -461.751 321.979 Q -461.751 322.767 -461.751 322.893 Q -461.751 323.019 -461.751 322.973 Q -461.751 322.928 -461.751 323.111 Q -461.751 323.295 -461.751 323.079 Q -461.751 322.863 -461.751 323.438 Q -461.751 324.012 -461.751 325.517 "></path>
    <path id="STROKE_42bbe548-e9fd-44c9-a4bf-8847f66aa1c6" opacity="1.000" fill="#f45e58" stroke="#f45e58" stroke-width="0.500" stroke-opacity="1.000" stroke-linecap="round" stroke-linejoin="round" d="M -389.390 275.738 Q -389.626 275.738 -384.779 275.738 Q -379.932 275.738 -377.207 275.738 Q -374.482 275.738 -373.299 275.738 Q -372.116 275.738 -371.558 275.738 Q -370.999 275.738 -371.004 275.738 Q -371.008 275.738 -370.713 275.738 Q -370.418 275.738 -370.144 275.738 Q -369.870 275.738 -369.380 275.738 Q -368.890 275.738 -368.098 275.738 Q -367.307 275.738 -366.810 275.738 Q -366.313 275.738 -365.880 275.738 Q -365.446 275.738 -365.527 275.738 Q -365.608 275.738 -365.450 275.738 Q -365.292 275.738 -365.559 275.738 Q -365.826 275.738 -364.957 275.738 Q -364.088 275.738 -364.088 275.738 Q -364.088 269.140 -364.088 265.272 Q -364.088 261.404 -364.088 259.667 Q -364.088 257.930 -364.088 257.350 Q -364.088 256.770 -364.088 256.262 Q -364.088 255.753 -364.088 255.395 Q -364.088 255.036 -364.088 255.054 Q -364.088 255.071 -364.088 254.874 Q -364.088 254.676 -364.088 253.975 Q -364.088 253.273 -364.088 252.906 Q -364.088 252.539 -364.088 252.300 Q -364.088 252.061 -364.088 251.846 Q -364.088 251.631 -364.088 251.495 Q -364.088 251.359 -364.088 249.748 Q -364.088 248.137 -364.088 247.118 Q -364.088 246.099 -364.088 245.644 Q -364.088 245.188 -364.088 244.859 Q -364.088 244.529 -364.088 244.402 Q -364.088 244.275 -364.088 244.466 Q -364.088 244.656 -364.088 243.630 Q -364.088 242.604 -364.088 239.978 Q -364.088 237.351 -364.088 235.908 Q -364.088 234.464 -364.088 234.025 Q -364.088 233.586 -364.088 232.930 Q -364.088 232.273 -364.088 231.878 Q -364.088 231.484 -364.088 231.038 Q -364.088 230.592 -364.088 230.551 Q -364.088 230.509 -364.088 230.541 Q -364.088 230.573 -364.088 230.369 Q -364.088 230.165 -364.088 228.534 Q -364.088 226.903 -364.088 226.903 Q -370.524 226.903 -374.555 226.903 Q -378.586 226.903 -381.466 226.903 Q -384.346 226.903 -386.975 226.903 Q -389.604 226.903 -390.666 226.903 Q -391.728 226.903 -392.724 226.903 Q -393.719 226.903 -394.500 226.903 Q -395.281 226.903 -395.772 226.903 Q -396.264 226.903 -396.699 226.903 Q -397.134 226.903 -397.112 226.903 Q -397.090 226.903 -397.141 226.903 Q -397.192 226.903 -397.515 226.903 Q -397.838 226.903 -397.850 226.903 Q -397.862 226.903 -397.976 226.903 Q -398.090 226.903 -398.269 226.903 Q -398.449 226.903 -399.021 226.903 Q -399.593 226.903 -400.534 226.903 Q -401.475 226.903 -402.107 226.903 Q -402.739 226.903 -403.076 226.903 Q -403.412 226.903 -403.526 226.903 Q -403.640 226.903 -403.935 226.903 Q -404.230 226.903 -404.609 226.903 Q -404.987 226.903 -407.368 226.903 Q -409.749 226.903 -411.286 226.903 Q -412.823 226.903 -412.823 226.903 Q -412.823 233.856 -412.823 238.944 Q -412.823 244.033 -412.823 246.904 Q -412.823 249.776 -412.823 250.987 Q -412.823 252.199 -412.823 253.064 Q -412.823 253.929 -412.823 253.952 Q -412.823 253.976 -412.823 254.792 Q -412.823 255.607 -412.823 256.387 Q -412.823 257.167 -412.823 257.676 Q -412.823 258.184 -412.823 258.580 Q -412.823 258.977 -412.823 259.440 Q -412.823 259.904 -412.823 259.850 Q -412.823 259.796 -412.823 259.911 Q -412.823 260.025 -412.823 260.287 Q -412.823 260.549 -412.823 260.552 Q -412.823 260.555 -412.823 260.815 Q -412.823 261.075 -412.823 261.229 Q -412.823 261.384 -412.823 261.592 Q -412.823 261.799 -412.823 262.025 Q -412.823 262.251 -412.823 262.212 Q -412.823 262.174 -412.823 262.320 Q -412.823 262.466 -412.823 262.474 Q -412.823 262.482 -412.823 265.435 Q -412.823 268.389 -412.823 270.409 Q -412.823 272.429 -412.823 273.217 Q -412.823 274.005 -412.823 274.131 Q -412.823 274.257 -412.823 274.212 Q -412.823 274.166 -412.823 274.350 Q -412.823 274.534 -412.823 274.318 Q -412.823 274.102 -412.823 274.676 Q -412.823 275.251 -412.823 276.756 "></path>
  </g>
  <g id="Capa_Copiar_2" opacity="1.000">
    <path id="STROKE_7eba8848-fefa-4e8d-b172-bf7213f67fad" opacity="0.890" fill="none" stroke="#50514f" stroke-width="5.800" stroke-opacity="1.000" stroke-linecap="round" stroke-linejoin="round" d="M -510.750 505.678 Q -510.686 505.678 -498.619 505.678 Q -486.552 505.678 -471.435 505.678 Q -456.317 505.678 -449.152 505.678 Q -441.986 505.678 -438.642 505.678 Q -435.299 505.678 -433.953 505.678 Q -432.608 505.678 -432.443 505.678 Q -432.278 505.678 -431.569 505.678 Q -430.859 505.678 -430.310 505.678 Q -429.760 505.678 -429.337 505.678 Q -428.914 505.678 -428.589 505.678 Q -428.263 505.678 -428.227 505.678 Q -428.190 505.678 -428.328 505.678 Q -428.466 505.678 -427.323 505.678 Q -426.179 505.678 -424.620 505.678 Q -423.061 505.678 -421.909 505.678 Q -420.757 505.678 -417.425 505.678 Q -414.092 505.678 -412.394 505.678 Q -410.696 505.678 -409.240 505.678 Q -407.784 505.678 -407.168 505.678 Q -406.553 505.678 -406.061 505.678 Q -405.569 505.678 -405.030 505.678 Q -404.490 505.678 -404.044 505.678 Q -403.598 505.678 -403.344 505.678 Q -403.089 505.678 -402.680 505.678 Q -402.272 505.678 -402.492 505.678 Q -402.711 505.678 -401.494 505.678 Q -400.277 505.678 -395.285 505.678 Q -390.293 505.678 -387.583 505.678 Q -384.873 505.678 -383.845 505.678 Q -382.817 505.678 -381.318 505.678 Q -379.819 505.678 -379.095 505.678 Q -378.370 505.678 -377.815 505.678 Q -377.259 505.678 -376.942 505.678 Q -376.625 505.678 -376.075 505.678 Q -375.525 505.678 -375.328 505.678 Q -375.131 505.678 -373.604 505.678 Q -372.077 505.678 -370.977 505.678 Q -369.878 505.678 -369.729 505.678 Q -369.580 505.678 -368.223 505.678 Q -366.866 505.678 -365.091 505.678 "></path>
    <path id="STROKE_5806adb9-ec8e-4b54-8bce-8d7e2065eaeb" opacity="0.890" fill="none" stroke="#50514f" stroke-width="6.189" stroke-opacity="1.000" stroke-linecap="round" stroke-linejoin="round" d="M -365.091 505.678 Q -365.091 502.198 -365.091 494.740 Q -365.091 487.281 -365.091 475.691 Q -365.091 464.100 -365.091 458.357 Q -365.091 452.614 -365.091 450.470 Q -365.091 448.326 -365.091 447.245 Q -365.091 446.164 -365.091 446.068 Q -365.091 445.972 -365.091 446.005 Q -365.091 446.039 -365.091 445.857 Q -365.091 445.675 -365.091 444.602 Q -365.091 443.528 -365.091 443.744 Q -365.091 443.639 -365.091 443.192 Q -365.091 442.744 -365.091 442.273 Q -365.091 441.803 -365.091 441.376 Q -365.091 440.950 -365.091 440.972 Q -365.091 440.993 -365.091 440.892 Q -365.091 440.791 -365.091 440.551 Q -365.091 440.310 -365.091 439.793 Q -365.091 439.275 -365.091 438.890 Q -365.091 438.505 -365.091 437.932 Q -365.091 437.359 -365.091 435.841 Q -365.091 434.322 -365.091 432.374 Q -365.091 430.426 -365.091 427.562 Q -365.091 424.698 -365.091 421.622 Q -365.091 418.545 -365.091 417.446 Q -365.091 416.347 -365.091 415.511 Q -365.091 414.674 -365.091 414.348 Q -365.091 414.021 -365.091 412.403 Q -365.091 410.786 -365.091 409.744 Q -365.091 408.702 -365.091 408.336 Q -365.091 407.969 -365.091 407.507 Q -365.091 407.044 -365.091 407.066 Q -365.091 407.088 -365.091 406.999 "></path>
    <path id="STROKE_52901fa6-a102-42c2-96b6-81d2242c23ac" opacity="0.890" fill="none" stroke="#50514f" stroke-width="6.100" stroke-opacity="1.000" stroke-linecap="round" stroke-linejoin="round" d="M -507.218 407.380 Q -506.692 407.380 -498.016 407.380 Q -489.340 407.380 -484.155 407.380 Q -478.969 407.380 -476.387 407.380 Q -473.804 407.380 -471.968 407.380 Q -470.133 407.380 -466.012 407.380 Q -461.892 407.380 -448.575 407.380 Q -435.259 407.380 -426.752 407.380 Q -418.245 407.380 -414.397 407.380 Q -410.550 407.380 -408.318 407.380 Q -406.087 407.380 -395.379 407.380 Q -384.671 407.380 -378.586 407.380 Q -372.501 407.380 -369.648 407.380 Q -366.794 407.380 -364.486 407.380 "></path>
    <path id="STROKE_7eeb6d50-2f84-43e2-a8d0-1c1eb0e9dfc6" opacity="0.890" fill="none" stroke="#50514f" stroke-width="6.263" stroke-opacity="1.000" stroke-linecap="round" stroke-linejoin="round" d="M -364.485 407.380 L -365.091 407.380 "></path>
    <path id="STROKE_ac77d7e8-2ef0-4aa5-9f0e-727fa25b0329" opacity="0.890" fill="none" stroke="#50514f" stroke-width="5.874" stroke-opacity="1.000" stroke-linecap="round" stroke-linejoin="round" d="M -510.750 505.678 Q -510.750 501.751 -510.750 496.514 Q -510.750 491.276 -510.750 467.782 Q -510.750 444.288 -510.750 432.395 Q -510.750 420.502 -510.750 415.617 Q -510.750 410.731 -510.750 408.353 Q -510.750 405.974 -510.750 405.636 "></path>
    <path id="STROKE_45770181-456e-4ee3-8f29-c32aed04efe3" opacity="0.890" fill="none" stroke="#50514f" stroke-width="5.854" stroke-opacity="1.000" stroke-linecap="round" stroke-linejoin="round" d="M -510.750 454.282 L -508.940 454.282 Q -507.388 454.282 -503.907 454.282 Q -500.427 454.282 -488.242 454.282 Q -476.058 454.282 -468.985 454.282 Q -461.911 454.282 -459.104 454.282 Q -456.296 454.282 -447.070 454.282 Q -437.844 454.282 -428.367 454.282 Q -418.889 454.282 -413.224 454.282 Q -407.558 454.282 -405.002 454.282 Q -402.446 454.282 -399.972 454.282 Q -397.497 454.282 -396.242 454.282 Q -394.986 454.282 -392.286 454.282 Q -389.587 454.282 -386.798 454.282 Q -384.009 454.282 -380.349 454.282 Q -376.689 454.282 -376.206 454.282 Q -376.589 454.665 -377.014 455.091 "></path>
    <path id="STROKE_65d31704-8fec-4924-aa63-d2e7193d5ebc" opacity="0.890" fill="none" stroke="#50514f" stroke-width="5.738" stroke-opacity="1.000" stroke-linecap="round" stroke-linejoin="round" d="M -377.014 455.091 Q -376.560 455.091 -363.957 455.091 "></path>
    <path id="STROKE_d460be5f-2950-4111-9ec6-556720eb54e3" opacity="0.890" fill="none" stroke="#50514f" stroke-width="6.197" stroke-opacity="1.000" stroke-linecap="round" stroke-linejoin="round" d="M -461.751 505.678 L -461.751 499.098 Q -461.751 498.350 -461.751 498.399 Q -461.751 497.563 -461.751 497.528 Q -461.751 497.493 -461.751 497.535 Q -461.751 497.576 -461.751 497.153 Q -461.751 496.729 -461.751 481.633 Q -461.751 466.537 -461.751 458.555 Q -461.751 450.574 -461.751 446.747 Q -461.751 442.919 -461.751 440.300 Q -461.751 437.681 -461.751 430.602 Q -461.751 423.524 -461.751 419.909 Q -461.751 416.295 -461.751 414.824 Q -461.751 413.353 -461.751 412.668 Q -461.751 411.983 -461.751 410.051 Q -461.751 408.120 -461.751 408.182 Q -461.833 408.100 -462.553 407.380 "></path>
    <path id="STROKE_dbe6d912-1089-459d-9fda-c30149bb3a24" opacity="0.890" fill="none" stroke="#50514f" stroke-width="6.035" stroke-opacity="1.000" stroke-linecap="round" stroke-linejoin="round" d="M -412.589 505.678 L -412.589 499.314 Q -412.589 499.822 -412.589 487.580 Q -412.589 475.339 -412.589 468.741 Q -412.589 462.144 -412.589 457.849 Q -412.589 453.554 -412.589 451.624 Q -412.589 449.693 -412.589 445.646 Q -412.589 441.599 -412.589 438.896 Q -412.589 436.192 -412.589 435.037 Q -412.589 433.882 -412.589 429.849 Q -412.589 425.816 -412.589 423.423 Q -412.589 421.031 -412.589 419.518 Q -412.589 418.004 -412.589 416.737 Q -412.589 415.470 -412.589 414.049 Q -412.589 412.628 -412.589 411.680 Q -412.589 410.733 -412.589 410.472 Q -412.589 410.212 -412.589 409.649 Q -412.589 409.086 -412.589 409.138 Q -412.751 409.138 -413.340 409.138 "></path>
    <path id="STROKE_1d352102-222b-4141-83c0-3e3ae8b8909c" opacity="0.890" fill="none" stroke="#50514f" stroke-width="5.250" stroke-opacity="1.000" stroke-linecap="round" stroke-linejoin="round" d="M -434.035 347.217 Q -434.035 348.213 -434.035 348.071 Q -434.035 349.085 -434.035 348.873 Q -434.035 349.950 -434.035 349.829 Q -434.035 350.473 -434.035 351.493 Q -434.035 352.512 -434.035 355.824 Q -434.035 359.135 -434.035 361.412 Q -434.035 363.689 -434.035 365.719 Q -434.035 367.750 -434.035 368.772 Q -434.035 369.795 -434.035 370.026 Q -434.035 370.257 -434.035 370.398 Q -434.035 370.538 -434.035 370.987 Q -434.035 371.436 -434.035 371.324 Q -434.035 371.213 -434.035 371.413 Q -434.035 371.613 -434.035 371.069 Q -434.035 370.524 -434.035 375.830 "></path>
    <path id="STROKE_5c1e6bd2-4e11-4d2e-9fa9-fa6028de99f9" opacity="0.890" fill="none" stroke="#50514f" stroke-width="5.055" stroke-opacity="1.000" stroke-linecap="round" stroke-linejoin="round" d="M -434.035 375.830 L -434.035 375.830 "></path>
    <path id="STROKE_958365e7-3219-44e8-b50f-210c9e52e3c3" opacity="0.890" fill="none" stroke="#50514f" stroke-width="4.682" stroke-opacity="1.000" stroke-linecap="round" stroke-linejoin="round" d="M -434.035 375.830 L -434.035 375.830 "></path>
    <path id="STROKE_4c875531-bbd2-4ac8-9c16-e4728412f9e7" opacity="0.890" fill="none" stroke="#50514f" stroke-width="4.605" stroke-opacity="1.000" stroke-linecap="round" stroke-linejoin="round" d="M -434.035 375.830 Q -433.645 375.440 -431.518 373.313 Q -429.391 371.186 -428.125 369.920 Q -426.859 368.654 -426.271 368.066 Q -425.683 367.478 -425.267 367.062 Q -424.850 366.645 -424.801 366.596 Q -424.751 366.546 -424.765 366.560 Q -424.778 366.573 -424.748 366.543 Q -424.717 366.512 -423.978 365.773 "></path>
    <path id="STROKE_960a5e52-7cc9-4c3e-a953-fa2bd212f171" opacity="0.890" fill="none" stroke="#50514f" stroke-width="4.605" stroke-opacity="1.000" stroke-linecap="round" stroke-linejoin="round" d="M -444.091 365.773 Q -443.702 366.163 -441.575 368.290 Q -439.447 370.417 -438.182 371.683 Q -436.916 372.948 -436.328 373.537 Q -435.740 374.125 -435.323 374.541 Q -434.907 374.958 -434.857 375.007 Q -434.808 375.057 -434.821 375.043 Q -434.835 375.030 -434.804 375.060 Q -434.774 375.090 -434.035 375.830 "></path>
    <path id="STROKE_ac77d3fd-cb85-4bbe-aff5-10be6c0749ad" opacity="0.890" fill="none" stroke="#50514f" stroke-width="5.800" stroke-opacity="1.000" stroke-linecap="round" stroke-linejoin="round" d="M -510.750 325.517 Q -510.686 325.517 -498.619 325.517 Q -486.552 325.517 -471.435 325.517 Q -456.317 325.517 -449.152 325.517 Q -441.986 325.517 -438.642 325.517 Q -435.299 325.517 -433.953 325.517 Q -432.608 325.517 -432.443 325.517 Q -432.278 325.517 -431.569 325.517 Q -430.859 325.517 -430.310 325.517 Q -429.760 325.517 -429.337 325.517 Q -428.914 325.517 -428.589 325.517 Q -428.263 325.517 -428.227 325.517 Q -428.190 325.517 -428.328 325.517 Q -428.466 325.517 -427.323 325.517 Q -426.179 325.517 -424.620 325.517 Q -423.061 325.517 -421.909 325.517 Q -420.757 325.517 -417.425 325.517 Q -414.092 325.517 -412.394 325.517 Q -410.696 325.517 -409.240 325.517 Q -407.784 325.517 -407.168 325.517 Q -406.553 325.517 -406.061 325.517 Q -405.569 325.517 -405.030 325.517 Q -404.490 325.517 -404.044 325.517 Q -403.598 325.517 -403.344 325.517 Q -403.089 325.517 -402.680 325.517 Q -402.272 325.517 -402.492 325.517 Q -402.711 325.517 -401.494 325.517 Q -400.277 325.517 -395.285 325.517 Q -390.293 325.517 -387.583 325.517 Q -384.873 325.517 -383.845 325.517 Q -382.817 325.517 -381.318 325.517 Q -379.819 325.517 -379.095 325.517 Q -378.370 325.517 -377.815 325.517 Q -377.259 325.517 -376.942 325.517 Q -376.625 325.517 -376.075 325.517 Q -375.525 325.517 -375.328 325.517 Q -375.131 325.517 -373.604 325.517 Q -372.077 325.517 -370.977 325.517 Q -369.878 325.517 -369.729 325.517 Q -369.580 325.517 -368.223 325.517 Q -366.866 325.517 -365.091 325.517 "></path>
    <path id="STROKE_4f9fd6a9-9b4e-4b55-9e7b-56b7dbba01b0" opacity="0.890" fill="none" stroke="#50514f" stroke-width="6.189" stroke-opacity="1.000" stroke-linecap="round" stroke-linejoin="round" d="M -365.091 325.517 Q -365.091 322.038 -365.091 314.579 Q -365.091 307.121 -365.091 295.530 Q -365.091 283.939 -365.091 278.197 Q -365.091 272.454 -365.091 270.310 Q -365.091 268.166 -365.091 267.085 Q -365.091 266.004 -365.091 265.908 Q -365.091 265.811 -365.091 265.845 Q -365.091 265.879 -365.091 265.697 Q -365.091 265.515 -365.091 264.441 Q -365.091 263.368 -365.091 263.584 Q -365.091 263.478 -365.091 263.031 Q -365.091 262.584 -365.091 262.113 Q -365.091 261.642 -365.091 261.216 Q -365.091 260.790 -365.091 260.811 Q -365.091 260.833 -365.091 260.732 Q -365.091 260.631 -365.091 260.390 Q -365.091 260.150 -365.091 259.632 Q -365.091 259.115 -365.091 258.729 Q -365.091 258.344 -365.091 257.772 Q -365.091 257.199 -365.091 255.680 Q -365.091 254.161 -365.091 252.213 Q -365.091 250.265 -365.091 247.401 Q -365.091 244.537 -365.091 241.461 Q -365.091 238.385 -365.091 237.286 Q -365.091 236.187 -365.091 235.350 Q -365.091 234.514 -365.091 234.187 Q -365.091 233.861 -365.091 232.243 Q -365.091 230.625 -365.091 229.583 Q -365.091 228.541 -365.091 228.175 Q -365.091 227.809 -365.091 227.346 Q -365.091 226.883 -365.091 226.905 Q -365.091 226.927 -365.091 226.839 "></path>
    <path id="STROKE_f0c34548-286f-47cf-b066-c500392587be" opacity="0.890" fill="none" stroke="#50514f" stroke-width="6.100" stroke-opacity="1.000" stroke-linecap="round" stroke-linejoin="round" d="M -507.218 227.219 Q -506.692 227.219 -498.016 227.219 Q -489.340 227.219 -484.155 227.219 Q -478.969 227.219 -476.387 227.219 Q -473.804 227.219 -471.968 227.219 Q -470.133 227.219 -466.012 227.219 Q -461.892 227.219 -448.576 227.219 Q -435.259 227.219 -426.752 227.219 Q -418.245 227.219 -414.397 227.219 Q -410.550 227.219 -408.318 227.219 Q -406.087 227.219 -395.379 227.219 Q -384.671 227.219 -378.586 227.219 Q -372.501 227.219 -369.648 227.219 Q -366.794 227.219 -364.486 227.219 "></path>
    <path id="STROKE_0b655739-854f-471a-9f8f-0ed1ee8da0e1" opacity="0.890" fill="none" stroke="#50514f" stroke-width="5.874" stroke-opacity="1.000" stroke-linecap="round" stroke-linejoin="round" d="M -510.750 325.517 Q -510.750 321.591 -510.750 316.353 Q -510.750 311.116 -510.750 287.621 Q -510.750 264.127 -510.750 252.234 Q -510.750 240.342 -510.750 235.456 Q -510.750 230.571 -510.750 228.192 Q -510.750 225.814 -510.750 225.476 "></path>
    <path id="STROKE_40d4bfce-04ec-49f0-8647-278a1500a987" opacity="0.890" fill="none" stroke="#50514f" stroke-width="5.854" stroke-opacity="1.000" stroke-linecap="round" stroke-linejoin="round" d="M -510.750 274.122 L -508.940 274.122 Q -507.388 274.122 -503.907 274.122 Q -500.427 274.122 -488.242 274.122 Q -476.058 274.122 -468.985 274.122 Q -461.911 274.122 -459.104 274.122 Q -456.296 274.122 -447.070 274.122 Q -437.844 274.122 -428.367 274.122 Q -418.889 274.122 -413.224 274.122 Q -407.558 274.122 -405.002 274.122 Q -402.447 274.122 -399.972 274.122 Q -397.497 274.122 -396.242 274.122 Q -394.986 274.122 -392.287 274.122 Q -389.587 274.122 -386.798 274.122 Q -384.009 274.122 -380.349 274.122 Q -376.689 274.122 -376.206 274.122 Q -376.589 274.505 -377.014 274.930 "></path>
    <path id="STROKE_c15ab822-1190-42be-8c38-baf18b06dbf7" opacity="0.890" fill="none" stroke="#50514f" stroke-width="5.738" stroke-opacity="1.000" stroke-linecap="round" stroke-linejoin="round" d="M -377.014 274.930 Q -376.560 274.930 -363.957 274.930 "></path>
    <path id="STROKE_e63f7c5e-09a1-4abc-903b-667fac66dbc3" opacity="0.890" fill="none" stroke="#50514f" stroke-width="6.197" stroke-opacity="1.000" stroke-linecap="round" stroke-linejoin="round" d="M -461.751 325.517 L -461.751 318.937 Q -461.751 318.189 -461.751 318.238 Q -461.751 317.402 -461.751 317.368 Q -461.751 317.333 -461.751 317.374 Q -461.751 317.416 -461.751 316.992 Q -461.751 316.569 -461.751 301.473 Q -461.751 286.376 -461.751 278.395 Q -461.751 270.413 -461.751 266.586 Q -461.751 262.759 -461.751 260.140 Q -461.751 257.521 -461.751 250.442 Q -461.751 243.363 -461.751 239.749 Q -461.751 236.135 -461.751 234.664 Q -461.751 233.193 -461.751 232.507 Q -461.751 231.822 -461.751 229.891 Q -461.751 227.960 -461.751 228.021 Q -461.833 227.939 -462.553 227.219 "></path>
    <path id="STROKE_d92a1c88-fae0-4a5e-b334-44654c6e4593" opacity="0.890" fill="none" stroke="#50514f" stroke-width="6.035" stroke-opacity="1.000" stroke-linecap="round" stroke-linejoin="round" d="M -412.589 325.517 L -412.589 319.153 Q -412.589 319.662 -412.589 307.420 Q -412.589 295.178 -412.589 288.581 Q -412.589 281.984 -412.589 277.689 Q -412.589 273.394 -412.589 271.463 Q -412.589 269.533 -412.589 265.486 Q -412.589 261.439 -412.589 258.735 Q -412.589 256.031 -412.589 254.876 Q -412.589 253.721 -412.589 249.688 Q -412.589 245.655 -412.589 243.263 Q -412.589 240.870 -412.589 239.357 Q -412.589 237.844 -412.589 236.577 Q -412.589 235.309 -412.589 233.888 Q -412.589 232.467 -412.589 231.520 Q -412.589 230.572 -412.589 230.312 Q -412.589 230.051 -412.589 229.489 Q -412.589 228.926 -412.589 228.977 Q -412.751 228.977 -413.340 228.977 "></path>
    <path id="STROKE_8c70aa3c-f47f-47c5-b02c-9a53b366f09d" opacity="1.000" fill="none" stroke="#f45e58" stroke-width="2.500" stroke-opacity="1.000" stroke-linecap="round" stroke-linejoin="round" stroke-dasharray="0.250,3.750" d="M -495.162 431.008 L -495.081 424.354 Q -495.035 423.579 -494.971 417.308 Q -494.907 411.036 -494.911 406.817 Q -494.916 402.598 -494.892 401.546 Q -494.868 400.495 -494.866 396.029 Q -494.863 391.562 -494.861 388.211 Q -494.859 384.859 -494.849 380.759 Q -494.838 376.659 -494.826 375.205 Q -494.814 373.750 -494.772 369.322 Q -494.731 364.894 -494.726 362.825 Q -494.721 360.755 -494.743 357.233 Q -494.764 353.712 -494.805 349.268 Q -494.847 344.825 -494.938 339.154 Q -495.029 333.483 -495.093 330.183 Q -495.156 326.883 -495.244 317.844 Q -495.241 317.637 -495.323 309.324 "></path>
    <path id="STROKE_6f003a67-7f21-4842-a0fb-b4ee012c63e5" opacity="1.000" fill="none" stroke="#f45e58" stroke-width="2.500" stroke-opacity="1.000" stroke-linecap="round" stroke-linejoin="round" stroke-dasharray="0.250,3.750" d="M -475.979 470.672 Q -475.995 467.842 -475.974 466.752 Q -475.954 465.663 -475.945 464.502 Q -475.937 463.341 -475.942 462.119 Q -475.947 460.897 -475.945 460.133 Q -475.944 459.369 -476.022 452.020 Q -476.101 444.670 -476.156 439.080 Q -476.212 433.490 -476.236 430.120 Q -476.259 426.751 -476.388 412.714 Q -476.516 398.677 -476.543 395.955 Q -476.570 393.232 -476.616 390.065 Q -476.662 386.899 -476.707 384.267 Q -476.752 381.634 -476.842 374.639 Q -476.933 367.643 -477.081 355.311 Q -477.229 342.979 -477.278 338.302 Q -477.327 333.625 -477.366 330.785 Q -477.406 327.946 -477.474 323.283 Q -477.542 318.619 -477.618 312.783 Q -477.695 306.947 -477.746 303.357 Q -477.796 299.767 -477.891 293.765 Q -477.986 287.762 -478.045 282.879 Q -478.104 277.996 -478.166 271.580 Q -478.229 265.165 -478.258 262.345 Q -478.287 259.525 -478.295 257.319 Q -478.303 255.112 -478.387 248.959 "></path>
  </g>
  <g id="Nueva_capa_1" opacity="1.000">
    <path id="STROKE_6b8315f0-f079-4729-8786-5ad3d70a278e" opacity="1.000" fill="#f45e58" stroke="#f45e58" stroke-width="0.500" stroke-opacity="1.000" stroke-linecap="round" stroke-linejoin="round" d="M -482.873 637.843 Q -483.109 637.843 -478.262 637.843 Q -473.415 637.843 -470.690 637.843 Q -467.965 637.843 -466.782 637.843 Q -465.599 637.843 -465.041 637.843 Q -464.482 637.843 -464.487 637.843 Q -464.491 637.843 -464.196 637.843 Q -463.900 637.843 -463.627 637.843 Q -463.353 637.843 -462.863 637.843 Q -462.373 637.843 -461.581 637.843 Q -460.790 637.843 -460.293 637.843 Q -459.796 637.843 -459.363 637.843 Q -458.929 637.843 -459.010 637.843 Q -459.091 637.843 -458.933 637.843 Q -458.775 637.843 -459.042 637.843 Q -459.309 637.843 -458.440 637.843 Q -457.571 637.843 -457.571 637.843 Q -457.571 631.245 -457.571 627.377 Q -457.571 623.510 -457.571 621.772 Q -457.571 620.035 -457.571 619.455 Q -457.571 618.875 -457.571 618.367 Q -457.571 617.859 -457.571 617.500 Q -457.571 617.141 -457.571 617.159 Q -457.571 617.177 -457.571 616.979 Q -457.571 616.782 -457.571 616.080 Q -457.571 615.378 -457.571 615.011 Q -457.571 614.644 -457.571 614.405 Q -457.571 614.166 -457.571 613.951 Q -457.571 613.737 -457.571 613.601 Q -457.571 613.465 -457.571 611.854 Q -457.571 610.243 -457.571 609.223 Q -457.571 608.204 -457.571 607.749 Q -457.571 607.294 -457.571 606.964 Q -457.571 606.634 -457.571 606.507 Q -457.571 606.381 -457.571 606.571 Q -457.571 606.761 -457.571 605.735 Q -457.571 604.709 -457.571 602.083 Q -457.571 599.456 -457.571 598.013 Q -457.571 596.569 -457.571 596.130 Q -457.571 595.692 -457.571 595.035 Q -457.571 594.378 -457.571 593.984 Q -457.571 593.589 -457.571 593.143 Q -457.571 592.698 -457.571 592.656 Q -457.571 592.615 -457.571 592.646 Q -457.571 592.678 -457.571 592.474 Q -457.571 592.271 -457.571 590.639 Q -457.571 589.008 -457.571 589.008 Q -464.007 589.008 -468.038 589.008 Q -472.069 589.008 -474.949 589.008 Q -477.828 589.008 -480.458 589.008 Q -483.087 589.008 -484.149 589.008 Q -485.211 589.008 -486.207 589.008 Q -487.202 589.008 -487.983 589.008 Q -488.764 589.008 -489.255 589.008 Q -489.747 589.008 -490.182 589.008 Q -490.617 589.008 -490.595 589.008 Q -490.573 589.008 -490.624 589.008 Q -490.675 589.008 -490.998 589.008 Q -491.321 589.008 -491.333 589.008 Q -491.345 589.008 -491.459 589.008 Q -491.572 589.008 -491.752 589.008 Q -491.932 589.008 -492.504 589.008 Q -493.076 589.008 -494.017 589.008 Q -494.958 589.008 -495.590 589.008 Q -496.222 589.008 -496.558 589.008 Q -496.895 589.008 -497.009 589.008 Q -497.123 589.008 -497.418 589.008 Q -497.713 589.008 -498.091 589.008 Q -498.469 589.008 -500.851 589.008 Q -503.232 589.008 -504.769 589.008 Q -506.306 589.008 -506.306 589.008 Q -506.306 595.961 -506.306 601.050 Q -506.306 606.138 -506.306 609.010 Q -506.306 611.881 -506.306 613.093 Q -506.306 614.304 -506.306 615.169 Q -506.306 616.034 -506.306 616.058 Q -506.306 616.081 -506.306 616.897 Q -506.306 617.712 -506.306 618.492 Q -506.306 619.273 -506.306 619.781 Q -506.306 620.289 -506.306 620.685 Q -506.306 621.082 -506.306 621.546 Q -506.306 622.009 -506.306 621.955 Q -506.306 621.901 -506.306 622.016 Q -506.306 622.130 -506.306 622.392 Q -506.306 622.654 -506.306 622.657 Q -506.306 622.660 -506.306 622.920 Q -506.306 623.180 -506.306 623.335 Q -506.306 623.489 -506.306 623.697 Q -506.306 623.904 -506.306 624.130 Q -506.306 624.357 -506.306 624.318 Q -506.306 624.279 -506.306 624.425 Q -506.306 624.571 -506.306 624.579 Q -506.306 624.587 -506.306 627.541 Q -506.306 630.495 -506.306 632.515 Q -506.306 634.535 -506.306 635.323 Q -506.306 636.110 -506.306 636.237 Q -506.306 636.363 -506.306 636.317 Q -506.306 636.271 -506.306 636.455 Q -506.306 636.639 -506.306 636.423 Q -506.306 636.207 -506.306 636.782 Q -506.306 637.356 -506.306 638.861 "></path>
    <path id="STROKE_d5ca22bd-6f21-4399-b22c-43e6f6b71065" opacity="1.000" fill="#f45e58" stroke="#f45e58" stroke-width="0.500" stroke-opacity="1.000" stroke-linecap="round" stroke-linejoin="round" d="M -433.873 641.596 Q -434.110 641.596 -429.262 641.596 Q -424.415 641.596 -421.690 641.596 Q -418.965 641.596 -417.783 641.596 Q -416.600 641.596 -416.041 641.596 Q -415.483 641.596 -415.487 641.596 Q -415.491 641.596 -415.196 641.596 Q -414.901 641.596 -414.627 641.596 Q -414.354 641.596 -413.864 641.596 Q -413.373 641.596 -412.582 641.596 Q -411.790 641.596 -411.293 641.596 Q -410.796 641.596 -410.363 641.596 Q -409.930 641.596 -410.011 641.596 Q -410.091 641.596 -409.933 641.596 Q -409.775 641.596 -410.042 641.596 Q -410.309 641.596 -409.440 641.596 Q -408.571 641.596 -408.571 641.596 Q -408.571 634.998 -408.571 631.130 Q -408.571 627.262 -408.571 625.525 Q -408.571 623.788 -408.571 623.208 Q -408.571 622.628 -408.571 622.120 Q -408.571 621.611 -408.571 621.253 Q -408.571 620.894 -408.571 620.912 Q -408.571 620.929 -408.571 620.732 Q -408.571 620.534 -408.571 619.833 Q -408.571 619.131 -408.571 618.764 Q -408.571 618.397 -408.571 618.158 Q -408.571 617.919 -408.571 617.704 Q -408.571 617.489 -408.571 617.353 Q -408.571 617.217 -408.571 615.606 Q -408.571 613.995 -408.571 612.976 Q -408.571 611.957 -408.571 611.502 Q -408.571 611.046 -408.571 610.717 Q -408.571 610.387 -408.571 610.260 Q -408.571 610.133 -408.571 610.324 Q -408.571 610.514 -408.571 609.488 Q -408.571 608.462 -408.571 605.836 Q -408.571 603.209 -408.571 601.766 Q -408.571 600.322 -408.571 599.883 Q -408.571 599.444 -408.571 598.788 Q -408.571 598.131 -408.571 597.736 Q -408.571 597.342 -408.571 596.896 Q -408.571 596.450 -408.571 596.409 Q -408.571 596.367 -408.571 596.399 Q -408.571 596.431 -408.571 596.227 Q -408.571 596.023 -408.571 594.392 Q -408.571 592.761 -408.571 592.761 Q -415.007 592.761 -419.038 592.761 Q -423.069 592.761 -425.949 592.761 Q -428.829 592.761 -431.458 592.761 Q -434.087 592.761 -435.149 592.761 Q -436.211 592.761 -437.207 592.761 Q -438.203 592.761 -438.983 592.761 Q -439.764 592.761 -440.256 592.761 Q -440.747 592.761 -441.182 592.761 Q -441.617 592.761 -441.595 592.761 Q -441.573 592.761 -441.625 592.761 Q -441.676 592.761 -441.998 592.761 Q -442.321 592.761 -442.333 592.761 Q -442.346 592.761 -442.459 592.761 Q -442.573 592.761 -442.752 592.761 Q -442.932 592.761 -443.504 592.761 Q -444.076 592.761 -445.017 592.761 Q -445.959 592.761 -446.591 592.761 Q -447.222 592.761 -447.559 592.761 Q -447.895 592.761 -448.009 592.761 Q -448.123 592.761 -448.419 592.761 Q -448.714 592.761 -449.092 592.761 Q -449.470 592.761 -451.851 592.761 Q -454.232 592.761 -455.769 592.761 Q -457.306 592.761 -457.306 592.761 Q -457.306 599.714 -457.306 604.802 Q -457.306 609.891 -457.306 612.762 Q -457.306 615.634 -457.306 616.845 Q -457.306 618.057 -457.306 618.922 Q -457.306 619.786 -457.306 619.810 Q -457.306 619.834 -457.306 620.649 Q -457.306 621.465 -457.306 622.245 Q -457.306 623.025 -457.306 623.533 Q -457.306 624.042 -457.306 624.438 Q -457.306 624.835 -457.306 625.298 Q -457.306 625.762 -457.306 625.708 Q -457.306 625.654 -457.306 625.769 Q -457.306 625.883 -457.306 626.145 Q -457.306 626.407 -457.306 626.410 Q -457.306 626.412 -457.306 626.673 Q -457.306 626.933 -457.306 627.087 Q -457.306 627.242 -457.306 627.449 Q -457.306 627.657 -457.306 627.883 Q -457.306 628.109 -457.306 628.070 Q -457.306 628.031 -457.306 628.178 Q -457.306 628.324 -457.306 628.332 Q -457.306 628.339 -457.306 631.293 Q -457.306 634.247 -457.306 636.267 Q -457.306 638.287 -457.306 639.075 Q -457.306 639.863 -457.306 639.989 Q -457.306 640.115 -457.306 640.070 Q -457.306 640.024 -457.306 640.208 Q -457.306 640.392 -457.306 640.176 Q -457.306 639.960 -457.306 640.534 Q -457.306 641.109 -457.306 642.614 "></path>
    <path id="STROKE_6f11cba3-449f-48e2-830e-485383a0f196" opacity="1.000" fill="#f45e58" stroke="#f45e58" stroke-width="0.500" stroke-opacity="1.000" stroke-linecap="round" stroke-linejoin="round" d="M -384.712 689.239 Q -384.948 689.239 -380.101 689.239 Q -375.254 689.239 -372.529 689.239 Q -369.804 689.239 -368.621 689.239 Q -367.438 689.239 -366.880 689.239 Q -366.321 689.239 -366.326 689.239 Q -366.330 689.239 -366.035 689.239 Q -365.739 689.239 -365.466 689.239 Q -365.192 689.239 -364.702 689.239 Q -364.212 689.239 -363.420 689.239 Q -362.629 689.239 -362.132 689.239 Q -361.635 689.239 -361.201 689.239 Q -360.768 689.239 -360.849 689.239 Q -360.930 689.239 -360.772 689.239 Q -360.614 689.239 -360.881 689.239 Q -361.148 689.239 -360.279 689.239 Q -359.410 689.239 -359.410 689.239 Q -359.410 682.641 -359.410 678.773 Q -359.410 674.905 -359.410 673.168 Q -359.410 671.431 -359.410 670.851 Q -359.410 670.271 -359.410 669.762 Q -359.410 669.254 -359.410 668.895 Q -359.410 668.537 -359.410 668.554 Q -359.410 668.572 -359.410 668.375 Q -359.410 668.177 -359.410 667.475 Q -359.410 666.773 -359.410 666.406 Q -359.410 666.039 -359.410 665.800 Q -359.410 665.561 -359.410 665.347 Q -359.410 665.132 -359.410 664.996 Q -359.410 664.860 -359.410 663.249 Q -359.410 661.638 -359.410 660.619 Q -359.410 659.599 -359.410 659.144 Q -359.410 658.689 -359.410 658.359 Q -359.410 658.029 -359.410 657.903 Q -359.410 657.776 -359.410 657.966 Q -359.410 658.157 -359.410 657.131 Q -359.410 656.105 -359.410 653.478 Q -359.410 650.852 -359.410 649.408 Q -359.410 647.965 -359.410 647.526 Q -359.410 647.087 -359.410 646.430 Q -359.410 645.774 -359.410 645.379 Q -359.410 644.984 -359.410 644.539 Q -359.410 644.093 -359.410 644.051 Q -359.410 644.010 -359.410 644.042 Q -359.410 644.074 -359.410 643.870 Q -359.410 643.666 -359.410 642.035 Q -359.410 640.403 -359.410 640.403 Q -365.846 640.403 -369.877 640.403 Q -373.908 640.403 -376.788 640.403 Q -379.667 640.403 -382.297 640.403 Q -384.926 640.403 -385.988 640.403 Q -387.050 640.403 -388.045 640.403 Q -389.041 640.403 -389.822 640.403 Q -390.603 640.403 -391.094 640.403 Q -391.585 640.403 -392.021 640.403 Q -392.456 640.403 -392.434 640.403 Q -392.412 640.403 -392.463 640.403 Q -392.514 640.403 -392.837 640.403 Q -393.160 640.403 -393.172 640.403 Q -393.184 640.403 -393.298 640.403 Q -393.411 640.403 -393.591 640.403 Q -393.770 640.403 -394.343 640.403 Q -394.915 640.403 -395.856 640.403 Q -396.797 640.403 -397.429 640.403 Q -398.061 640.403 -398.397 640.403 Q -398.734 640.403 -398.848 640.403 Q -398.962 640.403 -399.257 640.403 Q -399.552 640.403 -399.930 640.403 Q -400.308 640.403 -402.689 640.403 Q -405.071 640.403 -406.608 640.403 Q -408.145 640.403 -408.145 640.403 Q -408.145 647.357 -408.145 652.445 Q -408.145 657.533 -408.145 660.405 Q -408.145 663.277 -408.145 664.488 Q -408.145 665.699 -408.145 666.564 Q -408.145 667.429 -408.145 667.453 Q -408.145 667.477 -408.145 668.292 Q -408.145 669.107 -408.145 669.888 Q -408.145 670.668 -408.145 671.176 Q -408.145 671.684 -408.145 672.081 Q -408.145 672.477 -408.145 672.941 Q -408.145 673.405 -408.145 673.351 Q -408.145 673.296 -408.145 673.411 Q -408.145 673.526 -408.145 673.788 Q -408.145 674.050 -408.145 674.052 Q -408.145 674.055 -408.145 674.315 Q -408.145 674.576 -408.145 674.730 Q -408.145 674.884 -408.145 675.092 Q -408.145 675.300 -408.145 675.526 Q -408.145 675.752 -408.145 675.713 Q -408.145 675.674 -408.145 675.820 Q -408.145 675.967 -408.145 675.974 Q -408.145 675.982 -408.145 678.936 Q -408.145 681.890 -408.145 683.910 Q -408.145 685.930 -408.145 686.718 Q -408.145 687.506 -408.145 687.632 Q -408.145 687.758 -408.145 687.712 Q -408.145 687.667 -408.145 687.850 Q -408.145 688.034 -408.145 687.818 Q -408.145 687.603 -408.145 688.177 Q -408.145 688.751 -408.145 690.256 "></path>
    <path id="STROKE_7ff96218-492d-4125-9bf3-63a3d48600ad" opacity="1.000" fill="#f45e58" stroke="#f45e58" stroke-width="0.500" stroke-opacity="1.000" stroke-linecap="round" stroke-linejoin="round" d="M -482.873 689.239 Q -483.109 689.239 -478.262 689.239 Q -473.415 689.239 -470.690 689.239 Q -467.965 689.239 -466.782 689.239 Q -465.599 689.239 -465.041 689.239 Q -464.482 689.239 -464.487 689.239 Q -464.491 689.239 -464.196 689.239 Q -463.900 689.239 -463.627 689.239 Q -463.353 689.239 -462.863 689.239 Q -462.373 689.239 -461.581 689.239 Q -460.790 689.239 -460.293 689.239 Q -459.796 689.239 -459.363 689.239 Q -458.929 689.239 -459.010 689.239 Q -459.091 689.239 -458.933 689.239 Q -458.775 689.239 -459.042 689.239 Q -459.309 689.239 -458.440 689.239 Q -457.571 689.239 -457.571 689.239 Q -457.571 682.641 -457.571 678.773 Q -457.571 674.905 -457.571 673.168 Q -457.571 671.431 -457.571 670.851 Q -457.571 670.271 -457.571 669.762 Q -457.571 669.254 -457.571 668.895 Q -457.571 668.537 -457.571 668.554 Q -457.571 668.572 -457.571 668.375 Q -457.571 668.177 -457.571 667.475 Q -457.571 666.773 -457.571 666.406 Q -457.571 666.039 -457.571 665.800 Q -457.571 665.561 -457.571 665.347 Q -457.571 665.132 -457.571 664.996 Q -457.571 664.860 -457.571 663.249 Q -457.571 661.638 -457.571 660.619 Q -457.571 659.599 -457.571 659.144 Q -457.571 658.689 -457.571 658.359 Q -457.571 658.029 -457.571 657.903 Q -457.571 657.776 -457.571 657.966 Q -457.571 658.157 -457.571 657.131 Q -457.571 656.105 -457.571 653.478 Q -457.571 650.852 -457.571 649.408 Q -457.571 647.965 -457.571 647.526 Q -457.571 647.087 -457.571 646.430 Q -457.571 645.774 -457.571 645.379 Q -457.571 644.984 -457.571 644.539 Q -457.571 644.093 -457.571 644.051 Q -457.571 644.010 -457.571 644.042 Q -457.571 644.074 -457.571 643.870 Q -457.571 643.666 -457.571 642.035 Q -457.571 640.403 -457.571 640.403 Q -464.007 640.403 -468.038 640.403 Q -472.069 640.403 -474.949 640.403 Q -477.828 640.403 -480.458 640.403 Q -483.087 640.403 -484.149 640.403 Q -485.211 640.403 -486.207 640.403 Q -487.202 640.403 -487.983 640.403 Q -488.764 640.403 -489.255 640.403 Q -489.747 640.403 -490.182 640.403 Q -490.617 640.403 -490.595 640.403 Q -490.573 640.403 -490.624 640.403 Q -490.675 640.403 -490.998 640.403 Q -491.321 640.403 -491.333 640.403 Q -491.345 640.403 -491.459 640.403 Q -491.572 640.403 -491.752 640.403 Q -491.932 640.403 -492.504 640.403 Q -493.076 640.403 -494.017 640.403 Q -494.958 640.403 -495.590 640.403 Q -496.222 640.403 -496.558 640.403 Q -496.895 640.403 -497.009 640.403 Q -497.123 640.403 -497.418 640.403 Q -497.713 640.403 -498.091 640.403 Q -498.469 640.403 -500.851 640.403 Q -503.232 640.403 -504.769 640.403 Q -506.306 640.403 -506.306 640.403 Q -506.306 647.357 -506.306 652.445 Q -506.306 657.533 -506.306 660.405 Q -506.306 663.277 -506.306 664.488 Q -506.306 665.699 -506.306 666.564 Q -506.306 667.429 -506.306 667.453 Q -506.306 667.477 -506.306 668.292 Q -506.306 669.107 -506.306 669.888 Q -506.306 670.668 -506.306 671.176 Q -506.306 671.684 -506.306 672.081 Q -506.306 672.477 -506.306 672.941 Q -506.306 673.405 -506.306 673.351 Q -506.306 673.296 -506.306 673.411 Q -506.306 673.526 -506.306 673.788 Q -506.306 674.050 -506.306 674.052 Q -506.306 674.055 -506.306 674.315 Q -506.306 674.576 -506.306 674.730 Q -506.306 674.884 -506.306 675.092 Q -506.306 675.300 -506.306 675.526 Q -506.306 675.752 -506.306 675.713 Q -506.306 675.674 -506.306 675.820 Q -506.306 675.967 -506.306 675.974 Q -506.306 675.982 -506.306 678.936 Q -506.306 681.890 -506.306 683.910 Q -506.306 685.930 -506.306 686.718 Q -506.306 687.506 -506.306 687.632 Q -506.306 687.758 -506.306 687.712 Q -506.306 687.667 -506.306 687.850 Q -506.306 688.034 -506.306 687.818 Q -506.306 687.603 -506.306 688.177 Q -506.306 688.751 -506.306 690.256 "></path>
    <path id="STROKE_678946f3-9f4e-41dd-a4af-ef8fac41e671" opacity="1.000" fill="#f45e58" stroke="#f45e58" stroke-width="0.500" stroke-opacity="1.000" stroke-linecap="round" stroke-linejoin="round" d="M -433.874 689.239 Q -434.110 689.239 -429.262 689.239 Q -424.415 689.239 -421.690 689.239 Q -418.965 689.239 -417.783 689.239 Q -416.600 689.239 -416.041 689.239 Q -415.483 689.239 -415.487 689.239 Q -415.491 689.239 -415.196 689.239 Q -414.901 689.239 -414.627 689.239 Q -414.354 689.239 -413.864 689.239 Q -413.373 689.239 -412.582 689.239 Q -411.790 689.239 -411.293 689.239 Q -410.796 689.239 -410.363 689.239 Q -409.930 689.239 -410.011 689.239 Q -410.091 689.239 -409.933 689.239 Q -409.775 689.239 -410.042 689.239 Q -410.309 689.239 -409.440 689.239 Q -408.571 689.239 -408.571 689.239 Q -408.571 682.641 -408.571 678.773 Q -408.571 674.905 -408.571 673.168 Q -408.571 671.431 -408.571 670.851 Q -408.571 670.271 -408.571 669.762 Q -408.571 669.254 -408.571 668.895 Q -408.571 668.537 -408.571 668.554 Q -408.571 668.572 -408.571 668.375 Q -408.571 668.177 -408.571 667.475 Q -408.571 666.773 -408.571 666.406 Q -408.571 666.039 -408.571 665.800 Q -408.571 665.561 -408.571 665.347 Q -408.571 665.132 -408.571 664.996 Q -408.571 664.860 -408.571 663.249 Q -408.571 661.638 -408.571 660.619 Q -408.571 659.599 -408.571 659.144 Q -408.571 658.689 -408.571 658.359 Q -408.571 658.029 -408.571 657.903 Q -408.571 657.776 -408.571 657.966 Q -408.571 658.157 -408.571 657.131 Q -408.571 656.105 -408.571 653.478 Q -408.571 650.852 -408.571 649.408 Q -408.571 647.965 -408.571 647.526 Q -408.571 647.087 -408.571 646.430 Q -408.571 645.774 -408.571 645.379 Q -408.571 644.984 -408.571 644.539 Q -408.571 644.093 -408.571 644.051 Q -408.571 644.010 -408.571 644.042 Q -408.571 644.074 -408.571 643.870 Q -408.571 643.666 -408.571 642.035 Q -408.571 640.403 -408.571 640.403 Q -415.007 640.403 -419.038 640.403 Q -423.069 640.403 -425.949 640.403 Q -428.829 640.403 -431.458 640.403 Q -434.087 640.403 -435.149 640.403 Q -436.212 640.403 -437.207 640.403 Q -438.203 640.403 -438.983 640.403 Q -439.764 640.403 -440.256 640.403 Q -440.747 640.403 -441.182 640.403 Q -441.617 640.403 -441.595 640.403 Q -441.573 640.403 -441.625 640.403 Q -441.676 640.403 -441.999 640.403 Q -442.321 640.403 -442.333 640.403 Q -442.346 640.403 -442.459 640.403 Q -442.573 640.403 -442.752 640.403 Q -442.932 640.403 -443.504 640.403 Q -444.076 640.403 -445.018 640.403 Q -445.959 640.403 -446.591 640.403 Q -447.223 640.403 -447.559 640.403 Q -447.895 640.403 -448.009 640.403 Q -448.123 640.403 -448.419 640.403 Q -448.714 640.403 -449.092 640.403 Q -449.470 640.403 -451.851 640.403 Q -454.232 640.403 -455.769 640.403 Q -457.306 640.403 -457.306 640.403 Q -457.306 647.357 -457.306 652.445 Q -457.306 657.533 -457.306 660.405 Q -457.306 663.277 -457.306 664.488 Q -457.306 665.700 -457.306 666.564 Q -457.306 667.429 -457.306 667.453 Q -457.306 667.477 -457.306 668.292 Q -457.306 669.107 -457.306 669.888 Q -457.306 670.668 -457.306 671.176 Q -457.306 671.684 -457.306 672.081 Q -457.306 672.477 -457.306 672.941 Q -457.306 673.405 -457.306 673.351 Q -457.306 673.297 -457.306 673.411 Q -457.306 673.526 -457.306 673.788 Q -457.306 674.050 -457.306 674.052 Q -457.306 674.055 -457.306 674.315 Q -457.306 674.576 -457.306 674.730 Q -457.306 674.884 -457.306 675.092 Q -457.306 675.300 -457.306 675.526 Q -457.306 675.752 -457.306 675.713 Q -457.306 675.674 -457.306 675.820 Q -457.306 675.967 -457.306 675.974 Q -457.306 675.982 -457.306 678.936 Q -457.306 681.890 -457.306 683.910 Q -457.306 685.930 -457.306 686.718 Q -457.306 687.506 -457.306 687.632 Q -457.306 687.758 -457.306 687.712 Q -457.306 687.667 -457.306 687.851 Q -457.306 688.034 -457.306 687.818 Q -457.306 687.603 -457.306 688.177 Q -457.306 688.751 -457.306 690.256 "></path>
    <path id="STROKE_d4e1d6ec-42ed-4264-affc-23528ef45b61" opacity="1.000" fill="#f45e58" stroke="#f45e58" stroke-width="0.500" stroke-opacity="1.000" stroke-linecap="round" stroke-linejoin="round" d="M -384.946 640.477 Q -385.182 640.477 -380.335 640.477 Q -375.487 640.477 -372.762 640.477 Q -370.037 640.477 -368.855 640.477 Q -367.672 640.477 -367.113 640.477 Q -366.555 640.477 -366.559 640.477 Q -366.564 640.477 -366.268 640.477 Q -365.973 640.477 -365.699 640.477 Q -365.426 640.477 -364.936 640.477 Q -364.445 640.477 -363.654 640.477 Q -362.862 640.477 -362.365 640.477 Q -361.868 640.477 -361.435 640.477 Q -361.002 640.477 -361.083 640.477 Q -361.164 640.477 -361.005 640.477 Q -360.847 640.477 -361.114 640.477 Q -361.382 640.477 -360.513 640.477 Q -359.644 640.477 -359.644 640.477 Q -359.644 633.879 -359.644 630.011 Q -359.644 626.143 -359.644 624.406 Q -359.644 622.669 -359.644 622.089 Q -359.644 621.509 -359.644 621.001 Q -359.644 620.493 -359.644 620.134 Q -359.644 619.775 -359.644 619.793 Q -359.644 619.811 -359.644 619.613 Q -359.644 619.416 -359.644 618.714 Q -359.644 618.012 -359.644 617.645 Q -359.644 617.278 -359.644 617.039 Q -359.644 616.800 -359.644 616.585 Q -359.644 616.371 -359.644 616.235 Q -359.644 616.099 -359.644 614.488 Q -359.644 612.877 -359.644 611.857 Q -359.644 610.838 -359.644 610.383 Q -359.644 609.927 -359.644 609.598 Q -359.644 609.268 -359.644 609.141 Q -359.644 609.015 -359.644 609.205 Q -359.644 609.395 -359.644 608.369 Q -359.644 607.343 -359.644 604.717 Q -359.644 602.090 -359.644 600.647 Q -359.644 599.203 -359.644 598.764 Q -359.644 598.326 -359.644 597.669 Q -359.644 597.012 -359.644 596.617 Q -359.644 596.223 -359.644 595.777 Q -359.644 595.332 -359.644 595.290 Q -359.644 595.248 -359.644 595.280 Q -359.644 595.312 -359.644 595.108 Q -359.644 594.905 -359.644 593.273 Q -359.644 591.642 -359.644 591.642 Q -366.080 591.642 -370.111 591.642 Q -374.142 591.642 -377.021 591.642 Q -379.901 591.642 -382.530 591.642 Q -385.160 591.642 -386.222 591.642 Q -387.284 591.642 -388.279 591.642 Q -389.275 591.642 -390.056 591.642 Q -390.837 591.642 -391.328 591.642 Q -391.819 591.642 -392.254 591.642 Q -392.689 591.642 -392.668 591.642 Q -392.646 591.642 -392.697 591.642 Q -392.748 591.642 -393.071 591.642 Q -393.393 591.642 -393.406 591.642 Q -393.418 591.642 -393.531 591.642 Q -393.645 591.642 -393.825 591.642 Q -394.004 591.642 -394.576 591.642 Q -395.148 591.642 -396.090 591.642 Q -397.031 591.642 -397.663 591.642 Q -398.295 591.642 -398.631 591.642 Q -398.967 591.642 -399.081 591.642 Q -399.195 591.642 -399.491 591.642 Q -399.786 591.642 -400.164 591.642 Q -400.542 591.642 -402.923 591.642 Q -405.304 591.642 -406.841 591.642 Q -408.378 591.642 -408.378 591.642 Q -408.378 598.595 -408.378 603.684 Q -408.378 608.772 -408.378 611.644 Q -408.378 614.515 -408.378 615.727 Q -408.378 616.938 -408.378 617.803 Q -408.378 618.668 -408.378 618.692 Q -408.378 618.715 -408.378 619.531 Q -408.378 620.346 -408.378 621.126 Q -408.378 621.906 -408.378 622.415 Q -408.378 622.923 -408.378 623.319 Q -408.378 623.716 -408.378 624.180 Q -408.378 624.643 -408.378 624.589 Q -408.378 624.535 -408.378 624.650 Q -408.378 624.764 -408.378 625.026 Q -408.378 625.288 -408.378 625.291 Q -408.378 625.294 -408.378 625.554 Q -408.378 625.814 -408.378 625.969 Q -408.378 626.123 -408.378 626.331 Q -408.378 626.538 -408.378 626.764 Q -408.378 626.990 -408.378 626.952 Q -408.378 626.913 -408.378 627.059 Q -408.378 627.205 -408.378 627.213 Q -408.378 627.221 -408.378 630.175 Q -408.378 633.129 -408.378 635.148 Q -408.378 637.168 -408.378 637.956 Q -408.378 638.744 -408.378 638.870 Q -408.378 638.997 -408.378 638.951 Q -408.378 638.905 -408.378 639.089 Q -408.378 639.273 -408.378 639.057 Q -408.378 638.841 -408.378 639.416 Q -408.378 639.990 -408.378 641.495 "></path>
    <path id="STROKE_3af71a22-8e93-484f-a9f2-cc5841c789a4" opacity="1.000" fill="none" stroke="#1c7aa2" stroke-width="3.700" stroke-opacity="1.000" stroke-linecap="round" stroke-linejoin="round" d="M -540.825 759.840 L -540.584 759.627 Q -540.541 759.643 -531.728 758.664 Q -531.364 758.502 -533.725 758.381 Q -536.085 758.260 -537.728 758.186 Q -539.371 758.112 -540.512 757.795 Q -541.652 757.478 -542.399 756.744 Q -543.146 756.009 -543.400 755.422 Q -543.654 754.836 -543.668 753.860 Q -543.682 752.883 -542.478 751.980 Q -541.274 751.078 -539.995 750.527 Q -538.715 749.976 -535.130 749.075 Q -535.155 749.005 -536.417 748.905 Q -537.679 748.804 -538.761 748.280 Q -539.844 747.755 -540.306 747.288 Q -540.768 746.821 -540.969 746.499 Q -541.170 746.177 -541.196 746.160 Q -541.221 746.144 -541.415 745.141 Q -541.609 744.138 -541.072 743.062 Q -540.534 741.986 -532.910 740.776 L -531.950 741.015 "></path>
    <path id="STROKE_f1667f4a-ae64-4325-9868-da2068b003b9" opacity="1.000" fill="none" stroke="#1c7aa2" stroke-width="3.700" stroke-opacity="1.000" stroke-linecap="round" stroke-linejoin="round" d="M -539.868 728.976 L -539.527 729.397 Q -539.363 729.542 -538.899 729.870 Q -538.436 730.198 -537.504 730.669 Q -536.571 731.141 -536.029 731.273 Q -535.487 731.406 -535.464 731.422 Q -535.442 731.438 -534.856 731.450 Q -534.269 731.462 -533.909 731.353 Q -533.549 731.243 -533.326 730.910 Q -533.103 730.576 -533.054 730.419 Q -533.005 730.263 -533.379 729.342 Q -533.753 728.421 -534.560 727.739 Q -535.367 727.057 -536.822 726.578 Q -538.277 726.099 -539.667 726.831 Q -539.665 726.858 -538.687 726.667 Q -537.709 726.477 -536.283 725.393 Q -534.856 724.310 -534.302 723.392 Q -533.747 722.473 -533.554 722.129 "></path>
    <path id="STROKE_60127fa7-ca3e-43ad-a52f-08ab3b622254" opacity="1.000" fill="none" stroke="#1c7aa2" stroke-width="3.700" stroke-opacity="1.000" stroke-linecap="round" stroke-linejoin="round" d="M -542.003 713.040 Q -541.813 713.041 -525.335 712.923 Q -525.563 712.928 -529.822 713.137 Q -534.081 713.347 -536.594 713.351 Q -539.107 713.355 -540.284 713.071 Q -541.461 712.788 -541.943 712.204 Q -542.425 711.621 -542.525 711.141 Q -542.625 710.662 -542.583 710.151 Q -542.540 709.639 -542.509 709.575 Q -542.479 709.510 -542.344 709.039 Q -542.208 708.568 -541.472 707.409 Q -540.736 706.250 -539.728 705.488 Q -538.719 704.727 -537.858 704.685 Q -536.997 704.642 -536.555 704.754 Q -536.113 704.865 -535.085 706.456 Q -534.056 708.046 -533.502 709.843 Q -532.948 711.640 -532.803 712.074 "></path>
  </g>
  <g id="Rellenar" opacity="1.000">
    <path id="STROKE_f9af28c7-43b4-464a-a53e-5616a25e906f" opacity="0.890" fill="none" stroke="#50514f" stroke-width="5.800" stroke-opacity="1.000" stroke-linecap="round" stroke-linejoin="round" d="M -506.306 870.417 Q -506.241 870.417 -494.175 870.417 Q -482.108 870.417 -466.990 870.417 Q -451.873 870.417 -444.707 870.417 Q -437.542 870.417 -434.198 870.417 Q -430.854 870.417 -429.509 870.417 Q -428.163 870.417 -427.998 870.417 Q -427.834 870.417 -427.124 870.417 Q -426.415 870.417 -425.865 870.417 Q -425.316 870.417 -424.893 870.417 Q -424.469 870.417 -424.144 870.417 Q -423.819 870.417 -423.782 870.417 Q -423.746 870.417 -423.884 870.417 Q -424.021 870.417 -422.878 870.417 Q -421.735 870.417 -420.176 870.417 Q -418.616 870.417 -417.465 870.417 Q -416.313 870.417 -412.980 870.417 Q -409.648 870.417 -407.950 870.417 Q -406.252 870.417 -404.796 870.417 Q -403.339 870.417 -402.724 870.417 Q -402.108 870.417 -401.617 870.417 Q -401.125 870.417 -400.585 870.417 Q -400.046 870.417 -399.600 870.417 Q -399.154 870.417 -398.899 870.417 Q -398.645 870.417 -398.236 870.417 Q -397.827 870.417 -398.047 870.417 Q -398.267 870.417 -397.049 870.417 Q -395.832 870.417 -390.840 870.417 Q -385.848 870.417 -383.138 870.417 Q -380.428 870.417 -379.401 870.417 Q -378.373 870.417 -376.874 870.417 Q -375.374 870.417 -374.650 870.417 Q -373.926 870.417 -373.370 870.417 Q -372.814 870.417 -372.497 870.417 Q -372.181 870.417 -371.630 870.417 Q -371.080 870.417 -370.883 870.417 Q -370.687 870.417 -369.159 870.417 Q -367.632 870.417 -366.533 870.417 Q -365.433 870.417 -365.284 870.417 Q -365.135 870.417 -363.778 870.417 Q -362.422 870.417 -360.646 870.417 "></path>
    <path id="STROKE_f2242527-ae0f-4569-a8e5-825402c82a64" opacity="0.890" fill="none" stroke="#50514f" stroke-width="6.189" stroke-opacity="1.000" stroke-linecap="round" stroke-linejoin="round" d="M -360.646 870.417 Q -360.646 866.938 -360.646 859.479 Q -360.646 852.021 -360.646 840.430 Q -360.646 828.839 -360.646 823.096 Q -360.646 817.353 -360.646 815.209 Q -360.646 813.066 -360.646 811.985 Q -360.646 810.904 -360.646 810.807 Q -360.646 810.711 -360.646 810.745 Q -360.646 810.778 -360.646 810.596 Q -360.646 810.414 -360.646 809.341 Q -360.646 808.267 -360.646 808.483 Q -360.646 808.378 -360.646 807.931 Q -360.646 807.484 -360.646 807.013 Q -360.646 806.542 -360.646 806.116 Q -360.646 805.690 -360.646 805.711 Q -360.646 805.732 -360.646 805.631 Q -360.646 805.531 -360.646 805.290 Q -360.646 805.049 -360.646 804.532 Q -360.646 804.014 -360.646 803.629 Q -360.646 803.244 -360.646 802.671 Q -360.646 802.098 -360.646 800.580 Q -360.646 799.061 -360.646 797.113 Q -360.646 795.165 -360.646 792.301 Q -360.646 789.437 -360.646 786.361 Q -360.646 783.284 -360.646 782.185 Q -360.646 781.086 -360.646 780.250 Q -360.646 779.413 -360.646 779.087 Q -360.646 778.761 -360.646 777.143 Q -360.646 775.525 -360.646 774.483 Q -360.646 773.441 -360.646 773.075 Q -360.646 772.709 -360.646 772.246 Q -360.646 771.783 -360.646 771.805 Q -360.646 771.827 -360.646 771.739 "></path>
    <path id="STROKE_bb7e798d-8180-4029-a861-ab92a3c8fd5d" opacity="0.890" fill="none" stroke="#50514f" stroke-width="6.100" stroke-opacity="1.000" stroke-linecap="round" stroke-linejoin="round" d="M -502.773 772.119 Q -502.248 772.119 -493.572 772.119 Q -484.895 772.119 -479.710 772.119 Q -474.525 772.119 -471.942 772.119 Q -469.360 772.119 -467.524 772.119 Q -465.688 772.119 -461.568 772.119 Q -457.447 772.119 -444.131 772.119 Q -430.815 772.119 -422.307 772.119 Q -413.800 772.119 -409.953 772.119 Q -406.105 772.119 -403.874 772.119 Q -401.643 772.119 -390.935 772.119 Q -380.227 772.119 -374.142 772.119 Q -368.057 772.119 -365.203 772.119 Q -362.350 772.119 -360.042 772.119 "></path>
    <path id="STROKE_5daeebc8-dc01-4a3b-b778-5e4a072a9863" opacity="0.890" fill="none" stroke="#50514f" stroke-width="6.263" stroke-opacity="1.000" stroke-linecap="round" stroke-linejoin="round" d="M -360.041 772.119 L -360.646 772.119 "></path>
    <path id="STROKE_ed15f6fe-db60-4546-a76b-5593d257f1e5" opacity="0.890" fill="none" stroke="#50514f" stroke-width="5.874" stroke-opacity="1.000" stroke-linecap="round" stroke-linejoin="round" d="M -506.306 870.417 Q -506.306 866.490 -506.306 861.253 Q -506.306 856.015 -506.306 832.521 Q -506.306 809.027 -506.306 797.134 Q -506.306 785.241 -506.306 780.356 Q -506.306 775.471 -506.306 773.092 Q -506.306 770.714 -506.306 770.375 "></path>
    <path id="STROKE_a7aff214-bbf6-4a21-a2c1-27d250e6fc6f" opacity="0.890" fill="none" stroke="#50514f" stroke-width="5.854" stroke-opacity="1.000" stroke-linecap="round" stroke-linejoin="round" d="M -506.306 819.022 L -504.495 819.021 Q -502.943 819.021 -499.463 819.021 Q -495.982 819.021 -483.798 819.021 Q -471.613 819.021 -464.540 819.021 Q -457.467 819.021 -454.659 819.021 Q -451.852 819.021 -442.626 819.021 Q -433.400 819.021 -423.922 819.021 Q -414.445 819.021 -408.779 819.021 Q -403.114 819.021 -400.558 819.021 Q -398.002 819.021 -395.527 819.021 Q -393.053 819.021 -391.797 819.021 Q -390.542 819.021 -387.842 819.021 Q -385.142 819.021 -382.353 819.021 Q -379.564 819.021 -375.905 819.021 Q -372.245 819.021 -371.762 819.021 Q -372.144 819.404 -372.570 819.830 "></path>
    <path id="STROKE_d9ec723b-4cf3-4fca-b737-21ae80c37ba0" opacity="0.890" fill="none" stroke="#50514f" stroke-width="5.738" stroke-opacity="1.000" stroke-linecap="round" stroke-linejoin="round" d="M -372.570 819.830 Q -372.115 819.830 -359.513 819.830 "></path>
    <path id="STROKE_73aea437-1d17-4dc4-a243-c091447a522b" opacity="0.890" fill="none" stroke="#50514f" stroke-width="6.197" stroke-opacity="1.000" stroke-linecap="round" stroke-linejoin="round" d="M -457.306 870.417 L -457.306 863.837 Q -457.306 863.089 -457.306 863.138 Q -457.306 862.302 -457.306 862.267 Q -457.306 862.233 -457.306 862.274 Q -457.306 862.315 -457.306 861.892 Q -457.306 861.469 -457.306 846.372 Q -457.306 831.276 -457.306 823.294 Q -457.306 815.313 -457.306 811.486 Q -457.306 807.658 -457.306 805.039 Q -457.306 802.420 -457.306 795.342 Q -457.306 788.263 -457.306 784.649 Q -457.306 781.034 -457.306 779.563 Q -457.306 778.092 -457.306 777.407 Q -457.306 776.722 -457.306 774.791 Q -457.306 772.859 -457.306 772.921 Q -457.388 772.839 -458.108 772.119 "></path>
    <path id="STROKE_66249c23-0cf6-481b-b34e-5a412f19bd44" opacity="0.890" fill="none" stroke="#50514f" stroke-width="6.035" stroke-opacity="1.000" stroke-linecap="round" stroke-linejoin="round" d="M -408.145 870.417 L -408.145 864.053 Q -408.145 864.561 -408.145 852.320 Q -408.145 840.078 -408.145 833.481 Q -408.145 826.883 -408.145 822.588 Q -408.145 818.294 -408.145 816.363 Q -408.145 814.432 -408.145 810.385 Q -408.145 806.339 -408.145 803.635 Q -408.145 800.931 -408.145 799.776 Q -408.145 798.621 -408.145 794.588 Q -408.145 790.555 -408.145 788.162 Q -408.145 785.770 -408.145 784.257 Q -408.145 782.743 -408.145 781.476 Q -408.145 780.209 -408.145 778.788 Q -408.145 777.367 -408.145 776.419 Q -408.145 775.472 -408.145 775.211 Q -408.145 774.951 -408.145 774.388 Q -408.145 773.826 -408.145 773.877 Q -408.307 773.877 -408.895 773.877 "></path>
    <path id="STROKE_d1c1f964-7dcd-4d12-8bd2-a9a26d2c8a9f" opacity="0.890" fill="none" stroke="#50514f" stroke-width="5.250" stroke-opacity="1.000" stroke-linecap="round" stroke-linejoin="round" d="M -429.590 741.091 Q -429.590 740.095 -429.590 740.237 Q -429.590 739.223 -429.590 739.435 Q -429.590 738.358 -429.590 738.479 Q -429.590 737.835 -429.590 736.815 Q -429.590 735.796 -429.590 732.484 Q -429.590 729.173 -429.590 726.896 Q -429.590 724.619 -429.590 722.589 Q -429.590 720.558 -429.590 719.536 Q -429.590 718.513 -429.590 718.282 Q -429.590 718.051 -429.590 717.911 Q -429.590 717.770 -429.590 717.321 Q -429.590 716.872 -429.590 716.984 Q -429.590 717.095 -429.590 716.895 Q -429.590 716.695 -429.590 717.239 Q -429.590 717.784 -429.590 712.478 "></path>
    <path id="STROKE_5aeb5487-1eeb-4871-af05-6cafc002fbeb" opacity="0.890" fill="none" stroke="#50514f" stroke-width="5.055" stroke-opacity="1.000" stroke-linecap="round" stroke-linejoin="round" d="M -429.590 712.478 L -429.590 712.478 "></path>
    <path id="STROKE_94426c47-e744-43b9-9ce8-c4592fc48449" opacity="0.890" fill="none" stroke="#50514f" stroke-width="4.682" stroke-opacity="1.000" stroke-linecap="round" stroke-linejoin="round" d="M -429.590 712.478 L -429.590 712.478 "></path>
    <path id="STROKE_a1b7f1f3-2db2-4ecd-b8a6-6d9257390774" opacity="0.890" fill="none" stroke="#50514f" stroke-width="4.605" stroke-opacity="1.000" stroke-linecap="round" stroke-linejoin="round" d="M -429.590 712.478 Q -429.201 712.868 -427.073 714.995 Q -424.946 717.122 -423.680 718.388 Q -422.415 719.654 -421.827 720.242 Q -421.239 720.830 -420.822 721.246 Q -420.406 721.663 -420.356 721.712 Q -420.307 721.762 -420.320 721.748 Q -420.334 721.735 -420.303 721.765 Q -420.273 721.796 -419.534 722.535 "></path>
    <path id="STROKE_ac3b2bd7-17b0-4d5e-ab9f-df0170ac8ee8" opacity="0.890" fill="none" stroke="#50514f" stroke-width="4.605" stroke-opacity="1.000" stroke-linecap="round" stroke-linejoin="round" d="M -439.647 722.535 Q -439.257 722.145 -437.130 720.018 Q -435.003 717.891 -433.737 716.625 Q -432.472 715.360 -431.883 714.771 Q -431.295 714.183 -430.879 713.767 Q -430.462 713.350 -430.413 713.301 Q -430.363 713.251 -430.377 713.265 Q -430.390 713.278 -430.360 713.248 Q -430.329 713.218 -429.590 712.478 "></path>
    <path id="STROKE_0fffbd68-1931-4030-b3cf-4deb568b0db0" opacity="0.890" fill="none" stroke="#50514f" stroke-width="5.800" stroke-opacity="1.000" stroke-linecap="round" stroke-linejoin="round" d="M -506.306 690.256 Q -506.241 690.256 -494.175 690.256 Q -482.108 690.256 -466.990 690.256 Q -451.873 690.256 -444.707 690.256 Q -437.542 690.256 -434.198 690.256 Q -430.854 690.256 -429.509 690.256 Q -428.163 690.256 -427.998 690.256 Q -427.834 690.256 -427.124 690.256 Q -426.415 690.256 -425.865 690.256 Q -425.316 690.256 -424.893 690.256 Q -424.469 690.256 -424.144 690.256 Q -423.819 690.256 -423.782 690.256 Q -423.746 690.256 -423.884 690.256 Q -424.021 690.256 -422.878 690.256 Q -421.735 690.256 -420.176 690.256 Q -418.616 690.256 -417.465 690.256 Q -416.313 690.256 -412.980 690.256 Q -409.648 690.256 -407.950 690.256 Q -406.252 690.256 -404.796 690.256 Q -403.339 690.256 -402.724 690.256 Q -402.108 690.256 -401.617 690.256 Q -401.125 690.256 -400.585 690.256 Q -400.046 690.256 -399.600 690.256 Q -399.154 690.256 -398.899 690.256 Q -398.645 690.256 -398.236 690.256 Q -397.827 690.256 -398.047 690.256 Q -398.267 690.256 -397.049 690.256 Q -395.832 690.256 -390.840 690.256 Q -385.848 690.256 -383.138 690.256 Q -380.428 690.256 -379.401 690.256 Q -378.373 690.256 -376.874 690.256 Q -375.374 690.256 -374.650 690.256 Q -373.926 690.256 -373.370 690.256 Q -372.814 690.256 -372.497 690.256 Q -372.181 690.256 -371.630 690.256 Q -371.080 690.256 -370.883 690.256 Q -370.687 690.256 -369.159 690.256 Q -367.632 690.256 -366.533 690.256 Q -365.433 690.256 -365.284 690.256 Q -365.135 690.256 -363.778 690.256 Q -362.422 690.256 -360.646 690.256 "></path>
    <path id="STROKE_17dcef83-9804-40d8-8ec2-0dc1d2c450e1" opacity="0.890" fill="none" stroke="#50514f" stroke-width="6.189" stroke-opacity="1.000" stroke-linecap="round" stroke-linejoin="round" d="M -360.646 690.256 Q -360.646 686.777 -360.646 679.319 Q -360.646 671.860 -360.646 660.269 Q -360.646 648.679 -360.646 642.936 Q -360.646 637.193 -360.646 635.049 Q -360.646 632.905 -360.646 631.824 Q -360.646 630.743 -360.646 630.647 Q -360.646 630.550 -360.646 630.584 Q -360.646 630.618 -360.646 630.436 Q -360.646 630.254 -360.646 629.180 Q -360.646 628.107 -360.646 628.323 Q -360.646 628.218 -360.646 627.770 Q -360.646 627.323 -360.646 626.852 Q -360.646 626.381 -360.646 625.955 Q -360.646 625.529 -360.646 625.551 Q -360.646 625.572 -360.646 625.471 Q -360.646 625.370 -360.646 625.130 Q -360.646 624.889 -360.646 624.371 Q -360.646 623.854 -360.646 623.469 Q -360.646 623.084 -360.646 622.511 Q -360.646 621.938 -360.646 620.419 Q -360.646 618.901 -360.646 616.953 Q -360.646 615.004 -360.646 612.141 Q -360.646 609.277 -360.646 606.200 Q -360.646 603.124 -360.646 602.025 Q -360.646 600.926 -360.646 600.089 Q -360.646 599.253 -360.646 598.927 Q -360.646 598.600 -360.646 596.982 Q -360.646 595.364 -360.646 594.323 Q -360.646 593.281 -360.646 592.914 Q -360.646 592.548 -360.646 592.085 Q -360.646 591.623 -360.646 591.645 Q -360.646 591.667 -360.646 591.578 "></path>
    <path id="STROKE_0b3c3371-4f1e-4806-9cdc-f3576f30b2f5" opacity="0.890" fill="none" stroke="#50514f" stroke-width="6.100" stroke-opacity="1.000" stroke-linecap="round" stroke-linejoin="round" d="M -502.773 591.959 Q -502.248 591.959 -493.572 591.959 Q -484.895 591.959 -479.710 591.959 Q -474.525 591.959 -471.942 591.959 Q -469.360 591.959 -467.524 591.959 Q -465.688 591.959 -461.568 591.959 Q -457.447 591.959 -444.131 591.959 Q -430.815 591.959 -422.307 591.959 Q -413.800 591.959 -409.953 591.959 Q -406.105 591.959 -403.874 591.959 Q -401.643 591.959 -390.935 591.959 Q -380.227 591.959 -374.142 591.959 Q -368.057 591.959 -365.203 591.959 Q -362.350 591.959 -360.042 591.959 "></path>
    <path id="STROKE_4e7fa42d-2f08-44b1-8226-186e106b6a6a" opacity="0.890" fill="none" stroke="#50514f" stroke-width="5.874" stroke-opacity="1.000" stroke-linecap="round" stroke-linejoin="round" d="M -506.306 690.256 Q -506.306 686.330 -506.306 681.092 Q -506.306 675.855 -506.306 652.361 Q -506.306 628.867 -506.306 616.974 Q -506.306 605.081 -506.306 600.195 Q -506.306 595.310 -506.306 592.932 Q -506.306 590.553 -506.306 590.215 "></path>
    <path id="STROKE_d2e98e9c-37cc-40db-950f-3a9c89050588" opacity="0.890" fill="none" stroke="#50514f" stroke-width="5.854" stroke-opacity="1.000" stroke-linecap="round" stroke-linejoin="round" d="M -506.306 638.861 L -504.495 638.861 Q -502.943 638.861 -499.463 638.861 Q -495.982 638.861 -483.798 638.861 Q -471.613 638.861 -464.540 638.861 Q -457.467 638.861 -454.659 638.861 Q -451.852 638.861 -442.626 638.861 Q -433.400 638.861 -423.922 638.861 Q -414.445 638.861 -408.779 638.861 Q -403.114 638.861 -400.558 638.861 Q -398.002 638.861 -395.527 638.861 Q -393.053 638.861 -391.797 638.861 Q -390.542 638.861 -387.842 638.861 Q -385.142 638.861 -382.353 638.861 Q -379.564 638.861 -375.905 638.861 Q -372.245 638.861 -371.762 638.861 Q -372.144 639.244 -372.570 639.669 "></path>
    <path id="STROKE_12002bbd-5920-43df-bcf4-dd7ebffac8fd" opacity="0.890" fill="none" stroke="#50514f" stroke-width="5.738" stroke-opacity="1.000" stroke-linecap="round" stroke-linejoin="round" d="M -372.570 639.669 Q -372.115 639.669 -359.513 639.669 "></path>
    <path id="STROKE_a34cd3b8-4b31-4ed2-8e11-89370a61774f" opacity="0.890" fill="none" stroke="#50514f" stroke-width="6.197" stroke-opacity="1.000" stroke-linecap="round" stroke-linejoin="round" d="M -457.306 690.256 L -457.306 683.677 Q -457.306 682.928 -457.306 682.977 Q -457.306 682.142 -457.306 682.107 Q -457.306 682.072 -457.306 682.114 Q -457.306 682.155 -457.306 681.731 Q -457.306 681.308 -457.306 666.212 Q -457.306 651.115 -457.306 643.134 Q -457.306 635.153 -457.306 631.325 Q -457.306 627.498 -457.306 624.879 Q -457.306 622.260 -457.306 615.181 Q -457.306 608.103 -457.306 604.488 Q -457.306 600.874 -457.306 599.403 Q -457.306 597.932 -457.306 597.247 Q -457.306 596.561 -457.306 594.630 Q -457.306 592.699 -457.306 592.761 Q -457.388 592.678 -458.108 591.959 "></path>
    <path id="STROKE_22ce2a03-ea34-4a2b-94ed-4b1ac94b06e3" opacity="0.890" fill="none" stroke="#50514f" stroke-width="6.035" stroke-opacity="1.000" stroke-linecap="round" stroke-linejoin="round" d="M -408.145 690.256 L -408.145 683.892 Q -408.145 684.401 -408.145 672.159 Q -408.145 659.917 -408.145 653.320 Q -408.145 646.723 -408.145 642.428 Q -408.145 638.133 -408.145 636.203 Q -408.145 634.272 -408.145 630.225 Q -408.145 626.178 -408.145 623.474 Q -408.145 620.771 -408.145 619.616 Q -408.145 618.461 -408.145 614.427 Q -408.145 610.394 -408.145 608.002 Q -408.145 605.610 -408.145 604.096 Q -408.145 602.583 -408.145 601.316 Q -408.145 600.049 -408.145 598.628 Q -408.145 597.206 -408.145 596.259 Q -408.145 595.312 -408.145 595.051 Q -408.145 594.791 -408.145 594.228 Q -408.145 593.665 -408.145 593.717 Q -408.307 593.717 -408.895 593.717 "></path>
  </g>
</svg>