<?xml version="1.0" encoding="UTF-8" standalone="no"?><!DOCTYPE svg PUBLIC "-//W3C//DTD SVG 1.1//EN" "http://www.w3.org/Graphics/SVG/1.1/DTD/svg11.dtd"><svg width="100%" height="100%" viewBox="0 0 2365 2246" version="1.1" xmlns="http://www.w3.org/2000/svg" xmlns:xlink="http://www.w3.org/1999/xlink" xml:space="preserve" xmlns:serif="http://www.serif.com/" style="fill-rule:evenodd;clip-rule:evenodd;stroke-linecap:round;stroke-linejoin:round;stroke-miterlimit:1.5;"><path d="M1360.84,672.091c5.613,-0.004 10.159,-4.558 10.155,-10.17l-2.567,-212.629c-0.003,-4.28 -3.476,-7.748 -7.757,-7.745l-212.63,0.595c-4.038,0.003 -7.309,3.279 -7.306,7.317l-0.2,212.631c0.003,4.234 3.439,7.665 7.673,7.661c0,0 28.058,0.081 63.79,0.431c62.64,0.613 148.842,1.909 148.842,1.909Zm-10.064,-20.163l2.068,-194.89l-197.468,-0.263l0.476,197.599c10.703,-0.062 31.611,-0.205 56.134,-0.481c49.71,-0.56 114.26,-1.571 138.79,-1.965Z"/><path d="M1360.84,1305.68c5.613,-0.004 10.159,-4.557 10.155,-10.17l-2.567,-212.628c-0.003,-4.281 -3.476,-7.748 -7.757,-7.745l-212.63,0.595c-4.038,0.003 -7.309,3.279 -7.306,7.317l-0.2,212.63c0.003,4.235 3.439,7.665 7.673,7.662c0,0 28.058,0.081 63.79,0.43c62.64,0.613 148.842,1.909 148.842,1.909Zm-10.064,-20.163l2.068,-194.889l-197.468,-0.263l0.476,197.599c10.703,-0.062 31.611,-0.206 56.134,-0.482c49.71,-0.559 114.26,-1.57 138.79,-1.965Z"/><path d="M1360.84,1514.02c5.613,-0.004 10.159,-4.558 10.155,-10.17l-2.567,-212.629c-0.003,-4.28 -3.476,-7.748 -7.757,-7.745l-212.63,0.595c-4.038,0.003 -7.309,3.279 -7.306,7.317l-0.2,212.631c0.003,4.234 3.439,7.664 7.673,7.661c0,0 28.058,0.081 63.79,0.431c62.64,0.613 148.842,1.909 148.842,1.909Zm-10.064,-20.163l2.068,-194.89l-197.468,-0.263l0.476,197.599c10.703,-0.062 31.611,-0.205 56.134,-0.481c49.71,-0.56 114.26,-1.571 138.79,-1.965Z"/><path d="M1148.21,672.247c5.613,-0.005 10.159,-4.558 10.155,-10.171l-2.567,-212.628c-0.004,-4.28 -3.476,-7.748 -7.757,-7.745l-212.63,0.595c-4.038,0.003 -7.309,3.279 -7.306,7.317l-0.2,212.63c0.003,4.235 3.438,7.665 7.673,7.662c0,0 28.058,0.081 63.789,0.431c62.641,0.612 148.843,1.909 148.843,1.909Zm-10.064,-20.163l2.068,-194.89l-197.468,-0.263l0.475,197.599c10.704,-0.062 31.612,-0.206 56.134,-0.482c49.711,-0.559 114.26,-1.57 138.791,-1.964Z"/><path d="M314.869,1925.13l-0.156,-212.63l-212.63,0.156l0.156,212.63l212.63,-0.156Z" style="fill:url(#_Linear1);"/><path d="M314.877,1935.29c5.612,-0.004 10.159,-4.558 10.155,-10.17l-2.568,-212.629c-0.003,-4.28 -3.476,-7.748 -7.756,-7.745l-212.63,0.595c-4.038,0.003 -7.309,3.279 -7.306,7.317l-0.2,212.631c0.003,4.234 3.438,7.664 7.673,7.661c-0,0 28.058,0.081 63.789,0.431c62.641,0.613 148.843,1.909 148.843,1.909Zm-10.064,-20.163l2.068,-194.89l-197.468,-0.263l0.475,197.599c10.704,-0.062 31.612,-0.205 56.134,-0.481c49.711,-0.56 114.26,-1.571 138.791,-1.965Z"/><path d="M523.203,1925.13l-0.156,-212.63l-212.63,0.156l0.155,212.63l212.631,-0.156Z" style="fill:url(#_Linear2);"/><path d="M523.21,1935.29c5.613,-0.004 10.159,-4.558 10.155,-10.17l-2.567,-212.629c-0.004,-4.28 -3.476,-7.748 -7.757,-7.745l-212.63,0.595c-4.038,0.003 -7.309,3.279 -7.306,7.317l-0.2,212.631c0.003,4.234 3.438,7.664 7.673,7.661c0,0 28.058,0.081 63.789,0.431c62.641,0.613 148.843,1.909 148.843,1.909Zm-10.064,-20.163l2.068,-194.89l-197.468,-0.263l0.475,197.599c10.704,-0.062 31.612,-0.205 56.134,-0.481c49.711,-0.56 114.26,-1.571 138.791,-1.965Z"/><path d="M731.536,1925.13l-0.156,-212.63l-212.63,0.156l0.156,212.63l212.63,-0.156Z" style="fill:url(#_Linear3);"/><path d="M731.543,1935.29c5.613,-0.004 10.16,-4.558 10.156,-10.17l-2.568,-212.629c-0.003,-4.28 -3.476,-7.748 -7.757,-7.745l-212.629,0.595c-4.038,0.003 -7.31,3.279 -7.307,7.317l-0.2,212.631c0.003,4.234 3.439,7.664 7.673,7.661c0,0 28.058,0.081 63.79,0.431c62.64,0.613 148.842,1.909 148.842,1.909Zm-10.064,-20.163l2.068,-194.89l-197.468,-0.263l0.476,197.599c10.704,-0.062 31.612,-0.205 56.134,-0.481c49.711,-0.56 114.26,-1.571 138.79,-1.965Z"/><path d="M939.869,1925.13l-0.156,-212.63l-212.63,0.156l0.156,212.63l212.63,-0.156Z" style="fill:url(#_Linear4);"/><path d="M939.877,1935.29c5.612,-0.004 10.159,-4.558 10.155,-10.17l-2.568,-212.629c-0.003,-4.28 -3.476,-7.748 -7.756,-7.745l-212.63,0.595c-4.038,0.003 -7.309,3.279 -7.306,7.317l-0.2,212.631c0.003,4.234 3.438,7.664 7.673,7.661c-0,0 28.058,0.081 63.789,0.431c62.641,0.613 148.843,1.909 148.843,1.909Zm-10.064,-20.163l2.068,-194.89l-197.468,-0.263l0.475,197.599c10.704,-0.062 31.612,-0.205 56.134,-0.481c49.711,-0.56 114.26,-1.571 138.791,-1.965Z"/><path d="M1148.2,1925.13l-0.156,-212.63l-212.63,0.156l0.155,212.63l212.631,-0.156Z" style="fill:url(#_Linear5);"/><path d="M1148.21,1935.29c5.613,-0.004 10.159,-4.558 10.155,-10.17l-2.567,-212.629c-0.004,-4.28 -3.476,-7.748 -7.757,-7.745l-212.63,0.595c-4.038,0.003 -7.309,3.279 -7.306,7.317l-0.2,212.631c0.003,4.234 3.438,7.664 7.673,7.661c0,0 28.058,0.081 63.789,0.431c62.641,0.613 148.843,1.909 148.843,1.909Zm-10.064,-20.163l2.068,-194.89l-197.468,-0.263l0.475,197.599c10.704,-0.062 31.612,-0.205 56.134,-0.481c49.711,-0.56 114.26,-1.571 138.791,-1.965Z"/><path d="M1356.54,1925.13l-0.156,-212.63l-212.63,0.156l0.156,212.63l212.63,-0.156Z" style="fill:url(#_Linear6);"/><path d="M1356.54,1935.29c5.613,-0.004 10.16,-4.558 10.156,-10.17l-2.568,-212.629c-0.003,-4.28 -3.476,-7.748 -7.757,-7.745l-212.629,0.595c-4.038,0.003 -7.31,3.279 -7.307,7.317l-0.2,212.631c0.003,4.234 3.439,7.664 7.673,7.661c0,0 28.058,0.081 63.79,0.431c62.64,0.613 148.842,1.909 148.842,1.909Zm-10.064,-20.163l2.068,-194.89l-197.468,-0.263l0.476,197.599c10.704,-0.062 31.612,-0.205 56.134,-0.481c49.711,-0.56 114.26,-1.571 138.79,-1.965Z"/><path d="M1564.87,1925.13l-0.156,-212.63l-212.63,0.156l0.156,212.63l212.63,-0.156Z" style="fill:url(#_Linear7);"/><path d="M1564.88,1935.29c5.612,-0.004 10.159,-4.558 10.155,-10.17l-2.568,-212.629c-0.003,-4.28 -3.476,-7.748 -7.756,-7.745l-212.63,0.595c-4.038,0.003 -7.309,3.279 -7.306,7.317l-0.2,212.631c0.003,4.234 3.438,7.664 7.673,7.661c-0,0 28.058,0.081 63.789,0.431c62.641,0.613 148.843,1.909 148.843,1.909Zm-10.064,-20.163l2.068,-194.89l-197.468,-0.263l0.475,197.599c10.704,-0.062 31.612,-0.205 56.134,-0.481c49.711,-0.56 114.26,-1.571 138.791,-1.965Z"/><path d="M1773.2,1925.13l-0.156,-212.63l-212.63,0.156l0.155,212.63l212.631,-0.156Z" style="fill:url(#_Linear8);"/><path d="M1773.21,1935.29c5.613,-0.004 10.159,-4.558 10.155,-10.17l-2.567,-212.629c-0.004,-4.28 -3.476,-7.748 -7.757,-7.745l-212.63,0.595c-4.038,0.003 -7.309,3.279 -7.306,7.317l-0.2,212.631c0.003,4.234 3.438,7.664 7.673,7.661c0,0 28.058,0.081 63.789,0.431c62.641,0.613 148.843,1.909 148.843,1.909Zm-10.064,-20.163l2.068,-194.89l-197.468,-0.263l0.475,197.599c10.704,-0.062 31.612,-0.205 56.134,-0.481c49.711,-0.56 114.26,-1.571 138.791,-1.965Z"/><path d="M1981.54,1925.13l-0.156,-212.63l-212.63,0.156l0.156,212.63l212.63,-0.156Z" style="fill:url(#_Linear9);"/><path d="M1981.54,1935.29c5.613,-0.004 10.16,-4.558 10.156,-10.17l-2.568,-212.629c-0.003,-4.28 -3.476,-7.748 -7.757,-7.745l-212.629,0.595c-4.038,0.003 -7.31,3.279 -7.307,7.317l-0.2,212.631c0.003,4.234 3.439,7.664 7.673,7.661c0,0 28.058,0.081 63.79,0.431c62.64,0.613 148.842,1.909 148.842,1.909Zm-10.064,-20.163l2.068,-194.89l-197.468,-0.263l0.476,197.599c10.704,-0.062 31.612,-0.205 56.134,-0.481c49.711,-0.56 114.26,-1.571 138.79,-1.965Z"/><path d="M2189.87,1925.13l-0.156,-212.63l-212.63,0.156l0.156,212.63l212.63,-0.156Z" style="fill:url(#_Linear10);"/><path d="M2189.88,1935.29c5.612,-0.004 10.159,-4.558 10.155,-10.17l-2.568,-212.629c-0.003,-4.28 -3.476,-7.748 -7.756,-7.745l-212.63,0.595c-4.038,0.003 -7.309,3.279 -7.306,7.317l-0.2,212.631c0.003,4.234 3.438,7.664 7.673,7.661c-0,0 28.058,0.081 63.789,0.431c62.641,0.613 148.843,1.909 148.843,1.909Zm-10.064,-20.163l2.068,-194.89l-197.468,-0.263l0.475,197.599c10.704,-0.062 31.612,-0.205 56.134,-0.481c49.711,-0.56 114.26,-1.571 138.791,-1.965Z"/><path d="M1148.21,1305.84c5.613,-0.004 10.159,-4.557 10.155,-10.17l-2.567,-212.628c-0.004,-4.281 -3.476,-7.748 -7.757,-7.745l-212.63,0.594c-4.038,0.003 -7.309,3.279 -7.306,7.318l-0.2,212.63c0.003,4.235 3.438,7.665 7.673,7.662c0,-0 28.058,0.08 63.789,0.43c62.641,0.613 148.843,1.909 148.843,1.909Zm-10.064,-20.163l2.068,-194.889l-197.468,-0.263l0.475,197.598c10.704,-0.061 31.612,-0.205 56.134,-0.481c49.711,-0.559 114.26,-1.57 138.791,-1.965Z"/><path d="M1148.21,1514.17c5.613,-0.005 10.159,-4.558 10.155,-10.171l-2.567,-212.628c-0.004,-4.281 -3.476,-7.748 -7.757,-7.745l-212.63,0.595c-4.038,0.003 -7.309,3.279 -7.306,7.317l-0.2,212.63c0.003,4.235 3.438,7.665 7.673,7.662c0,0 28.058,0.081 63.789,0.43c62.641,0.613 148.843,1.91 148.843,1.91Zm-10.064,-20.163l2.068,-194.89l-197.468,-0.263l0.475,197.599c10.704,-0.062 31.612,-0.206 56.134,-0.482c49.711,-0.559 114.26,-1.57 138.791,-1.964Z"/><path d="M1361,884.721c5.613,-0.004 10.159,-4.557 10.155,-10.17l-2.568,-212.628c-0.003,-4.281 -3.475,-7.749 -7.756,-7.746l-212.63,0.595c-4.038,0.003 -7.309,3.279 -7.306,7.317l-0.2,212.631c0.003,4.234 3.438,7.665 7.673,7.662c-0,-0 28.058,0.08 63.789,0.43c62.641,0.613 148.843,1.909 148.843,1.909Zm-10.064,-20.163l2.068,-194.89l-197.468,-0.263l0.475,197.599c10.704,-0.061 31.612,-0.205 56.134,-0.481c49.711,-0.559 114.26,-1.571 138.791,-1.965Z"/><path d="M1148.37,884.877c5.612,-0.004 10.159,-4.558 10.155,-10.17l-2.568,-212.629c-0.003,-4.28 -3.475,-7.748 -7.756,-7.745l-212.63,0.595c-4.038,0.003 -7.309,3.279 -7.306,7.317l-0.2,212.63c0.003,4.235 3.438,7.665 7.673,7.662c-0,0 28.058,0.081 63.789,0.431c62.641,0.613 148.843,1.909 148.843,1.909Zm-10.064,-20.163l2.068,-194.89l-197.468,-0.263l0.475,197.599c10.704,-0.062 31.612,-0.206 56.134,-0.481c49.711,-0.56 114.26,-1.571 138.791,-1.965Z"/><path d="M1361.15,1097.35c5.612,-0.004 10.159,-4.557 10.155,-10.17l-2.568,-212.628c-0.003,-4.281 -3.476,-7.749 -7.756,-7.745l-212.63,0.594c-4.038,0.003 -7.309,3.279 -7.306,7.317l-0.2,212.631c0.003,4.234 3.438,7.665 7.673,7.662c-0,-0 28.058,0.08 63.789,0.43c62.641,0.613 148.843,1.909 148.843,1.909Zm-10.064,-20.163l2.068,-194.889l-197.468,-0.263l0.475,197.598c10.704,-0.061 31.612,-0.205 56.134,-0.481c49.711,-0.559 114.26,-1.571 138.791,-1.965Z"/><path d="M1148.52,1097.51c5.612,-0.004 10.159,-4.558 10.155,-10.17l-2.568,-212.629c-0.003,-4.28 -3.476,-7.748 -7.756,-7.745l-212.63,0.595c-4.038,0.003 -7.309,3.279 -7.307,7.317l-0.2,212.631c0.004,4.234 3.439,7.665 7.674,7.661c-0,0 28.057,0.081 63.789,0.431c62.641,0.613 148.843,1.909 148.843,1.909Zm-10.064,-20.163l2.068,-194.89l-197.468,-0.263l0.475,197.599c10.704,-0.061 31.612,-0.205 56.134,-0.481c49.711,-0.56 114.26,-1.571 138.791,-1.965Z"/><path d="M1148.52,1097.51c5.612,-0.004 10.159,-4.558 10.155,-10.17l-2.568,-212.629c-0.003,-4.28 -3.476,-7.748 -7.756,-7.745l-212.63,0.595c-4.038,0.003 -7.309,3.279 -7.307,7.317l-0.2,212.631c0.004,4.234 3.439,7.665 7.674,7.661c-0,0 28.057,0.081 63.789,0.431c62.641,0.613 148.843,1.909 148.843,1.909Zm-10.064,-20.163l2.068,-194.89l-197.468,-0.263l0.475,197.599c10.704,-0.061 31.612,-0.205 56.134,-0.481c49.711,-0.56 114.26,-1.571 138.791,-1.965Z"/><text x="930.666px" y="2133.05px" style="font-family:'AmericanTypewriter', 'American Typewriter', serif;font-size:154.421px;">storage</text><text x="890.145px" y="295.438px" style="font-family:'AmericanTypewriter', 'American Typewriter', serif;font-size:154.421px;">tensor</text><g transform="matrix(6.4342,0,0,6.4342,-2808.11,-7047.78)"><text x="677.922px" y="1186.77px" style="font-family:'AmericanTypewriter', 'American Typewriter', serif;font-size:24px;">shape</text><text x="682.29px" y="1210.77px" style="font-family:'AmericanTypewriter', 'American Typewriter', serif;font-size:24px;">(5,2)</text></g><g transform="matrix(6.4342,0,0,6.4342,-2835.83,-6397.65)"><text x="677.922px" y="1186.77px" style="font-family:'AmericanTypewriter', 'American Typewriter', serif;font-size:24px;">strides</text><text x="688.194px" y="1210.77px" style="font-family:'AmericanTypewriter', 'American Typewriter', serif;font-size:24px;">(1,5)</text></g><path d="M205.858,1762.32l-7.094,54.934l48.204,-27.285c-17.19,3.365 -37.745,-10.459 -41.11,-27.649Z" style="fill:#808080;"/><path d="M220.883,1784.37c133.524,-198.529 826.291,-1228.57 826.291,-1228.57" style="fill:none;stroke:#808080;stroke-width:16.51px;stroke-dasharray:88.76,52.43,0,0;stroke-dashoffset:1244.76;"/><path d="M1208.66,1778.29l24.177,49.835l25.362,-49.243c-12.533,12.237 -37.302,11.941 -49.539,-0.592Z" style="fill:#808080;"/><path d="M1233.31,1788.49c2.557,-213.985 14.603,-1221.82 14.603,-1221.82" style="fill:none;stroke:#808080;stroke-width:16.51px;stroke-dasharray:88.76,52.43,0,0;stroke-dashoffset:1244.76;"/><path d="M419.55,1761.5l-4.967,55.168l47.114,-29.128c-17.047,4.027 -38.12,-8.993 -42.147,-26.04Z" style="fill:#808080;"/><path d="M435.415,1782.95c184.174,-298.696 372.53,-619.841 604.168,-1007.95" style="fill:none;stroke:#808080;stroke-width:16.51px;stroke-dasharray:88.76,52.43,0,0;stroke-dashoffset:1244.76;"/><path d="M2025.86,1817.3l55.387,-0.63l-33.737,-43.931c5.728,16.553 -5.097,38.834 -21.65,44.561Z" style="fill:#808080;"/><path d="M2045.6,1799.35c-243.065,-118.394 -492.134,-245.763 -797.684,-399.347" style="fill:none;stroke:#808080;stroke-width:16.51px;stroke-dasharray:88.76,52.43,0,0;stroke-dashoffset:1244.76;"/><defs><linearGradient id="_Linear1" x1="0" y1="0" x2="1" y2="0" gradientUnits="userSpaceOnUse" gradientTransform="matrix(0.155755,212.63,-212.63,0.155755,208.398,1712.58)"><stop offset="0" style="stop-color:#69bac9;stop-opacity:1"/><stop offset="1" style="stop-color:#33808f;stop-opacity:1"/></linearGradient><linearGradient id="_Linear2" x1="0" y1="0" x2="1" y2="0" gradientUnits="userSpaceOnUse" gradientTransform="matrix(0.155755,212.63,-212.63,0.155755,416.732,1712.58)"><stop offset="0" style="stop-color:#69bac9;stop-opacity:1"/><stop offset="1" style="stop-color:#33808f;stop-opacity:1"/></linearGradient><linearGradient id="_Linear3" x1="0" y1="0" x2="1" y2="0" gradientUnits="userSpaceOnUse" gradientTransform="matrix(0.155755,212.63,-212.63,0.155755,625.065,1712.58)"><stop offset="0" style="stop-color:#69bac9;stop-opacity:1"/><stop offset="1" style="stop-color:#33808f;stop-opacity:1"/></linearGradient><linearGradient id="_Linear4" x1="0" y1="0" x2="1" y2="0" gradientUnits="userSpaceOnUse" gradientTransform="matrix(0.155755,212.63,-212.63,0.155755,833.398,1712.58)"><stop offset="0" style="stop-color:#69bac9;stop-opacity:1"/><stop offset="1" style="stop-color:#33808f;stop-opacity:1"/></linearGradient><linearGradient id="_Linear5" x1="0" y1="0" x2="1" y2="0" gradientUnits="userSpaceOnUse" gradientTransform="matrix(0.155755,212.63,-212.63,0.155755,1041.73,1712.58)"><stop offset="0" style="stop-color:#69bac9;stop-opacity:1"/><stop offset="1" style="stop-color:#33808f;stop-opacity:1"/></linearGradient><linearGradient id="_Linear6" x1="0" y1="0" x2="1" y2="0" gradientUnits="userSpaceOnUse" gradientTransform="matrix(0.155755,212.63,-212.63,0.155755,1250.07,1712.58)"><stop offset="0" style="stop-color:#69bac9;stop-opacity:1"/><stop offset="1" style="stop-color:#33808f;stop-opacity:1"/></linearGradient><linearGradient id="_Linear7" x1="0" y1="0" x2="1" y2="0" gradientUnits="userSpaceOnUse" gradientTransform="matrix(0.155755,212.63,-212.63,0.155755,1458.4,1712.58)"><stop offset="0" style="stop-color:#69bac9;stop-opacity:1"/><stop offset="1" style="stop-color:#33808f;stop-opacity:1"/></linearGradient><linearGradient id="_Linear8" x1="0" y1="0" x2="1" y2="0" gradientUnits="userSpaceOnUse" gradientTransform="matrix(0.155755,212.63,-212.63,0.155755,1666.73,1712.58)"><stop offset="0" style="stop-color:#69bac9;stop-opacity:1"/><stop offset="1" style="stop-color:#33808f;stop-opacity:1"/></linearGradient><linearGradient id="_Linear9" x1="0" y1="0" x2="1" y2="0" gradientUnits="userSpaceOnUse" gradientTransform="matrix(0.155755,212.63,-212.63,0.155755,1875.07,1712.58)"><stop offset="0" style="stop-color:#69bac9;stop-opacity:1"/><stop offset="1" style="stop-color:#33808f;stop-opacity:1"/></linearGradient><linearGradient id="_Linear10" x1="0" y1="0" x2="1" y2="0" gradientUnits="userSpaceOnUse" gradientTransform="matrix(0.155755,212.63,-212.63,0.155755,2083.4,1712.58)"><stop offset="0" style="stop-color:#69bac9;stop-opacity:1"/><stop offset="1" style="stop-color:#33808f;stop-opacity:1"/></linearGradient></defs></svg>