<?xml version="1.0" encoding="UTF-8" standalone="no"?><!DOCTYPE svg PUBLIC "-//W3C//DTD SVG 1.1//EN" "http://www.w3.org/Graphics/SVG/1.1/DTD/svg11.dtd"><svg width="100%" height="100%" viewBox="0 0 4169 2030" version="1.1" xmlns="http://www.w3.org/2000/svg" xmlns:xlink="http://www.w3.org/1999/xlink" xml:space="preserve" xmlns:serif="http://www.serif.com/" style="fill-rule:evenodd;clip-rule:evenodd;stroke-linecap:round;stroke-linejoin:round;stroke-miterlimit:1.5;"><path d="M1651.52,1152.66c-0,5.262 4.265,9.527 9.527,9.527l212.63,-0.546c4.96,-0 8.981,-4.021 8.981,-8.981l0.189,-212.631c-0,-5.064 -4.106,-9.169 -9.17,-9.169l-212.63,-0.36c-5.263,0 -9.529,4.267 -9.529,9.529l0.002,212.631Zm19.056,-203.117l-0.001,193.614l194.113,0.499l-0.172,-194.442l-193.94,0.329Z"/><path d="M1648.42,1366.47c-0,5.262 4.266,9.527 9.527,9.527l212.631,-0.546c4.96,0 8.981,-4.021 8.981,-8.981l0.188,-212.63c-0,-5.064 -4.105,-9.17 -9.169,-9.17l-212.631,-0.359c-5.262,-0 -9.529,4.266 -9.529,9.529l0.002,212.63Zm19.057,-203.117l-0.002,193.614l194.114,0.499l-0.173,-194.441l-193.939,0.328Z"/><path d="M1651.52,940.034c-0,5.262 4.265,9.528 9.527,9.528l212.63,-0.546c4.96,-0 8.981,-4.021 8.981,-8.982l0.189,-212.63c-0,-5.064 -4.106,-9.169 -9.17,-9.169l-212.63,-0.36c-5.263,0 -9.529,4.266 -9.529,9.529l0.002,212.63Zm19.056,-203.117l-0.001,193.615l194.113,0.498l-0.172,-194.441l-193.94,0.328Z"/><path d="M406.521,1738.78l-0.156,-212.631l-212.63,0.156l0.155,212.63l212.631,-0.155Z" style="fill:url(#_Linear1);"/><path d="M406.528,1748.94c5.613,-0.004 10.159,-4.557 10.155,-10.17l-2.568,-212.628c-0.003,-4.281 -3.475,-7.748 -7.756,-7.745l-212.63,0.594c-4.038,0.003 -7.309,3.279 -7.306,7.318l-0.2,212.63c0.003,4.235 3.438,7.665 7.673,7.662c-0,-0 28.058,0.08 63.789,0.43c62.641,0.613 148.843,1.909 148.843,1.909Zm-10.064,-20.163l2.068,-194.889l-197.468,-0.263l0.475,197.598c10.704,-0.061 31.612,-0.205 56.134,-0.481c49.711,-0.559 114.26,-1.57 138.791,-1.965Z"/><path d="M2495.6,1738.75l-0.156,-212.63l-212.63,0.156l0.155,212.63l212.631,-0.156Z" style="fill:url(#_Linear2);"/><path d="M2495.61,1748.91c5.613,-0.004 10.159,-4.557 10.155,-10.17l-2.567,-212.628c-0.004,-4.281 -3.476,-7.749 -7.757,-7.745l-212.63,0.594c-4.038,0.003 -7.309,3.279 -7.306,7.317l-0.2,212.631c0.003,4.234 3.438,7.665 7.673,7.662c0,-0 28.058,0.08 63.789,0.43c62.641,0.613 148.843,1.909 148.843,1.909Zm-10.064,-20.163l2.068,-194.889l-197.468,-0.263l0.475,197.598c10.704,-0.061 31.612,-0.205 56.135,-0.481c49.71,-0.559 114.26,-1.571 138.79,-1.965Z"/><path d="M614.854,1738.78l-0.156,-212.631l-212.63,0.156l0.156,212.63l212.63,-0.155Z" style="fill:url(#_Linear3);"/><path d="M614.861,1748.94c5.613,-0.004 10.16,-4.557 10.155,-10.17l-2.567,-212.628c-0.003,-4.281 -3.476,-7.748 -7.757,-7.745l-212.629,0.594c-4.039,0.003 -7.31,3.279 -7.307,7.318l-0.2,212.63c0.003,4.235 3.439,7.665 7.673,7.662c0,-0 28.058,0.08 63.79,0.43c62.64,0.613 148.842,1.909 148.842,1.909Zm-10.064,-20.163l2.068,-194.889l-197.468,-0.263l0.476,197.598c10.704,-0.061 31.612,-0.205 56.134,-0.481c49.711,-0.559 114.26,-1.57 138.79,-1.965Z"/><path d="M2703.94,1738.75l-0.156,-212.63l-212.63,0.156l0.156,212.63l212.63,-0.156Z" style="fill:url(#_Linear4);"/><path d="M2703.94,1748.91c5.613,-0.004 10.16,-4.557 10.156,-10.17l-2.568,-212.628c-0.003,-4.281 -3.476,-7.749 -7.756,-7.745l-212.63,0.594c-4.038,0.003 -7.31,3.279 -7.307,7.317l-0.2,212.631c0.003,4.234 3.439,7.665 7.673,7.662c0,-0 28.058,0.08 63.79,0.43c62.64,0.613 148.842,1.909 148.842,1.909Zm-10.063,-20.163l2.067,-194.889l-197.468,-0.263l0.476,197.598c10.704,-0.061 31.612,-0.205 56.134,-0.481c49.711,-0.559 114.26,-1.571 138.791,-1.965Z"/><path d="M823.187,1738.78l-0.156,-212.631l-212.63,0.156l0.156,212.63l212.63,-0.155Z" style="fill:url(#_Linear5);"/><path d="M823.195,1748.94c5.612,-0.004 10.159,-4.557 10.155,-10.17l-2.568,-212.628c-0.003,-4.281 -3.476,-7.748 -7.756,-7.745l-212.63,0.594c-4.038,0.003 -7.309,3.279 -7.306,7.318l-0.2,212.63c0.003,4.235 3.438,7.665 7.673,7.662c-0,-0 28.058,0.08 63.789,0.43c62.641,0.613 148.843,1.909 148.843,1.909Zm-10.064,-20.163l2.068,-194.889l-197.468,-0.263l0.475,197.598c10.704,-0.061 31.612,-0.205 56.134,-0.481c49.711,-0.559 114.26,-1.57 138.791,-1.965Z"/><path d="M2912.27,1738.75l-0.155,-212.63l-212.631,0.156l0.156,212.63l212.63,-0.156Z" style="fill:url(#_Linear6);"/><path d="M2912.28,1748.91c5.612,-0.004 10.159,-4.557 10.155,-10.17l-2.568,-212.628c-0.003,-4.281 -3.476,-7.749 -7.756,-7.745l-212.63,0.594c-4.038,0.003 -7.309,3.279 -7.306,7.317l-0.2,212.631c0.003,4.234 3.438,7.665 7.673,7.662c-0,-0 28.058,0.08 63.789,0.43c62.641,0.613 148.843,1.909 148.843,1.909Zm-10.064,-20.163l2.068,-194.889l-197.468,-0.263l0.475,197.598c10.704,-0.061 31.612,-0.205 56.134,-0.481c49.711,-0.559 114.26,-1.571 138.791,-1.965Z"/><path d="M1031.52,1738.78l-0.156,-212.631l-212.63,0.156l0.155,212.63l212.631,-0.155Z" style="fill:url(#_Linear7);"/><path d="M1031.53,1748.94c5.613,-0.004 10.159,-4.557 10.155,-10.17l-2.568,-212.628c-0.003,-4.281 -3.475,-7.748 -7.756,-7.745l-212.63,0.594c-4.038,0.003 -7.309,3.279 -7.306,7.318l-0.2,212.63c0.003,4.235 3.438,7.665 7.673,7.662c-0,-0 28.058,0.08 63.789,0.43c62.641,0.613 148.843,1.909 148.843,1.909Zm-10.064,-20.163l2.068,-194.889l-197.468,-0.263l0.475,197.598c10.704,-0.061 31.612,-0.205 56.134,-0.481c49.711,-0.559 114.26,-1.57 138.791,-1.965Z"/><path d="M3120.6,1738.75l-0.156,-212.63l-212.63,0.156l0.155,212.63l212.631,-0.156Z" style="fill:url(#_Linear8);"/><path d="M3120.61,1748.91c5.613,-0.004 10.159,-4.557 10.155,-10.17c0,0 -2.567,-212.628 -2.567,-212.628c-0.004,-4.281 -3.476,-7.749 -7.757,-7.745l-212.63,0.594c-4.038,0.003 -7.309,3.279 -7.306,7.317l-0.2,212.631c0.003,4.234 3.438,7.665 7.673,7.662c0,-0 28.058,0.08 63.789,0.43c62.641,0.613 148.843,1.909 148.843,1.909Zm-10.064,-20.163l2.068,-194.889l-197.468,-0.263l0.475,197.598c10.704,-0.061 31.612,-0.205 56.135,-0.481c49.71,-0.559 114.26,-1.571 138.79,-1.965Z"/><path d="M1239.85,1738.78l-0.156,-212.631l-212.63,0.156l0.156,212.63l212.63,-0.155Z" style="fill:url(#_Linear9);"/><path d="M1239.86,1748.94c5.613,-0.004 10.16,-4.557 10.155,-10.17l-2.567,-212.628c-0.003,-4.281 -3.476,-7.748 -7.757,-7.745l-212.629,0.594c-4.039,0.003 -7.31,3.279 -7.307,7.318l-0.2,212.63c0.003,4.235 3.439,7.665 7.673,7.662c0,-0 28.058,0.08 63.79,0.43c62.64,0.613 148.842,1.909 148.842,1.909Zm-10.064,-20.163l2.068,-194.889l-197.468,-0.263l0.476,197.598c10.704,-0.061 31.612,-0.205 56.134,-0.481c49.711,-0.559 114.26,-1.57 138.79,-1.965Z"/><path d="M3328.94,1738.75l-0.156,-212.63l-212.63,0.156l0.156,212.63l212.63,-0.156Z" style="fill:url(#_Linear10);"/><path d="M3328.94,1748.91c5.613,-0.004 10.16,-4.557 10.156,-10.17l-2.568,-212.628c-0.003,-4.281 -3.476,-7.749 -7.756,-7.745l-212.63,0.594c-4.038,0.003 -7.31,3.279 -7.307,7.317l-0.2,212.631c0.003,4.234 3.439,7.665 7.673,7.662c0,-0 28.058,0.08 63.79,0.43c62.64,0.613 148.842,1.909 148.842,1.909Zm-10.063,-20.163l2.067,-194.889l-197.468,-0.263l0.476,197.598c10.704,-0.061 31.612,-0.205 56.134,-0.481c49.711,-0.559 114.26,-1.571 138.791,-1.965Z"/><path d="M1448.19,1738.78l-0.156,-212.631l-212.63,0.156l0.156,212.63l212.63,-0.155Z" style="fill:url(#_Linear11);"/><path d="M1448.19,1748.94c5.612,-0.004 10.159,-4.557 10.155,-10.17l-2.568,-212.628c-0.003,-4.281 -3.476,-7.748 -7.756,-7.745l-212.63,0.594c-4.038,0.003 -7.309,3.279 -7.306,7.318l-0.2,212.63c0.003,4.235 3.438,7.665 7.673,7.662c-0,-0 28.058,0.08 63.789,0.43c62.641,0.613 148.843,1.909 148.843,1.909Zm-10.064,-20.163l2.068,-194.889l-197.468,-0.263l0.475,197.598c10.704,-0.061 31.612,-0.205 56.134,-0.481c49.711,-0.559 114.26,-1.57 138.791,-1.965Z"/><path d="M3537.27,1738.75l-0.155,-212.63l-212.631,0.156l0.156,212.63l212.63,-0.156Z" style="fill:url(#_Linear12);"/><path d="M3537.28,1748.91c5.612,-0.004 10.159,-4.557 10.155,-10.17l-2.568,-212.628c-0.003,-4.281 -3.476,-7.749 -7.756,-7.745l-212.63,0.594c-4.038,0.003 -7.309,3.279 -7.306,7.317l-0.2,212.631c0.003,4.234 3.438,7.665 7.673,7.662c-0,-0 28.058,0.08 63.789,0.43c62.641,0.613 148.843,1.909 148.843,1.909Zm-10.064,-20.163l2.068,-194.889l-197.468,-0.263l0.475,197.598c10.704,-0.061 31.612,-0.205 56.134,-0.481c49.711,-0.559 114.26,-1.571 138.791,-1.965Z"/><path d="M1656.52,1738.78l-0.156,-212.631l-212.63,0.156l0.155,212.63l212.631,-0.155Z" style="fill:url(#_Linear13);"/><path d="M1656.53,1748.94c5.613,-0.004 10.159,-4.557 10.155,-10.17l-2.568,-212.628c-0.003,-4.281 -3.475,-7.748 -7.756,-7.745l-212.63,0.594c-4.038,0.003 -7.309,3.279 -7.306,7.318l-0.2,212.63c0.003,4.235 3.438,7.665 7.673,7.662c-0,-0 28.058,0.08 63.789,0.43c62.641,0.613 148.843,1.909 148.843,1.909Zm-10.064,-20.163l2.068,-194.889l-197.468,-0.263l0.475,197.598c10.704,-0.061 31.612,-0.205 56.134,-0.481c49.711,-0.559 114.26,-1.57 138.791,-1.965Z"/><path d="M3745.6,1738.75l-0.156,-212.63l-212.63,0.156l0.155,212.63l212.631,-0.156Z" style="fill:url(#_Linear14);"/><path d="M3745.61,1748.91c5.613,-0.004 10.159,-4.557 10.155,-10.17l-2.567,-212.628c-0.004,-4.281 -3.476,-7.749 -7.757,-7.745l-212.63,0.594c-4.038,0.003 -7.309,3.279 -7.306,7.317l-0.2,212.631c0.003,4.234 3.438,7.665 7.673,7.662c0,-0 28.058,0.08 63.789,0.43c62.641,0.613 148.843,1.909 148.843,1.909Zm-10.064,-20.163l2.068,-194.889l-197.468,-0.263l0.475,197.598c10.704,-0.061 31.612,-0.205 56.135,-0.481c49.71,-0.559 114.26,-1.571 138.79,-1.965Z"/><path d="M1864.85,1738.78l-0.156,-212.631l-212.63,0.156l0.156,212.63l212.63,-0.155Z" style="fill:url(#_Linear15);"/><path d="M1864.86,1748.94c5.613,-0.004 10.16,-4.557 10.155,-10.17l-2.567,-212.628c-0.003,-4.281 -3.476,-7.748 -7.757,-7.745l-212.629,0.594c-4.039,0.003 -7.31,3.279 -7.307,7.318l-0.2,212.63c0.003,4.235 3.439,7.665 7.673,7.662c0,-0 28.058,0.08 63.79,0.43c62.64,0.613 148.842,1.909 148.842,1.909Zm-10.064,-20.163l2.068,-194.889l-197.468,-0.263l0.476,197.598c10.704,-0.061 31.612,-0.205 56.134,-0.481c49.711,-0.559 114.26,-1.57 138.79,-1.965Z"/><path d="M3953.94,1738.75l-0.156,-212.63l-212.63,0.156l0.156,212.63l212.63,-0.156Z" style="fill:url(#_Linear16);"/><path d="M3953.94,1748.91c5.613,-0.004 10.16,-4.557 10.156,-10.17l-2.568,-212.628c-0.003,-4.281 -3.476,-7.749 -7.756,-7.745l-212.63,0.594c-4.038,0.003 -7.31,3.279 -7.307,7.317l-0.2,212.631c0.003,4.234 3.439,7.665 7.673,7.662c0,-0 28.058,0.08 63.79,0.43c62.64,0.613 148.842,1.909 148.842,1.909Zm-10.063,-20.163l2.067,-194.889l-197.468,-0.263l0.476,197.598c10.704,-0.061 31.612,-0.205 56.134,-0.481c49.711,-0.559 114.26,-1.571 138.791,-1.965Z"/><path d="M2073.19,1738.78l-0.156,-212.631l-212.63,0.156l0.156,212.63l212.63,-0.155Z" style="fill:url(#_Linear17);"/><path d="M2073.2,1748.94c5.612,-0.004 10.159,-4.557 10.155,-10.17l-2.568,-212.628c-0.003,-4.281 -3.476,-7.748 -7.756,-7.745l-212.63,0.594c-4.038,0.003 -7.309,3.279 -7.306,7.318l-0.2,212.63c0.003,4.235 3.438,7.665 7.673,7.662c-0,-0 28.058,0.08 63.789,0.43c62.641,0.613 148.843,1.909 148.843,1.909Zm-10.064,-20.163l2.068,-194.889l-197.468,-0.263l0.475,197.598c10.704,-0.061 31.612,-0.205 56.134,-0.481c49.711,-0.559 114.26,-1.57 138.791,-1.965Z"/><path d="M2281.52,1738.78l-0.156,-212.631l-212.63,0.156l0.155,212.63l212.631,-0.155Z" style="fill:url(#_Linear18);"/><path d="M2281.53,1748.94c5.613,-0.004 10.159,-4.557 10.155,-10.17l-2.568,-212.628c-0.003,-4.281 -3.475,-7.748 -7.756,-7.745l-212.63,0.594c-4.038,0.003 -7.309,3.279 -7.306,7.318l-0.2,212.63c0.003,4.235 3.438,7.665 7.673,7.662c-0,-0 28.058,0.08 63.789,0.43c62.641,0.613 148.843,1.909 148.843,1.909Zm-10.064,-20.163l2.068,-194.889l-197.468,-0.263l0.475,197.598c10.704,-0.061 31.612,-0.205 56.134,-0.481c49.711,-0.559 114.26,-1.57 138.791,-1.965Z"/><path d="M1438.89,1152.66c-0,5.262 4.265,9.527 9.527,9.527l212.63,-0.546c4.96,-0 8.981,-4.021 8.981,-8.981l0.189,-212.631c-0,-5.064 -4.106,-9.169 -9.17,-9.169l-212.63,-0.36c-5.263,0 -9.529,4.267 -9.529,9.529l0.002,212.631Zm19.056,-203.117l-0.002,193.614l194.114,0.499l-0.172,-194.442l-193.94,0.329Z"/><path d="M1435.79,1366.47c-0,5.262 4.265,9.527 9.527,9.527l212.63,-0.546c4.96,0 8.981,-4.021 8.981,-8.981l0.189,-212.63c-0,-5.064 -4.106,-9.17 -9.17,-9.17l-212.63,-0.359c-5.263,-0 -9.529,4.266 -9.529,9.529l0.002,212.63Zm19.056,-203.117l-0.001,193.614l194.113,0.499l-0.172,-194.441l-193.94,0.328Z"/><path d="M1438.89,940.034c-0,5.262 4.265,9.528 9.527,9.528l212.63,-0.546c4.96,-0 8.981,-4.021 8.981,-8.982l0.189,-212.63c-0,-5.064 -4.106,-9.169 -9.17,-9.169l-212.63,-0.36c-5.263,0 -9.529,4.266 -9.529,9.529l0.002,212.63Zm19.056,-203.117l-0.002,193.615l194.114,0.498l-0.172,-194.441l-193.94,0.328Z"/><path d="M1226.26,1152.66c0,5.262 4.266,9.527 9.528,9.527l212.63,-0.546c4.96,-0 8.981,-4.021 8.981,-8.981l0.188,-212.631c0,-5.064 -4.105,-9.169 -9.169,-9.169l-212.63,-0.36c-5.263,0 -9.529,4.267 -9.529,9.529c-0,0 0.001,212.631 0.001,212.631Zm19.057,-203.117l-0.002,193.614l194.114,0.499l-0.172,-194.442l-193.94,0.329Z"/><path d="M1223.16,1366.47c-0,5.262 4.265,9.527 9.527,9.527l212.63,-0.546c4.96,0 8.981,-4.021 8.981,-8.981l0.189,-212.63c-0,-5.064 -4.106,-9.17 -9.17,-9.17l-212.63,-0.359c-5.263,-0 -9.529,4.266 -9.529,9.529l0.002,212.63Zm19.056,-203.117l-0.002,193.614l194.114,0.499l-0.172,-194.441l-193.94,0.328Z"/><path d="M1226.26,940.034c0,5.262 4.266,9.528 9.528,9.528l212.63,-0.546c4.96,-0 8.981,-4.021 8.981,-8.982l0.188,-212.63c0,-5.064 -4.105,-9.169 -9.169,-9.169l-212.63,-0.36c-5.263,0 -9.529,4.266 -9.529,9.529c-0,0 0.001,212.63 0.001,212.63Zm19.057,-203.117l-0.002,193.615l194.114,0.498l-0.172,-194.441l-193.94,0.328Z"/><path d="M1226.26,940.034c0,5.262 4.266,9.528 9.528,9.528l212.63,-0.546c4.96,-0 8.981,-4.021 8.981,-8.982l0.188,-212.63c0,-5.064 -4.105,-9.169 -9.169,-9.169l-212.63,-0.36c-5.263,0 -9.529,4.266 -9.529,9.529c-0,0 0.001,212.63 0.001,212.63Zm19.057,-203.117l-0.002,193.615l194.114,0.498l-0.172,-194.441l-193.94,0.328Z"/><text x="1889.86px" y="1920.81px" style="font-family:'AmericanTypewriter', 'American Typewriter', serif;font-size:154.421px;">storage</text><text x="1874.26px" y="226.181px" style="font-family:'AmericanTypewriter', 'American Typewriter', serif;font-size:154.421px;">tensor</text><g transform="matrix(6.74629,0,0,6.74629,-1897.88,-7317.38)"><text x="681.198px" y="1186.77px" style="font-family:'AmericanTypewriter', 'American Typewriter', serif;font-size:24px;">shape</text><text x="674.646px" y="1210.77px" style="font-family:'AmericanTypewriter', 'American Typewriter', serif;font-size:24px;">(3,3,2)</text></g><g transform="matrix(6.4342,0,0,6.4342,-1698.92,-6377.84)"><text x="677.598px" y="1186.77px" style="font-family:'AmericanTypewriter', 'American Typewriter', serif;font-size:24px;">strides</text><text x="677.598px" y="1210.77px" style="font-family:'AmericanTypewriter', 'American Typewriter', serif;font-size:24px;">(1,3,9)</text></g><path d="M294.261,1574.93l17.635,52.508l31.426,-45.613c-13.989,10.542 -38.52,7.094 -49.061,-6.895Z" style="fill:#808080;"/><path d="M317.412,1588.19c69.95,-272.778 785.147,-848.581 1005.37,-772.211" style="fill:none;stroke:#808080;stroke-width:16.51px;stroke-dasharray:88.76,52.43,0,0;stroke-dashoffset:1244.76;"/><path d="M2152.83,1585.91l19.329,51.908l29.929,-46.609c-13.639,10.99 -38.269,8.34 -49.258,-5.299Z" style="fill:#808080;"/><path d="M2176.39,1598.41c29.032,-212.133 177.439,-790.372 57.485,-1064.99c-86.091,-197.096 -394.171,-175.91 -672.027,18.879" style="fill:none;stroke:#808080;stroke-width:16.51px;stroke-dasharray:88.76,52.43,0,0;stroke-dashoffset:1244.76;"/><path d="M512.125,1587.32l31.928,45.263l17.054,-52.7c-10.386,14.105 -34.877,17.824 -48.982,7.437Z" style="fill:#808080;"/><path d="M538.104,1593.4c-18.867,-295.237 525.338,-635.646 833.071,-742.723c84.766,-29.494 151.589,-41.285 183.761,-29.551" style="fill:none;stroke:#808080;stroke-width:16.51px;stroke-dasharray:88.76,52.43,0,0;stroke-dashoffset:1244.76;"/><path d="M902.545,1597.34l24.291,49.779l25.249,-49.3c-12.505,12.265 -37.275,12.025 -49.54,-0.479Z" style="fill:#808080;"/><path d="M927.219,1607.49c3.694,-228.204 38.795,-373.086 422.869,-573.234" style="fill:none;stroke:#808080;stroke-width:16.51px;stroke-dasharray:88.76,52.43,0,0;stroke-dashoffset:1244.76;"/><path d="M1243.8,727.54c-0,0 41.316,-27.826 94.228,-62.821c92.745,-61.339 220.938,-144.954 220.938,-144.954c4.39,-2.894 5.604,-8.808 2.71,-13.198c-2.894,-4.391 -8.808,-5.605 -13.198,-2.711c-0,0 -127.369,84.866 -220.294,145.931c-53.015,34.839 -94.872,61.845 -94.872,61.845c-4.39,2.894 -5.605,8.808 -2.71,13.198c2.894,4.39 8.808,5.605 13.198,2.71Z"/><path d="M1553.73,521.338c-0,0 68.61,-0.527 155.987,-0.667c153.158,-0.245 363.97,0.394 363.97,0.394c5.258,-0.003 9.525,-4.274 9.522,-9.533c-0.002,-5.258 -4.274,-9.525 -9.532,-9.522c-0,0 -210.811,0.86 -363.97,0.776c-87.377,-0.047 -155.987,-0.503 -155.987,-0.503c-5.259,0.003 -9.525,4.274 -9.523,9.533c0.003,5.258 4.274,9.525 9.533,9.522Z"/><path d="M2073.65,521.065c0,-0 12.378,-0.455 28.154,-0.503c27.643,-0.084 65.685,0.776 65.685,0.776c5.259,0.015 9.54,-4.241 9.556,-9.5c0.015,-5.258 -4.242,-9.54 -9.5,-9.555c-0,0 -38.047,0.639 -65.689,0.394c-15.776,-0.14 -28.15,-0.667 -28.15,-0.667c-5.259,-0.015 -9.54,4.241 -9.555,9.5c-0.016,5.258 4.241,9.54 9.499,9.555Z"/><path d="M1892.73,719.632c0,-0 -1.165,-0.062 -2.546,-0.683c-2.324,-1.044 -5.031,-3.317 -5.031,-3.317c-4.651,-2.454 -10.419,-0.672 -12.873,3.979c-2.455,4.65 -0.672,10.418 3.978,12.873c0,-0 3.404,0.953 5.578,2.282c1.292,0.79 2,1.717 2,1.717c4.65,2.455 10.419,0.672 12.873,-3.979c2.454,-4.65 0.672,-10.418 -3.979,-12.872Z"/><path d="M1893.95,735.711c-0,0 37.689,-28.55 86.006,-64.483c84.69,-62.985 201.842,-148.895 201.842,-148.895c4.224,-3.132 5.111,-9.104 1.98,-13.328c-3.132,-4.224 -9.104,-5.111 -13.328,-1.98c0,-0 -116.259,87.114 -201.145,149.835c-48.428,35.783 -86.703,63.544 -86.703,63.544c-4.224,3.131 -5.111,9.103 -1.98,13.327c3.132,4.224 9.104,5.112 13.328,1.98Z"/><path d="M1882.26,1371.98c-0,0 38.386,-26.777 87.573,-60.439c86.216,-59.005 205.435,-139.415 205.435,-139.415c4.344,-2.963 5.466,-8.895 2.503,-13.239c-2.963,-4.344 -8.896,-5.466 -13.24,-2.503c0,0 -118.375,81.648 -204.776,140.381c-49.293,33.508 -88.232,59.473 -88.232,59.473c-4.344,2.963 -5.466,8.896 -2.503,13.24c2.963,4.344 8.896,5.465 13.24,2.502Z"/><path d="M2168.41,536.453c0,0 -0.393,81.232 -1.426,184.677c-1.811,181.322 -5.278,430.89 -5.278,430.89c-0.057,5.258 4.165,9.574 9.423,9.631c5.258,0.057 9.574,-4.165 9.631,-9.423c0,-0 1.969,-249.584 4.108,-430.904c1.22,-103.442 2.596,-184.663 2.596,-184.663c0.057,-5.258 -4.165,-9.574 -9.423,-9.631c-5.258,-0.057 -9.574,4.165 -9.631,9.423Z"/><path d="M1886.59,944.79c0,0 39.098,-28.659 89.201,-64.727c87.822,-63.22 209.272,-149.445 209.272,-149.445c4.272,-3.066 5.252,-9.023 2.186,-13.295c-3.066,-4.273 -9.023,-5.252 -13.295,-2.187c-0,0 -120.576,87.443 -208.59,150.396c-50.212,35.915 -89.883,63.777 -89.883,63.777c-4.272,3.065 -5.251,9.023 -2.186,13.295c3.066,4.272 9.023,5.252 13.295,2.186Z"/><path d="M1893.55,1173.12c0,0 37.592,-28.589 85.785,-64.573c84.475,-63.074 201.329,-149.107 201.329,-149.107c4.218,-3.14 5.094,-9.113 1.955,-13.332c-3.139,-4.218 -9.113,-5.094 -13.331,-1.955c-0,0 -115.96,87.236 -200.631,150.046c-48.305,35.834 -86.483,63.635 -86.483,63.635c-4.218,3.14 -5.094,9.113 -1.955,13.331c3.14,4.219 9.113,5.095 13.331,1.955Z"/><path d="M1671.75,741.779c0,-0 37.867,-28.594 86.409,-64.581c85.086,-63.08 202.779,-149.12 202.779,-149.12c4.229,-3.126 5.125,-9.096 2,-13.325c-3.125,-4.229 -9.095,-5.125 -13.324,-2c-0,-0 -116.803,87.245 -202.084,150.061c-48.653,35.837 -87.104,63.64 -87.104,63.64c-4.229,3.125 -5.125,9.096 -2,13.325c3.125,4.229 9.096,5.125 13.324,2Z"/><path d="M1452.93,751.368c0,0 36.491,-30.258 83.299,-68.381c82.047,-66.823 195.593,-158.043 195.593,-158.043c4.083,-3.315 4.706,-9.32 1.392,-13.402c-3.314,-4.082 -9.32,-4.706 -13.402,-1.392c0,0 -112.602,92.383 -194.856,158.952c-46.926,37.977 -84.036,67.473 -84.036,67.473c-4.082,3.314 -4.706,9.319 -1.391,13.402c3.314,4.082 9.319,4.706 13.401,1.391Z"/><path d="M1429.58,618.519c0,-0 79.261,-1.43 180.206,-2.718c176.943,-2.257 420.505,-4.39 420.505,-4.39c5.258,-0.062 9.476,-4.381 9.414,-9.639c-0.063,-5.258 -4.382,-9.477 -9.64,-9.414c0,-0 -243.543,3.63 -420.49,5.56c-100.948,1.101 -180.22,1.547 -180.22,1.547c-5.258,0.062 -9.477,4.382 -9.414,9.64c0.062,5.258 4.381,9.476 9.639,9.414Z"/><path d="M2023.19,635.234c0,0 1.249,79.475 2.306,180.692c1.854,177.418 3.431,421.632 3.431,421.632c0.05,5.258 4.36,9.486 9.618,9.436c5.258,-0.05 9.486,-4.36 9.436,-9.618c-0,0 -3.075,-244.199 -4.601,-421.621c-0.87,-101.218 -1.136,-180.702 -1.136,-180.702c-0.05,-5.258 -4.359,-9.487 -9.617,-9.437c-5.258,0.051 -9.487,4.36 -9.437,9.618Z"/><defs><linearGradient id="_Linear1" x1="0" y1="0" x2="1" y2="0" gradientUnits="userSpaceOnUse" gradientTransform="matrix(0.0778776,106.315,-106.315,0.0778776,300.128,1632.54)"><stop offset="0" style="stop-color:#69bac9;stop-opacity:1"/><stop offset="1" style="stop-color:#33808f;stop-opacity:1"/></linearGradient><linearGradient id="_Linear2" x1="0" y1="0" x2="1" y2="0" gradientUnits="userSpaceOnUse" gradientTransform="matrix(0.0778776,106.315,-106.315,0.0778776,2389.21,1632.51)"><stop offset="0" style="stop-color:#69bac9;stop-opacity:1"/><stop offset="1" style="stop-color:#33808f;stop-opacity:1"/></linearGradient><linearGradient id="_Linear3" x1="0" y1="0" x2="1" y2="0" gradientUnits="userSpaceOnUse" gradientTransform="matrix(0.0778776,106.315,-106.315,0.0778776,508.461,1632.54)"><stop offset="0" style="stop-color:#69bac9;stop-opacity:1"/><stop offset="1" style="stop-color:#33808f;stop-opacity:1"/></linearGradient><linearGradient id="_Linear4" x1="0" y1="0" x2="1" y2="0" gradientUnits="userSpaceOnUse" gradientTransform="matrix(0.0778776,106.315,-106.315,0.0778776,2597.54,1632.51)"><stop offset="0" style="stop-color:#69bac9;stop-opacity:1"/><stop offset="1" style="stop-color:#33808f;stop-opacity:1"/></linearGradient><linearGradient id="_Linear5" x1="0" y1="0" x2="1" y2="0" gradientUnits="userSpaceOnUse" gradientTransform="matrix(0.0778776,106.315,-106.315,0.0778776,716.794,1632.54)"><stop offset="0" style="stop-color:#69bac9;stop-opacity:1"/><stop offset="1" style="stop-color:#33808f;stop-opacity:1"/></linearGradient><linearGradient id="_Linear6" x1="0" y1="0" x2="1" y2="0" gradientUnits="userSpaceOnUse" gradientTransform="matrix(0.0778776,106.315,-106.315,0.0778776,2805.88,1632.51)"><stop offset="0" style="stop-color:#69bac9;stop-opacity:1"/><stop offset="1" style="stop-color:#33808f;stop-opacity:1"/></linearGradient><linearGradient id="_Linear7" x1="0" y1="0" x2="1" y2="0" gradientUnits="userSpaceOnUse" gradientTransform="matrix(0.0778776,106.315,-106.315,0.0778776,925.128,1632.54)"><stop offset="0" style="stop-color:#69bac9;stop-opacity:1"/><stop offset="1" style="stop-color:#33808f;stop-opacity:1"/></linearGradient><linearGradient id="_Linear8" x1="0" y1="0" x2="1" y2="0" gradientUnits="userSpaceOnUse" gradientTransform="matrix(0.0778776,106.315,-106.315,0.0778776,3014.21,1632.51)"><stop offset="0" style="stop-color:#69bac9;stop-opacity:1"/><stop offset="1" style="stop-color:#33808f;stop-opacity:1"/></linearGradient><linearGradient id="_Linear9" x1="0" y1="0" x2="1" y2="0" gradientUnits="userSpaceOnUse" gradientTransform="matrix(0.0778776,106.315,-106.315,0.0778776,1133.46,1632.54)"><stop offset="0" style="stop-color:#69bac9;stop-opacity:1"/><stop offset="1" style="stop-color:#33808f;stop-opacity:1"/></linearGradient><linearGradient id="_Linear10" x1="0" y1="0" x2="1" y2="0" gradientUnits="userSpaceOnUse" gradientTransform="matrix(0.0778776,106.315,-106.315,0.0778776,3222.54,1632.51)"><stop offset="0" style="stop-color:#69bac9;stop-opacity:1"/><stop offset="1" style="stop-color:#33808f;stop-opacity:1"/></linearGradient><linearGradient id="_Linear11" x1="0" y1="0" x2="1" y2="0" gradientUnits="userSpaceOnUse" gradientTransform="matrix(0.0778776,106.315,-106.315,0.0778776,1341.79,1632.54)"><stop offset="0" style="stop-color:#69bac9;stop-opacity:1"/><stop offset="1" style="stop-color:#33808f;stop-opacity:1"/></linearGradient><linearGradient id="_Linear12" x1="0" y1="0" x2="1" y2="0" gradientUnits="userSpaceOnUse" gradientTransform="matrix(0.0778776,106.315,-106.315,0.0778776,3430.88,1632.51)"><stop offset="0" style="stop-color:#69bac9;stop-opacity:1"/><stop offset="1" style="stop-color:#33808f;stop-opacity:1"/></linearGradient><linearGradient id="_Linear13" x1="0" y1="0" x2="1" y2="0" gradientUnits="userSpaceOnUse" gradientTransform="matrix(0.0778776,106.315,-106.315,0.0778776,1550.13,1632.54)"><stop offset="0" style="stop-color:#69bac9;stop-opacity:1"/><stop offset="1" style="stop-color:#33808f;stop-opacity:1"/></linearGradient><linearGradient id="_Linear14" x1="0" y1="0" x2="1" y2="0" gradientUnits="userSpaceOnUse" gradientTransform="matrix(0.0778776,106.315,-106.315,0.0778776,3639.21,1632.51)"><stop offset="0" style="stop-color:#69bac9;stop-opacity:1"/><stop offset="1" style="stop-color:#33808f;stop-opacity:1"/></linearGradient><linearGradient id="_Linear15" x1="0" y1="0" x2="1" y2="0" gradientUnits="userSpaceOnUse" gradientTransform="matrix(0.0778776,106.315,-106.315,0.0778776,1758.46,1632.54)"><stop offset="0" style="stop-color:#69bac9;stop-opacity:1"/><stop offset="1" style="stop-color:#33808f;stop-opacity:1"/></linearGradient><linearGradient id="_Linear16" x1="0" y1="0" x2="1" y2="0" gradientUnits="userSpaceOnUse" gradientTransform="matrix(0.0778776,106.315,-106.315,0.0778776,3847.54,1632.51)"><stop offset="0" style="stop-color:#69bac9;stop-opacity:1"/><stop offset="1" style="stop-color:#33808f;stop-opacity:1"/></linearGradient><linearGradient id="_Linear17" x1="0" y1="0" x2="1" y2="0" gradientUnits="userSpaceOnUse" gradientTransform="matrix(0.0778776,106.315,-106.315,0.0778776,1966.79,1632.54)"><stop offset="0" style="stop-color:#69bac9;stop-opacity:1"/><stop offset="1" style="stop-color:#33808f;stop-opacity:1"/></linearGradient><linearGradient id="_Linear18" x1="0" y1="0" x2="1" y2="0" gradientUnits="userSpaceOnUse" gradientTransform="matrix(0.0778776,106.315,-106.315,0.0778776,2175.13,1632.54)"><stop offset="0" style="stop-color:#69bac9;stop-opacity:1"/><stop offset="1" style="stop-color:#33808f;stop-opacity:1"/></linearGradient></defs></svg>