<?xml version="1.0" encoding="UTF-8" standalone="no"?><!DOCTYPE svg PUBLIC "-//W3C//DTD SVG 1.1//EN" "http://www.w3.org/Graphics/SVG/1.1/DTD/svg11.dtd"><svg width="100%" height="100%" viewBox="0 0 1765 1146" version="1.1" xmlns="http://www.w3.org/2000/svg" xmlns:xlink="http://www.w3.org/1999/xlink" xml:space="preserve" xmlns:serif="http://www.serif.com/" style="fill-rule:evenodd;clip-rule:evenodd;stroke-linecap:round;stroke-linejoin:round;stroke-miterlimit:1.5;"><path d="M925.13,711.928l-212.63,0l57.134,-54.077l-4.77,108.992l-52.364,-54.915" style="fill:#090a0c;"/><path d="M709.655,699.111l52.24,-49.436c3.331,-3.152 8.242,-3.969 12.414,-2.064c4.172,1.905 6.771,6.15 6.571,10.732l-1.616,42.121c12.611,-0.066 26.081,-0.154 39.551,-0.273c53.165,-0.466 106.315,-1.393 106.315,-1.393c7.247,0 13.13,5.884 13.13,13.13c0,7.247 -5.883,13.13 -13.13,13.13c0,0 -53.15,-0.927 -106.315,-1.393c-13.783,-0.121 -27.567,-0.211 -40.431,-0.277l-1.687,43.973c-0.208,4.743 -3.227,8.904 -7.673,10.572c-4.445,1.668 -9.456,0.52 -12.733,-2.916l-53.293,-54.028c-5.001,-5.244 -4.804,-13.562 0.441,-18.563c1.797,-1.714 3.954,-2.817 6.216,-3.315Zm31.129,24.133l13.637,14.795l0.725,-14.751l-9.422,-0.034l-4.94,-0.01Zm15.479,-22.679l0.751,-15.265l-16.175,15.313l4.885,-0.011l10.539,-0.037Z"/><g><path d="M512.924,626.959c5.612,-0.004 10.159,-4.557 10.155,-10.17l-2.568,-212.628c-0.003,-4.281 -3.476,-7.748 -7.756,-7.745l-212.63,0.595c-4.038,0.003 -7.31,3.279 -7.307,7.317l-0.2,212.63c0.004,4.235 3.439,7.665 7.674,7.662c-0,0 28.057,0.081 63.789,0.43c62.641,0.613 148.843,1.909 148.843,1.909Zm-10.064,-20.163l2.068,-194.889l-197.469,-0.263l0.476,197.599c10.704,-0.062 31.612,-0.206 56.134,-0.482c49.711,-0.559 114.26,-1.57 138.791,-1.965Z"/><path d="M300.293,627.115c5.613,-0.004 10.16,-4.557 10.156,-10.17l-2.568,-212.628c-0.003,-4.281 -3.476,-7.748 -7.757,-7.745l-212.629,0.594c-4.038,0.003 -7.31,3.279 -7.307,7.318l-0.2,212.63c0.003,4.235 3.439,7.665 7.673,7.662c0,-0 28.058,0.08 63.79,0.43c62.64,0.613 148.842,1.909 148.842,1.909Zm-10.064,-20.163l2.068,-194.889l-197.468,-0.263l0.476,197.598c10.704,-0.061 31.612,-0.205 56.134,-0.481c49.711,-0.559 114.26,-1.57 138.79,-1.965Z"/><path d="M513.079,839.59c5.613,-0.005 10.16,-4.558 10.155,-10.17l-2.567,-212.629c-0.003,-4.28 -3.476,-7.748 -7.757,-7.745l-212.629,0.595c-4.039,0.003 -7.31,3.279 -7.307,7.317l-0.2,212.63c0.003,4.235 3.439,7.665 7.673,7.662c0,0 28.058,0.081 63.79,0.431c62.64,0.613 148.842,1.909 148.842,1.909Zm-10.064,-20.163l2.068,-194.89l-197.468,-0.263l0.476,197.599c10.704,-0.062 31.612,-0.206 56.134,-0.482c49.711,-0.559 114.26,-1.57 138.79,-1.964Z"/><path d="M300.449,839.745c5.613,-0.004 10.159,-4.557 10.155,-10.17l-2.567,-212.628c-0.004,-4.281 -3.476,-7.748 -7.757,-7.745l-212.63,0.595c-4.038,0.003 -7.309,3.279 -7.306,7.317l-0.2,212.63c0.003,4.235 3.438,7.665 7.673,7.662c0,-0 28.058,0.081 63.789,0.43c62.641,0.613 148.843,1.909 148.843,1.909Zm-10.064,-20.163l2.068,-194.889l-197.468,-0.263l0.475,197.599c10.704,-0.062 31.612,-0.206 56.135,-0.482c49.71,-0.559 114.26,-1.57 138.79,-1.965Z"/><path d="M513.235,1052.22c5.613,-0.004 10.159,-4.558 10.155,-10.17l-2.567,-212.629c-0.004,-4.28 -3.476,-7.748 -7.757,-7.745l-212.63,0.595c-4.038,0.003 -7.309,3.279 -7.306,7.317l-0.2,212.63c0.003,4.235 3.438,7.665 7.673,7.662c0,0 28.058,0.081 63.789,0.431c62.641,0.613 148.843,1.909 148.843,1.909Zm-10.064,-20.163l2.068,-194.89l-197.468,-0.263l0.475,197.599c10.704,-0.062 31.612,-0.205 56.134,-0.481c49.711,-0.56 114.26,-1.571 138.791,-1.965Z"/><path d="M300.605,1052.38c5.613,-0.004 10.159,-4.557 10.155,-10.17l-2.568,-212.628c-0.003,-4.281 -3.475,-7.748 -7.756,-7.745l-212.63,0.595c-4.038,0.003 -7.309,3.279 -7.306,7.317l-0.2,212.63c0.003,4.235 3.438,7.665 7.673,7.662c-0,0 28.058,0.081 63.789,0.43c62.641,0.613 148.843,1.909 148.843,1.909Zm-10.064,-20.162l2.068,-194.89l-197.468,-0.263l0.475,197.599c10.704,-0.062 31.612,-0.206 56.134,-0.482c49.711,-0.559 114.26,-1.57 138.791,-1.964Z"/><path d="M300.605,1052.38c5.613,-0.004 10.159,-4.557 10.155,-10.17l-2.568,-212.628c-0.003,-4.281 -3.475,-7.748 -7.756,-7.745l-212.63,0.595c-4.038,0.003 -7.309,3.279 -7.306,7.317l-0.2,212.63c0.003,4.235 3.438,7.665 7.673,7.662c-0,0 28.058,0.081 63.789,0.43c62.641,0.613 148.843,1.909 148.843,1.909Zm-10.064,-20.162l2.068,-194.89l-197.468,-0.263l0.475,197.599c10.704,-0.062 31.612,-0.206 56.134,-0.482c49.711,-0.559 114.26,-1.57 138.791,-1.964Z"/></g><path d="M1554.58,616.797l-0.156,-212.63l-212.63,0.155l0.156,212.631l212.63,-0.156Z" style="fill:url(#_Linear1);"/><path d="M1554.59,626.959c5.613,-0.004 10.159,-4.557 10.155,-10.17l-2.567,-212.628c-0.003,-4.281 -3.476,-7.748 -7.757,-7.745l-212.63,0.595c-4.038,0.003 -7.309,3.279 -7.306,7.317l-0.2,212.63c0.003,4.235 3.439,7.665 7.673,7.662c0,0 28.058,0.081 63.79,0.43c62.64,0.613 148.842,1.909 148.842,1.909Zm-10.064,-20.163l2.068,-194.889l-197.468,-0.263l0.476,197.599c10.703,-0.062 31.611,-0.206 56.134,-0.482c49.71,-0.559 114.26,-1.57 138.79,-1.965Z"/><path d="M1341.95,616.953l-0.156,-212.631l-212.63,0.156l0.155,212.63l212.631,-0.155Z" style="fill:url(#_Linear2);"/><path d="M1341.96,627.115c5.613,-0.004 10.159,-4.557 10.155,-10.17l-2.567,-212.628c-0.004,-4.281 -3.476,-7.748 -7.757,-7.745l-212.63,0.594c-4.038,0.003 -7.309,3.279 -7.306,7.318l-0.2,212.63c0.003,4.235 3.438,7.665 7.673,7.662c0,-0 28.058,0.08 63.789,0.43c62.641,0.613 148.843,1.909 148.843,1.909Zm-10.064,-20.163l2.068,-194.889l-197.468,-0.263l0.475,197.598c10.704,-0.061 31.612,-0.205 56.134,-0.481c49.711,-0.559 114.26,-1.57 138.791,-1.965Z"/><text x="606.324px" y="195.833px" style="font-family:'AmericanTypewriter', 'American Typewriter', serif;font-size:133.925px;">reduce</text><path d="M449.543,483.562l-49.543,24.771l49.543,24.772c-12.386,-12.386 -12.386,-37.157 -0,-49.543Z" style="fill:#808080;"/><path d="M439.634,508.333l1002.03,0" style="fill:none;stroke:#808080;stroke-width:16.51px;stroke-dasharray:88.76,52.43,0,0;stroke-dashoffset:1244.76;"/><path d="M443.723,682.66l-43.723,34.007l53.439,14.574c-14.575,-9.716 -19.433,-34.007 -9.716,-48.581Z" style="fill:#808080;"/><path d="M438.864,708.894c188.977,-37.795 1002.8,-200.561 1002.8,-200.561" style="fill:none;stroke:#808080;stroke-width:16.51px;stroke-dasharray:88.76,52.43,0,0;stroke-dashoffset:1244.76;"/><path d="M436.799,883.601l-36.799,41.399l55.199,4.6c-16.1,-6.9 -25.3,-29.9 -18.4,-45.999Z" style="fill:#808080;"/><path d="M436.799,910.28c185.028,-74.011 1004.87,-401.947 1004.87,-401.947" style="fill:none;stroke:#808080;stroke-width:16.51px;stroke-dasharray:88.76,52.43,0,0;stroke-dashoffset:1244.76;"/><defs><linearGradient id="_Linear1" x1="0" y1="0" x2="1" y2="0" gradientUnits="userSpaceOnUse" gradientTransform="matrix(520.833,-5.55112e-17,-5.55112e-17,520.833,1233.33,716.667)"><stop offset="0" style="stop-color:#69bac9;stop-opacity:1"/><stop offset="1" style="stop-color:#fff;stop-opacity:1"/></linearGradient><linearGradient id="_Linear2" x1="0" y1="0" x2="1" y2="0" gradientUnits="userSpaceOnUse" gradientTransform="matrix(520.833,-5.55112e-17,-5.55112e-17,520.833,1233.33,716.667)"><stop offset="0" style="stop-color:#69bac9;stop-opacity:1"/><stop offset="1" style="stop-color:#fff;stop-opacity:1"/></linearGradient></defs></svg>