<?xml version="1.0" encoding="UTF-8" standalone="no"?><!DOCTYPE svg PUBLIC "-//W3C//DTD SVG 1.1//EN" "http://www.w3.org/Graphics/SVG/1.1/DTD/svg11.dtd"><svg width="100%" height="100%" viewBox="0 0 4163 1365" version="1.1" xmlns="http://www.w3.org/2000/svg" xmlns:xlink="http://www.w3.org/1999/xlink" xml:space="preserve" xmlns:serif="http://www.serif.com/" style="fill-rule:evenodd;clip-rule:evenodd;stroke-linecap:round;stroke-linejoin:round;stroke-miterlimit:1.5;"><path d="M3108.99,797.167l212.63,0l-57.133,-54.077l4.77,108.992l52.363,-54.915" style="fill:#090a0c;"/><path d="M3254.86,785.703l-1.616,-42.121c-0.201,-4.582 2.398,-8.827 6.57,-10.732c4.173,-1.905 9.083,-1.088 12.414,2.064l52.241,49.436c2.261,0.498 4.419,1.601 6.215,3.315c5.245,5.001 5.443,13.319 0.442,18.563l-53.294,54.028c-3.276,3.436 -8.288,4.584 -12.733,2.916c-4.445,-1.668 -7.465,-5.829 -7.672,-10.572l-1.688,-43.973c-12.864,0.066 -26.647,0.156 -40.431,0.277c-53.164,0.466 -106.315,1.393 -106.315,1.393c-7.246,0 -13.13,-5.883 -13.13,-13.13c0,-7.246 5.884,-13.13 13.13,-13.13c0,0 53.151,0.927 106.315,1.394c13.47,0.118 26.94,0.206 39.552,0.272Zm33.54,22.79l-9.423,0.034l0.726,14.751l13.637,-14.795l-4.94,0.01Zm4.885,-22.641l-16.175,-15.313l0.75,15.265l10.54,0.037l4.885,0.011Z"/><path d="M1457.55,826.844l212.63,-0l-57.133,-54.077l4.77,108.992l52.363,-54.915" style="fill:#090a0c;"/><path d="M1603.42,815.38l-1.617,-42.121c-0.2,-4.582 2.399,-8.828 6.571,-10.733c4.172,-1.904 9.083,-1.088 12.414,2.065l52.24,49.435c2.262,0.499 4.42,1.602 6.216,3.315c5.245,5.001 5.443,13.319 0.442,18.564l-53.294,54.028c-3.276,3.436 -8.288,4.583 -12.733,2.916c-4.445,-1.668 -7.465,-5.829 -7.673,-10.572l-1.687,-43.973c-12.864,0.066 -26.647,0.156 -40.431,0.277c-53.164,0.466 -106.315,1.393 -106.315,1.393c-7.247,-0 -13.13,-5.883 -13.13,-13.13c0,-7.247 5.883,-13.13 13.13,-13.13c0,-0 53.151,0.927 106.315,1.393c13.47,0.118 26.94,0.207 39.552,0.273Zm33.54,22.79l-9.423,0.033l0.725,14.752l13.638,-14.796l-4.94,0.011Zm4.885,-22.642l-16.175,-15.312l0.75,15.265l10.54,0.037l4.885,0.01Z"/><path d="M2909.42,712.198c5.612,-0.004 10.159,-4.557 10.155,-10.17l-2.568,-212.628c-0.003,-4.281 -3.476,-7.748 -7.756,-7.745l-212.63,0.595c-4.038,0.003 -7.309,3.279 -7.306,7.317l-0.2,212.63c0.003,4.235 3.438,7.665 7.673,7.662c-0,0 28.058,0.081 63.789,0.43c62.641,0.613 148.843,1.909 148.843,1.909Zm-10.064,-20.163l2.068,-194.889l-197.468,-0.263l0.475,197.599c10.704,-0.062 31.612,-0.206 56.134,-0.482c49.711,-0.559 114.26,-1.57 138.791,-1.965Z" style="fill:#b52323;"/><path d="M2696.79,712.354c5.612,-0.004 10.159,-4.557 10.155,-10.17c-0,0 -2.568,-212.628 -2.568,-212.628c-0.003,-4.281 -3.476,-7.748 -7.756,-7.745l-212.63,0.595c-4.038,0.002 -7.309,3.278 -7.306,7.317l-0.2,212.63c0.003,4.235 3.438,7.665 7.673,7.662c-0,-0 28.058,0.081 63.789,0.43c62.641,0.613 148.843,1.909 148.843,1.909Zm-10.064,-20.163l2.068,-194.889l-197.468,-0.263l0.475,197.598c10.704,-0.061 31.612,-0.205 56.134,-0.481c49.711,-0.559 114.26,-1.57 138.791,-1.965Z"/><path d="M2909.57,924.829c5.612,-0.005 10.159,-4.558 10.155,-10.17l-2.568,-212.629c-0.003,-4.28 -3.476,-7.748 -7.756,-7.745l-212.63,0.595c-4.038,0.003 -7.309,3.279 -7.307,7.317l-0.2,212.63c0.004,4.235 3.439,7.665 7.674,7.662c-0,0 28.057,0.081 63.789,0.431c62.641,0.613 148.843,1.909 148.843,1.909Zm-10.064,-20.163l2.068,-194.89l-197.468,-0.263l0.475,197.599c10.704,-0.062 31.612,-0.206 56.134,-0.481c49.711,-0.56 114.26,-1.571 138.791,-1.965Z" style="fill:#b52323;"/><path d="M2696.94,924.984c5.613,-0.004 10.16,-4.557 10.156,-10.17l-2.568,-212.628c-0.003,-4.281 -3.476,-7.748 -7.757,-7.745l-212.629,0.595c-4.038,0.003 -7.31,3.279 -7.307,7.317l-0.2,212.63c0.003,4.235 3.439,7.665 7.673,7.662c0,0 28.058,0.081 63.79,0.43c62.64,0.613 148.842,1.909 148.842,1.909Zm-10.063,-20.163l2.067,-194.889l-197.468,-0.263l0.476,197.599c10.704,-0.062 31.612,-0.206 56.134,-0.482c49.711,-0.559 114.26,-1.57 138.791,-1.965Z"/><path d="M2909.73,1137.46c5.613,-0.004 10.16,-4.558 10.155,-10.17l-2.567,-212.629c-0.003,-4.28 -3.476,-7.748 -7.757,-7.745l-212.629,0.595c-4.039,0.003 -7.31,3.279 -7.307,7.317l-0.2,212.631c0.003,4.234 3.439,7.664 7.673,7.661c0,0 28.058,0.081 63.79,0.431c62.64,0.613 148.842,1.909 148.842,1.909Zm-10.064,-20.163l2.068,-194.89l-197.468,-0.263l0.476,197.599c10.704,-0.062 31.612,-0.205 56.134,-0.481c49.711,-0.56 114.26,-1.571 138.79,-1.965Z" style="fill:#b52323;"/><path d="M2697.1,1137.62c5.613,-0.005 10.159,-4.558 10.155,-10.171l-2.567,-212.628c-0.003,-4.281 -3.476,-7.748 -7.757,-7.745l-212.63,0.595c-4.038,0.003 -7.309,3.279 -7.306,7.317c0,-0 -0.2,212.63 -0.2,212.63c0.003,4.235 3.439,7.665 7.673,7.662c0,0 28.058,0.081 63.79,0.43c62.64,0.613 148.842,1.91 148.842,1.91Zm-10.064,-20.163l2.068,-194.89l-197.468,-0.263l0.475,197.599c10.704,-0.062 31.612,-0.206 56.135,-0.482c49.71,-0.559 114.26,-1.57 138.79,-1.964Z"/><path d="M2697.1,1137.62c5.613,-0.005 10.159,-4.558 10.155,-10.171l-2.567,-212.628c-0.003,-4.281 -3.476,-7.748 -7.757,-7.745l-212.63,0.595c-4.038,0.003 -7.309,3.279 -7.306,7.317c0,-0 -0.2,212.63 -0.2,212.63c0.003,4.235 3.439,7.665 7.673,7.662c0,0 28.058,0.081 63.79,0.43c62.64,0.613 148.842,1.91 148.842,1.91Zm-10.064,-20.163l2.068,-194.89l-197.468,-0.263l0.475,197.599c10.704,-0.062 31.612,-0.206 56.135,-0.482c49.71,-0.559 114.26,-1.57 138.79,-1.964Z"/><path d="M1224.59,727.368c5.613,-0.004 10.159,-4.557 10.155,-10.17l-2.567,-212.629c-0.003,-4.28 -3.476,-7.748 -7.757,-7.745l-212.63,0.595c-4.038,0.003 -7.309,3.279 -7.306,7.317l-0.2,212.631c0.003,4.234 3.439,7.665 7.673,7.662c0,-0 28.058,0.08 63.79,0.43c62.64,0.613 148.842,1.909 148.842,1.909Zm-10.064,-20.163l2.068,-194.89l-197.468,-0.263l0.476,197.599c10.703,-0.061 31.611,-0.205 56.134,-0.481c49.71,-0.559 114.26,-1.571 138.79,-1.965Z"/><path d="M1224.75,939.998c5.613,-0.004 10.159,-4.557 10.155,-10.17l-2.568,-212.628c-0.003,-4.281 -3.475,-7.749 -7.756,-7.745l-212.63,0.594c-4.038,0.003 -7.309,3.279 -7.306,7.317l-0.2,212.631c0.003,4.234 3.438,7.665 7.673,7.662c-0,-0 28.058,0.08 63.789,0.43c62.641,0.613 148.843,1.909 148.843,1.909Zm-10.064,-20.163l2.068,-194.889l-197.468,-0.263l0.475,197.598c10.704,-0.061 31.612,-0.205 56.134,-0.481c49.711,-0.559 114.26,-1.571 138.791,-1.965Z"/><path d="M1224.9,1152.63c5.612,-0.004 10.159,-4.557 10.155,-10.17l-2.568,-212.628c-0.003,-4.281 -3.476,-7.748 -7.756,-7.745l-212.63,0.595c-4.038,0.002 -7.309,3.278 -7.306,7.317l-0.2,212.63c0.003,4.235 3.438,7.665 7.673,7.662c-0,-0 28.058,0.081 63.789,0.43c62.641,0.613 148.843,1.909 148.843,1.909Zm-10.064,-20.163l2.068,-194.889l-197.468,-0.263l0.475,197.598c10.704,-0.061 31.612,-0.205 56.134,-0.481c49.711,-0.559 114.26,-1.57 138.791,-1.965Z"/><path d="M2293.48,712.198c5.612,-0.004 10.159,-4.557 10.155,-10.17l-2.568,-212.628c-0.003,-4.281 -3.476,-7.748 -7.756,-7.745l-212.63,0.595c-4.038,0.003 -7.309,3.279 -7.306,7.317l-0.2,212.63c0.003,4.235 3.438,7.665 7.673,7.662c-0,0 28.058,0.081 63.789,0.43c62.641,0.613 148.843,1.909 148.843,1.909Zm-10.064,-20.163l2.068,-194.889l-197.468,-0.263l0.475,197.599c10.704,-0.062 31.612,-0.206 56.134,-0.482c49.711,-0.559 114.26,-1.57 138.791,-1.965Z"/><path d="M2080.85,712.354c5.612,-0.004 10.159,-4.557 10.155,-10.17l-2.568,-212.628c-0.003,-4.281 -3.476,-7.748 -7.756,-7.745l-212.63,0.595c-4.038,0.002 -7.309,3.278 -7.307,7.317l-0.2,212.63c0.004,4.235 3.439,7.665 7.674,7.662c-0,-0 28.057,0.081 63.789,0.43c62.641,0.613 148.843,1.909 148.843,1.909Zm-10.064,-20.163l2.068,-194.889l-197.468,-0.263l0.475,197.598c10.704,-0.061 31.612,-0.205 56.134,-0.481c49.711,-0.559 114.26,-1.57 138.791,-1.965Z"/><path d="M2293.63,924.829c5.613,-0.005 10.16,-4.558 10.156,-10.17l-2.568,-212.629c-0.003,-4.28 -3.476,-7.748 -7.756,-7.745l-212.63,0.595c-4.038,0.003 -7.31,3.279 -7.307,7.317l-0.2,212.63c0.003,4.235 3.439,7.665 7.673,7.662c0,0 28.058,0.081 63.79,0.431c62.64,0.613 148.842,1.909 148.842,1.909Zm-10.063,-20.163l2.067,-194.89l-197.468,-0.263l0.476,197.599c10.704,-0.062 31.612,-0.206 56.134,-0.481c49.711,-0.56 114.26,-1.571 138.791,-1.965Z" style="fill:#b52323;"/><path d="M2081,924.984c5.613,-0.004 10.16,-4.557 10.155,-10.17l-2.567,-212.628c-0.003,-4.281 -3.476,-7.748 -7.757,-7.745l-212.629,0.595c-4.039,0.003 -7.31,3.279 -7.307,7.317l-0.2,212.63c0.003,4.235 3.439,7.665 7.673,7.662c0,0 28.058,0.081 63.79,0.43c62.64,0.613 148.842,1.909 148.842,1.909Zm-10.064,-20.163l2.068,-194.889l-197.468,-0.263l0.476,197.599c10.704,-0.062 31.612,-0.206 56.134,-0.482c49.711,-0.559 114.26,-1.57 138.79,-1.965Z" style="fill:#b52323;"/><path d="M2293.79,1137.46c5.613,-0.004 10.159,-4.558 10.155,-10.17l-2.567,-212.629c-0.003,-4.28 -3.476,-7.748 -7.757,-7.745l-212.63,0.595c-4.038,0.003 -7.309,3.279 -7.306,7.317l-0.2,212.631c0.003,4.234 3.439,7.664 7.673,7.661c0,0 28.058,0.081 63.79,0.431c62.64,0.613 148.842,1.909 148.842,1.909Zm-10.064,-20.163l2.068,-194.89l-197.468,-0.263l0.476,197.599c10.703,-0.062 31.611,-0.205 56.134,-0.481c49.71,-0.56 114.26,-1.571 138.79,-1.965Z" style="fill:#b52323;"/><path d="M2081.16,1137.62c5.613,-0.005 10.159,-4.558 10.155,-10.171l-2.567,-212.628c-0.004,-4.281 -3.476,-7.748 -7.757,-7.745l-212.63,0.595c-4.038,0.003 -7.309,3.279 -7.306,7.317l-0.2,212.63c0.003,4.235 3.438,7.665 7.673,7.662c0,0 28.058,0.081 63.789,0.43c62.641,0.613 148.843,1.91 148.843,1.91Zm-10.064,-20.163l2.068,-194.89l-197.468,-0.263l0.475,197.599c10.704,-0.062 31.612,-0.206 56.134,-0.482c49.711,-0.559 114.26,-1.57 138.791,-1.964Z" style="fill:#b52323;"/><path d="M2081.16,1137.62c5.613,-0.005 10.159,-4.558 10.155,-10.171l-2.567,-212.628c-0.004,-4.281 -3.476,-7.748 -7.757,-7.745l-212.63,0.595c-4.038,0.003 -7.309,3.279 -7.306,7.317l-0.2,212.63c0.003,4.235 3.438,7.665 7.673,7.662c0,0 28.058,0.081 63.789,0.43c62.641,0.613 148.843,1.91 148.843,1.91Zm-10.064,-20.163l2.068,-194.89l-197.468,-0.263l0.475,197.599c10.704,-0.062 31.612,-0.206 56.134,-0.482c49.711,-0.559 114.26,-1.57 138.791,-1.964Z" style="fill:#b52323;"/><path d="M608.651,727.368c5.613,-0.004 10.159,-4.557 10.155,-10.17l-2.567,-212.629c-0.004,-4.28 -3.476,-7.748 -7.757,-7.745l-212.63,0.595c-4.038,0.003 -7.309,3.279 -7.306,7.317l-0.2,212.631c0.003,4.234 3.438,7.665 7.673,7.662c0,-0 28.058,0.08 63.789,0.43c62.641,0.613 148.843,1.909 148.843,1.909Zm-10.064,-20.163l2.068,-194.89l-197.468,-0.263l0.475,197.599c10.704,-0.061 31.612,-0.205 56.135,-0.481c49.71,-0.559 114.26,-1.571 138.79,-1.965Z"/><path d="M396.021,727.524c5.613,-0.004 10.159,-4.558 10.155,-10.17l-2.568,-212.629c-0.003,-4.28 -3.475,-7.748 -7.756,-7.745l-212.63,0.595c-4.038,0.003 -7.309,3.279 -7.306,7.317l-0.2,212.63c0.003,4.235 3.438,7.665 7.673,7.662c-0,0 28.058,0.081 63.789,0.431c62.641,0.613 148.843,1.909 148.843,1.909Zm-10.064,-20.163l2.068,-194.89l-197.468,-0.263l0.475,197.599c10.704,-0.062 31.612,-0.206 56.134,-0.481c49.711,-0.56 114.26,-1.571 138.791,-1.965Z"/><g><path d="M3951.08,702.036l-0.156,-212.63l-212.63,0.155l0.156,212.631l212.63,-0.156Z" style="fill:url(#_Linear1);"/><path d="M3951.08,712.198c5.613,-0.004 10.16,-4.557 10.156,-10.17l-2.568,-212.628c-0.003,-4.281 -3.476,-7.748 -7.756,-7.745l-212.63,0.595c-4.038,0.003 -7.31,3.279 -7.307,7.317l-0.2,212.63c0.003,4.235 3.439,7.665 7.673,7.662c0,0 28.058,0.081 63.79,0.43c62.64,0.613 148.842,1.909 148.842,1.909Zm-10.063,-20.163l2.067,-194.889l-197.468,-0.263l0.476,197.599c10.704,-0.062 31.612,-0.206 56.134,-0.482c49.711,-0.559 114.26,-1.57 138.791,-1.965Z"/><path d="M3738.45,702.192l-0.156,-212.631l-212.63,0.156l0.156,212.63l212.63,-0.155Z" style="fill:url(#_Linear2);"/><path d="M3738.45,712.354c5.613,-0.004 10.16,-4.557 10.155,-10.17l-2.567,-212.628c-0.003,-4.281 -3.476,-7.748 -7.757,-7.745l-212.629,0.595c-4.039,0.002 -7.31,3.278 -7.307,7.317l-0.2,212.63c0.003,4.235 3.439,7.665 7.673,7.662c0,-0 28.058,0.081 63.79,0.43c62.64,0.613 148.842,1.909 148.842,1.909Zm-10.064,-20.163l2.068,-194.889l-197.468,-0.263l0.476,197.598c10.704,-0.061 31.612,-0.205 56.134,-0.481c49.711,-0.559 114.26,-1.57 138.79,-1.965Z"/><path d="M3951.23,914.666l-0.156,-212.63l-212.63,0.156l0.156,212.63l212.63,-0.156Z" style="fill:url(#_Linear3);"/><path d="M3951.24,924.829c5.613,-0.005 10.159,-4.558 10.155,-10.17c0,-0 -2.567,-212.629 -2.567,-212.629c-0.003,-4.28 -3.476,-7.748 -7.757,-7.745l-212.63,0.595c-4.038,0.003 -7.309,3.279 -7.306,7.317l-0.2,212.63c0.003,4.235 3.439,7.665 7.673,7.662c0,0 28.058,0.081 63.79,0.431c62.64,0.613 148.842,1.909 148.842,1.909Zm-10.064,-20.163l2.068,-194.89l-197.468,-0.263l0.476,197.599c10.703,-0.062 31.611,-0.206 56.134,-0.481c49.711,-0.56 114.26,-1.571 138.79,-1.965Z"/><path d="M3738.6,914.822l-0.156,-212.63l-212.63,0.155l0.155,212.631l212.631,-0.156Z" style="fill:url(#_Linear4);"/><path d="M3738.61,924.984c5.613,-0.004 10.159,-4.557 10.155,-10.17l-2.567,-212.628c-0.004,-4.281 -3.476,-7.748 -7.757,-7.745l-212.63,0.595c-4.038,0.003 -7.309,3.279 -7.306,7.317c-0,-0 -0.2,212.63 -0.2,212.63c0.003,4.235 3.438,7.665 7.673,7.662c0,0 28.058,0.081 63.789,0.43c62.641,0.613 148.843,1.909 148.843,1.909Zm-10.064,-20.163l2.068,-194.889l-197.468,-0.263l0.475,197.599c10.704,-0.062 31.612,-0.206 56.134,-0.482c49.711,-0.559 114.26,-1.57 138.791,-1.965Z"/><path d="M3951.39,1127.3l-0.156,-212.63l-212.63,0.156l0.155,212.63l212.631,-0.156Z" style="fill:url(#_Linear5);"/><path d="M3951.39,1137.46c5.613,-0.004 10.159,-4.558 10.155,-10.17l-2.568,-212.629c-0.003,-4.28 -3.475,-7.748 -7.756,-7.745l-212.63,0.595c-4.038,0.003 -7.309,3.279 -7.306,7.317l-0.2,212.631c0.003,4.234 3.438,7.664 7.673,7.661c-0,0 28.058,0.081 63.789,0.431c62.641,0.613 148.843,1.909 148.843,1.909Zm-10.064,-20.163l2.068,-194.89l-197.468,-0.263l0.475,197.599c10.704,-0.062 31.612,-0.205 56.134,-0.481c49.711,-0.56 114.26,-1.571 138.791,-1.965Z"/><path d="M3738.76,1127.45l-0.155,-212.63l-212.631,0.156l0.156,212.63l212.63,-0.156Z" style="fill:url(#_Linear6);"/><path d="M3738.76,1137.62c5.612,-0.005 10.159,-4.558 10.155,-10.171l-2.568,-212.628c-0.003,-4.281 -3.475,-7.748 -7.756,-7.745l-212.63,0.595c-4.038,0.003 -7.309,3.279 -7.306,7.317c-0,-0 -0.2,212.63 -0.2,212.63c0.003,4.235 3.438,7.665 7.673,7.662c-0,0 28.058,0.081 63.789,0.43c62.641,0.613 148.843,1.91 148.843,1.91Zm-10.064,-20.163l2.068,-194.89l-197.468,-0.263l0.475,197.599c10.704,-0.062 31.612,-0.206 56.134,-0.482c49.711,-0.559 114.26,-1.57 138.791,-1.964Z"/><path d="M3738.76,1127.45l-0.155,-212.63l-212.631,0.156l0.156,212.63l212.63,-0.156Z" style="fill:url(#_Linear7);"/><path d="M3738.76,1137.62c5.612,-0.005 10.159,-4.558 10.155,-10.171l-2.568,-212.628c-0.003,-4.281 -3.475,-7.748 -7.756,-7.745l-212.63,0.595c-4.038,0.003 -7.309,3.279 -7.306,7.317c-0,-0 -0.2,212.63 -0.2,212.63c0.003,4.235 3.438,7.665 7.673,7.662c-0,0 28.058,0.081 63.789,0.43c62.641,0.613 148.843,1.91 148.843,1.91Zm-10.064,-20.163l2.068,-194.89l-197.468,-0.263l0.475,197.599c10.704,-0.062 31.612,-0.206 56.134,-0.482c49.711,-0.559 114.26,-1.57 138.791,-1.964Z"/></g><text x="2047.95px" y="258.507px" style="font-family:'AmericanTypewriter', 'American Typewriter', serif;font-size:133.925px;">zip</text><path d="M3816.8,560.488l30.425,46.286l-55.284,-3.432c16.928,-4.499 29.358,-25.926 24.859,-42.854Z" style="fill:#808080;"/><path d="M2782.44,590.855c317.022,-145.812 729.471,-168.777 1030.5,-3.968" style="fill:none;stroke:#808080;stroke-width:16.51px;stroke-dasharray:88.76,52.43,0,0;stroke-dashoffset:1244.76;"/><path d="M3816.98,560.366l30.239,46.408l-55.27,-3.653c16.946,-4.431 29.462,-25.808 25.031,-42.755Z" style="fill:#808080;"/><path d="M2180.55,582.135c503.091,-228.802 1159.71,-262.17 1632.46,4.615" style="fill:none;stroke:#808080;stroke-width:16.51px;stroke-dasharray:88.76,52.43,0,0;stroke-dashoffset:1244.76;"/><path d="M1955.77,980.765l24.772,49.543l24.771,-49.543c-12.386,12.386 -37.157,12.386 -49.543,0Z" style="fill:#808080;"/><path d="M1980.54,990.674l-0,-377.033" style="fill:none;stroke:#808080;stroke-width:16.51px;stroke-dasharray:88.76,52.43,0,0;stroke-dashoffset:1244.76;"/><path d="M2789.35,1036.84l49.542,-24.771l-49.542,-24.772c12.385,12.386 12.385,37.157 -0,49.543Z" style="fill:#808080;"/><path d="M2799.26,1012.07l-231.459,-0" style="fill:none;stroke:#808080;stroke-width:16.51px;stroke-dasharray:88.76,52.43,0,0;stroke-dashoffset:1244.76;"/><defs><linearGradient id="_Linear1" x1="0" y1="0" x2="1" y2="0" gradientUnits="userSpaceOnUse" gradientTransform="matrix(520.833,-5.55112e-17,0,520.833,3629.83,801.906)"><stop offset="0" style="stop-color:#69bac9;stop-opacity:1"/><stop offset="1" style="stop-color:#fff;stop-opacity:1"/></linearGradient><linearGradient id="_Linear2" x1="0" y1="0" x2="1" y2="0" gradientUnits="userSpaceOnUse" gradientTransform="matrix(520.833,-5.55112e-17,0,520.833,3629.83,801.906)"><stop offset="0" style="stop-color:#69bac9;stop-opacity:1"/><stop offset="1" style="stop-color:#fff;stop-opacity:1"/></linearGradient><linearGradient id="_Linear3" x1="0" y1="0" x2="1" y2="0" gradientUnits="userSpaceOnUse" gradientTransform="matrix(520.833,-5.55112e-17,0,520.833,3629.83,801.906)"><stop offset="0" style="stop-color:#69bac9;stop-opacity:1"/><stop offset="1" style="stop-color:#fff;stop-opacity:1"/></linearGradient><linearGradient id="_Linear4" x1="0" y1="0" x2="1" y2="0" gradientUnits="userSpaceOnUse" gradientTransform="matrix(520.833,-5.55112e-17,0,520.833,3629.83,801.906)"><stop offset="0" style="stop-color:#69bac9;stop-opacity:1"/><stop offset="1" style="stop-color:#fff;stop-opacity:1"/></linearGradient><linearGradient id="_Linear5" x1="0" y1="0" x2="1" y2="0" gradientUnits="userSpaceOnUse" gradientTransform="matrix(520.833,-5.55112e-17,0,520.833,3629.83,801.906)"><stop offset="0" style="stop-color:#69bac9;stop-opacity:1"/><stop offset="1" style="stop-color:#fff;stop-opacity:1"/></linearGradient><linearGradient id="_Linear6" x1="0" y1="0" x2="1" y2="0" gradientUnits="userSpaceOnUse" gradientTransform="matrix(520.833,-5.55112e-17,0,520.833,3629.83,801.906)"><stop offset="0" style="stop-color:#69bac9;stop-opacity:1"/><stop offset="1" style="stop-color:#fff;stop-opacity:1"/></linearGradient><linearGradient id="_Linear7" x1="0" y1="0" x2="1" y2="0" gradientUnits="userSpaceOnUse" gradientTransform="matrix(520.833,-5.55112e-17,0,520.833,3629.83,801.906)"><stop offset="0" style="stop-color:#69bac9;stop-opacity:1"/><stop offset="1" style="stop-color:#fff;stop-opacity:1"/></linearGradient></defs></svg>