<?xml version="1.0" encoding="UTF-8" standalone="no"?><!DOCTYPE svg PUBLIC "-//W3C//DTD SVG 1.1//EN" "http://www.w3.org/Graphics/SVG/1.1/DTD/svg11.dtd"><svg width="100%" height="100%" viewBox="0 0 2523 1163" version="1.1" xmlns="http://www.w3.org/2000/svg" xmlns:xlink="http://www.w3.org/1999/xlink" xml:space="preserve" xmlns:serif="http://www.serif.com/" style="fill-rule:evenodd;clip-rule:evenodd;stroke-linecap:round;stroke-linejoin:round;stroke-miterlimit:1.5;"><path d="M1450.12,722.612l212.631,-0l-57.134,-54.077l4.77,108.992l52.364,-54.915" style="fill:#090a0c;"/><path d="M1595.98,711.148l-1.616,-42.121c-0.201,-4.582 2.398,-8.828 6.57,-10.733c4.173,-1.905 9.083,-1.088 12.414,2.065l52.241,49.435c2.261,0.499 4.419,1.602 6.216,3.315c5.244,5.001 5.442,13.319 0.441,18.564l-53.294,54.028c-3.276,3.436 -8.288,4.583 -12.733,2.915c-4.445,-1.667 -7.465,-5.828 -7.672,-10.571l-1.688,-43.973c-12.863,0.066 -26.647,0.156 -40.431,0.276c-53.164,0.467 -106.315,1.394 -106.315,1.394c-7.246,-0 -13.13,-5.884 -13.13,-13.13c0,-7.247 5.884,-13.13 13.13,-13.13c0,-0 53.151,0.927 106.315,1.393c13.47,0.118 26.94,0.207 39.552,0.273Zm33.54,22.79l-9.423,0.033l0.726,14.752l13.637,-14.796l-4.94,0.011Zm4.885,-22.642l-16.175,-15.313l0.75,15.265l10.54,0.037l4.885,0.011Z"/><path d="M1250.54,637.643c5.612,-0.004 10.159,-4.558 10.155,-10.17l-2.568,-212.629c-0.003,-4.28 -3.475,-7.748 -7.756,-7.745l-212.63,0.595c-4.038,0.003 -7.309,3.279 -7.306,7.317l-0.2,212.631c0.003,4.234 3.438,7.665 7.673,7.662c-0,-0 28.058,0.08 63.789,0.43c62.641,0.613 148.843,1.909 148.843,1.909Zm-10.064,-20.163l2.068,-194.89l-197.468,-0.263l0.475,197.599c10.704,-0.061 31.612,-0.205 56.134,-0.481c49.711,-0.56 114.26,-1.571 138.791,-1.965Z"/><path d="M1250.69,850.273c5.612,-0.004 10.159,-4.557 10.155,-10.17l-2.568,-212.628c-0.003,-4.281 -3.476,-7.749 -7.756,-7.745l-212.63,0.594c-4.038,0.003 -7.309,3.279 -7.306,7.317l-0.201,212.631c0.004,4.234 3.439,7.665 7.674,7.662c-0,-0 28.057,0.08 63.789,0.43c62.641,0.613 148.843,1.909 148.843,1.909Zm-10.064,-20.163l2.068,-194.889l-197.468,-0.263l0.475,197.598c10.704,-0.061 31.612,-0.205 56.134,-0.481c49.711,-0.559 114.26,-1.571 138.791,-1.965Z"/><path d="M1250.85,1062.9c5.613,-0.004 10.16,-4.557 10.155,-10.17l-2.567,-212.628c-0.003,-4.281 -3.476,-7.748 -7.757,-7.745l-212.629,0.594c-4.039,0.003 -7.31,3.279 -7.307,7.318l-0.2,212.63c0.003,4.235 3.439,7.665 7.673,7.662c0,-0 28.058,0.08 63.79,0.43c62.64,0.613 148.842,1.909 148.842,1.909Zm-10.064,-20.163l2.068,-194.889l-197.468,-0.263l0.476,197.598c10.704,-0.061 31.612,-0.205 56.134,-0.481c49.711,-0.559 114.26,-1.57 138.79,-1.965Z"/><path d="M634.6,637.643c5.612,-0.004 10.159,-4.558 10.155,-10.17l-2.568,-212.629c-0.003,-4.28 -3.476,-7.748 -7.756,-7.745l-212.63,0.595c-4.038,0.003 -7.309,3.279 -7.306,7.317l-0.2,212.631c0.003,4.234 3.438,7.665 7.673,7.662c-0,-0 28.058,0.08 63.789,0.43c62.641,0.613 148.843,1.909 148.843,1.909Zm-10.064,-20.163l2.068,-194.89l-197.468,-0.263l0.475,197.599c10.704,-0.061 31.612,-0.205 56.134,-0.481c49.711,-0.56 114.26,-1.571 138.791,-1.965Z"/><path d="M421.97,637.799c5.612,-0.004 10.159,-4.558 10.155,-10.17l-2.568,-212.629c-0.003,-4.28 -3.476,-7.748 -7.756,-7.745l-212.63,0.595c-4.038,0.003 -7.309,3.279 -7.306,7.317l-0.201,212.63c0.004,4.235 3.439,7.665 7.674,7.662c-0,0 28.057,0.081 63.789,0.431c62.641,0.613 148.843,1.909 148.843,1.909Zm-10.064,-20.163l2.068,-194.89l-197.468,-0.263l0.475,197.599c10.704,-0.062 31.612,-0.206 56.134,-0.481c49.711,-0.56 114.26,-1.571 138.791,-1.965Z"/><g><path d="M2292.2,627.48l-0.156,-212.63l-212.63,0.156l0.156,212.63l212.63,-0.156Z" style="fill:url(#_Linear1);"/><path d="M2292.2,637.643c5.613,-0.004 10.16,-4.558 10.156,-10.17l-2.568,-212.629c-0.003,-4.28 -3.476,-7.748 -7.756,-7.745l-212.63,0.595c-4.038,0.003 -7.31,3.279 -7.307,7.317l-0.2,212.631c0.003,4.234 3.439,7.665 7.673,7.662c0,-0 28.058,0.08 63.79,0.43c62.641,0.613 148.842,1.909 148.842,1.909Zm-10.063,-20.163l2.067,-194.89l-197.468,-0.263l0.476,197.599c10.704,-0.061 31.612,-0.205 56.134,-0.481c49.711,-0.56 114.26,-1.571 138.791,-1.965Z"/><path d="M2079.57,627.636l-0.156,-212.63l-212.63,0.156l0.156,212.63l212.63,-0.156Z" style="fill:url(#_Linear2);"/><path d="M2079.57,637.799c5.613,-0.004 10.16,-4.558 10.155,-10.17l-2.567,-212.629c-0.003,-4.28 -3.476,-7.748 -7.757,-7.745l-212.629,0.595c-4.039,0.003 -7.31,3.279 -7.307,7.317l-0.2,212.63c0.003,4.235 3.439,7.665 7.673,7.662c0,0 28.058,0.081 63.79,0.431c62.64,0.613 148.842,1.909 148.842,1.909Zm-10.064,-20.163l2.068,-194.89l-197.468,-0.263l0.476,197.599c10.704,-0.062 31.612,-0.206 56.134,-0.481c49.711,-0.56 114.26,-1.571 138.79,-1.965Z"/><path d="M2292.35,840.11l-0.156,-212.63l-212.63,0.156l0.156,212.63l212.63,-0.156Z" style="fill:url(#_Linear3);"/><path d="M2292.36,850.273c5.613,-0.004 10.159,-4.557 10.155,-10.17l-2.567,-212.628c-0.003,-4.281 -3.476,-7.749 -7.757,-7.745l-212.629,0.594c-4.039,0.003 -7.31,3.279 -7.307,7.317l-0.2,212.631c0.003,4.234 3.439,7.665 7.673,7.662c0,-0 28.058,0.08 63.79,0.43c62.64,0.613 148.842,1.909 148.842,1.909Zm-10.064,-20.163l2.068,-194.889l-197.468,-0.263l0.476,197.598c10.704,-0.061 31.612,-0.205 56.134,-0.481c49.711,-0.559 114.26,-1.571 138.79,-1.965Z"/><path d="M2079.72,840.266l-0.156,-212.63l-212.63,0.156l0.155,212.63l212.631,-0.156Z" style="fill:url(#_Linear4);"/><path d="M2079.73,850.429c5.613,-0.004 10.159,-4.558 10.155,-10.17l-2.567,-212.629c-0.004,-4.28 -3.476,-7.748 -7.757,-7.745l-212.63,0.595c-4.038,0.003 -7.309,3.279 -7.306,7.317l-0.2,212.631c0.003,4.234 3.438,7.665 7.673,7.661c0,0 28.058,0.081 63.789,0.431c62.641,0.613 148.843,1.909 148.843,1.909Zm-10.064,-20.163l2.068,-194.89l-197.468,-0.263l0.475,197.599c10.704,-0.061 31.612,-0.205 56.135,-0.481c49.71,-0.56 114.26,-1.571 138.79,-1.965Z"/><path d="M2292.51,1052.74l-0.156,-212.631l-212.63,0.156l0.155,212.63l212.631,-0.155Z" style="fill:url(#_Linear5);"/><path d="M2292.52,1062.9c5.613,-0.004 10.159,-4.557 10.155,-10.17l-2.567,-212.628c-0.004,-4.281 -3.476,-7.748 -7.757,-7.745l-212.63,0.594c-4.038,0.003 -7.309,3.279 -7.306,7.318l-0.2,212.63c0.003,4.235 3.438,7.665 7.673,7.662c0,-0 28.058,0.08 63.789,0.43c62.641,0.613 148.843,1.909 148.843,1.909Zm-10.064,-20.163l2.068,-194.889l-197.468,-0.263l0.475,197.598c10.704,-0.061 31.612,-0.205 56.134,-0.481c49.711,-0.559 114.26,-1.57 138.791,-1.965Z"/><path d="M2079.88,1052.9l-0.155,-212.63l-212.631,0.156l0.156,212.63l212.63,-0.156Z" style="fill:url(#_Linear6);"/><path d="M2079.89,1063.06c5.612,-0.004 10.159,-4.557 10.155,-10.17l-2.568,-212.628c-0.003,-4.281 -3.475,-7.749 -7.756,-7.746l-212.63,0.595c-4.038,0.003 -7.309,3.279 -7.306,7.317l-0.2,212.631c0.003,4.234 3.438,7.665 7.673,7.662c-0,-0 28.058,0.08 63.789,0.43c62.641,0.613 148.843,1.909 148.843,1.909Zm-10.064,-20.163l2.068,-194.89l-197.468,-0.263l0.475,197.599c10.704,-0.061 31.612,-0.205 56.134,-0.481c49.711,-0.559 114.26,-1.571 138.791,-1.965Z"/><path d="M2079.88,1052.9l-0.155,-212.63l-212.631,0.156l0.156,212.63l212.63,-0.156Z" style="fill:url(#_Linear7);"/><path d="M2079.89,1063.06c5.612,-0.004 10.159,-4.557 10.155,-10.17l-2.568,-212.628c-0.003,-4.281 -3.475,-7.749 -7.756,-7.746l-212.63,0.595c-4.038,0.003 -7.309,3.279 -7.306,7.317l-0.2,212.631c0.003,4.234 3.438,7.665 7.673,7.662c-0,-0 28.058,0.08 63.789,0.43c62.641,0.613 148.843,1.909 148.843,1.909Zm-10.064,-20.163l2.068,-194.89l-197.468,-0.263l0.475,197.599c10.704,-0.061 31.612,-0.205 56.134,-0.481c49.711,-0.559 114.26,-1.571 138.791,-1.965Z"/></g><text x="1079.93px" y="195.746px" style="font-family:'AmericanTypewriter', 'American Typewriter', serif;font-size:133.925px;">zip</text><path d="M2157.92,485.932l30.425,46.287l-55.284,-3.433c16.928,-4.498 29.358,-25.925 24.859,-42.854Z" style="fill:#808080;"/><path d="M1123.56,516.299c317.022,-145.811 729.471,-168.776 1030.5,-3.968" style="fill:none;stroke:#808080;stroke-width:16.51px;stroke-dasharray:88.76,52.43,0,0;stroke-dashoffset:1244.76;"/><path d="M1952.32,915.962l28.918,47.242l-55.145,-5.211c17.065,-3.951 30.178,-24.967 26.227,-42.031Z" style="fill:#808080;"/><path d="M1083.23,948.63c265.718,-132.667 610.927,-154.252 864.384,-6.407" style="fill:none;stroke:#808080;stroke-width:16.51px;stroke-dasharray:88.76,52.43,0,0;stroke-dashoffset:1244.76;"/><path d="M2158.1,485.811l30.239,46.408l-55.27,-3.654c16.946,-4.431 29.462,-25.808 25.031,-42.754Z" style="fill:#808080;"/><path d="M521.676,507.579c503.091,-228.802 1159.71,-262.17 1632.46,4.615" style="fill:none;stroke:#808080;stroke-width:16.51px;stroke-dasharray:88.76,52.43,0,0;stroke-dashoffset:1244.76;"/><path d="M1921.58,965.793l54.819,7.936l-39.24,39.094c7.863,-15.653 0.073,-39.167 -15.579,-47.03Z" style="fill:#808080;"/><path d="M280.058,539.708c167.772,396.064 1132.61,608.016 1658.72,446.484" style="fill:none;stroke:#808080;stroke-width:16.51px;stroke-dasharray:88.76,52.43,0,0;stroke-dashoffset:1244.76;"/><defs><linearGradient id="_Linear1" x1="0" y1="0" x2="1" y2="0" gradientUnits="userSpaceOnUse" gradientTransform="matrix(520.833,-5.55112e-17,0,520.833,1970.95,727.35)"><stop offset="0" style="stop-color:#69bac9;stop-opacity:1"/><stop offset="1" style="stop-color:#fff;stop-opacity:1"/></linearGradient><linearGradient id="_Linear2" x1="0" y1="0" x2="1" y2="0" gradientUnits="userSpaceOnUse" gradientTransform="matrix(520.833,-5.55112e-17,0,520.833,1970.95,727.35)"><stop offset="0" style="stop-color:#69bac9;stop-opacity:1"/><stop offset="1" style="stop-color:#fff;stop-opacity:1"/></linearGradient><linearGradient id="_Linear3" x1="0" y1="0" x2="1" y2="0" gradientUnits="userSpaceOnUse" gradientTransform="matrix(520.833,-5.55112e-17,0,520.833,1970.95,727.35)"><stop offset="0" style="stop-color:#69bac9;stop-opacity:1"/><stop offset="1" style="stop-color:#fff;stop-opacity:1"/></linearGradient><linearGradient id="_Linear4" x1="0" y1="0" x2="1" y2="0" gradientUnits="userSpaceOnUse" gradientTransform="matrix(520.833,-5.55112e-17,0,520.833,1970.95,727.35)"><stop offset="0" style="stop-color:#69bac9;stop-opacity:1"/><stop offset="1" style="stop-color:#fff;stop-opacity:1"/></linearGradient><linearGradient id="_Linear5" x1="0" y1="0" x2="1" y2="0" gradientUnits="userSpaceOnUse" gradientTransform="matrix(520.833,-5.55112e-17,0,520.833,1970.95,727.35)"><stop offset="0" style="stop-color:#69bac9;stop-opacity:1"/><stop offset="1" style="stop-color:#fff;stop-opacity:1"/></linearGradient><linearGradient id="_Linear6" x1="0" y1="0" x2="1" y2="0" gradientUnits="userSpaceOnUse" gradientTransform="matrix(520.833,-5.55112e-17,0,520.833,1970.95,727.35)"><stop offset="0" style="stop-color:#69bac9;stop-opacity:1"/><stop offset="1" style="stop-color:#fff;stop-opacity:1"/></linearGradient><linearGradient id="_Linear7" x1="0" y1="0" x2="1" y2="0" gradientUnits="userSpaceOnUse" gradientTransform="matrix(520.833,-5.55112e-17,0,520.833,1970.95,727.35)"><stop offset="0" style="stop-color:#69bac9;stop-opacity:1"/><stop offset="1" style="stop-color:#fff;stop-opacity:1"/></linearGradient></defs></svg>