<?xml version="1.0" encoding="UTF-8" standalone="no"?><!DOCTYPE svg PUBLIC "-//W3C//DTD SVG 1.1//EN" "http://www.w3.org/Graphics/SVG/1.1/DTD/svg11.dtd"><svg width="100%" height="100%" viewBox="0 0 1765 1142" version="1.1" xmlns="http://www.w3.org/2000/svg" xmlns:xlink="http://www.w3.org/1999/xlink" xml:space="preserve" xmlns:serif="http://www.serif.com/" style="fill-rule:evenodd;clip-rule:evenodd;stroke-linecap:round;stroke-linejoin:round;stroke-miterlimit:1.5;"><path d="M712.5,713.31l212.63,-0l-57.133,-54.078l4.77,108.993l52.363,-54.915" style="fill:#090a0c;"/><path d="M858.366,701.846l-1.616,-42.121c-0.2,-4.582 2.399,-8.828 6.571,-10.733c4.172,-1.905 9.083,-1.088 12.414,2.065l52.24,49.435c2.262,0.499 4.419,1.602 6.216,3.315c5.245,5.001 5.443,13.319 0.442,18.564l-53.294,54.028c-3.277,3.436 -8.288,4.583 -12.733,2.915c-4.445,-1.667 -7.465,-5.828 -7.673,-10.571l-1.687,-43.974c-12.864,0.067 -26.647,0.156 -40.431,0.277c-53.165,0.467 -106.315,1.394 -106.315,1.394c-7.247,-0 -13.13,-5.884 -13.13,-13.13c-0,-7.247 5.883,-13.131 13.13,-13.131c0,0 53.15,0.928 106.315,1.394c13.47,0.118 26.94,0.206 39.551,0.273Zm33.54,22.79l-9.422,0.033l0.725,14.752l13.638,-14.796l-4.941,0.011Zm4.885,-22.642l-16.174,-15.313l0.75,15.265l10.539,0.037l4.885,0.011Z"/><g><path d="M512.924,628.341c5.612,-0.004 10.159,-4.558 10.155,-10.17l-2.568,-212.629c-0.003,-4.28 -3.476,-7.748 -7.756,-7.745l-212.63,0.595c-4.038,0.003 -7.31,3.279 -7.307,7.317l-0.2,212.631c0.004,4.234 3.439,7.665 7.674,7.661c-0,0 28.057,0.081 63.789,0.431c62.641,0.613 148.843,1.909 148.843,1.909Zm-10.064,-20.163l2.068,-194.89l-197.469,-0.263l0.476,197.599c10.704,-0.062 31.612,-0.205 56.134,-0.481c49.711,-0.56 114.26,-1.571 138.791,-1.965Z"/><path d="M300.293,628.497c5.613,-0.005 10.16,-4.558 10.156,-10.171l-2.568,-212.628c-0.003,-4.28 -3.476,-7.748 -7.757,-7.745l-212.629,0.595c-4.038,0.003 -7.31,3.279 -7.307,7.317l-0.2,212.63c0.003,4.235 3.439,7.665 7.673,7.662c0,0 28.058,0.081 63.79,0.431c62.64,0.612 148.842,1.909 148.842,1.909Zm-10.064,-20.163l2.068,-194.89l-197.468,-0.263l0.476,197.599c10.704,-0.062 31.612,-0.206 56.134,-0.482c49.711,-0.559 114.26,-1.57 138.79,-1.964Z"/><path d="M513.079,840.971c5.613,-0.004 10.16,-4.557 10.155,-10.17l-2.567,-212.628c-0.003,-4.281 -3.476,-7.749 -7.757,-7.746l-212.629,0.595c-4.039,0.003 -7.31,3.279 -7.307,7.317l-0.2,212.631c0.003,4.234 3.439,7.665 7.673,7.662c0,-0 28.058,0.08 63.79,0.43c62.64,0.613 148.842,1.909 148.842,1.909Zm-10.064,-20.163l2.068,-194.89l-197.468,-0.263l0.476,197.599c10.704,-0.061 31.612,-0.205 56.134,-0.481c49.711,-0.559 114.26,-1.571 138.79,-1.965Z"/><path d="M300.449,841.127c5.613,-0.004 10.159,-4.558 10.155,-10.17l-2.567,-212.629c-0.004,-4.28 -3.476,-7.748 -7.757,-7.745l-212.63,0.595c-4.038,0.003 -7.309,3.279 -7.306,7.317l-0.2,212.63c0.003,4.235 3.438,7.665 7.673,7.662c0,0 28.058,0.081 63.789,0.431c62.641,0.613 148.843,1.909 148.843,1.909Zm-10.064,-20.163l2.068,-194.89l-197.468,-0.263l0.475,197.599c10.704,-0.062 31.612,-0.206 56.135,-0.481c49.71,-0.56 114.26,-1.571 138.79,-1.965Z"/><path d="M513.235,1053.6c5.613,-0.004 10.159,-4.557 10.155,-10.17l-2.567,-212.628c-0.004,-4.281 -3.476,-7.749 -7.757,-7.745l-212.63,0.594c-4.038,0.003 -7.309,3.279 -7.306,7.317l-0.2,212.631c0.003,4.234 3.438,7.665 7.673,7.662c0,-0 28.058,0.08 63.789,0.43c62.641,0.613 148.843,1.909 148.843,1.909Zm-10.064,-20.163l2.068,-194.889l-197.468,-0.263l0.475,197.598c10.704,-0.061 31.612,-0.205 56.134,-0.481c49.711,-0.559 114.26,-1.571 138.791,-1.965Z"/><path d="M300.605,1053.76c5.613,-0.004 10.159,-4.558 10.155,-10.17l-2.568,-212.629c-0.003,-4.28 -3.475,-7.748 -7.756,-7.745l-212.63,0.595c-4.038,0.003 -7.309,3.279 -7.306,7.317l-0.2,212.631c0.003,4.234 3.438,7.665 7.673,7.661c-0,0 28.058,0.081 63.789,0.431c62.641,0.613 148.843,1.909 148.843,1.909Zm-10.064,-20.163l2.068,-194.89l-197.468,-0.263l0.475,197.599c10.704,-0.061 31.612,-0.205 56.134,-0.481c49.711,-0.56 114.26,-1.571 138.791,-1.965Z"/><path d="M300.605,1053.76c5.613,-0.004 10.159,-4.558 10.155,-10.17l-2.568,-212.629c-0.003,-4.28 -3.475,-7.748 -7.756,-7.745l-212.63,0.595c-4.038,0.003 -7.309,3.279 -7.306,7.317l-0.2,212.631c0.003,4.234 3.438,7.665 7.673,7.661c-0,0 28.058,0.081 63.789,0.431c62.641,0.613 148.843,1.909 148.843,1.909Zm-10.064,-20.163l2.068,-194.89l-197.468,-0.263l0.475,197.599c10.704,-0.061 31.612,-0.205 56.134,-0.481c49.711,-0.56 114.26,-1.571 138.791,-1.965Z"/></g><path d="M1554.58,618.178l-0.156,-212.63l-212.63,0.156l0.156,212.63l212.63,-0.156Z" style="fill:url(#_Linear1);"/><path d="M1554.59,628.341c5.613,-0.004 10.159,-4.558 10.155,-10.17l-2.567,-212.629c-0.003,-4.28 -3.476,-7.748 -7.757,-7.745l-212.63,0.595c-4.038,0.003 -7.309,3.279 -7.306,7.317l-0.2,212.631c0.003,4.234 3.439,7.665 7.673,7.661c0,0 28.058,0.081 63.79,0.431c62.64,0.613 148.842,1.909 148.842,1.909Zm-10.064,-20.163l2.068,-194.89l-197.468,-0.263l0.476,197.599c10.703,-0.062 31.611,-0.205 56.134,-0.481c49.71,-0.56 114.26,-1.571 138.79,-1.965Z"/><path d="M1341.95,618.334l-0.156,-212.63l-212.63,0.156l0.155,212.63l212.631,-0.156Z" style="fill:url(#_Linear2);"/><path d="M1341.96,628.497c5.613,-0.005 10.159,-4.558 10.155,-10.171l-2.567,-212.628c-0.004,-4.28 -3.476,-7.748 -7.757,-7.745l-212.63,0.595c-4.038,0.003 -7.309,3.279 -7.306,7.317l-0.2,212.63c0.003,4.235 3.438,7.665 7.673,7.662c0,0 28.058,0.081 63.789,0.431c62.641,0.612 148.843,1.909 148.843,1.909Zm-10.064,-20.163l2.068,-194.89l-197.468,-0.263l0.475,197.599c10.704,-0.062 31.612,-0.206 56.134,-0.482c49.711,-0.559 114.26,-1.57 138.791,-1.964Z"/><text x="606.324px" y="208.14px" style="font-family:'AmericanTypewriter', 'American Typewriter', serif;font-size:133.925px;">reduce</text><path d="M424.771,572.459l-24.771,-49.542l-24.771,49.542c12.385,-12.385 37.157,-12.385 49.542,0Z" style="fill:#808080;"/><path d="M400,562.551l-0,377.032" style="fill:none;stroke:#808080;stroke-width:16.51px;stroke-dasharray:88.76,52.43,0,0;stroke-dashoffset:1244.76;"/><path d="M216.438,572.459l-24.771,-49.542l-24.772,49.542c12.386,-12.385 37.157,-12.385 49.543,0Z" style="fill:#808080;"/><path d="M191.667,562.551l-0,377.032" style="fill:none;stroke:#808080;stroke-width:16.51px;stroke-dasharray:88.76,52.43,0,0;stroke-dashoffset:1244.76;"/><defs><linearGradient id="_Linear1" x1="0" y1="0" x2="1" y2="0" gradientUnits="userSpaceOnUse" gradientTransform="matrix(520.833,-5.55112e-17,-5.55112e-17,520.833,1233.33,718.048)"><stop offset="0" style="stop-color:#69bac9;stop-opacity:1"/><stop offset="1" style="stop-color:#fff;stop-opacity:1"/></linearGradient><linearGradient id="_Linear2" x1="0" y1="0" x2="1" y2="0" gradientUnits="userSpaceOnUse" gradientTransform="matrix(520.833,-5.55112e-17,-5.55112e-17,520.833,1233.33,718.048)"><stop offset="0" style="stop-color:#69bac9;stop-opacity:1"/><stop offset="1" style="stop-color:#fff;stop-opacity:1"/></linearGradient></defs></svg>