<?xml version="1.0" encoding="UTF-8" standalone="no"?><!DOCTYPE svg PUBLIC "-//W3C//DTD SVG 1.1//EN" "http://www.w3.org/Graphics/SVG/1.1/DTD/svg11.dtd"><svg width="100%" height="100%" viewBox="0 0 2309 1146" version="1.1" xmlns="http://www.w3.org/2000/svg" xmlns:xlink="http://www.w3.org/1999/xlink" xml:space="preserve" xmlns:serif="http://www.serif.com/" style="fill-rule:evenodd;clip-rule:evenodd;stroke-linecap:round;stroke-linejoin:round;stroke-miterlimit:1.5;"><path d="M1555.65,698.726l-212.631,0l57.134,-54.077l-4.77,108.992l-52.364,-54.915" style="fill:#090a0c;"/><path d="M1340.18,685.909l52.241,-49.436c3.331,-3.152 8.241,-3.969 12.413,-2.064c4.173,1.905 6.772,6.15 6.571,10.732l-1.616,42.121c12.612,-0.066 26.082,-0.154 39.552,-0.273c53.164,-0.466 106.315,-1.393 106.315,-1.393c7.246,0 13.13,5.884 13.13,13.13c-0,7.247 -5.884,13.13 -13.13,13.13c-0,0 -53.151,-0.927 -106.315,-1.393c-13.784,-0.121 -27.568,-0.211 -40.431,-0.277l-1.688,43.973c-0.207,4.743 -3.227,8.904 -7.672,10.572c-4.445,1.668 -9.457,0.52 -12.733,-2.916l-53.294,-54.028c-5.001,-5.244 -4.803,-13.562 0.441,-18.563c1.797,-1.714 3.955,-2.817 6.216,-3.315Zm31.129,24.133l13.637,14.795l0.726,-14.751l-9.423,-0.034l-4.94,-0.01Zm15.48,-22.679l0.75,-15.265l-16.175,15.313l4.885,-0.011l10.54,-0.037Z"/><g><path d="M1143.45,613.757c5.613,-0.004 10.159,-4.557 10.155,-10.17l-2.568,-212.628c-0.003,-4.281 -3.475,-7.748 -7.756,-7.745l-212.63,0.595c-4.038,0.003 -7.309,3.279 -7.306,7.317l-0.2,212.63c0.003,4.235 3.438,7.665 7.673,7.662c-0,0 28.058,0.081 63.789,0.43c62.641,0.613 148.843,1.909 148.843,1.909Zm-10.064,-20.163l2.068,-194.889l-197.468,-0.263l0.475,197.599c10.704,-0.062 31.612,-0.206 56.134,-0.482c49.711,-0.559 114.26,-1.57 138.791,-1.965Z"/><path d="M930.816,613.913c5.612,-0.004 10.159,-4.557 10.155,-10.17l-2.568,-212.628c-0.003,-4.281 -3.475,-7.748 -7.756,-7.745l-212.63,0.595c-4.038,0.002 -7.309,3.278 -7.306,7.317l-0.2,212.63c0.003,4.235 3.438,7.665 7.673,7.662c-0,-0 28.058,0.081 63.789,0.43c62.641,0.613 148.843,1.909 148.843,1.909Zm-10.064,-20.163l2.068,-194.889l-197.468,-0.263l0.475,197.598c10.704,-0.061 31.612,-0.205 56.134,-0.481c49.711,-0.559 114.26,-1.57 138.791,-1.965Z"/><path d="M1143.6,826.388c5.612,-0.005 10.159,-4.558 10.155,-10.17l-2.568,-212.629c-0.003,-4.28 -3.476,-7.748 -7.756,-7.745l-212.63,0.595c-4.038,0.003 -7.309,3.279 -7.306,7.317l-0.2,212.63c0.003,4.235 3.438,7.665 7.673,7.662c-0,0 28.058,0.081 63.789,0.431c62.641,0.613 148.843,1.909 148.843,1.909Zm-10.064,-20.163l2.068,-194.89l-197.468,-0.263l0.475,197.599c10.704,-0.062 31.612,-0.206 56.134,-0.481c49.711,-0.56 114.26,-1.571 138.791,-1.965Z"/><path d="M930.972,826.543c5.612,-0.004 10.159,-4.557 10.155,-10.17l-2.568,-212.628c-0.003,-4.281 -3.476,-7.748 -7.756,-7.745l-212.63,0.595c-4.038,0.003 -7.309,3.279 -7.307,7.317l-0.2,212.63c0.004,4.235 3.439,7.665 7.674,7.662c-0,-0 28.057,0.081 63.789,0.43c62.641,0.613 148.843,1.909 148.843,1.909Zm-10.064,-20.163l2.068,-194.889l-197.468,-0.263l0.475,197.599c10.704,-0.062 31.612,-0.206 56.134,-0.482c49.711,-0.559 114.26,-1.57 138.791,-1.965Z"/><path d="M1143.76,1039.02c5.613,-0.004 10.16,-4.558 10.156,-10.17l-2.568,-212.629c-0.003,-4.28 -3.476,-7.748 -7.756,-7.745l-212.63,0.595c-4.038,0.003 -7.31,3.279 -7.307,7.317l-0.2,212.631c0.003,4.234 3.439,7.664 7.673,7.661c0,0 28.058,0.081 63.79,0.431c62.64,0.613 148.842,1.909 148.842,1.909Zm-10.063,-20.163l2.067,-194.89l-197.468,-0.263l0.476,197.599c10.704,-0.062 31.612,-0.205 56.134,-0.481c49.711,-0.56 114.26,-1.571 138.791,-1.965Z"/><path d="M931.127,1039.17c5.613,-0.005 10.16,-4.558 10.155,-10.171l-2.567,-212.628c-0.003,-4.281 -3.476,-7.748 -7.757,-7.745l-212.629,0.595c-4.039,0.003 -7.31,3.279 -7.307,7.317l-0.2,212.63c0.003,4.235 3.439,7.665 7.673,7.662c0,0 28.058,0.081 63.79,0.43c62.64,0.613 148.842,1.91 148.842,1.91Zm-10.064,-20.163l2.068,-194.89l-197.468,-0.263l0.476,197.599c10.704,-0.062 31.612,-0.206 56.134,-0.482c49.711,-0.559 114.26,-1.57 138.79,-1.964Z"/><path d="M931.127,1039.17c5.613,-0.005 10.16,-4.558 10.155,-10.171l-2.567,-212.628c-0.003,-4.281 -3.476,-7.748 -7.757,-7.745l-212.629,0.595c-4.039,0.003 -7.31,3.279 -7.307,7.317l-0.2,212.63c0.003,4.235 3.439,7.665 7.673,7.662c0,0 28.058,0.081 63.79,0.43c62.64,0.613 148.842,1.91 148.842,1.91Zm-10.064,-20.163l2.068,-194.89l-197.468,-0.263l0.476,197.599c10.704,-0.062 31.612,-0.206 56.134,-0.482c49.711,-0.559 114.26,-1.57 138.79,-1.964Z"/></g><g><path d="M527.507,613.757c5.612,-0.004 10.159,-4.557 10.155,-10.17l-2.568,-212.628c-0.003,-4.281 -3.475,-7.748 -7.756,-7.745l-212.63,0.595c-4.038,0.003 -7.309,3.279 -7.306,7.317l-0.2,212.63c0.003,4.235 3.438,7.665 7.673,7.662c-0,0 28.058,0.081 63.789,0.43c62.641,0.613 148.843,1.909 148.843,1.909Zm-10.064,-20.163l2.068,-194.889l-197.468,-0.263l0.475,197.599c10.704,-0.062 31.612,-0.206 56.134,-0.482c49.711,-0.559 114.26,-1.57 138.791,-1.965Z"/><path d="M314.877,613.913c5.612,-0.004 10.159,-4.557 10.155,-10.17l-2.568,-212.628c-0.003,-4.281 -3.476,-7.748 -7.756,-7.745l-212.63,0.595c-4.038,0.002 -7.309,3.278 -7.306,7.317l-0.2,212.63c0.003,4.235 3.438,7.665 7.673,7.662c-0,-0 28.058,0.081 63.789,0.43c62.641,0.613 148.843,1.909 148.843,1.909Zm-10.064,-20.163l2.068,-194.889l-197.468,-0.263l0.475,197.598c10.704,-0.061 31.612,-0.205 56.134,-0.481c49.711,-0.559 114.26,-1.57 138.791,-1.965Z"/><path d="M527.663,826.388c5.612,-0.005 10.159,-4.558 10.155,-10.17l-2.568,-212.629c-0.003,-4.28 -3.476,-7.748 -7.756,-7.745l-212.63,0.595c-4.038,0.003 -7.309,3.279 -7.306,7.317l-0.2,212.63c0.003,4.235 3.438,7.665 7.673,7.662c-0,0 28.057,0.081 63.789,0.431c62.641,0.613 148.843,1.909 148.843,1.909Zm-10.064,-20.163l2.068,-194.89l-197.468,-0.263l0.475,197.599c10.704,-0.062 31.612,-0.206 56.134,-0.481c49.711,-0.56 114.26,-1.571 138.791,-1.965Z"/><path d="M315.032,826.543c5.613,-0.004 10.16,-4.557 10.156,-10.17l-2.568,-212.628c-0.003,-4.281 -3.476,-7.748 -7.756,-7.745l-212.63,0.595c-4.038,0.003 -7.31,3.279 -7.307,7.317l-0.2,212.63c0.003,4.235 3.439,7.665 7.673,7.662c0,-0 28.058,0.081 63.79,0.43c62.64,0.613 148.842,1.909 148.842,1.909Zm-10.063,-20.163l2.067,-194.889l-197.468,-0.263l0.476,197.599c10.704,-0.062 31.612,-0.206 56.134,-0.482c49.711,-0.559 114.26,-1.57 138.791,-1.965Z"/><path d="M527.818,1039.02c5.613,-0.004 10.16,-4.558 10.156,-10.17l-2.568,-212.629c-0.003,-4.28 -3.476,-7.748 -7.757,-7.745l-212.629,0.595c-4.039,0.003 -7.31,3.279 -7.307,7.317l-0.2,212.631c0.003,4.234 3.439,7.664 7.673,7.661c0,0 28.058,0.081 63.79,0.431c62.64,0.613 148.842,1.909 148.842,1.909Zm-10.064,-20.163l2.068,-194.89l-197.468,-0.263l0.476,197.599c10.704,-0.062 31.612,-0.205 56.134,-0.481c49.711,-0.56 114.26,-1.571 138.79,-1.965Z"/><path d="M315.188,1039.17c5.613,-0.005 10.159,-4.558 10.155,-10.171l-2.567,-212.628c-0.003,-4.281 -3.476,-7.748 -7.757,-7.745l-212.63,0.595c-4.038,0.003 -7.309,3.279 -7.306,7.317l-0.2,212.63c0.003,4.235 3.439,7.665 7.673,7.662c0,0 28.058,0.081 63.79,0.43c62.64,0.613 148.842,1.91 148.842,1.91Zm-10.064,-20.163l2.068,-194.89l-197.468,-0.263l0.476,197.599c10.703,-0.062 31.611,-0.206 56.134,-0.482c49.711,-0.559 114.26,-1.57 138.79,-1.964Z"/><path d="M315.188,1039.17c5.613,-0.005 10.159,-4.558 10.155,-10.171l-2.567,-212.628c-0.003,-4.281 -3.476,-7.748 -7.757,-7.745l-212.63,0.595c-4.038,0.003 -7.309,3.279 -7.306,7.317l-0.2,212.63c0.003,4.235 3.439,7.665 7.673,7.662c0,0 28.058,0.081 63.79,0.43c62.64,0.613 148.842,1.91 148.842,1.91Zm-10.064,-20.163l2.068,-194.89l-197.468,-0.263l0.476,197.599c10.703,-0.062 31.611,-0.206 56.134,-0.482c49.711,-0.559 114.26,-1.57 138.79,-1.964Z"/></g><g><path d="M2185.11,603.595l-0.156,-212.63l-212.63,0.155l0.156,212.631l212.63,-0.156Z" style="fill:url(#_Linear1);"/><path d="M2185.11,613.757c5.612,-0.004 10.159,-4.557 10.155,-10.17l-2.568,-212.628c-0.003,-4.281 -3.476,-7.748 -7.756,-7.745l-212.63,0.595c-4.038,0.003 -7.309,3.279 -7.306,7.317l-0.2,212.63c0.003,4.235 3.438,7.665 7.673,7.662c-0,0 28.057,0.081 63.789,0.43c62.641,0.613 148.843,1.909 148.843,1.909Zm-10.064,-20.163l2.068,-194.889l-197.468,-0.263l0.475,197.599c10.704,-0.062 31.612,-0.206 56.134,-0.482c49.711,-0.559 114.26,-1.57 138.791,-1.965Z"/><path d="M1972.48,603.751l-0.156,-212.631l-212.63,0.156l0.156,212.63l212.63,-0.155Z" style="fill:url(#_Linear2);"/><path d="M1972.48,613.913c5.613,-0.004 10.16,-4.557 10.156,-10.17l-2.568,-212.628c-0.003,-4.281 -3.476,-7.748 -7.756,-7.745l-212.63,0.595c-4.038,0.002 -7.31,3.278 -7.307,7.317l-0.2,212.63c0.003,4.235 3.439,7.665 7.673,7.662c0,-0 28.058,0.081 63.79,0.43c62.64,0.613 148.842,1.909 148.842,1.909Zm-10.063,-20.163l2.067,-194.889l-197.468,-0.263l0.476,197.598c10.704,-0.061 31.612,-0.205 56.134,-0.481c49.711,-0.559 114.26,-1.57 138.791,-1.965Z"/><path d="M2185.26,816.225l-0.156,-212.63l-212.63,0.156l0.156,212.63l212.63,-0.156Z" style="fill:url(#_Linear3);"/><path d="M2185.27,826.388c5.613,-0.005 10.16,-4.558 10.156,-10.17l-2.568,-212.629c-0.003,-4.28 -3.476,-7.748 -7.757,-7.745l-212.629,0.595c-4.038,0.003 -7.31,3.279 -7.307,7.317l-0.2,212.63c0.003,4.235 3.439,7.665 7.673,7.662c0,0 28.058,0.081 63.79,0.431c62.64,0.613 148.842,1.909 148.842,1.909Zm-10.064,-20.163l2.068,-194.89l-197.468,-0.263l0.476,197.599c10.704,-0.062 31.612,-0.206 56.134,-0.481c49.711,-0.56 114.26,-1.571 138.79,-1.965Z"/><path d="M1972.63,816.381l-0.156,-212.63l-212.63,0.155l0.156,212.631l212.63,-0.156Z" style="fill:url(#_Linear4);"/><path d="M1972.64,826.543c5.613,-0.004 10.159,-4.557 10.155,-10.17l-2.567,-212.628c-0.003,-4.281 -3.476,-7.748 -7.757,-7.745l-212.63,0.595c-4.038,0.003 -7.309,3.279 -7.306,7.317l-0.2,212.63c0.003,4.235 3.439,7.665 7.673,7.662c0,-0 28.058,0.081 63.79,0.43c62.64,0.613 148.842,1.909 148.842,1.909Zm-10.064,-20.163l2.068,-194.889l-197.468,-0.263l0.476,197.599c10.704,-0.062 31.612,-0.206 56.134,-0.482c49.711,-0.559 114.26,-1.57 138.79,-1.965Z"/><path d="M2185.42,1028.86l-0.156,-212.63l-212.63,0.156l0.156,212.63l212.63,-0.156Z" style="fill:url(#_Linear5);"/><path d="M2185.42,1039.02c5.613,-0.004 10.159,-4.558 10.155,-10.17l-2.567,-212.629c-0.003,-4.28 -3.476,-7.748 -7.757,-7.745l-212.63,0.595c-4.038,0.003 -7.309,3.279 -7.306,7.317l-0.2,212.631c0.003,4.234 3.438,7.664 7.673,7.661c0,0 28.058,0.081 63.79,0.431c62.64,0.613 148.842,1.909 148.842,1.909Zm-10.064,-20.163l2.068,-194.89l-197.468,-0.263l0.475,197.599c10.704,-0.062 31.612,-0.205 56.135,-0.481c49.71,-0.56 114.26,-1.571 138.79,-1.965Z"/><path d="M1972.79,1029.01l-0.156,-212.63l-212.63,0.156l0.155,212.63l212.631,-0.156Z" style="fill:url(#_Linear6);"/><path d="M1972.79,1039.17c5.613,-0.005 10.159,-4.558 10.155,-10.171l-2.568,-212.628c-0.003,-4.281 -3.475,-7.748 -7.756,-7.745l-212.63,0.595c-4.038,0.003 -7.309,3.279 -7.306,7.317l-0.2,212.63c0.003,4.235 3.438,7.665 7.673,7.662c-0,0 28.058,0.081 63.789,0.43c62.641,0.613 148.843,1.91 148.843,1.91Zm-10.064,-20.163l2.068,-194.89l-197.468,-0.263l0.475,197.599c10.704,-0.062 31.612,-0.206 56.134,-0.482c49.711,-0.559 114.26,-1.57 138.791,-1.964Z"/><path d="M1972.79,1029.01l-0.156,-212.63l-212.63,0.156l0.155,212.63l212.631,-0.156Z" style="fill:url(#_Linear7);"/><path d="M1972.79,1039.17c5.613,-0.005 10.159,-4.558 10.155,-10.171l-2.568,-212.628c-0.003,-4.281 -3.475,-7.748 -7.756,-7.745l-212.63,0.595c-4.038,0.003 -7.309,3.279 -7.306,7.317l-0.2,212.63c0.003,4.235 3.438,7.665 7.673,7.662c-0,0 28.058,0.081 63.789,0.43c62.641,0.613 148.843,1.91 148.843,1.91Zm-10.064,-20.163l2.068,-194.89l-197.468,-0.263l0.475,197.599c10.704,-0.062 31.612,-0.206 56.134,-0.482c49.711,-0.559 114.26,-1.57 138.791,-1.964Z"/></g><text x="1060.42px" y="171.861px" style="font-family:'AmericanTypewriter', 'American Typewriter', serif;font-size:133.925px;">zip</text><path d="M1051.83,449.777l-35.358,42.637l55.324,2.704c-16.327,-6.344 -26.31,-29.014 -19.966,-45.341Z" style="fill:#808080;"/><path d="M1052.74,476.441c324.187,-136.561 736.14,-147.624 1028.51,31.892" style="fill:none;stroke:#808080;stroke-width:16.51px;stroke-dasharray:88.76,52.43,0,0;stroke-dashoffset:1244.76;"/><path d="M449.871,440.999l-35.288,42.695l55.329,2.613c-16.337,-6.317 -26.358,-28.971 -20.041,-45.308Z" style="fill:#808080;"/><path d="M450.83,467.661c510.479,-219.533 1166.59,-240.935 1630.42,40.672" style="fill:none;stroke:#808080;stroke-width:16.51px;stroke-dasharray:88.76,52.43,0,0;stroke-dashoffset:1244.76;"/><defs><linearGradient id="_Linear1" x1="0" y1="0" x2="1" y2="0" gradientUnits="userSpaceOnUse" gradientTransform="matrix(520.833,-5.55112e-17,0,520.833,1863.86,703.465)"><stop offset="0" style="stop-color:#69bac9;stop-opacity:1"/><stop offset="1" style="stop-color:#fff;stop-opacity:1"/></linearGradient><linearGradient id="_Linear2" x1="0" y1="0" x2="1" y2="0" gradientUnits="userSpaceOnUse" gradientTransform="matrix(520.833,-5.55112e-17,0,520.833,1863.86,703.465)"><stop offset="0" style="stop-color:#69bac9;stop-opacity:1"/><stop offset="1" style="stop-color:#fff;stop-opacity:1"/></linearGradient><linearGradient id="_Linear3" x1="0" y1="0" x2="1" y2="0" gradientUnits="userSpaceOnUse" gradientTransform="matrix(520.833,-5.55112e-17,0,520.833,1863.86,703.465)"><stop offset="0" style="stop-color:#69bac9;stop-opacity:1"/><stop offset="1" style="stop-color:#fff;stop-opacity:1"/></linearGradient><linearGradient id="_Linear4" x1="0" y1="0" x2="1" y2="0" gradientUnits="userSpaceOnUse" gradientTransform="matrix(520.833,-5.55112e-17,0,520.833,1863.86,703.465)"><stop offset="0" style="stop-color:#69bac9;stop-opacity:1"/><stop offset="1" style="stop-color:#fff;stop-opacity:1"/></linearGradient><linearGradient id="_Linear5" x1="0" y1="0" x2="1" y2="0" gradientUnits="userSpaceOnUse" gradientTransform="matrix(520.833,-5.55112e-17,0,520.833,1863.86,703.465)"><stop offset="0" style="stop-color:#69bac9;stop-opacity:1"/><stop offset="1" style="stop-color:#fff;stop-opacity:1"/></linearGradient><linearGradient id="_Linear6" x1="0" y1="0" x2="1" y2="0" gradientUnits="userSpaceOnUse" gradientTransform="matrix(520.833,-5.55112e-17,0,520.833,1863.86,703.465)"><stop offset="0" style="stop-color:#69bac9;stop-opacity:1"/><stop offset="1" style="stop-color:#fff;stop-opacity:1"/></linearGradient><linearGradient id="_Linear7" x1="0" y1="0" x2="1" y2="0" gradientUnits="userSpaceOnUse" gradientTransform="matrix(520.833,-5.55112e-17,0,520.833,1863.86,703.465)"><stop offset="0" style="stop-color:#69bac9;stop-opacity:1"/><stop offset="1" style="stop-color:#fff;stop-opacity:1"/></linearGradient></defs></svg>