<?xml version="1.0" encoding="UTF-8" standalone="no"?>
<!DOCTYPE svg PUBLIC "-//W3C//DTD SVG 1.1//EN" "http://www.w3.org/Graphics/SVG/1.1/DTD/svg11.dtd">
<svg width="100%" height="100%" viewBox="0 0 1108 570" version="1.1" xmlns="http://www.w3.org/2000/svg" xmlns:xlink="http://www.w3.org/1999/xlink" xml:space="preserve" xmlns:serif="http://www.serif.com/" style="fill-rule:evenodd;clip-rule:evenodd;stroke-linecap:round;stroke-linejoin:round;stroke-miterlimit:1.5;">
    <g transform="matrix(1,0,0,1,-1051,-177)">
        <g transform="matrix(1,0,0,1,1236.37,184.17)">
            <path d="M459.281,357.219L561.344,357.219L533.92,331.262L536.209,383.578L561.344,357.219" style="fill:rgb(9,10,12);"/>
            <path d="M529.297,351.716L528.521,331.498C528.425,329.299 529.673,327.261 531.675,326.346C533.678,325.432 536.035,325.824 537.634,327.337L562.709,351.066C563.795,351.306 564.831,351.835 565.693,352.658C568.21,355.058 568.305,359.051 565.905,361.568L540.324,387.501C538.751,389.151 536.346,389.702 534.212,388.901C532.078,388.101 530.629,386.103 530.529,383.827L529.719,362.72C523.545,362.751 516.929,362.794 510.313,362.852C484.793,363.076 459.281,363.521 459.281,363.521C455.803,363.521 452.979,360.697 452.979,357.219C452.979,353.74 455.803,350.916 459.281,350.916C459.281,350.916 484.793,351.361 510.313,351.585C516.778,351.642 523.244,351.684 529.297,351.716ZM545.396,362.655L540.874,362.671L541.222,369.752L547.768,362.65L545.396,362.655ZM547.741,351.787L539.977,344.437L540.337,351.764L545.396,351.782L547.741,351.787Z"/>
        </g>
        <g transform="matrix(0.000732517,1,-1,0.000732517,2211.93,87.0271)">
            <g transform="matrix(0.762459,0,0,0.704077,-28.9371,-194.562)">
                <path d="M579.789,1146.09C579.789,1142.27 576.924,1139.16 573.391,1139.16L439.531,1140.81C436.836,1140.81 434.652,1143.17 434.652,1146.09L434.928,1291.05C434.928,1293.8 436.989,1296.04 439.531,1296.04L573.391,1296.28C576.057,1296.28 578.218,1293.94 578.218,1291.05C578.218,1291.05 578.282,1271.92 578.518,1247.56C578.933,1204.86 579.789,1146.09 579.789,1146.09ZM567.091,1152.94L444.4,1151.43L444.144,1286.06L568.541,1285.83C568.507,1278.54 568.426,1264.28 568.264,1247.56C567.934,1213.67 567.328,1169.67 567.091,1152.94Z"/>
            </g>
            <g transform="matrix(0.762459,0,0,0.704077,-28.9371,-92.4992)">
                <path d="M579.789,1146.09C579.789,1142.27 576.924,1139.16 573.391,1139.16L439.531,1140.81C436.836,1140.81 434.652,1143.17 434.652,1146.09L434.928,1291.05C434.928,1293.8 436.989,1296.04 439.531,1296.04L573.391,1296.28C576.057,1296.28 578.218,1293.94 578.218,1291.05C578.218,1291.05 578.282,1271.92 578.518,1247.56C578.933,1204.86 579.789,1146.09 579.789,1146.09ZM567.091,1152.94L444.4,1151.43L444.144,1286.06L568.541,1285.83C568.507,1278.54 568.426,1264.28 568.264,1247.56C567.934,1213.67 567.328,1169.67 567.091,1152.94Z"/>
            </g>
            <g transform="matrix(0.762459,0,0,0.704077,73.1254,-194.562)">
                <path d="M579.789,1146.09C579.789,1142.27 576.924,1139.16 573.391,1139.16L439.531,1140.81C436.836,1140.81 434.652,1143.17 434.652,1146.09L434.928,1291.05C434.928,1293.8 436.989,1296.04 439.531,1296.04L573.391,1296.28C576.057,1296.28 578.218,1293.94 578.218,1291.05C578.218,1291.05 578.282,1271.92 578.518,1247.56C578.933,1204.86 579.789,1146.09 579.789,1146.09ZM567.091,1152.94L444.4,1151.43L444.144,1286.06L568.541,1285.83C568.507,1278.54 568.426,1264.28 568.264,1247.56C567.934,1213.67 567.328,1169.67 567.091,1152.94Z"/>
            </g>
            <g transform="matrix(0.762459,0,0,0.704077,73.1254,-92.4992)">
                <path d="M579.789,1146.09C579.789,1142.27 576.924,1139.16 573.391,1139.16L439.531,1140.81C436.836,1140.81 434.652,1143.17 434.652,1146.09L434.928,1291.05C434.928,1293.8 436.989,1296.04 439.531,1296.04L573.391,1296.28C576.057,1296.28 578.218,1293.94 578.218,1291.05C578.218,1291.05 578.282,1271.92 578.518,1247.56C578.933,1204.86 579.789,1146.09 579.789,1146.09ZM567.091,1152.94L444.4,1151.43L444.144,1286.06L568.541,1285.83C568.507,1278.54 568.426,1264.28 568.264,1247.56C567.934,1213.67 567.328,1169.67 567.091,1152.94Z"/>
            </g>
            <g transform="matrix(0.762459,0,0,0.704077,175.188,-194.562)">
                <path d="M579.789,1146.09C579.789,1142.27 576.924,1139.16 573.391,1139.16L439.531,1140.81C436.836,1140.81 434.652,1143.17 434.652,1146.09L434.928,1291.05C434.928,1293.8 436.989,1296.04 439.531,1296.04L573.391,1296.28C576.057,1296.28 578.218,1293.94 578.218,1291.05C578.218,1291.05 578.282,1271.92 578.518,1247.56C578.933,1204.86 579.789,1146.09 579.789,1146.09ZM567.091,1152.94L444.4,1151.43L444.144,1286.06L568.541,1285.83C568.507,1278.54 568.426,1264.28 568.264,1247.56C567.934,1213.67 567.328,1169.67 567.091,1152.94Z"/>
            </g>
            <g transform="matrix(0.762459,0,0,0.704077,175.188,-92.4992)">
                <path d="M579.789,1146.09C579.789,1142.27 576.924,1139.16 573.391,1139.16L439.531,1140.81C436.836,1140.81 434.652,1143.17 434.652,1146.09L434.928,1291.05C434.928,1293.8 436.989,1296.04 439.531,1296.04L573.391,1296.28C576.057,1296.28 578.218,1293.94 578.218,1291.05C578.218,1291.05 578.282,1271.92 578.518,1247.56C578.933,1204.86 579.789,1146.09 579.789,1146.09ZM567.091,1152.94L444.4,1151.43L444.144,1286.06L568.541,1285.83C568.507,1278.54 568.426,1264.28 568.264,1247.56C567.934,1213.67 567.328,1169.67 567.091,1152.94Z"/>
            </g>
            <g transform="matrix(0.762459,0,0,0.704077,175.188,-92.4992)">
                <path d="M579.789,1146.09C579.789,1142.27 576.924,1139.16 573.391,1139.16L439.531,1140.81C436.836,1140.81 434.652,1143.17 434.652,1146.09L434.928,1291.05C434.928,1293.8 436.989,1296.04 439.531,1296.04L573.391,1296.28C576.057,1296.28 578.218,1293.94 578.218,1291.05C578.218,1291.05 578.282,1271.92 578.518,1247.56C578.933,1204.86 579.789,1146.09 579.789,1146.09ZM567.091,1152.94L444.4,1151.43L444.144,1286.06L568.541,1285.83C568.507,1278.54 568.426,1264.28 568.264,1247.56C567.934,1213.67 567.328,1169.67 567.091,1152.94Z"/>
            </g>
        </g>
        <g transform="matrix(0.000732517,1,-1,0.000732517,1916.28,87.0271)">
            <g transform="matrix(0.762459,0,0,0.704077,-28.9371,-194.562)">
                <path d="M579.789,1146.09C579.789,1142.27 576.924,1139.16 573.391,1139.16L439.531,1140.81C436.836,1140.81 434.652,1143.17 434.652,1146.09L434.928,1291.05C434.928,1293.8 436.989,1296.04 439.531,1296.04L573.391,1296.28C576.057,1296.28 578.218,1293.94 578.218,1291.05C578.218,1291.05 578.282,1271.92 578.518,1247.56C578.933,1204.86 579.789,1146.09 579.789,1146.09ZM567.091,1152.94L444.4,1151.43L444.144,1286.06L568.541,1285.83C568.507,1278.54 568.426,1264.28 568.264,1247.56C567.934,1213.67 567.328,1169.67 567.091,1152.94Z"/>
            </g>
            <g transform="matrix(0.762459,0,0,0.704077,-28.9371,-92.4992)">
                <path d="M579.789,1146.09C579.789,1142.27 576.924,1139.16 573.391,1139.16L439.531,1140.81C436.836,1140.81 434.652,1143.17 434.652,1146.09L434.928,1291.05C434.928,1293.8 436.989,1296.04 439.531,1296.04L573.391,1296.28C576.057,1296.28 578.218,1293.94 578.218,1291.05C578.218,1291.05 578.282,1271.92 578.518,1247.56C578.933,1204.86 579.789,1146.09 579.789,1146.09ZM567.091,1152.94L444.4,1151.43L444.144,1286.06L568.541,1285.83C568.507,1278.54 568.426,1264.28 568.264,1247.56C567.934,1213.67 567.328,1169.67 567.091,1152.94Z"/>
            </g>
            <g transform="matrix(0.762459,0,0,0.704077,73.1254,-194.562)">
                <path d="M579.789,1146.09C579.789,1142.27 576.924,1139.16 573.391,1139.16L439.531,1140.81C436.836,1140.81 434.652,1143.17 434.652,1146.09L434.928,1291.05C434.928,1293.8 436.989,1296.04 439.531,1296.04L573.391,1296.28C576.057,1296.28 578.218,1293.94 578.218,1291.05C578.218,1291.05 578.282,1271.92 578.518,1247.56C578.933,1204.86 579.789,1146.09 579.789,1146.09ZM567.091,1152.94L444.4,1151.43L444.144,1286.06L568.541,1285.83C568.507,1278.54 568.426,1264.28 568.264,1247.56C567.934,1213.67 567.328,1169.67 567.091,1152.94Z"/>
            </g>
            <g transform="matrix(0.762459,0,0,0.704077,73.1254,-92.4992)">
                <path d="M579.789,1146.09C579.789,1142.27 576.924,1139.16 573.391,1139.16L439.531,1140.81C436.836,1140.81 434.652,1143.17 434.652,1146.09L434.928,1291.05C434.928,1293.8 436.989,1296.04 439.531,1296.04L573.391,1296.28C576.057,1296.28 578.218,1293.94 578.218,1291.05C578.218,1291.05 578.282,1271.92 578.518,1247.56C578.933,1204.86 579.789,1146.09 579.789,1146.09ZM567.091,1152.94L444.4,1151.43L444.144,1286.06L568.541,1285.83C568.507,1278.54 568.426,1264.28 568.264,1247.56C567.934,1213.67 567.328,1169.67 567.091,1152.94Z"/>
            </g>
            <g transform="matrix(0.762459,0,0,0.704077,175.188,-194.562)">
                <path d="M579.789,1146.09C579.789,1142.27 576.924,1139.16 573.391,1139.16L439.531,1140.81C436.836,1140.81 434.652,1143.17 434.652,1146.09L434.928,1291.05C434.928,1293.8 436.989,1296.04 439.531,1296.04L573.391,1296.28C576.057,1296.28 578.218,1293.94 578.218,1291.05C578.218,1291.05 578.282,1271.92 578.518,1247.56C578.933,1204.86 579.789,1146.09 579.789,1146.09ZM567.091,1152.94L444.4,1151.43L444.144,1286.06L568.541,1285.83C568.507,1278.54 568.426,1264.28 568.264,1247.56C567.934,1213.67 567.328,1169.67 567.091,1152.94Z"/>
            </g>
            <g transform="matrix(0.762459,0,0,0.704077,175.188,-92.4992)">
                <path d="M579.789,1146.09C579.789,1142.27 576.924,1139.16 573.391,1139.16L439.531,1140.81C436.836,1140.81 434.652,1143.17 434.652,1146.09L434.928,1291.05C434.928,1293.8 436.989,1296.04 439.531,1296.04L573.391,1296.28C576.057,1296.28 578.218,1293.94 578.218,1291.05C578.218,1291.05 578.282,1271.92 578.518,1247.56C578.933,1204.86 579.789,1146.09 579.789,1146.09ZM567.091,1152.94L444.4,1151.43L444.144,1286.06L568.541,1285.83C568.507,1278.54 568.426,1264.28 568.264,1247.56C567.934,1213.67 567.328,1169.67 567.091,1152.94Z"/>
            </g>
            <g transform="matrix(0.762459,0,0,0.704077,175.188,-92.4992)">
                <path d="M579.789,1146.09C579.789,1142.27 576.924,1139.16 573.391,1139.16L439.531,1140.81C436.836,1140.81 434.652,1143.17 434.652,1146.09L434.928,1291.05C434.928,1293.8 436.989,1296.04 439.531,1296.04L573.391,1296.28C576.057,1296.28 578.218,1293.94 578.218,1291.05C578.218,1291.05 578.282,1271.92 578.518,1247.56C578.933,1204.86 579.789,1146.09 579.789,1146.09ZM567.091,1152.94L444.4,1151.43L444.144,1286.06L568.541,1285.83C568.507,1278.54 568.426,1264.28 568.264,1247.56C567.934,1213.67 567.328,1169.67 567.091,1152.94Z"/>
            </g>
        </g>
        <g transform="matrix(0.000732517,1,-1,0.000732517,2711.93,87.0271)">
            <g transform="matrix(0.762459,0,0,0.704077,-28.9371,-194.562)">
                <rect x="439.531" y="1146.09" width="133.86" height="144.959" style="fill:url(#_Linear1);"/>
                <path d="M579.789,1146.09C579.789,1142.27 576.924,1139.16 573.391,1139.16L439.531,1140.81C436.836,1140.81 434.652,1143.17 434.652,1146.09L434.928,1291.05C434.928,1293.8 436.989,1296.04 439.531,1296.04L573.391,1296.28C576.057,1296.28 578.218,1293.94 578.218,1291.05C578.218,1291.05 578.282,1271.92 578.518,1247.56C578.933,1204.86 579.789,1146.09 579.789,1146.09ZM567.091,1152.94L444.4,1151.43L444.144,1286.06L568.541,1285.83C568.507,1278.54 568.426,1264.28 568.264,1247.56C567.934,1213.67 567.328,1169.67 567.091,1152.94Z"/>
            </g>
            <g transform="matrix(0.762459,0,0,0.704077,-28.9371,-92.4992)">
                <rect x="439.531" y="1146.09" width="133.86" height="144.959" style="fill:url(#_Linear2);"/>
                <path d="M579.789,1146.09C579.789,1142.27 576.924,1139.16 573.391,1139.16L439.531,1140.81C436.836,1140.81 434.652,1143.17 434.652,1146.09L434.928,1291.05C434.928,1293.8 436.989,1296.04 439.531,1296.04L573.391,1296.28C576.057,1296.28 578.218,1293.94 578.218,1291.05C578.218,1291.05 578.282,1271.92 578.518,1247.56C578.933,1204.86 579.789,1146.09 579.789,1146.09ZM567.091,1152.94L444.4,1151.43L444.144,1286.06L568.541,1285.83C568.507,1278.54 568.426,1264.28 568.264,1247.56C567.934,1213.67 567.328,1169.67 567.091,1152.94Z"/>
            </g>
            <g transform="matrix(0.762459,0,0,0.704077,73.1254,-194.562)">
                <rect x="439.531" y="1146.09" width="133.86" height="144.959" style="fill:url(#_Linear3);"/>
                <path d="M579.789,1146.09C579.789,1142.27 576.924,1139.16 573.391,1139.16L439.531,1140.81C436.836,1140.81 434.652,1143.17 434.652,1146.09L434.928,1291.05C434.928,1293.8 436.989,1296.04 439.531,1296.04L573.391,1296.28C576.057,1296.28 578.218,1293.94 578.218,1291.05C578.218,1291.05 578.282,1271.92 578.518,1247.56C578.933,1204.86 579.789,1146.09 579.789,1146.09ZM567.091,1152.94L444.4,1151.43L444.144,1286.06L568.541,1285.83C568.507,1278.54 568.426,1264.28 568.264,1247.56C567.934,1213.67 567.328,1169.67 567.091,1152.94Z"/>
            </g>
            <g transform="matrix(0.762459,0,0,0.704077,73.1254,-92.4992)">
                <rect x="439.531" y="1146.09" width="133.86" height="144.959" style="fill:url(#_Linear4);"/>
                <path d="M579.789,1146.09C579.789,1142.27 576.924,1139.16 573.391,1139.16L439.531,1140.81C436.836,1140.81 434.652,1143.17 434.652,1146.09L434.928,1291.05C434.928,1293.8 436.989,1296.04 439.531,1296.04L573.391,1296.28C576.057,1296.28 578.218,1293.94 578.218,1291.05C578.218,1291.05 578.282,1271.92 578.518,1247.56C578.933,1204.86 579.789,1146.09 579.789,1146.09ZM567.091,1152.94L444.4,1151.43L444.144,1286.06L568.541,1285.83C568.507,1278.54 568.426,1264.28 568.264,1247.56C567.934,1213.67 567.328,1169.67 567.091,1152.94Z"/>
            </g>
            <g transform="matrix(0.762459,0,0,0.704077,175.188,-194.562)">
                <rect x="439.531" y="1146.09" width="133.86" height="144.959" style="fill:url(#_Linear5);"/>
                <path d="M579.789,1146.09C579.789,1142.27 576.924,1139.16 573.391,1139.16L439.531,1140.81C436.836,1140.81 434.652,1143.17 434.652,1146.09L434.928,1291.05C434.928,1293.8 436.989,1296.04 439.531,1296.04L573.391,1296.28C576.057,1296.28 578.218,1293.94 578.218,1291.05C578.218,1291.05 578.282,1271.92 578.518,1247.56C578.933,1204.86 579.789,1146.09 579.789,1146.09ZM567.091,1152.94L444.4,1151.43L444.144,1286.06L568.541,1285.83C568.507,1278.54 568.426,1264.28 568.264,1247.56C567.934,1213.67 567.328,1169.67 567.091,1152.94Z"/>
            </g>
            <g transform="matrix(0.762459,0,0,0.704077,175.188,-92.4992)">
                <rect x="439.531" y="1146.09" width="133.86" height="144.959" style="fill:url(#_Linear6);"/>
                <path d="M579.789,1146.09C579.789,1142.27 576.924,1139.16 573.391,1139.16L439.531,1140.81C436.836,1140.81 434.652,1143.17 434.652,1146.09L434.928,1291.05C434.928,1293.8 436.989,1296.04 439.531,1296.04L573.391,1296.28C576.057,1296.28 578.218,1293.94 578.218,1291.05C578.218,1291.05 578.282,1271.92 578.518,1247.56C578.933,1204.86 579.789,1146.09 579.789,1146.09ZM567.091,1152.94L444.4,1151.43L444.144,1286.06L568.541,1285.83C568.507,1278.54 568.426,1264.28 568.264,1247.56C567.934,1213.67 567.328,1169.67 567.091,1152.94Z"/>
            </g>
            <g transform="matrix(0.762459,0,0,0.704077,175.188,-92.4992)">
                <rect x="439.531" y="1146.09" width="133.86" height="144.959" style="fill:url(#_Linear7);"/>
                <path d="M579.789,1146.09C579.789,1142.27 576.924,1139.16 573.391,1139.16L439.531,1140.81C436.836,1140.81 434.652,1143.17 434.652,1146.09L434.928,1291.05C434.928,1293.8 436.989,1296.04 439.531,1296.04L573.391,1296.28C576.057,1296.28 578.218,1293.94 578.218,1291.05C578.218,1291.05 578.282,1271.92 578.518,1247.56C578.933,1204.86 579.789,1146.09 579.789,1146.09ZM567.091,1152.94L444.4,1151.43L444.144,1286.06L568.541,1285.83C568.507,1278.54 568.426,1264.28 568.264,1247.56C567.934,1213.67 567.328,1169.67 567.091,1152.94Z"/>
            </g>
        </g>
        <g transform="matrix(2.6785,0,0,2.6785,-895.16,-627.805)">
            <text x="900.922px" y="342.094px" style="font-family:'AmericanTypewriter', 'American Typewriter', serif;font-size:24px;">zip</text>
        </g>
        <g transform="matrix(1,0,0,0.650609,1195.11,147.72)">
            <g transform="matrix(1,-0,-0,1.53702,-144.111,45.0033)">
                <path d="M984.396,250.782L999,273L972.464,271.352C980.589,269.193 986.556,258.908 984.396,250.782Z" style="fill:rgb(128,128,128);"/>
                <path d="M487.905,265.359C640.076,195.369 838.051,184.346 982.544,263.454" style="fill:none;stroke:rgb(128,128,128);stroke-width:7.93px;stroke-dasharray:42.61,25.17,0,0;stroke-dashoffset:597.48;"/>
            </g>
        </g>
        <g transform="matrix(1.56527,0,0,1.00698,711.87,-17.8522)">
            <g transform="matrix(0.638869,-0,-0,0.99307,216.659,193.502)">
                <path d="M984.485,250.724L999,273L972.471,271.246C980.605,269.119 986.612,258.858 984.485,250.724Z" style="fill:rgb(128,128,128);"/>
                <path d="M199,261.173C440.484,151.348 755.662,135.331 982.582,263.388" style="fill:none;stroke:rgb(128,128,128);stroke-width:7.93px;stroke-dasharray:42.61,25.17,0,0;stroke-dashoffset:597.48;"/>
            </g>
        </g>
    </g>
    <defs>
        <linearGradient id="_Linear1" x1="0" y1="0" x2="1" y2="0" gradientUnits="userSpaceOnUse" gradientTransform="matrix(0.240182,-355.075,327.886,0.260098,636.115,1365.15)"><stop offset="0" style="stop-color:rgb(105,186,201);stop-opacity:1"/><stop offset="1" style="stop-color:white;stop-opacity:1"/></linearGradient>
        <linearGradient id="_Linear2" x1="0" y1="0" x2="1" y2="0" gradientUnits="userSpaceOnUse" gradientTransform="matrix(0.240182,-355.075,327.886,0.260098,636.115,1220.19)"><stop offset="0" style="stop-color:rgb(105,186,201);stop-opacity:1"/><stop offset="1" style="stop-color:white;stop-opacity:1"/></linearGradient>
        <linearGradient id="_Linear3" x1="0" y1="0" x2="1" y2="0" gradientUnits="userSpaceOnUse" gradientTransform="matrix(0.240182,-355.075,327.886,0.260098,502.255,1365.15)"><stop offset="0" style="stop-color:rgb(105,186,201);stop-opacity:1"/><stop offset="1" style="stop-color:white;stop-opacity:1"/></linearGradient>
        <linearGradient id="_Linear4" x1="0" y1="0" x2="1" y2="0" gradientUnits="userSpaceOnUse" gradientTransform="matrix(0.240182,-355.075,327.886,0.260098,502.255,1220.19)"><stop offset="0" style="stop-color:rgb(105,186,201);stop-opacity:1"/><stop offset="1" style="stop-color:white;stop-opacity:1"/></linearGradient>
        <linearGradient id="_Linear5" x1="0" y1="0" x2="1" y2="0" gradientUnits="userSpaceOnUse" gradientTransform="matrix(0.240182,-355.075,327.886,0.260098,368.396,1365.15)"><stop offset="0" style="stop-color:rgb(105,186,201);stop-opacity:1"/><stop offset="1" style="stop-color:white;stop-opacity:1"/></linearGradient>
        <linearGradient id="_Linear6" x1="0" y1="0" x2="1" y2="0" gradientUnits="userSpaceOnUse" gradientTransform="matrix(0.240182,-355.075,327.886,0.260098,368.396,1220.19)"><stop offset="0" style="stop-color:rgb(105,186,201);stop-opacity:1"/><stop offset="1" style="stop-color:white;stop-opacity:1"/></linearGradient>
        <linearGradient id="_Linear7" x1="0" y1="0" x2="1" y2="0" gradientUnits="userSpaceOnUse" gradientTransform="matrix(0.240182,-355.075,327.886,0.260098,368.396,1220.19)"><stop offset="0" style="stop-color:rgb(105,186,201);stop-opacity:1"/><stop offset="1" style="stop-color:white;stop-opacity:1"/></linearGradient>
    </defs>
</svg>
