<svg height="138pt" viewBox="0.00 0.00 509.00 137.50" width="509pt" xmlns="http://www.w3.org/2000/svg" xmlns:xlink="http://www.w3.org/1999/xlink">
<g class="graph" id="graph0" transform="scale(1 1) rotate(0) translate(4 133.5)">
<title>%3</title>
<polygon fill="white" points="-4,4 -4,-133.5 505,-133.5 505,4 -4,4" stroke="none"/>
<!-- out -->
<g class="node" id="node1"><title>out</title>
<ellipse cx="474" cy="-45" fill="none" rx="27" ry="18" stroke="black"/>
<text font-family="Times,serif" font-size="14.00" text-anchor="middle" x="474" y="-41.3">out</text>
</g>
<!-- Mul (Op 0) -->
<g class="node" id="node2"><title>Mul (Op 0)</title>
<polygon fill="none" points="411,-85 331,-85 331,-5 411,-5 411,-85" stroke="black" stroke-width="3"/>
<text font-family="Times,serif" font-size="14.00" text-anchor="middle" x="371" y="-41.3">Mul (Op 0)</text>
</g>
<!-- Mul (Op 0)&#45;&gt;out -->
<g class="edge" id="edge1"><title>Mul (Op 0)-&gt;out</title>
<path d="M411.049,-45C419.48,-45 428.36,-45 436.681,-45" fill="none" stroke="black"/>
<polygon fill="black" points="436.846,-48.5001 446.846,-45 436.846,-41.5001 436.846,-48.5001" stroke="black"/>
</g>
<!-- v1 -->
<g class="node" id="node3"><title>v1</title>
<ellipse cx="268" cy="-72" fill="none" rx="27" ry="18" stroke="black"/>
<text font-family="Times,serif" font-size="14.00" text-anchor="middle" x="268" y="-68.3">v1</text>
</g>
<!-- v1&#45;&gt;Mul (Op 0) -->
<g class="edge" id="edge2"><title>v1-&gt;Mul (Op 0)</title>
<path d="M293.449,-65.4641C301.769,-63.2401 311.387,-60.6689 320.937,-58.116" fill="none" stroke="black"/>
<polygon fill="black" points="322.049,-61.4415 330.806,-55.4775 320.242,-54.6789 322.049,-61.4415" stroke="black"/>
</g>
<!-- y -->
<g class="node" id="node4"><title>y</title>
<ellipse cx="268" cy="-18" fill="none" rx="27" ry="18" stroke="black"/>
<text font-family="Times,serif" font-size="14.00" text-anchor="middle" x="268" y="-14.3">y</text>
</g>
<!-- y&#45;&gt;Mul (Op 0) -->
<g class="edge" id="edge3"><title>y-&gt;Mul (Op 0)</title>
<path d="M293.449,-24.5359C301.769,-26.7599 311.387,-29.3311 320.937,-31.884" fill="none" stroke="black"/>
<polygon fill="black" points="320.242,-35.3211 330.806,-34.5225 322.049,-28.5585 320.242,-35.3211" stroke="black"/>
</g>
<!-- TimesFive (Op 1) -->
<g class="node" id="node5"><title>TimesFive (Op 1)</title>
<polygon fill="none" points="205,-129.5 90,-129.5 90,-14.5 205,-14.5 205,-129.5" stroke="black" stroke-width="3"/>
<text font-family="Times,serif" font-size="14.00" text-anchor="middle" x="147.5" y="-68.3">TimesFive (Op 1)</text>
</g>
<!-- TimesFive (Op 1)&#45;&gt;v1 -->
<g class="edge" id="edge4"><title>TimesFive (Op 1)-&gt;v1</title>
<path d="M205.32,-72C213.994,-72 222.736,-72 230.804,-72" fill="none" stroke="black"/>
<polygon fill="black" points="230.957,-75.5001 240.957,-72 230.957,-68.5001 230.957,-75.5001" stroke="black"/>
</g>
<!-- x -->
<g class="node" id="node6"><title>x</title>
<ellipse cx="27" cy="-72" fill="none" rx="27" ry="18" stroke="black"/>
<text font-family="Times,serif" font-size="14.00" text-anchor="middle" x="27" y="-68.3">x</text>
</g>
<!-- x&#45;&gt;TimesFive (Op 1) -->
<g class="edge" id="edge5"><title>x-&gt;TimesFive (Op 1)</title>
<path d="M54.0053,-72C61.8104,-72 70.7535,-72 79.9346,-72" fill="none" stroke="black"/>
<polygon fill="black" points="79.9479,-75.5001 89.9479,-72 79.9478,-68.5001 79.9479,-75.5001" stroke="black"/>
</g>
</g>
</svg>