<svg xmlns="http://www.w3.org/2000/svg" xmlns:xlink="http://www.w3.org/1999/xlink" width="544pt" height="123pt" viewBox="0.00 0.00 544.00 123.00">
<g id="graph0" class="graph" transform="scale(1 1) rotate(0) translate(4 119)">
<title>%3</title>
<polygon fill="white" stroke="none" points="-4,4 -4,-119 540,-119 540,4 -4,4"/>
<!-- out -->
<g id="node1" class="node"><title>out</title>
<ellipse fill="none" stroke="black" cx="509" cy="-57.5" rx="27" ry="18"/>
<text text-anchor="middle" x="509" y="-53.8" font-family="Times,serif" font-size="14.00">out</text>
</g>
<!-- TimesFive (Op 0) -->
<g id="node2" class="node"><title>TimesFive (Op 0)</title>
<polygon fill="none" stroke="black" stroke-width="3" points="446,-115 331,-115 331,-7.10543e-15 446,-7.10543e-15 446,-115"/>
<text text-anchor="middle" x="388.5" y="-53.8" font-family="Times,serif" font-size="14.00">TimesFive (Op 0)</text>
</g>
<!-- TimesFive (Op 0)&#45;&gt;out -->
<g id="edge1" class="edge"><title>TimesFive (Op 0)-&gt;out</title>
<path fill="none" stroke="black" d="M446.32,-57.5C454.994,-57.5 463.736,-57.5 471.804,-57.5"/>
<polygon fill="black" stroke="black" points="471.957,-61.0001 481.957,-57.5 471.957,-54.0001 471.957,-61.0001"/>
</g>
<!-- v1 -->
<g id="node3" class="node"><title>v1</title>
<ellipse fill="none" stroke="black" cx="268" cy="-57.5" rx="27" ry="18"/>
<text text-anchor="middle" x="268" y="-53.8" font-family="Times,serif" font-size="14.00">v1</text>
</g>
<!-- v1&#45;&gt;TimesFive (Op 0) -->
<g id="edge2" class="edge"><title>v1-&gt;TimesFive (Op 0)</title>
<path fill="none" stroke="black" d="M295.005,-57.5C302.81,-57.5 311.754,-57.5 320.935,-57.5"/>
<polygon fill="black" stroke="black" points="320.948,-61.0001 330.948,-57.5 320.948,-54.0001 320.948,-61.0001"/>
</g>
<!-- TimesFive (Op 1) -->
<g id="node4" class="node"><title>TimesFive (Op 1)</title>
<polygon fill="none" stroke="black" stroke-width="3" points="205,-115 90,-115 90,-7.10543e-15 205,-7.10543e-15 205,-115"/>
<text text-anchor="middle" x="147.5" y="-53.8" font-family="Times,serif" font-size="14.00">TimesFive (Op 1)</text>
</g>
<!-- TimesFive (Op 1)&#45;&gt;v1 -->
<g id="edge3" class="edge"><title>TimesFive (Op 1)-&gt;v1</title>
<path fill="none" stroke="black" d="M205.32,-57.5C213.994,-57.5 222.736,-57.5 230.804,-57.5"/>
<polygon fill="black" stroke="black" points="230.957,-61.0001 240.957,-57.5 230.957,-54.0001 230.957,-61.0001"/>
</g>
<!-- x -->
<g id="node5" class="node"><title>x</title>
<ellipse fill="none" stroke="black" cx="27" cy="-57.5" rx="27" ry="18"/>
<text text-anchor="middle" x="27" y="-53.8" font-family="Times,serif" font-size="14.00">x</text>
</g>
<!-- x&#45;&gt;TimesFive (Op 1) -->
<g id="edge4" class="edge"><title>x-&gt;TimesFive (Op 1)</title>
<path fill="none" stroke="black" d="M54.0053,-57.5C61.8104,-57.5 70.7535,-57.5 79.9346,-57.5"/>
<polygon fill="black" stroke="black" points="79.9479,-61.0001 89.9479,-57.5 79.9478,-54.0001 79.9479,-61.0001"/>
</g>
</g>
</svg>