<svg xmlns="http://www.w3.org/2000/svg" xmlns:xlink="http://www.w3.org/1999/xlink" width="147pt" height="538pt" viewBox="0.00 0.00 147.00 538.00">
<g id="graph0" class="graph" transform="scale(1 1) rotate(0) translate(4 534)">
<title>%3</title>
<polygon fill="white" stroke="transparent" points="-4,4 -4,-534 143,-534 143,4 -4,4"/>
<!-- out -->
<g id="node1" class="node">
<title>out</title>
<ellipse fill="none" stroke="black" cx="69.5" cy="-18" rx="27" ry="18"/>
<text text-anchor="middle" x="69.5" y="-14.3" font-family="Times,serif" font-size="14.00">out</text>
</g>
<!-- TimesFive (Op 0) -->
<g id="node2" class="node">
<title>TimesFive (Op 0)</title>
<polygon fill="none" stroke="black" stroke-width="3" points="139,-211 0,-211 0,-72 139,-72 139,-211"/>
<text text-anchor="middle" x="69.5" y="-137.8" font-family="Times,serif" font-size="14.00">TimesFive (Op 0)</text>
</g>
<!-- TimesFive (Op 0)&#45;&gt;out -->
<g id="edge1" class="edge">
<title>TimesFive (Op 0)-&gt;out</title>
<path fill="none" stroke="black" d="M69.5,-71.94C69.5,-62.86 69.5,-54.03 69.5,-46.26"/>
<polygon fill="black" stroke="black" points="73,-46.06 69.5,-36.06 66,-46.06 73,-46.06"/>
</g>
<!-- Variable2 -->
<g id="node3" class="node">
<title>Variable2</title>
<ellipse fill="none" stroke="black" cx="69.5" cy="-265" rx="54.69" ry="18"/>
<text text-anchor="middle" x="69.5" y="-261.3" font-family="Times,serif" font-size="14.00">Variable2</text>
</g>
<!-- Variable2&#45;&gt;TimesFive (Op 0) -->
<g id="edge2" class="edge">
<title>Variable2-&gt;TimesFive (Op 0)</title>
<path fill="none" stroke="black" d="M69.5,-246.85C69.5,-239.66 69.5,-230.76 69.5,-221.2"/>
<polygon fill="black" stroke="black" points="73,-221.05 69.5,-211.05 66,-221.05 73,-221.05"/>
</g>
<!-- TimesFive (Op 1) -->
<g id="node4" class="node">
<title>TimesFive (Op 1)</title>
<polygon fill="none" stroke="black" stroke-width="3" points="139,-458 0,-458 0,-319 139,-319 139,-458"/>
<text text-anchor="middle" x="69.5" y="-384.8" font-family="Times,serif" font-size="14.00">TimesFive (Op 1)</text>
</g>
<!-- TimesFive (Op 1)&#45;&gt;Variable2 -->
<g id="edge3" class="edge">
<title>TimesFive (Op 1)-&gt;Variable2</title>
<path fill="none" stroke="black" d="M69.5,-318.94C69.5,-309.86 69.5,-301.03 69.5,-293.26"/>
<polygon fill="black" stroke="black" points="73,-293.06 69.5,-283.06 66,-293.06 73,-293.06"/>
</g>
<!-- x -->
<g id="node5" class="node">
<title>x</title>
<ellipse fill="none" stroke="black" cx="69.5" cy="-512" rx="27" ry="18"/>
<text text-anchor="middle" x="69.5" y="-508.3" font-family="Times,serif" font-size="14.00">x</text>
</g>
<!-- x&#45;&gt;TimesFive (Op 1) -->
<g id="edge4" class="edge">
<title>x-&gt;TimesFive (Op 1)</title>
<path fill="none" stroke="black" d="M69.5,-493.85C69.5,-486.66 69.5,-477.76 69.5,-468.2"/>
<polygon fill="black" stroke="black" points="73,-468.05 69.5,-458.05 66,-468.05 73,-468.05"/>
</g>
</g>
</svg>