<svg height="123pt" viewBox="0.00 0.00 544.00 123.00" width="544pt" xmlns="http://www.w3.org/2000/svg" xmlns:xlink="http://www.w3.org/1999/xlink">
<g class="graph" id="graph0" transform="scale(1 1) rotate(0) translate(4 119)">
<title>%3</title>
<polygon fill="white" points="-4,4 -4,-119 540,-119 540,4 -4,4" stroke="none"/>
<!-- out -->
<g class="node" id="node1"><title>out</title>
<ellipse cx="509" cy="-57.5" fill="none" rx="27" ry="18" stroke="black"/>
<text font-family="Times,serif" font-size="14.00" text-anchor="middle" x="509" y="-53.8">out</text>
</g>
<!-- TimesFive (Op 0) -->
<g class="node" id="node2"><title>TimesFive (Op 0)</title>
<polygon fill="none" points="446,-115 331,-115 331,-7.10543e-15 446,-7.10543e-15 446,-115" stroke="black" stroke-width="3"/>
<text font-family="Times,serif" font-size="14.00" text-anchor="middle" x="388.5" y="-53.8">TimesFive (Op 0)</text>
</g>
<!-- TimesFive (Op 0)&#45;&gt;out -->
<g class="edge" id="edge1"><title>TimesFive (Op 0)-&gt;out</title>
<path d="M446.32,-57.5C454.994,-57.5 463.736,-57.5 471.804,-57.5" fill="none" stroke="black"/>
<polygon fill="black" points="471.957,-61.0001 481.957,-57.5 471.957,-54.0001 471.957,-61.0001" stroke="black"/>
</g>
<!-- v1 -->
<g class="node" id="node3"><title>v1</title>
<ellipse cx="268" cy="-57.5" fill="none" rx="27" ry="18" stroke="black"/>
<text font-family="Times,serif" font-size="14.00" text-anchor="middle" x="268" y="-53.8">v1</text>
</g>
<!-- v1&#45;&gt;TimesFive (Op 0) -->
<g class="edge" id="edge2"><title>v1-&gt;TimesFive (Op 0)</title>
<path d="M295.005,-57.5C302.81,-57.5 311.754,-57.5 320.935,-57.5" fill="none" stroke="black"/>
<polygon fill="black" points="320.948,-61.0001 330.948,-57.5 320.948,-54.0001 320.948,-61.0001" stroke="black"/>
</g>
<!-- TimesFive (Op 1) -->
<g class="node" id="node4"><title>TimesFive (Op 1)</title>
<polygon fill="none" points="205,-115 90,-115 90,-7.10543e-15 205,-7.10543e-15 205,-115" stroke="black" stroke-width="3"/>
<text font-family="Times,serif" font-size="14.00" text-anchor="middle" x="147.5" y="-53.8">TimesFive (Op 1)</text>
</g>
<!-- TimesFive (Op 1)&#45;&gt;v1 -->
<g class="edge" id="edge3"><title>TimesFive (Op 1)-&gt;v1</title>
<path d="M205.32,-57.5C213.994,-57.5 222.736,-57.5 230.804,-57.5" fill="none" stroke="black"/>
<polygon fill="black" points="230.957,-61.0001 240.957,-57.5 230.957,-54.0001 230.957,-61.0001" stroke="black"/>
</g>
<!-- x -->
<g class="node" id="node5"><title>x</title>
<ellipse cx="27" cy="-57.5" fill="none" rx="27" ry="18" stroke="black"/>
<text font-family="Times,serif" font-size="14.00" text-anchor="middle" x="27" y="-53.8">x</text>
</g>
<!-- x&#45;&gt;TimesFive (Op 1) -->
<g class="edge" id="edge4"><title>x-&gt;TimesFive (Op 1)</title>
<path d="M54.0053,-57.5C61.8104,-57.5 70.7535,-57.5 79.9346,-57.5" fill="none" stroke="black"/>
<polygon fill="black" points="79.9479,-61.0001 89.9479,-57.5 79.9478,-54.0001 79.9479,-61.0001" stroke="black"/>
</g>
</g>
</svg>