<?xml version="1.0" encoding="utf-8" ?>
<svg baseProfile="full" height="300" version="1.1" width="1271" xmlns="http://www.w3.org/2000/svg" xmlns:ev="http://www.w3.org/2001/xml-events" xmlns:xlink="http://www.w3.org/1999/xlink"><defs><marker id="arrow" markerHeight="3.5" markerWidth="5" orient="auto" refX="5.0" refY="1.7"><polygon points="0,0 5,1.75 0,3.5" /></marker></defs><g style="fill:white;"><g transform="matrix(1.0, 0.0, 0.0, 1.0, 635.7142857142857, 150.0)"><g transform="matrix(136.05442176870747, 0.0, 0.0, 136.05442176870747, 0.0, 0.0)"><g><g transform="matrix(1.0, 0.0, 0.0, 1.0, -4.425, -0.0)"><g><g><g><g><g><g><g><g><g><g><g><g><g><g><g><g><g><g><g><g><g><g><g><g transform="matrix(1.0, 0.0, 0.0, 1.0, -0.0, -0.275)"><g><g><g><g style="stroke: black;stroke-width: 0.0;" transform="matrix(1.0, 0.0, 0.0, 1.0, -0.025, -0.025)"><path d="M 0.0 0.0 L 0.05 0.0 L 0.05 0.05 L 0.0 0.05 L 0.0 0.0 Z" style="vector-effect: non-scaling-stroke;" /></g></g><g style="stroke: black;stroke-width: 3.8129999999999997;" transform="matrix(0.0, -1.0, 1.0, 0.0, 0.0, 0.275)"><g /></g></g><g transform="matrix(1.0, 0.0, 0.0, 1.0, 0.0, 0.55)"><g><g style="stroke: black;stroke-width: 0.0;" transform="matrix(1.0, 0.0, 0.0, 1.0, -0.025, -0.025)"><path d="M 0.0 0.0 L 0.05 0.0 L 0.05 0.05 L 0.0 0.05 L 0.0 0.0 Z" style="vector-effect: non-scaling-stroke;" /></g></g></g></g></g><g style="stroke: black;stroke-width: 3.8129999999999997;" transform="matrix(1.0, 0.0, 0.0, 1.0, 0.525, 0.0)"><g /></g></g><g transform="matrix(1.0, 0.0, 0.0, 1.0, 1.8250000000000002, 0.0)"><g transform="matrix(1.0, 0.0, 0.0, 1.0, -0.7750000000000001, -0.0)"><g><g transform="matrix(1.0, 0.0, 0.0, 1.0, -0.0, -0.275)"><g><g><g><g style="stroke: black;stroke-width: 3.8129999999999997;" transform="matrix(1.0, 0.0, 0.0, 1.0, -0.025, -0.025)"><path d="M 0.0 0.0 L 0.05 0.0 L 0.05 0.05 L 0.0 0.05 L 0.0 0.0 Z" style="vector-effect: non-scaling-stroke;" /></g></g><g style="stroke: black;stroke-width: 3.8129999999999997;" transform="matrix(0.0, -1.0, 1.0, 0.0, 0.0, 0.275)"><g /></g></g><g transform="matrix(1.0, 0.0, 0.0, 1.0, 0.0, 0.55)"><g><g style="stroke: black;stroke-width: 3.8129999999999997;" transform="matrix(1.0, 0.0, 0.0, 1.0, -0.025, -0.025)"><path d="M 0.0 0.0 L 0.05 0.0 L 0.05 0.05 L 0.0 0.05 L 0.0 0.0 Z" style="vector-effect: non-scaling-stroke;" /></g></g></g></g></g><g transform="matrix(1.0, 0.0, 0.0, 1.0, 0.775, 0.0)"><g><g style="fill: #ff9700;stroke: black;stroke-width: 7.6259999999999994;" transform="matrix(1.0, 0.0, 0.0, 1.0, -0.75, -0.5)"><path d="M 0.0 0.0 L 1.5 0.0 L 1.5 1.0 L 0.0 1.0 L 0.0 0.0 Z" style="vector-effect: non-scaling-stroke;" /></g><g transform="matrix(1.0, 0.0, 0.0, 1.0, 0.775, 0.0)"><g><g style="stroke: black;stroke-width: 3.8129999999999997;" transform="matrix(1.0, 0.0, 0.0, 1.0, -0.025, -0.025)"><path d="M 0.0 0.0 L 0.05 0.0 L 0.05 0.05 L 0.0 0.05 L 0.0 0.0 Z" style="vector-effect: non-scaling-stroke;" /></g></g></g></g></g></g></g></g></g><g transform="matrix(1.0, 0.0, 0.0, 1.0, 1.0500000000000003, -0.275)"><g transform="matrix(-1.0, 0, 0, -1.0, 0.0, 0.0)"><g><g style="stroke: black;stroke-width: 3.8129999999999997;" transform="matrix(1.0, 0.0, 0.0, 1.0, 0.0, 0.0)"><path d="M 0.0 0.0 L 1.0500000000000003 0.0" style="vector-effect: non-scaling-stroke;fill:none;" /></g><g style="stroke: black;stroke-width: 3.8129999999999997;" transform="matrix(1.0, 0.0, 0.0, 1.0, 1.0500000000000003, 0.0)"><g style="fill: #000000;stroke: black;stroke-width: 0.0;" transform="matrix(0.0, 0.3813, -0.3813, 0.0, -0.45755999999999997, 0.0)"><path d="M 0.0 -0.2 L 1.0 0.2 L 0.0 -1.2 L -1.0 0.19999999999999996 L 0.0 -0.2 Z" style="vector-effect: non-scaling-stroke;" /></g></g></g></g></g></g><g><g style="stroke: black;stroke-width: 3.8129999999999997;" transform="matrix(0.35, 0.0, 0.0, 0.35, 0.5250000000000001, -0.47500000000000003)"><g transform="scale(0.05) translate(-7.5760000000000005 -6.639333333333333)"><g>
<defs>
<g>
<symbol overflow="visible" id="embed-9103105818423517493-glyph0-0">
<path style="stroke:none;" d="" />
</symbol>
<symbol overflow="visible" id="embed-9103105818423517493-glyph0-1">
<path style="stroke:none;" d="M 3.328125 -3.015625 C 3.390625 -3.265625 3.625 -4.1875 4.3125 -4.1875 C 4.359375 -4.1875 4.609375 -4.1875 4.8125 -4.0625 C 4.53125 -4 4.34375 -3.765625 4.34375 -3.515625 C 4.34375 -3.359375 4.453125 -3.171875 4.71875 -3.171875 C 4.9375 -3.171875 5.25 -3.34375 5.25 -3.75 C 5.25 -4.265625 4.671875 -4.40625 4.328125 -4.40625 C 3.75 -4.40625 3.40625 -3.875 3.28125 -3.65625 C 3.03125 -4.3125 2.5 -4.40625 2.203125 -4.40625 C 1.171875 -4.40625 0.59375 -3.125 0.59375 -2.875 C 0.59375 -2.765625 0.703125 -2.765625 0.71875 -2.765625 C 0.796875 -2.765625 0.828125 -2.796875 0.84375 -2.875 C 1.1875 -3.9375 1.84375 -4.1875 2.1875 -4.1875 C 2.375 -4.1875 2.71875 -4.09375 2.71875 -3.515625 C 2.71875 -3.203125 2.546875 -2.546875 2.1875 -1.140625 C 2.03125 -0.53125 1.671875 -0.109375 1.234375 -0.109375 C 1.171875 -0.109375 0.953125 -0.109375 0.734375 -0.234375 C 0.984375 -0.296875 1.203125 -0.5 1.203125 -0.78125 C 1.203125 -1.046875 0.984375 -1.125 0.84375 -1.125 C 0.53125 -1.125 0.296875 -0.875 0.296875 -0.546875 C 0.296875 -0.09375 0.78125 0.109375 1.21875 0.109375 C 1.890625 0.109375 2.25 -0.59375 2.265625 -0.640625 C 2.390625 -0.28125 2.75 0.109375 3.34375 0.109375 C 4.375 0.109375 4.9375 -1.171875 4.9375 -1.421875 C 4.9375 -1.53125 4.859375 -1.53125 4.828125 -1.53125 C 4.734375 -1.53125 4.71875 -1.484375 4.6875 -1.421875 C 4.359375 -0.34375 3.6875 -0.109375 3.375 -0.109375 C 2.984375 -0.109375 2.828125 -0.421875 2.828125 -0.765625 C 2.828125 -0.984375 2.875 -1.203125 2.984375 -1.640625 Z M 3.328125 -3.015625 " />
</symbol>
</g>
</defs>
<g id="embed-9103105818423517493-surface1">
<g style="fill:rgb(0%,0%,0%);fill-opacity:1;">
  <use href="#embed-9103105818423517493-glyph0-1" x="2.835" y="7.124" />
</g>
</g>
</g></g></g><g /></g></g><g transform="matrix(1.0, 0.0, 0.0, 1.0, 1.0500000000000003, 0.275)"><g transform="matrix(-1.0, 0, 0, -1.0, 0.0, 0.0)"><g><g style="stroke: black;stroke-width: 3.8129999999999997;" transform="matrix(1.0, 0.0, 0.0, 1.0, 0.0, 0.0)"><path d="M 0.0 0.0 L 1.0500000000000003 0.0" style="vector-effect: non-scaling-stroke;fill:none;" /></g><g style="stroke: black;stroke-width: 3.8129999999999997;" transform="matrix(1.0, 0.0, 0.0, 1.0, 1.0500000000000003, 0.0)"><g style="fill: #000000;stroke: black;stroke-width: 0.0;" transform="matrix(0.0, 0.3813, -0.3813, 0.0, -0.45755999999999997, 0.0)"><path d="M 0.0 -0.2 L 1.0 0.2 L 0.0 -1.2 L -1.0 0.19999999999999996 L 0.0 -0.2 Z" style="vector-effect: non-scaling-stroke;" /></g></g></g></g></g></g><g><g style="stroke: black;stroke-width: 3.8129999999999997;" transform="matrix(0.35, 0.0, 0.0, 0.35, 0.5250000000000001, 0.07500000000000001)"><g transform="scale(0.05) translate(-7.2746666666666675 -7.930666666666667)"><g>
<defs>
<g>
<symbol overflow="visible" id="embed-6745359583447396818-glyph0-0">
<path style="stroke:none;" d="" />
</symbol>
<symbol overflow="visible" id="embed-6745359583447396818-glyph0-1">
<path style="stroke:none;" d="M 4.84375 -3.796875 C 4.890625 -3.9375 4.890625 -3.953125 4.890625 -4.03125 C 4.890625 -4.203125 4.75 -4.296875 4.59375 -4.296875 C 4.5 -4.296875 4.34375 -4.234375 4.25 -4.09375 C 4.234375 -4.03125 4.140625 -3.734375 4.109375 -3.546875 C 4.03125 -3.296875 3.96875 -3.015625 3.90625 -2.75 L 3.453125 -0.953125 C 3.421875 -0.8125 2.984375 -0.109375 2.328125 -0.109375 C 1.828125 -0.109375 1.71875 -0.546875 1.71875 -0.921875 C 1.71875 -1.375 1.890625 -2 2.21875 -2.875 C 2.375 -3.28125 2.421875 -3.390625 2.421875 -3.59375 C 2.421875 -4.03125 2.109375 -4.40625 1.609375 -4.40625 C 0.65625 -4.40625 0.296875 -2.953125 0.296875 -2.875 C 0.296875 -2.765625 0.390625 -2.765625 0.40625 -2.765625 C 0.515625 -2.765625 0.515625 -2.796875 0.5625 -2.953125 C 0.84375 -3.890625 1.234375 -4.1875 1.578125 -4.1875 C 1.65625 -4.1875 1.828125 -4.1875 1.828125 -3.875 C 1.828125 -3.625 1.71875 -3.359375 1.65625 -3.171875 C 1.25 -2.109375 1.078125 -1.546875 1.078125 -1.078125 C 1.078125 -0.1875 1.703125 0.109375 2.296875 0.109375 C 2.6875 0.109375 3.015625 -0.0625 3.296875 -0.34375 C 3.171875 0.171875 3.046875 0.671875 2.65625 1.203125 C 2.390625 1.53125 2.015625 1.828125 1.5625 1.828125 C 1.421875 1.828125 0.96875 1.796875 0.796875 1.40625 C 0.953125 1.40625 1.09375 1.40625 1.21875 1.28125 C 1.328125 1.203125 1.421875 1.0625 1.421875 0.875 C 1.421875 0.5625 1.15625 0.53125 1.0625 0.53125 C 0.828125 0.53125 0.5 0.6875 0.5 1.171875 C 0.5 1.671875 0.9375 2.046875 1.5625 2.046875 C 2.578125 2.046875 3.609375 1.140625 3.890625 0.015625 Z M 4.84375 -3.796875 " />
</symbol>
</g>
</defs>
<g id="embed-6745359583447396818-surface1">
<g style="fill:rgb(0%,0%,0%);fill-opacity:1;">
  <use href="#embed-6745359583447396818-glyph0-1" x="2.835" y="7.124" />
</g>
</g>
</g></g></g><g /></g></g><g style="stroke: black;stroke-width: 3.8129999999999997;" transform="matrix(1.0, 0.0, 0.0, 1.0, 3.125, 0.0)"><g /></g></g><g transform="matrix(1.0, 0.0, 0.0, 1.0, 4.425, 0.0)"><g transform="matrix(1.0, 0.0, 0.0, 1.0, -0.7750000000000001, -0.55)"><g><g><g><g transform="matrix(1.0, 0.0, 0.0, 1.0, -0.0, -0.0)"><g><g style="stroke: black;stroke-width: 3.8129999999999997;" transform="matrix(1.0, 0.0, 0.0, 1.0, -0.025, -0.025)"><path d="M 0.0 0.0 L 0.05 0.0 L 0.05 0.05 L 0.0 0.05 L 0.0 0.0 Z" style="vector-effect: non-scaling-stroke;" /></g></g></g><g transform="matrix(1.0, 0.0, 0.0, 1.0, 0.775, 0.0)"><g><g style="fill: #ff9700;stroke: black;stroke-width: 7.6259999999999994;" transform="matrix(1.0, 0.0, 0.0, 1.0, -0.75, -0.5)"><path d="M 0.0 0.0 L 1.5 0.0 L 1.5 1.0 L 0.0 1.0 L 0.0 0.0 Z" style="vector-effect: non-scaling-stroke;" /></g><g transform="matrix(1.0, 0.0, 0.0, 1.0, 0.775, 0.0)"><g><g style="stroke: black;stroke-width: 3.8129999999999997;" transform="matrix(1.0, 0.0, 0.0, 1.0, -0.025, -0.025)"><path d="M 0.0 0.0 L 0.05 0.0 L 0.05 0.05 L 0.0 0.05 L 0.0 0.0 Z" style="vector-effect: non-scaling-stroke;" /></g></g></g></g></g></g><g style="stroke: black;stroke-width: 3.8129999999999997;" transform="matrix(0.0, -1.0, 1.0, 0.0, 0.0, 0.55)"><g /></g></g><g transform="matrix(1.0, 0.0, 0.0, 1.0, 0.0, 1.1)"><g><g transform="matrix(1.0, 0.0, 0.0, 1.0, -0.0, -0.0)"><g><g style="stroke: black;stroke-width: 3.8129999999999997;" transform="matrix(1.0, 0.0, 0.0, 1.0, -0.025, -0.025)"><path d="M 0.0 0.0 L 0.05 0.0 L 0.05 0.05 L 0.0 0.05 L 0.0 0.0 Z" style="vector-effect: non-scaling-stroke;" /></g></g></g><g transform="matrix(1.0, 0.0, 0.0, 1.0, 0.775, 0.0)"><g><g style="fill: #ff9700;stroke: black;stroke-width: 7.6259999999999994;" transform="matrix(1.0, 0.0, 0.0, 1.0, -0.75, -0.5)"><path d="M 0.0 0.0 L 1.5 0.0 L 1.5 1.0 L 0.0 1.0 L 0.0 0.0 Z" style="vector-effect: non-scaling-stroke;" /></g><g transform="matrix(1.0, 0.0, 0.0, 1.0, 0.775, 0.0)"><g><g style="stroke: black;stroke-width: 3.8129999999999997;" transform="matrix(1.0, 0.0, 0.0, 1.0, -0.025, -0.025)"><path d="M 0.0 0.0 L 0.05 0.0 L 0.05 0.05 L 0.0 0.05 L 0.0 0.0 Z" style="vector-effect: non-scaling-stroke;" /></g></g></g></g></g></g></g></g></g></g></g><g transform="matrix(1.0, 0.0, 0.0, 1.0, 3.6499999999999995, -0.55)"><g transform="matrix(-0.8858315352801551, 0.464006994670558, -0.464006994670558, -0.8858315352801551, 0.0, 0.0)"><g><g style="stroke: black;stroke-width: 3.8129999999999997;" transform="matrix(1.0, 0.0, 0.0, 1.0, 0.0, 0.0)"><path d="M 0.0 0.0 L 1.1853269591129691 0.0" style="vector-effect: non-scaling-stroke;fill:none;" /></g><g style="stroke: black;stroke-width: 3.8129999999999997;" transform="matrix(1.0, 0.0, 0.0, 1.0, 1.1853269591129691, 0.0)"><g style="fill: #000000;stroke: black;stroke-width: 0.0;" transform="matrix(0.0, 0.3813, -0.3813, 0.0, -0.45755999999999997, 0.0)"><path d="M 0.0 -0.2 L 1.0 0.2 L 0.0 -1.2 L -1.0 0.19999999999999996 L 0.0 -0.2 Z" style="vector-effect: non-scaling-stroke;" /></g></g></g></g></g></g><g><g style="stroke: black;stroke-width: 3.8129999999999997;" transform="matrix(0.35, 0.0, 0.0, 0.35, 3.125, -0.47500000000000003)"><g transform="scale(0.05) translate(-3.78 -3.78)"><g>
<g id="embed-8854648983645917073-surface1">
</g>
</g></g></g><g /></g></g><g transform="matrix(1.0, 0.0, 0.0, 1.0, 3.6499999999999995, 0.55)"><g transform="matrix(-0.8858315352801552, -0.46400699467055784, 0.46400699467055784, -0.8858315352801552, 0.0, 0.0)"><g><g style="stroke: black;stroke-width: 3.8129999999999997;" transform="matrix(1.0, 0.0, 0.0, 1.0, 0.0, 0.0)"><path d="M 0.0 0.0 L 1.1853269591129691 0.0" style="vector-effect: non-scaling-stroke;fill:none;" /></g><g style="stroke: black;stroke-width: 3.8129999999999997;" transform="matrix(1.0, 0.0, 0.0, 1.0, 1.1853269591129691, 0.0)"><g style="fill: #000000;stroke: black;stroke-width: 0.0;" transform="matrix(0.0, 0.3813, -0.3813, 0.0, -0.45755999999999997, 0.0)"><path d="M 0.0 -0.2 L 1.0 0.2 L 0.0 -1.2 L -1.0 0.19999999999999996 L 0.0 -0.2 Z" style="vector-effect: non-scaling-stroke;" /></g></g></g></g></g></g><g><g style="stroke: black;stroke-width: 3.8129999999999997;" transform="matrix(0.35, 0.0, 0.0, 0.35, 3.125, 0.07500000000000001)"><g transform="scale(0.05) translate(-3.78 -3.78)"><g>
<g id="embed-8854648983645917073-surface1">
</g>
</g></g></g><g /></g></g><g style="stroke: black;stroke-width: 3.8129999999999997;" transform="matrix(1.0, 0.0, 0.0, 1.0, 5.725, 0.0)"><g /></g></g><g transform="matrix(1.0, 0.0, 0.0, 1.0, 7.0249999999999995, 0.0)"><g transform="matrix(1.0, 0.0, 0.0, 1.0, -0.7750000000000001, -0.0)"><g><g transform="matrix(1.0, 0.0, 0.0, 1.0, -0.0, -0.275)"><g><g><g><g style="stroke: black;stroke-width: 3.8129999999999997;" transform="matrix(1.0, 0.0, 0.0, 1.0, -0.025, -0.025)"><path d="M 0.0 0.0 L 0.05 0.0 L 0.05 0.05 L 0.0 0.05 L 0.0 0.0 Z" style="vector-effect: non-scaling-stroke;" /></g></g><g style="stroke: black;stroke-width: 3.8129999999999997;" transform="matrix(0.0, -1.0, 1.0, 0.0, 0.0, 0.275)"><g /></g></g><g transform="matrix(1.0, 0.0, 0.0, 1.0, 0.0, 0.55)"><g><g style="stroke: black;stroke-width: 3.8129999999999997;" transform="matrix(1.0, 0.0, 0.0, 1.0, -0.025, -0.025)"><path d="M 0.0 0.0 L 0.05 0.0 L 0.05 0.05 L 0.0 0.05 L 0.0 0.0 Z" style="vector-effect: non-scaling-stroke;" /></g></g></g></g></g><g transform="matrix(1.0, 0.0, 0.0, 1.0, 0.775, 0.0)"><g><g style="fill: #ff9700;stroke: black;stroke-width: 7.6259999999999994;" transform="matrix(1.0, 0.0, 0.0, 1.0, -0.75, -0.5)"><path d="M 0.0 0.0 L 1.5 0.0 L 1.5 1.0 L 0.0 1.0 L 0.0 0.0 Z" style="vector-effect: non-scaling-stroke;" /></g><g transform="matrix(1.0, 0.0, 0.0, 1.0, 0.775, 0.0)"><g><g style="stroke: black;stroke-width: 3.8129999999999997;" transform="matrix(1.0, 0.0, 0.0, 1.0, -0.025, -0.025)"><path d="M 0.0 0.0 L 0.05 0.0 L 0.05 0.05 L 0.0 0.05 L 0.0 0.0 Z" style="vector-effect: non-scaling-stroke;" /></g></g></g></g></g></g></g></g></g><g transform="matrix(1.0, 0.0, 0.0, 1.0, 6.249999999999998, -0.275)"><g transform="matrix(-0.9673722233802452, -0.25335939183768363, 0.25335939183768363, -0.9673722233802452, 0.0, 0.0)"><g><g style="stroke: black;stroke-width: 3.8129999999999997;" transform="matrix(1.0, 0.0, 0.0, 1.0, 0.0, 0.0)"><path d="M 0.0 0.0 L 1.0854146673046194 0.0" style="vector-effect: non-scaling-stroke;fill:none;" /></g><g style="stroke: black;stroke-width: 3.8129999999999997;" transform="matrix(1.0, 0.0, 0.0, 1.0, 1.0854146673046194, 0.0)"><g style="fill: #000000;stroke: black;stroke-width: 0.0;" transform="matrix(0.0, 0.3813, -0.3813, 0.0, -0.45755999999999997, 0.0)"><path d="M 0.0 -0.2 L 1.0 0.2 L 0.0 -1.2 L -1.0 0.19999999999999996 L 0.0 -0.2 Z" style="vector-effect: non-scaling-stroke;" /></g></g></g></g></g></g><g><g style="stroke: black;stroke-width: 3.8129999999999997;" transform="matrix(0.35, 0.0, 0.0, 0.35, 5.724999999999999, -0.6125)"><g transform="scale(0.05) translate(-3.78 -3.78)"><g>
<g id="embed-8854648983645917073-surface1">
</g>
</g></g></g><g /></g></g><g transform="matrix(1.0, 0.0, 0.0, 1.0, 6.249999999999998, 0.275)"><g transform="matrix(-0.9673722233802453, 0.25335939183768336, -0.25335939183768336, -0.9673722233802453, 0.0, 0.0)"><g><g style="stroke: black;stroke-width: 3.8129999999999997;" transform="matrix(1.0, 0.0, 0.0, 1.0, 0.0, 0.0)"><path d="M 0.0 0.0 L 1.0854146673046194 0.0" style="vector-effect: non-scaling-stroke;fill:none;" /></g><g style="stroke: black;stroke-width: 3.8129999999999997;" transform="matrix(1.0, 0.0, 0.0, 1.0, 1.0854146673046194, 0.0)"><g style="fill: #000000;stroke: black;stroke-width: 0.0;" transform="matrix(0.0, 0.3813, -0.3813, 0.0, -0.45755999999999997, 0.0)"><path d="M 0.0 -0.2 L 1.0 0.2 L 0.0 -1.2 L -1.0 0.19999999999999996 L 0.0 -0.2 Z" style="vector-effect: non-scaling-stroke;" /></g></g></g></g></g></g><g><g style="stroke: black;stroke-width: 3.8129999999999997;" transform="matrix(0.35, 0.0, 0.0, 0.35, 5.724999999999999, 0.21250000000000002)"><g transform="scale(0.05) translate(-3.78 -3.78)"><g>
<g id="embed-8854648983645917073-surface1">
</g>
</g></g></g><g /></g></g><g style="stroke: black;stroke-width: 3.8129999999999997;" transform="matrix(1.0, 0.0, 0.0, 1.0, 8.325, 0.0)"><g /></g></g><g transform="matrix(1.0, 0.0, 0.0, 1.0, 8.85, 0.0)"><g><g style="stroke: black;stroke-width: 0.0;" transform="matrix(1.0, 0.0, 0.0, 1.0, -0.025, -0.025)"><path d="M 0.0 0.0 L 0.05 0.0 L 0.05 0.05 L 0.0 0.05 L 0.0 0.0 Z" style="vector-effect: non-scaling-stroke;" /></g></g></g></g><g transform="matrix(1.0, 0.0, 0.0, 1.0, 8.85, 0.0)"><g transform="matrix(-1.0, 0, 0, -1.0, 0.0, 0.0)"><g><g style="stroke: black;stroke-width: 3.8129999999999997;" transform="matrix(1.0, 0.0, 0.0, 1.0, 0.0, 0.0)"><path d="M 0.0 0.0 L 1.0500000000000007 0.0" style="vector-effect: non-scaling-stroke;fill:none;" /></g><g style="stroke: black;stroke-width: 3.8129999999999997;" transform="matrix(1.0, 0.0, 0.0, 1.0, 1.0500000000000007, 0.0)"><g style="fill: #000000;stroke: black;stroke-width: 0.0;" transform="matrix(0.0, 0.3813, -0.3813, 0.0, -0.45755999999999997, 0.0)"><path d="M 0.0 -0.2 L 1.0 0.2 L 0.0 -1.2 L -1.0 0.19999999999999996 L 0.0 -0.2 Z" style="vector-effect: non-scaling-stroke;" /></g></g></g></g></g></g><g><g style="stroke: black;stroke-width: 3.8129999999999997;" transform="matrix(0.35, 0.0, 0.0, 0.35, 8.325, -0.2)"><g transform="scale(0.05) translate(-7.6066666666666665 -8.392)"><g>
<defs>
<g>
<symbol overflow="visible" id="embed-2930000328118367708-glyph0-0">
<path style="stroke:none;" d="" />
</symbol>
<symbol overflow="visible" id="embed-2930000328118367708-glyph0-1">
<path style="stroke:none;" d="M 2.859375 -6.8125 C 2.859375 -6.8125 2.859375 -6.921875 2.734375 -6.921875 C 2.5 -6.921875 1.78125 -6.84375 1.515625 -6.8125 C 1.4375 -6.8125 1.328125 -6.796875 1.328125 -6.625 C 1.328125 -6.5 1.421875 -6.5 1.5625 -6.5 C 2.046875 -6.5 2.0625 -6.4375 2.0625 -6.328125 L 2.03125 -6.125 L 0.59375 -0.390625 C 0.546875 -0.25 0.546875 -0.234375 0.546875 -0.171875 C 0.546875 0.0625 0.75 0.109375 0.84375 0.109375 C 1 0.109375 1.15625 -0.015625 1.203125 -0.15625 L 1.390625 -0.90625 L 1.609375 -1.796875 C 1.671875 -2.03125 1.734375 -2.25 1.78125 -2.46875 C 1.796875 -2.53125 1.890625 -2.859375 1.890625 -2.921875 C 1.921875 -3.015625 2.234375 -3.5625 2.578125 -3.84375 C 2.796875 -4 3.09375 -4.1875 3.53125 -4.1875 C 3.953125 -4.1875 4.0625 -3.84375 4.0625 -3.484375 C 4.0625 -2.953125 3.6875 -1.859375 3.453125 -1.25 C 3.375 -1.03125 3.3125 -0.90625 3.3125 -0.703125 C 3.3125 -0.234375 3.671875 0.109375 4.140625 0.109375 C 5.078125 0.109375 5.4375 -1.34375 5.4375 -1.421875 C 5.4375 -1.53125 5.359375 -1.53125 5.328125 -1.53125 C 5.21875 -1.53125 5.21875 -1.5 5.171875 -1.34375 C 5.03125 -0.8125 4.703125 -0.109375 4.15625 -0.109375 C 3.984375 -0.109375 3.921875 -0.203125 3.921875 -0.4375 C 3.921875 -0.6875 4 -0.921875 4.09375 -1.140625 C 4.25 -1.578125 4.703125 -2.765625 4.703125 -3.34375 C 4.703125 -3.984375 4.3125 -4.40625 3.5625 -4.40625 C 2.9375 -4.40625 2.453125 -4.09375 2.078125 -3.640625 Z M 2.859375 -6.8125 " />
</symbol>
</g>
</defs>
<g id="embed-2930000328118367708-surface1">
<g style="fill:rgb(0%,0%,0%);fill-opacity:1;">
  <use href="#embed-2930000328118367708-glyph0-1" x="2.835" y="9.753" />
</g>
</g>
</g></g></g><g /></g></g><g transform="matrix(1.0, 0.0, 0.0, 1.0, 8.85, 0.0)"><g transform="matrix(-1.0, 0, 0, -1.0, 0.0, 0.0)"><g><g style="stroke: #ff9700;stroke-width: 11.438999999999998;" transform="matrix(1.0, 0.0, 0.0, 1.0, 0.0, 0.0)"><path d="M 0.0 0.0 L 1.0500000000000007 0.0" style="vector-effect: non-scaling-stroke;fill:none;" /></g><g style="stroke: black;stroke-width: 3.8129999999999997;" transform="matrix(1.0, 0.0, 0.0, 1.0, 1.0500000000000007, 0.0)"><g style="fill: #000000;stroke: black;stroke-width: 0.0;" transform="matrix(0.0, 0.3813, -0.3813, 0.0, -0.45755999999999997, 0.0)"><path d="M 0.0 -0.2 L 1.0 0.2 L 0.0 -1.2 L -1.0 0.19999999999999996 L 0.0 -0.2 Z" style="vector-effect: non-scaling-stroke;" /></g></g></g></g></g></g></g><g /></g></g></g></g></svg>