<?xml version="1.0" encoding="utf-8" ?>
<svg baseProfile="full" height="300" version="1.1" width="600" xmlns="http://www.w3.org/2000/svg" xmlns:ev="http://www.w3.org/2001/xml-events" xmlns:xlink="http://www.w3.org/1999/xlink"><defs><marker id="arrow" markerHeight="3.5" markerWidth="5" orient="auto" refX="5.0" refY="1.7"><polygon points="0,0 5,1.75 0,3.5" /></marker></defs><g style="fill:white;"><g transform="matrix(1.0, 0.0, 0.0, 1.0, 300.0, 150.0)"><g transform="matrix(285.7142857142857, 0.0, 0.0, 285.7142857142857, 0.0, 0.0)"><g><g transform="matrix(1.0, 0.0, 0.0, 1.0, -1.0, 0.5)"><g><g><g><g><g><g style="fill: #ffffff;stroke: #ffffff;stroke-width: 1.8;" transform="matrix(1.0, 0.0, 0.0, 1.0, 0.0, -1.0)"><path d="M 0.0 0.0 L 1.0 0.0 L 1.0 1.0 L 0.0 1.0 L 0.0 0.0 Z" style="vector-effect: non-scaling-stroke;" /></g><g><g style="stroke: black;stroke-width: 3.6;" transform="matrix(1.0, 0.0, 0.0, 1.0, 0.0, -1.0)"><path d="M 0.0 0.0 L 0.0 1.0" style="vector-effect: non-scaling-stroke;fill:none;" /></g><g style="stroke: black;stroke-width: 3.6;" transform="matrix(1.0, 0.0, 0.0, 1.0, 0.0, 0.0)"><path d="M 0.0 0.0 L 1.0 0.0" style="vector-effect: non-scaling-stroke;fill:none;" /></g></g></g><g /></g><g><g /><g style="fill: #ff0000;stroke: black;stroke-width: 3.6;" transform="matrix(0.024999999999999998, -0.02499999999999999, 0.02499999999999999, 0.024999999999999998, 0.5214025946899135, -0.45388905467511464)"><path d="M 0.0 0.0 L 1.0 0.0 L 1.0 1.0 L 2.0 1.0 L 2.0 2.0 L 1.0 2.0 L 1.0 3.0 L 0.0 3.0 L 0.0 2.0 L -1.0 2.0 L -1.0 1.0 L 0.0 1.0 L 0.0 0.0 Z" style="vector-effect: non-scaling-stroke;" /></g></g></g><g transform="matrix(1.0, 0.0, 0.0, 1.0, 1.0, 0.0)"><g transform="matrix(1.0, -0.0, 0.0, 1.0, 0.0, 0.0)"><g /></g></g></g><g transform="matrix(1.0, 0.0, 0.0, 1.0, 1.0, 0.0)"><g><g><g><g style="fill: #ffffff;stroke: #ffffff;stroke-width: 1.8;" transform="matrix(1.0, 0.0, 0.0, 1.0, 0.0, -1.0)"><path d="M 0.0 0.0 L 1.0 0.0 L 1.0 1.0 L 0.0 1.0 L 0.0 0.0 Z" style="vector-effect: non-scaling-stroke;" /></g><g><g style="stroke: black;stroke-width: 3.6;" transform="matrix(1.0, 0.0, 0.0, 1.0, 0.0, -1.0)"><path d="M 0.0 0.0 L 0.0 1.0" style="vector-effect: non-scaling-stroke;fill:none;" /></g><g style="stroke: black;stroke-width: 3.6;" transform="matrix(1.0, 0.0, 0.0, 1.0, 0.0, 0.0)"><path d="M 0.0 0.0 L 1.0 0.0" style="vector-effect: non-scaling-stroke;fill:none;" /></g></g></g><g /></g><g><g /><g style="fill: #ff0000;stroke: black;stroke-width: 3.6;" transform="matrix(0.024999999999999998, -0.02499999999999999, 0.02499999999999999, 0.024999999999999998, 0.76332125135732, -0.8485888725334455)"><path d="M 0.0 0.0 L 1.0 0.0 L 1.0 1.0 L 2.0 1.0 L 2.0 2.0 L 1.0 2.0 L 1.0 3.0 L 0.0 3.0 L 0.0 2.0 L -1.0 2.0 L -1.0 1.0 L 0.0 1.0 L 0.0 0.0 Z" style="vector-effect: non-scaling-stroke;" /></g></g></g></g></g></g><g /></g></g></g></g></svg>