<?xml version="1.0" encoding="utf-8" ?>
<svg baseProfile="full" height="300" version="1.1" width="315" xmlns="http://www.w3.org/2000/svg" xmlns:ev="http://www.w3.org/2001/xml-events" xmlns:xlink="http://www.w3.org/1999/xlink"><defs><marker id="arrow" markerHeight="3.5" markerWidth="5" orient="auto" refX="5.0" refY="1.7"><polygon points="0,0 5,1.75 0,3.5" /></marker></defs><g style="fill:white;"><g transform="matrix(1.0, 0.0, 0.0, 1.0, 157.78887151341172, 150.0)"><g transform="matrix(278.7109681854234, 0.0, 0.0, 278.7109681854234, 0.0, 0.0)"><g><g transform="matrix(1.0, 0.0, 0.0, 1.0, -0.4932341965847991, 0.5068243966347699)"><g><g><g transform="matrix(1.0, 0.0, 0.0, -1.0, 0.0, 0.0)"><g><g><g><g><g><g><g style="fill: #fd7f7f;stroke: #fd7f7f;stroke-width: 0.945;" transform="matrix(1.0, 0.0, 0.0, 1.0, 0.0, 0.0)"><path d="M 0.0 0.0 L 0.125 0.0 L 0.125 0.125 L 0.0 0.125 L 0.0 0.0 Z" style="vector-effect: non-scaling-stroke;" /></g><g transform="matrix(1.0, 0.0, 0.0, 1.0, 0.125, 0.0)"><g><g><g><g><g style="fill: #fd7f7f;stroke: #fd7f7f;stroke-width: 0.945;" transform="matrix(1.0, 0.0, 0.0, 1.0, 0.0, 0.0)"><path d="M 0.0 0.0 L 0.03125 0.0 L 0.03125 0.03125 L 0.0 0.03125 L 0.0 0.0 Z" style="vector-effect: non-scaling-stroke;" /></g><g style="fill: #7f80ff;stroke: #7f80ff;stroke-width: 0.945;" transform="matrix(1.0, 0.0, 0.0, 1.0, 0.03125, 0.0)"><path d="M 0.0 0.0 L 0.03125 0.0 L 0.03125 0.03125 L 0.0 0.03125 L 0.0 0.0 Z" style="vector-effect: non-scaling-stroke;" /></g></g><g transform="matrix(1.0, 0.0, 0.0, 1.0, 0.0, 0.03125)"><g><g style="fill: #fd7f7f;stroke: #fd7f7f;stroke-width: 0.945;" transform="matrix(1.0, 0.0, 0.0, 1.0, 0.0, 0.0)"><path d="M 0.0 0.0 L 0.03125 0.0 L 0.03125 0.03125 L 0.0 0.03125 L 0.0 0.0 Z" style="vector-effect: non-scaling-stroke;" /></g><g style="fill: #7f80ff;stroke: #7f80ff;stroke-width: 0.945;" transform="matrix(1.0, 0.0, 0.0, 1.0, 0.03125, 0.0)"><path d="M 0.0 0.0 L 0.03125 0.0 L 0.03125 0.03125 L 0.0 0.03125 L 0.0 0.0 Z" style="vector-effect: non-scaling-stroke;" /></g></g></g></g><g style="fill: #7f80ff;stroke: #7f80ff;stroke-width: 0.945;" transform="matrix(1.0, 0.0, 0.0, 1.0, 0.0625, 0.0)"><path d="M 0.0 0.0 L 0.0625 0.0 L 0.0625 0.0625 L 0.0 0.0625 L 0.0 0.0 Z" style="vector-effect: non-scaling-stroke;" /></g></g><g transform="matrix(1.0, 0.0, 0.0, 1.0, 0.0, 0.0625)"><g><g><g><g style="fill: #fd7f7f;stroke: #fd7f7f;stroke-width: 0.945;" transform="matrix(1.0, 0.0, 0.0, 1.0, 0.0, 0.0)"><path d="M 0.0 0.0 L 0.03125 0.0 L 0.03125 0.03125 L 0.0 0.03125 L 0.0 0.0 Z" style="vector-effect: non-scaling-stroke;" /></g><g style="fill: #7f80ff;stroke: #7f80ff;stroke-width: 0.945;" transform="matrix(1.0, 0.0, 0.0, 1.0, 0.03125, 0.0)"><path d="M 0.0 0.0 L 0.03125 0.0 L 0.03125 0.03125 L 0.0 0.03125 L 0.0 0.0 Z" style="vector-effect: non-scaling-stroke;" /></g></g><g transform="matrix(1.0, 0.0, 0.0, 1.0, 0.0, 0.03125)"><g><g style="fill: #fd7f7f;stroke: #fd7f7f;stroke-width: 0.945;" transform="matrix(1.0, 0.0, 0.0, 1.0, 0.0, 0.0)"><path d="M 0.0 0.0 L 0.03125 0.0 L 0.03125 0.03125 L 0.0 0.03125 L 0.0 0.0 Z" style="vector-effect: non-scaling-stroke;" /></g><g style="fill: #7f80ff;stroke: #7f80ff;stroke-width: 0.945;" transform="matrix(1.0, 0.0, 0.0, 1.0, 0.03125, 0.0)"><path d="M 0.0 0.0 L 0.03125 0.0 L 0.03125 0.03125 L 0.0 0.03125 L 0.0 0.0 Z" style="vector-effect: non-scaling-stroke;" /></g></g></g></g><g style="fill: #7f80ff;stroke: #7f80ff;stroke-width: 0.945;" transform="matrix(1.0, 0.0, 0.0, 1.0, 0.0625, 0.0)"><path d="M 0.0 0.0 L 0.0625 0.0 L 0.0625 0.0625 L 0.0 0.0625 L 0.0 0.0 Z" style="vector-effect: non-scaling-stroke;" /></g></g></g></g></g></g><g transform="matrix(1.0, 0.0, 0.0, 1.0, 0.0, 0.125)"><g><g style="fill: #fd7f7f;stroke: #fd7f7f;stroke-width: 0.945;" transform="matrix(1.0, 0.0, 0.0, 1.0, 0.0, 0.0)"><path d="M 0.0 0.0 L 0.125 0.0 L 0.125 0.125 L 0.0 0.125 L 0.0 0.0 Z" style="vector-effect: non-scaling-stroke;" /></g><g transform="matrix(1.0, 0.0, 0.0, 1.0, 0.125, 0.0)"><g><g><g><g><g style="fill: #fd7f7f;stroke: #fd7f7f;stroke-width: 0.945;" transform="matrix(1.0, 0.0, 0.0, 1.0, 0.0, 0.0)"><path d="M 0.0 0.0 L 0.03125 0.0 L 0.03125 0.03125 L 0.0 0.03125 L 0.0 0.0 Z" style="vector-effect: non-scaling-stroke;" /></g><g style="fill: #7f80ff;stroke: #7f80ff;stroke-width: 0.945;" transform="matrix(1.0, 0.0, 0.0, 1.0, 0.03125, 0.0)"><path d="M 0.0 0.0 L 0.03125 0.0 L 0.03125 0.03125 L 0.0 0.03125 L 0.0 0.0 Z" style="vector-effect: non-scaling-stroke;" /></g></g><g transform="matrix(1.0, 0.0, 0.0, 1.0, 0.0, 0.03125)"><g><g style="fill: #fd7f7f;stroke: #fd7f7f;stroke-width: 0.945;" transform="matrix(1.0, 0.0, 0.0, 1.0, 0.0, 0.0)"><path d="M 0.0 0.0 L 0.03125 0.0 L 0.03125 0.03125 L 0.0 0.03125 L 0.0 0.0 Z" style="vector-effect: non-scaling-stroke;" /></g><g style="fill: #7f80ff;stroke: #7f80ff;stroke-width: 0.945;" transform="matrix(1.0, 0.0, 0.0, 1.0, 0.03125, 0.0)"><path d="M 0.0 0.0 L 0.03125 0.0 L 0.03125 0.03125 L 0.0 0.03125 L 0.0 0.0 Z" style="vector-effect: non-scaling-stroke;" /></g></g></g></g><g style="fill: #7f80ff;stroke: #7f80ff;stroke-width: 0.945;" transform="matrix(1.0, 0.0, 0.0, 1.0, 0.0625, 0.0)"><path d="M 0.0 0.0 L 0.0625 0.0 L 0.0625 0.0625 L 0.0 0.0625 L 0.0 0.0 Z" style="vector-effect: non-scaling-stroke;" /></g></g><g transform="matrix(1.0, 0.0, 0.0, 1.0, 0.0, 0.0625)"><g><g><g><g style="fill: #fd7f7f;stroke: #fd7f7f;stroke-width: 0.945;" transform="matrix(1.0, 0.0, 0.0, 1.0, 0.0, 0.0)"><path d="M 0.0 0.0 L 0.03125 0.0 L 0.03125 0.03125 L 0.0 0.03125 L 0.0 0.0 Z" style="vector-effect: non-scaling-stroke;" /></g><g style="fill: #7f80ff;stroke: #7f80ff;stroke-width: 0.945;" transform="matrix(1.0, 0.0, 0.0, 1.0, 0.03125, 0.0)"><path d="M 0.0 0.0 L 0.03125 0.0 L 0.03125 0.03125 L 0.0 0.03125 L 0.0 0.0 Z" style="vector-effect: non-scaling-stroke;" /></g></g><g transform="matrix(1.0, 0.0, 0.0, 1.0, 0.0, 0.03125)"><g><g style="fill: #fd7f7f;stroke: #fd7f7f;stroke-width: 0.945;" transform="matrix(1.0, 0.0, 0.0, 1.0, 0.0, 0.0)"><path d="M 0.0 0.0 L 0.03125 0.0 L 0.03125 0.03125 L 0.0 0.03125 L 0.0 0.0 Z" style="vector-effect: non-scaling-stroke;" /></g><g style="fill: #7f80ff;stroke: #7f80ff;stroke-width: 0.945;" transform="matrix(1.0, 0.0, 0.0, 1.0, 0.03125, 0.0)"><path d="M 0.0 0.0 L 0.03125 0.0 L 0.03125 0.03125 L 0.0 0.03125 L 0.0 0.0 Z" style="vector-effect: non-scaling-stroke;" /></g></g></g></g><g style="fill: #7f80ff;stroke: #7f80ff;stroke-width: 0.945;" transform="matrix(1.0, 0.0, 0.0, 1.0, 0.0625, 0.0)"><path d="M 0.0 0.0 L 0.0625 0.0 L 0.0625 0.0625 L 0.0 0.0625 L 0.0 0.0 Z" style="vector-effect: non-scaling-stroke;" /></g></g></g></g></g></g></g></g><g style="fill: #7f80ff;stroke: #7f80ff;stroke-width: 0.945;" transform="matrix(1.0, 0.0, 0.0, 1.0, 0.25, 0.0)"><path d="M 0.0 0.0 L 0.25 0.0 L 0.25 0.25 L 0.0 0.25 L 0.0 0.0 Z" style="vector-effect: non-scaling-stroke;" /></g></g><g transform="matrix(1.0, 0.0, 0.0, 1.0, 0.0, 0.25)"><g><g><g><g style="fill: #fd7f7f;stroke: #fd7f7f;stroke-width: 0.945;" transform="matrix(1.0, 0.0, 0.0, 1.0, 0.0, 0.0)"><path d="M 0.0 0.0 L 0.125 0.0 L 0.125 0.125 L 0.0 0.125 L 0.0 0.0 Z" style="vector-effect: non-scaling-stroke;" /></g><g transform="matrix(1.0, 0.0, 0.0, 1.0, 0.125, 0.0)"><g><g><g><g><g style="fill: #fd7f7f;stroke: #fd7f7f;stroke-width: 0.945;" transform="matrix(1.0, 0.0, 0.0, 1.0, 0.0, 0.0)"><path d="M 0.0 0.0 L 0.03125 0.0 L 0.03125 0.03125 L 0.0 0.03125 L 0.0 0.0 Z" style="vector-effect: non-scaling-stroke;" /></g><g style="fill: #7f80ff;stroke: #7f80ff;stroke-width: 0.945;" transform="matrix(1.0, 0.0, 0.0, 1.0, 0.03125, 0.0)"><path d="M 0.0 0.0 L 0.03125 0.0 L 0.03125 0.03125 L 0.0 0.03125 L 0.0 0.0 Z" style="vector-effect: non-scaling-stroke;" /></g></g><g transform="matrix(1.0, 0.0, 0.0, 1.0, 0.0, 0.03125)"><g><g style="fill: #fd7f7f;stroke: #fd7f7f;stroke-width: 0.945;" transform="matrix(1.0, 0.0, 0.0, 1.0, 0.0, 0.0)"><path d="M 0.0 0.0 L 0.03125 0.0 L 0.03125 0.03125 L 0.0 0.03125 L 0.0 0.0 Z" style="vector-effect: non-scaling-stroke;" /></g><g style="fill: #7f80ff;stroke: #7f80ff;stroke-width: 0.945;" transform="matrix(1.0, 0.0, 0.0, 1.0, 0.03125, 0.0)"><path d="M 0.0 0.0 L 0.03125 0.0 L 0.03125 0.03125 L 0.0 0.03125 L 0.0 0.0 Z" style="vector-effect: non-scaling-stroke;" /></g></g></g></g><g style="fill: #7f80ff;stroke: #7f80ff;stroke-width: 0.945;" transform="matrix(1.0, 0.0, 0.0, 1.0, 0.0625, 0.0)"><path d="M 0.0 0.0 L 0.0625 0.0 L 0.0625 0.0625 L 0.0 0.0625 L 0.0 0.0 Z" style="vector-effect: non-scaling-stroke;" /></g></g><g transform="matrix(1.0, 0.0, 0.0, 1.0, 0.0, 0.0625)"><g><g><g><g style="fill: #fd7f7f;stroke: #fd7f7f;stroke-width: 0.945;" transform="matrix(1.0, 0.0, 0.0, 1.0, 0.0, 0.0)"><path d="M 0.0 0.0 L 0.03125 0.0 L 0.03125 0.03125 L 0.0 0.03125 L 0.0 0.0 Z" style="vector-effect: non-scaling-stroke;" /></g><g style="fill: #7f80ff;stroke: #7f80ff;stroke-width: 0.945;" transform="matrix(1.0, 0.0, 0.0, 1.0, 0.03125, 0.0)"><path d="M 0.0 0.0 L 0.03125 0.0 L 0.03125 0.03125 L 0.0 0.03125 L 0.0 0.0 Z" style="vector-effect: non-scaling-stroke;" /></g></g><g transform="matrix(1.0, 0.0, 0.0, 1.0, 0.0, 0.03125)"><g><g style="fill: #fd7f7f;stroke: #fd7f7f;stroke-width: 0.945;" transform="matrix(1.0, 0.0, 0.0, 1.0, 0.0, 0.0)"><path d="M 0.0 0.0 L 0.03125 0.0 L 0.03125 0.03125 L 0.0 0.03125 L 0.0 0.0 Z" style="vector-effect: non-scaling-stroke;" /></g><g style="fill: #7f80ff;stroke: #7f80ff;stroke-width: 0.945;" transform="matrix(1.0, 0.0, 0.0, 1.0, 0.03125, 0.0)"><path d="M 0.0 0.0 L 0.03125 0.0 L 0.03125 0.03125 L 0.0 0.03125 L 0.0 0.0 Z" style="vector-effect: non-scaling-stroke;" /></g></g></g></g><g style="fill: #7f80ff;stroke: #7f80ff;stroke-width: 0.945;" transform="matrix(1.0, 0.0, 0.0, 1.0, 0.0625, 0.0)"><path d="M 0.0 0.0 L 0.0625 0.0 L 0.0625 0.0625 L 0.0 0.0625 L 0.0 0.0 Z" style="vector-effect: non-scaling-stroke;" /></g></g></g></g></g></g><g transform="matrix(1.0, 0.0, 0.0, 1.0, 0.0, 0.125)"><g><g style="fill: #fd7f7f;stroke: #fd7f7f;stroke-width: 0.945;" transform="matrix(1.0, 0.0, 0.0, 1.0, 0.0, 0.0)"><path d="M 0.0 0.0 L 0.125 0.0 L 0.125 0.125 L 0.0 0.125 L 0.0 0.0 Z" style="vector-effect: non-scaling-stroke;" /></g><g transform="matrix(1.0, 0.0, 0.0, 1.0, 0.125, 0.0)"><g><g><g><g><g style="fill: #fd7f7f;stroke: #fd7f7f;stroke-width: 0.945;" transform="matrix(1.0, 0.0, 0.0, 1.0, 0.0, 0.0)"><path d="M 0.0 0.0 L 0.03125 0.0 L 0.03125 0.03125 L 0.0 0.03125 L 0.0 0.0 Z" style="vector-effect: non-scaling-stroke;" /></g><g style="fill: #7f80ff;stroke: #7f80ff;stroke-width: 0.945;" transform="matrix(1.0, 0.0, 0.0, 1.0, 0.03125, 0.0)"><path d="M 0.0 0.0 L 0.03125 0.0 L 0.03125 0.03125 L 0.0 0.03125 L 0.0 0.0 Z" style="vector-effect: non-scaling-stroke;" /></g></g><g transform="matrix(1.0, 0.0, 0.0, 1.0, 0.0, 0.03125)"><g><g style="fill: #fd7f7f;stroke: #fd7f7f;stroke-width: 0.945;" transform="matrix(1.0, 0.0, 0.0, 1.0, 0.0, 0.0)"><path d="M 0.0 0.0 L 0.03125 0.0 L 0.03125 0.03125 L 0.0 0.03125 L 0.0 0.0 Z" style="vector-effect: non-scaling-stroke;" /></g><g style="fill: #7f80ff;stroke: #7f80ff;stroke-width: 0.945;" transform="matrix(1.0, 0.0, 0.0, 1.0, 0.03125, 0.0)"><path d="M 0.0 0.0 L 0.03125 0.0 L 0.03125 0.03125 L 0.0 0.03125 L 0.0 0.0 Z" style="vector-effect: non-scaling-stroke;" /></g></g></g></g><g style="fill: #7f80ff;stroke: #7f80ff;stroke-width: 0.945;" transform="matrix(1.0, 0.0, 0.0, 1.0, 0.0625, 0.0)"><path d="M 0.0 0.0 L 0.0625 0.0 L 0.0625 0.0625 L 0.0 0.0625 L 0.0 0.0 Z" style="vector-effect: non-scaling-stroke;" /></g></g><g transform="matrix(1.0, 0.0, 0.0, 1.0, 0.0, 0.0625)"><g><g><g><g style="fill: #fd7f7f;stroke: #fd7f7f;stroke-width: 0.945;" transform="matrix(1.0, 0.0, 0.0, 1.0, 0.0, 0.0)"><path d="M 0.0 0.0 L 0.03125 0.0 L 0.03125 0.03125 L 0.0 0.03125 L 0.0 0.0 Z" style="vector-effect: non-scaling-stroke;" /></g><g style="fill: #7f80ff;stroke: #7f80ff;stroke-width: 0.945;" transform="matrix(1.0, 0.0, 0.0, 1.0, 0.03125, 0.0)"><path d="M 0.0 0.0 L 0.03125 0.0 L 0.03125 0.03125 L 0.0 0.03125 L 0.0 0.0 Z" style="vector-effect: non-scaling-stroke;" /></g></g><g transform="matrix(1.0, 0.0, 0.0, 1.0, 0.0, 0.03125)"><g><g style="fill: #fd7f7f;stroke: #fd7f7f;stroke-width: 0.945;" transform="matrix(1.0, 0.0, 0.0, 1.0, 0.0, 0.0)"><path d="M 0.0 0.0 L 0.03125 0.0 L 0.03125 0.03125 L 0.0 0.03125 L 0.0 0.0 Z" style="vector-effect: non-scaling-stroke;" /></g><g style="fill: #7f80ff;stroke: #7f80ff;stroke-width: 0.945;" transform="matrix(1.0, 0.0, 0.0, 1.0, 0.03125, 0.0)"><path d="M 0.0 0.0 L 0.03125 0.0 L 0.03125 0.03125 L 0.0 0.03125 L 0.0 0.0 Z" style="vector-effect: non-scaling-stroke;" /></g></g></g></g><g style="fill: #7f80ff;stroke: #7f80ff;stroke-width: 0.945;" transform="matrix(1.0, 0.0, 0.0, 1.0, 0.0625, 0.0)"><path d="M 0.0 0.0 L 0.0625 0.0 L 0.0625 0.0625 L 0.0 0.0625 L 0.0 0.0 Z" style="vector-effect: non-scaling-stroke;" /></g></g></g></g></g></g></g></g><g style="fill: #7f80ff;stroke: #7f80ff;stroke-width: 0.945;" transform="matrix(1.0, 0.0, 0.0, 1.0, 0.25, 0.0)"><path d="M 0.0 0.0 L 0.25 0.0 L 0.25 0.25 L 0.0 0.25 L 0.0 0.0 Z" style="vector-effect: non-scaling-stroke;" /></g></g></g></g><g transform="matrix(1.0, 0.0, 0.0, 1.0, 0.5, 0.0)"><g><g><g style="fill: #7f80ff;stroke: #7f80ff;stroke-width: 0.945;" transform="matrix(1.0, 0.0, 0.0, 1.0, 0.0, 0.0)"><path d="M 0.0 0.0 L 0.25 0.0 L 0.25 0.25 L 0.0 0.25 L 0.0 0.0 Z" style="vector-effect: non-scaling-stroke;" /></g><g transform="matrix(1.0, 0.0, 0.0, 1.0, 0.25, 0.0)"><g><g><g style="fill: #7f80ff;stroke: #7f80ff;stroke-width: 0.945;" transform="matrix(1.0, 0.0, 0.0, 1.0, 0.0, 0.0)"><path d="M 0.0 0.0 L 0.125 0.0 L 0.125 0.125 L 0.0 0.125 L 0.0 0.0 Z" style="vector-effect: non-scaling-stroke;" /></g><g transform="matrix(1.0, 0.0, 0.0, 1.0, 0.125, 0.0)"><g><g><g><g><g style="fill: #7f80ff;stroke: #7f80ff;stroke-width: 0.945;" transform="matrix(1.0, 0.0, 0.0, 1.0, 0.0, 0.0)"><path d="M 0.0 0.0 L 0.03125 0.0 L 0.03125 0.03125 L 0.0 0.03125 L 0.0 0.0 Z" style="vector-effect: non-scaling-stroke;" /></g><g style="fill: #fd7f7f;stroke: #fd7f7f;stroke-width: 0.945;" transform="matrix(1.0, 0.0, 0.0, 1.0, 0.03125, 0.0)"><path d="M 0.0 0.0 L 0.03125 0.0 L 0.03125 0.03125 L 0.0 0.03125 L 0.0 0.0 Z" style="vector-effect: non-scaling-stroke;" /></g></g><g transform="matrix(1.0, 0.0, 0.0, 1.0, 0.0, 0.03125)"><g><g style="fill: #7f80ff;stroke: #7f80ff;stroke-width: 0.945;" transform="matrix(1.0, 0.0, 0.0, 1.0, 0.0, 0.0)"><path d="M 0.0 0.0 L 0.03125 0.0 L 0.03125 0.03125 L 0.0 0.03125 L 0.0 0.0 Z" style="vector-effect: non-scaling-stroke;" /></g><g style="fill: #fd7f7f;stroke: #fd7f7f;stroke-width: 0.945;" transform="matrix(1.0, 0.0, 0.0, 1.0, 0.03125, 0.0)"><path d="M 0.0 0.0 L 0.03125 0.0 L 0.03125 0.03125 L 0.0 0.03125 L 0.0 0.0 Z" style="vector-effect: non-scaling-stroke;" /></g></g></g></g><g style="fill: #fd7f7f;stroke: #fd7f7f;stroke-width: 0.945;" transform="matrix(1.0, 0.0, 0.0, 1.0, 0.0625, 0.0)"><path d="M 0.0 0.0 L 0.0625 0.0 L 0.0625 0.0625 L 0.0 0.0625 L 0.0 0.0 Z" style="vector-effect: non-scaling-stroke;" /></g></g><g transform="matrix(1.0, 0.0, 0.0, 1.0, 0.0, 0.0625)"><g><g><g><g style="fill: #7f80ff;stroke: #7f80ff;stroke-width: 0.945;" transform="matrix(1.0, 0.0, 0.0, 1.0, 0.0, 0.0)"><path d="M 0.0 0.0 L 0.03125 0.0 L 0.03125 0.03125 L 0.0 0.03125 L 0.0 0.0 Z" style="vector-effect: non-scaling-stroke;" /></g><g style="fill: #fd7f7f;stroke: #fd7f7f;stroke-width: 0.945;" transform="matrix(1.0, 0.0, 0.0, 1.0, 0.03125, 0.0)"><path d="M 0.0 0.0 L 0.03125 0.0 L 0.03125 0.03125 L 0.0 0.03125 L 0.0 0.0 Z" style="vector-effect: non-scaling-stroke;" /></g></g><g transform="matrix(1.0, 0.0, 0.0, 1.0, 0.0, 0.03125)"><g><g style="fill: #7f80ff;stroke: #7f80ff;stroke-width: 0.945;" transform="matrix(1.0, 0.0, 0.0, 1.0, 0.0, 0.0)"><path d="M 0.0 0.0 L 0.03125 0.0 L 0.03125 0.03125 L 0.0 0.03125 L 0.0 0.0 Z" style="vector-effect: non-scaling-stroke;" /></g><g style="fill: #fd7f7f;stroke: #fd7f7f;stroke-width: 0.945;" transform="matrix(1.0, 0.0, 0.0, 1.0, 0.03125, 0.0)"><path d="M 0.0 0.0 L 0.03125 0.0 L 0.03125 0.03125 L 0.0 0.03125 L 0.0 0.0 Z" style="vector-effect: non-scaling-stroke;" /></g></g></g></g><g style="fill: #fd7f7f;stroke: #fd7f7f;stroke-width: 0.945;" transform="matrix(1.0, 0.0, 0.0, 1.0, 0.0625, 0.0)"><path d="M 0.0 0.0 L 0.0625 0.0 L 0.0625 0.0625 L 0.0 0.0625 L 0.0 0.0 Z" style="vector-effect: non-scaling-stroke;" /></g></g></g></g></g></g><g transform="matrix(1.0, 0.0, 0.0, 1.0, 0.0, 0.125)"><g><g style="fill: #7f80ff;stroke: #7f80ff;stroke-width: 0.945;" transform="matrix(1.0, 0.0, 0.0, 1.0, 0.0, 0.0)"><path d="M 0.0 0.0 L 0.125 0.0 L 0.125 0.125 L 0.0 0.125 L 0.0 0.0 Z" style="vector-effect: non-scaling-stroke;" /></g><g transform="matrix(1.0, 0.0, 0.0, 1.0, 0.125, 0.0)"><g><g><g><g><g style="fill: #7f80ff;stroke: #7f80ff;stroke-width: 0.945;" transform="matrix(1.0, 0.0, 0.0, 1.0, 0.0, 0.0)"><path d="M 0.0 0.0 L 0.03125 0.0 L 0.03125 0.03125 L 0.0 0.03125 L 0.0 0.0 Z" style="vector-effect: non-scaling-stroke;" /></g><g style="fill: #fd7f7f;stroke: #fd7f7f;stroke-width: 0.945;" transform="matrix(1.0, 0.0, 0.0, 1.0, 0.03125, 0.0)"><path d="M 0.0 0.0 L 0.03125 0.0 L 0.03125 0.03125 L 0.0 0.03125 L 0.0 0.0 Z" style="vector-effect: non-scaling-stroke;" /></g></g><g transform="matrix(1.0, 0.0, 0.0, 1.0, 0.0, 0.03125)"><g><g style="fill: #7f80ff;stroke: #7f80ff;stroke-width: 0.945;" transform="matrix(1.0, 0.0, 0.0, 1.0, 0.0, 0.0)"><path d="M 0.0 0.0 L 0.03125 0.0 L 0.03125 0.03125 L 0.0 0.03125 L 0.0 0.0 Z" style="vector-effect: non-scaling-stroke;" /></g><g style="fill: #fd7f7f;stroke: #fd7f7f;stroke-width: 0.945;" transform="matrix(1.0, 0.0, 0.0, 1.0, 0.03125, 0.0)"><path d="M 0.0 0.0 L 0.03125 0.0 L 0.03125 0.03125 L 0.0 0.03125 L 0.0 0.0 Z" style="vector-effect: non-scaling-stroke;" /></g></g></g></g><g style="fill: #fd7f7f;stroke: #fd7f7f;stroke-width: 0.945;" transform="matrix(1.0, 0.0, 0.0, 1.0, 0.0625, 0.0)"><path d="M 0.0 0.0 L 0.0625 0.0 L 0.0625 0.0625 L 0.0 0.0625 L 0.0 0.0 Z" style="vector-effect: non-scaling-stroke;" /></g></g><g transform="matrix(1.0, 0.0, 0.0, 1.0, 0.0, 0.0625)"><g><g><g><g style="fill: #7f80ff;stroke: #7f80ff;stroke-width: 0.945;" transform="matrix(1.0, 0.0, 0.0, 1.0, 0.0, 0.0)"><path d="M 0.0 0.0 L 0.03125 0.0 L 0.03125 0.03125 L 0.0 0.03125 L 0.0 0.0 Z" style="vector-effect: non-scaling-stroke;" /></g><g style="fill: #fd7f7f;stroke: #fd7f7f;stroke-width: 0.945;" transform="matrix(1.0, 0.0, 0.0, 1.0, 0.03125, 0.0)"><path d="M 0.0 0.0 L 0.03125 0.0 L 0.03125 0.03125 L 0.0 0.03125 L 0.0 0.0 Z" style="vector-effect: non-scaling-stroke;" /></g></g><g transform="matrix(1.0, 0.0, 0.0, 1.0, 0.0, 0.03125)"><g><g style="fill: #7f80ff;stroke: #7f80ff;stroke-width: 0.945;" transform="matrix(1.0, 0.0, 0.0, 1.0, 0.0, 0.0)"><path d="M 0.0 0.0 L 0.03125 0.0 L 0.03125 0.03125 L 0.0 0.03125 L 0.0 0.0 Z" style="vector-effect: non-scaling-stroke;" /></g><g style="fill: #fd7f7f;stroke: #fd7f7f;stroke-width: 0.945;" transform="matrix(1.0, 0.0, 0.0, 1.0, 0.03125, 0.0)"><path d="M 0.0 0.0 L 0.03125 0.0 L 0.03125 0.03125 L 0.0 0.03125 L 0.0 0.0 Z" style="vector-effect: non-scaling-stroke;" /></g></g></g></g><g style="fill: #fd7f7f;stroke: #fd7f7f;stroke-width: 0.945;" transform="matrix(1.0, 0.0, 0.0, 1.0, 0.0625, 0.0)"><path d="M 0.0 0.0 L 0.0625 0.0 L 0.0625 0.0625 L 0.0 0.0625 L 0.0 0.0 Z" style="vector-effect: non-scaling-stroke;" /></g></g></g></g></g></g></g></g></g></g><g transform="matrix(1.0, 0.0, 0.0, 1.0, 0.0, 0.25)"><g><g style="fill: #7f80ff;stroke: #7f80ff;stroke-width: 0.945;" transform="matrix(1.0, 0.0, 0.0, 1.0, 0.0, 0.0)"><path d="M 0.0 0.0 L 0.25 0.0 L 0.25 0.25 L 0.0 0.25 L 0.0 0.0 Z" style="vector-effect: non-scaling-stroke;" /></g><g transform="matrix(1.0, 0.0, 0.0, 1.0, 0.25, 0.0)"><g><g><g style="fill: #7f80ff;stroke: #7f80ff;stroke-width: 0.945;" transform="matrix(1.0, 0.0, 0.0, 1.0, 0.0, 0.0)"><path d="M 0.0 0.0 L 0.125 0.0 L 0.125 0.125 L 0.0 0.125 L 0.0 0.0 Z" style="vector-effect: non-scaling-stroke;" /></g><g transform="matrix(1.0, 0.0, 0.0, 1.0, 0.125, 0.0)"><g><g><g><g><g style="fill: #7f80ff;stroke: #7f80ff;stroke-width: 0.945;" transform="matrix(1.0, 0.0, 0.0, 1.0, 0.0, 0.0)"><path d="M 0.0 0.0 L 0.03125 0.0 L 0.03125 0.03125 L 0.0 0.03125 L 0.0 0.0 Z" style="vector-effect: non-scaling-stroke;" /></g><g style="fill: #fd7f7f;stroke: #fd7f7f;stroke-width: 0.945;" transform="matrix(1.0, 0.0, 0.0, 1.0, 0.03125, 0.0)"><path d="M 0.0 0.0 L 0.03125 0.0 L 0.03125 0.03125 L 0.0 0.03125 L 0.0 0.0 Z" style="vector-effect: non-scaling-stroke;" /></g></g><g transform="matrix(1.0, 0.0, 0.0, 1.0, 0.0, 0.03125)"><g><g style="fill: #7f80ff;stroke: #7f80ff;stroke-width: 0.945;" transform="matrix(1.0, 0.0, 0.0, 1.0, 0.0, 0.0)"><path d="M 0.0 0.0 L 0.03125 0.0 L 0.03125 0.03125 L 0.0 0.03125 L 0.0 0.0 Z" style="vector-effect: non-scaling-stroke;" /></g><g style="fill: #fd7f7f;stroke: #fd7f7f;stroke-width: 0.945;" transform="matrix(1.0, 0.0, 0.0, 1.0, 0.03125, 0.0)"><path d="M 0.0 0.0 L 0.03125 0.0 L 0.03125 0.03125 L 0.0 0.03125 L 0.0 0.0 Z" style="vector-effect: non-scaling-stroke;" /></g></g></g></g><g style="fill: #fd7f7f;stroke: #fd7f7f;stroke-width: 0.945;" transform="matrix(1.0, 0.0, 0.0, 1.0, 0.0625, 0.0)"><path d="M 0.0 0.0 L 0.0625 0.0 L 0.0625 0.0625 L 0.0 0.0625 L 0.0 0.0 Z" style="vector-effect: non-scaling-stroke;" /></g></g><g transform="matrix(1.0, 0.0, 0.0, 1.0, 0.0, 0.0625)"><g><g><g><g style="fill: #7f80ff;stroke: #7f80ff;stroke-width: 0.945;" transform="matrix(1.0, 0.0, 0.0, 1.0, 0.0, 0.0)"><path d="M 0.0 0.0 L 0.03125 0.0 L 0.03125 0.03125 L 0.0 0.03125 L 0.0 0.0 Z" style="vector-effect: non-scaling-stroke;" /></g><g style="fill: #fd7f7f;stroke: #fd7f7f;stroke-width: 0.945;" transform="matrix(1.0, 0.0, 0.0, 1.0, 0.03125, 0.0)"><path d="M 0.0 0.0 L 0.03125 0.0 L 0.03125 0.03125 L 0.0 0.03125 L 0.0 0.0 Z" style="vector-effect: non-scaling-stroke;" /></g></g><g transform="matrix(1.0, 0.0, 0.0, 1.0, 0.0, 0.03125)"><g><g style="fill: #7f80ff;stroke: #7f80ff;stroke-width: 0.945;" transform="matrix(1.0, 0.0, 0.0, 1.0, 0.0, 0.0)"><path d="M 0.0 0.0 L 0.03125 0.0 L 0.03125 0.03125 L 0.0 0.03125 L 0.0 0.0 Z" style="vector-effect: non-scaling-stroke;" /></g><g style="fill: #fd7f7f;stroke: #fd7f7f;stroke-width: 0.945;" transform="matrix(1.0, 0.0, 0.0, 1.0, 0.03125, 0.0)"><path d="M 0.0 0.0 L 0.03125 0.0 L 0.03125 0.03125 L 0.0 0.03125 L 0.0 0.0 Z" style="vector-effect: non-scaling-stroke;" /></g></g></g></g><g style="fill: #fd7f7f;stroke: #fd7f7f;stroke-width: 0.945;" transform="matrix(1.0, 0.0, 0.0, 1.0, 0.0625, 0.0)"><path d="M 0.0 0.0 L 0.0625 0.0 L 0.0625 0.0625 L 0.0 0.0625 L 0.0 0.0 Z" style="vector-effect: non-scaling-stroke;" /></g></g></g></g></g></g><g transform="matrix(1.0, 0.0, 0.0, 1.0, 0.0, 0.125)"><g><g style="fill: #7f80ff;stroke: #7f80ff;stroke-width: 0.945;" transform="matrix(1.0, 0.0, 0.0, 1.0, 0.0, 0.0)"><path d="M 0.0 0.0 L 0.125 0.0 L 0.125 0.125 L 0.0 0.125 L 0.0 0.0 Z" style="vector-effect: non-scaling-stroke;" /></g><g transform="matrix(1.0, 0.0, 0.0, 1.0, 0.125, 0.0)"><g><g><g><g><g style="fill: #7f80ff;stroke: #7f80ff;stroke-width: 0.945;" transform="matrix(1.0, 0.0, 0.0, 1.0, 0.0, 0.0)"><path d="M 0.0 0.0 L 0.03125 0.0 L 0.03125 0.03125 L 0.0 0.03125 L 0.0 0.0 Z" style="vector-effect: non-scaling-stroke;" /></g><g style="fill: #fd7f7f;stroke: #fd7f7f;stroke-width: 0.945;" transform="matrix(1.0, 0.0, 0.0, 1.0, 0.03125, 0.0)"><path d="M 0.0 0.0 L 0.03125 0.0 L 0.03125 0.03125 L 0.0 0.03125 L 0.0 0.0 Z" style="vector-effect: non-scaling-stroke;" /></g></g><g transform="matrix(1.0, 0.0, 0.0, 1.0, 0.0, 0.03125)"><g><g style="fill: #7f80ff;stroke: #7f80ff;stroke-width: 0.945;" transform="matrix(1.0, 0.0, 0.0, 1.0, 0.0, 0.0)"><path d="M 0.0 0.0 L 0.03125 0.0 L 0.03125 0.03125 L 0.0 0.03125 L 0.0 0.0 Z" style="vector-effect: non-scaling-stroke;" /></g><g style="fill: #fd7f7f;stroke: #fd7f7f;stroke-width: 0.945;" transform="matrix(1.0, 0.0, 0.0, 1.0, 0.03125, 0.0)"><path d="M 0.0 0.0 L 0.03125 0.0 L 0.03125 0.03125 L 0.0 0.03125 L 0.0 0.0 Z" style="vector-effect: non-scaling-stroke;" /></g></g></g></g><g style="fill: #fd7f7f;stroke: #fd7f7f;stroke-width: 0.945;" transform="matrix(1.0, 0.0, 0.0, 1.0, 0.0625, 0.0)"><path d="M 0.0 0.0 L 0.0625 0.0 L 0.0625 0.0625 L 0.0 0.0625 L 0.0 0.0 Z" style="vector-effect: non-scaling-stroke;" /></g></g><g transform="matrix(1.0, 0.0, 0.0, 1.0, 0.0, 0.0625)"><g><g><g><g style="fill: #7f80ff;stroke: #7f80ff;stroke-width: 0.945;" transform="matrix(1.0, 0.0, 0.0, 1.0, 0.0, 0.0)"><path d="M 0.0 0.0 L 0.03125 0.0 L 0.03125 0.03125 L 0.0 0.03125 L 0.0 0.0 Z" style="vector-effect: non-scaling-stroke;" /></g><g style="fill: #fd7f7f;stroke: #fd7f7f;stroke-width: 0.945;" transform="matrix(1.0, 0.0, 0.0, 1.0, 0.03125, 0.0)"><path d="M 0.0 0.0 L 0.03125 0.0 L 0.03125 0.03125 L 0.0 0.03125 L 0.0 0.0 Z" style="vector-effect: non-scaling-stroke;" /></g></g><g transform="matrix(1.0, 0.0, 0.0, 1.0, 0.0, 0.03125)"><g><g style="fill: #7f80ff;stroke: #7f80ff;stroke-width: 0.945;" transform="matrix(1.0, 0.0, 0.0, 1.0, 0.0, 0.0)"><path d="M 0.0 0.0 L 0.03125 0.0 L 0.03125 0.03125 L 0.0 0.03125 L 0.0 0.0 Z" style="vector-effect: non-scaling-stroke;" /></g><g style="fill: #fd7f7f;stroke: #fd7f7f;stroke-width: 0.945;" transform="matrix(1.0, 0.0, 0.0, 1.0, 0.03125, 0.0)"><path d="M 0.0 0.0 L 0.03125 0.0 L 0.03125 0.03125 L 0.0 0.03125 L 0.0 0.0 Z" style="vector-effect: non-scaling-stroke;" /></g></g></g></g><g style="fill: #fd7f7f;stroke: #fd7f7f;stroke-width: 0.945;" transform="matrix(1.0, 0.0, 0.0, 1.0, 0.0625, 0.0)"><path d="M 0.0 0.0 L 0.0625 0.0 L 0.0625 0.0625 L 0.0 0.0625 L 0.0 0.0 Z" style="vector-effect: non-scaling-stroke;" /></g></g></g></g></g></g></g></g></g></g></g></g></g></g><g transform="matrix(1.0, 0.0, 0.0, 1.0, 0.0, 0.5)"><g><g><g><g><g><g style="fill: #fd7f7f;stroke: #fd7f7f;stroke-width: 0.945;" transform="matrix(1.0, 0.0, 0.0, 1.0, 0.0, 0.0)"><path d="M 0.0 0.0 L 0.125 0.0 L 0.125 0.125 L 0.0 0.125 L 0.0 0.0 Z" style="vector-effect: non-scaling-stroke;" /></g><g transform="matrix(1.0, 0.0, 0.0, 1.0, 0.125, 0.0)"><g><g><g><g><g style="fill: #fd7f7f;stroke: #fd7f7f;stroke-width: 0.945;" transform="matrix(1.0, 0.0, 0.0, 1.0, 0.0, 0.0)"><path d="M 0.0 0.0 L 0.03125 0.0 L 0.03125 0.03125 L 0.0 0.03125 L 0.0 0.0 Z" style="vector-effect: non-scaling-stroke;" /></g><g style="fill: #7f80ff;stroke: #7f80ff;stroke-width: 0.945;" transform="matrix(1.0, 0.0, 0.0, 1.0, 0.03125, 0.0)"><path d="M 0.0 0.0 L 0.03125 0.0 L 0.03125 0.03125 L 0.0 0.03125 L 0.0 0.0 Z" style="vector-effect: non-scaling-stroke;" /></g></g><g transform="matrix(1.0, 0.0, 0.0, 1.0, 0.0, 0.03125)"><g><g style="fill: #fd7f7f;stroke: #fd7f7f;stroke-width: 0.945;" transform="matrix(1.0, 0.0, 0.0, 1.0, 0.0, 0.0)"><path d="M 0.0 0.0 L 0.03125 0.0 L 0.03125 0.03125 L 0.0 0.03125 L 0.0 0.0 Z" style="vector-effect: non-scaling-stroke;" /></g><g style="fill: #7f80ff;stroke: #7f80ff;stroke-width: 0.945;" transform="matrix(1.0, 0.0, 0.0, 1.0, 0.03125, 0.0)"><path d="M 0.0 0.0 L 0.03125 0.0 L 0.03125 0.03125 L 0.0 0.03125 L 0.0 0.0 Z" style="vector-effect: non-scaling-stroke;" /></g></g></g></g><g style="fill: #7f80ff;stroke: #7f80ff;stroke-width: 0.945;" transform="matrix(1.0, 0.0, 0.0, 1.0, 0.0625, 0.0)"><path d="M 0.0 0.0 L 0.0625 0.0 L 0.0625 0.0625 L 0.0 0.0625 L 0.0 0.0 Z" style="vector-effect: non-scaling-stroke;" /></g></g><g transform="matrix(1.0, 0.0, 0.0, 1.0, 0.0, 0.0625)"><g><g><g><g style="fill: #fd7f7f;stroke: #fd7f7f;stroke-width: 0.945;" transform="matrix(1.0, 0.0, 0.0, 1.0, 0.0, 0.0)"><path d="M 0.0 0.0 L 0.03125 0.0 L 0.03125 0.03125 L 0.0 0.03125 L 0.0 0.0 Z" style="vector-effect: non-scaling-stroke;" /></g><g style="fill: #7f80ff;stroke: #7f80ff;stroke-width: 0.945;" transform="matrix(1.0, 0.0, 0.0, 1.0, 0.03125, 0.0)"><path d="M 0.0 0.0 L 0.03125 0.0 L 0.03125 0.03125 L 0.0 0.03125 L 0.0 0.0 Z" style="vector-effect: non-scaling-stroke;" /></g></g><g transform="matrix(1.0, 0.0, 0.0, 1.0, 0.0, 0.03125)"><g><g style="fill: #fd7f7f;stroke: #fd7f7f;stroke-width: 0.945;" transform="matrix(1.0, 0.0, 0.0, 1.0, 0.0, 0.0)"><path d="M 0.0 0.0 L 0.03125 0.0 L 0.03125 0.03125 L 0.0 0.03125 L 0.0 0.0 Z" style="vector-effect: non-scaling-stroke;" /></g><g style="fill: #7f80ff;stroke: #7f80ff;stroke-width: 0.945;" transform="matrix(1.0, 0.0, 0.0, 1.0, 0.03125, 0.0)"><path d="M 0.0 0.0 L 0.03125 0.0 L 0.03125 0.03125 L 0.0 0.03125 L 0.0 0.0 Z" style="vector-effect: non-scaling-stroke;" /></g></g></g></g><g style="fill: #7f80ff;stroke: #7f80ff;stroke-width: 0.945;" transform="matrix(1.0, 0.0, 0.0, 1.0, 0.0625, 0.0)"><path d="M 0.0 0.0 L 0.0625 0.0 L 0.0625 0.0625 L 0.0 0.0625 L 0.0 0.0 Z" style="vector-effect: non-scaling-stroke;" /></g></g></g></g></g></g><g transform="matrix(1.0, 0.0, 0.0, 1.0, 0.0, 0.125)"><g><g style="fill: #fd7f7f;stroke: #fd7f7f;stroke-width: 0.945;" transform="matrix(1.0, 0.0, 0.0, 1.0, 0.0, 0.0)"><path d="M 0.0 0.0 L 0.125 0.0 L 0.125 0.125 L 0.0 0.125 L 0.0 0.0 Z" style="vector-effect: non-scaling-stroke;" /></g><g transform="matrix(1.0, 0.0, 0.0, 1.0, 0.125, 0.0)"><g><g><g><g><g style="fill: #fd7f7f;stroke: #fd7f7f;stroke-width: 0.945;" transform="matrix(1.0, 0.0, 0.0, 1.0, 0.0, 0.0)"><path d="M 0.0 0.0 L 0.03125 0.0 L 0.03125 0.03125 L 0.0 0.03125 L 0.0 0.0 Z" style="vector-effect: non-scaling-stroke;" /></g><g style="fill: #7f80ff;stroke: #7f80ff;stroke-width: 0.945;" transform="matrix(1.0, 0.0, 0.0, 1.0, 0.03125, 0.0)"><path d="M 0.0 0.0 L 0.03125 0.0 L 0.03125 0.03125 L 0.0 0.03125 L 0.0 0.0 Z" style="vector-effect: non-scaling-stroke;" /></g></g><g transform="matrix(1.0, 0.0, 0.0, 1.0, 0.0, 0.03125)"><g><g style="fill: #fd7f7f;stroke: #fd7f7f;stroke-width: 0.945;" transform="matrix(1.0, 0.0, 0.0, 1.0, 0.0, 0.0)"><path d="M 0.0 0.0 L 0.03125 0.0 L 0.03125 0.03125 L 0.0 0.03125 L 0.0 0.0 Z" style="vector-effect: non-scaling-stroke;" /></g><g style="fill: #7f80ff;stroke: #7f80ff;stroke-width: 0.945;" transform="matrix(1.0, 0.0, 0.0, 1.0, 0.03125, 0.0)"><path d="M 0.0 0.0 L 0.03125 0.0 L 0.03125 0.03125 L 0.0 0.03125 L 0.0 0.0 Z" style="vector-effect: non-scaling-stroke;" /></g></g></g></g><g style="fill: #7f80ff;stroke: #7f80ff;stroke-width: 0.945;" transform="matrix(1.0, 0.0, 0.0, 1.0, 0.0625, 0.0)"><path d="M 0.0 0.0 L 0.0625 0.0 L 0.0625 0.0625 L 0.0 0.0625 L 0.0 0.0 Z" style="vector-effect: non-scaling-stroke;" /></g></g><g transform="matrix(1.0, 0.0, 0.0, 1.0, 0.0, 0.0625)"><g><g><g><g style="fill: #fd7f7f;stroke: #fd7f7f;stroke-width: 0.945;" transform="matrix(1.0, 0.0, 0.0, 1.0, 0.0, 0.0)"><path d="M 0.0 0.0 L 0.03125 0.0 L 0.03125 0.03125 L 0.0 0.03125 L 0.0 0.0 Z" style="vector-effect: non-scaling-stroke;" /></g><g style="fill: #7f80ff;stroke: #7f80ff;stroke-width: 0.945;" transform="matrix(1.0, 0.0, 0.0, 1.0, 0.03125, 0.0)"><path d="M 0.0 0.0 L 0.03125 0.0 L 0.03125 0.03125 L 0.0 0.03125 L 0.0 0.0 Z" style="vector-effect: non-scaling-stroke;" /></g></g><g transform="matrix(1.0, 0.0, 0.0, 1.0, 0.0, 0.03125)"><g><g style="fill: #fd7f7f;stroke: #fd7f7f;stroke-width: 0.945;" transform="matrix(1.0, 0.0, 0.0, 1.0, 0.0, 0.0)"><path d="M 0.0 0.0 L 0.03125 0.0 L 0.03125 0.03125 L 0.0 0.03125 L 0.0 0.0 Z" style="vector-effect: non-scaling-stroke;" /></g><g style="fill: #7f80ff;stroke: #7f80ff;stroke-width: 0.945;" transform="matrix(1.0, 0.0, 0.0, 1.0, 0.03125, 0.0)"><path d="M 0.0 0.0 L 0.03125 0.0 L 0.03125 0.03125 L 0.0 0.03125 L 0.0 0.0 Z" style="vector-effect: non-scaling-stroke;" /></g></g></g></g><g style="fill: #7f80ff;stroke: #7f80ff;stroke-width: 0.945;" transform="matrix(1.0, 0.0, 0.0, 1.0, 0.0625, 0.0)"><path d="M 0.0 0.0 L 0.0625 0.0 L 0.0625 0.0625 L 0.0 0.0625 L 0.0 0.0 Z" style="vector-effect: non-scaling-stroke;" /></g></g></g></g></g></g></g></g><g style="fill: #7f80ff;stroke: #7f80ff;stroke-width: 0.945;" transform="matrix(1.0, 0.0, 0.0, 1.0, 0.25, 0.0)"><path d="M 0.0 0.0 L 0.25 0.0 L 0.25 0.25 L 0.0 0.25 L 0.0 0.0 Z" style="vector-effect: non-scaling-stroke;" /></g></g><g transform="matrix(1.0, 0.0, 0.0, 1.0, 0.0, 0.25)"><g><g><g><g style="fill: #fd7f7f;stroke: #fd7f7f;stroke-width: 0.945;" transform="matrix(1.0, 0.0, 0.0, 1.0, 0.0, 0.0)"><path d="M 0.0 0.0 L 0.125 0.0 L 0.125 0.125 L 0.0 0.125 L 0.0 0.0 Z" style="vector-effect: non-scaling-stroke;" /></g><g transform="matrix(1.0, 0.0, 0.0, 1.0, 0.125, 0.0)"><g><g><g><g><g style="fill: #fd7f7f;stroke: #fd7f7f;stroke-width: 0.945;" transform="matrix(1.0, 0.0, 0.0, 1.0, 0.0, 0.0)"><path d="M 0.0 0.0 L 0.03125 0.0 L 0.03125 0.03125 L 0.0 0.03125 L 0.0 0.0 Z" style="vector-effect: non-scaling-stroke;" /></g><g style="fill: #7f80ff;stroke: #7f80ff;stroke-width: 0.945;" transform="matrix(1.0, 0.0, 0.0, 1.0, 0.03125, 0.0)"><path d="M 0.0 0.0 L 0.03125 0.0 L 0.03125 0.03125 L 0.0 0.03125 L 0.0 0.0 Z" style="vector-effect: non-scaling-stroke;" /></g></g><g transform="matrix(1.0, 0.0, 0.0, 1.0, 0.0, 0.03125)"><g><g style="fill: #fd7f7f;stroke: #fd7f7f;stroke-width: 0.945;" transform="matrix(1.0, 0.0, 0.0, 1.0, 0.0, 0.0)"><path d="M 0.0 0.0 L 0.03125 0.0 L 0.03125 0.03125 L 0.0 0.03125 L 0.0 0.0 Z" style="vector-effect: non-scaling-stroke;" /></g><g style="fill: #7f80ff;stroke: #7f80ff;stroke-width: 0.945;" transform="matrix(1.0, 0.0, 0.0, 1.0, 0.03125, 0.0)"><path d="M 0.0 0.0 L 0.03125 0.0 L 0.03125 0.03125 L 0.0 0.03125 L 0.0 0.0 Z" style="vector-effect: non-scaling-stroke;" /></g></g></g></g><g style="fill: #7f80ff;stroke: #7f80ff;stroke-width: 0.945;" transform="matrix(1.0, 0.0, 0.0, 1.0, 0.0625, 0.0)"><path d="M 0.0 0.0 L 0.0625 0.0 L 0.0625 0.0625 L 0.0 0.0625 L 0.0 0.0 Z" style="vector-effect: non-scaling-stroke;" /></g></g><g transform="matrix(1.0, 0.0, 0.0, 1.0, 0.0, 0.0625)"><g><g><g><g style="fill: #fd7f7f;stroke: #fd7f7f;stroke-width: 0.945;" transform="matrix(1.0, 0.0, 0.0, 1.0, 0.0, 0.0)"><path d="M 0.0 0.0 L 0.03125 0.0 L 0.03125 0.03125 L 0.0 0.03125 L 0.0 0.0 Z" style="vector-effect: non-scaling-stroke;" /></g><g style="fill: #7f80ff;stroke: #7f80ff;stroke-width: 0.945;" transform="matrix(1.0, 0.0, 0.0, 1.0, 0.03125, 0.0)"><path d="M 0.0 0.0 L 0.03125 0.0 L 0.03125 0.03125 L 0.0 0.03125 L 0.0 0.0 Z" style="vector-effect: non-scaling-stroke;" /></g></g><g transform="matrix(1.0, 0.0, 0.0, 1.0, 0.0, 0.03125)"><g><g style="fill: #fd7f7f;stroke: #fd7f7f;stroke-width: 0.945;" transform="matrix(1.0, 0.0, 0.0, 1.0, 0.0, 0.0)"><path d="M 0.0 0.0 L 0.03125 0.0 L 0.03125 0.03125 L 0.0 0.03125 L 0.0 0.0 Z" style="vector-effect: non-scaling-stroke;" /></g><g style="fill: #7f80ff;stroke: #7f80ff;stroke-width: 0.945;" transform="matrix(1.0, 0.0, 0.0, 1.0, 0.03125, 0.0)"><path d="M 0.0 0.0 L 0.03125 0.0 L 0.03125 0.03125 L 0.0 0.03125 L 0.0 0.0 Z" style="vector-effect: non-scaling-stroke;" /></g></g></g></g><g style="fill: #7f80ff;stroke: #7f80ff;stroke-width: 0.945;" transform="matrix(1.0, 0.0, 0.0, 1.0, 0.0625, 0.0)"><path d="M 0.0 0.0 L 0.0625 0.0 L 0.0625 0.0625 L 0.0 0.0625 L 0.0 0.0 Z" style="vector-effect: non-scaling-stroke;" /></g></g></g></g></g></g><g transform="matrix(1.0, 0.0, 0.0, 1.0, 0.0, 0.125)"><g><g style="fill: #fd7f7f;stroke: #fd7f7f;stroke-width: 0.945;" transform="matrix(1.0, 0.0, 0.0, 1.0, 0.0, 0.0)"><path d="M 0.0 0.0 L 0.125 0.0 L 0.125 0.125 L 0.0 0.125 L 0.0 0.0 Z" style="vector-effect: non-scaling-stroke;" /></g><g transform="matrix(1.0, 0.0, 0.0, 1.0, 0.125, 0.0)"><g><g><g><g><g style="fill: #fd7f7f;stroke: #fd7f7f;stroke-width: 0.945;" transform="matrix(1.0, 0.0, 0.0, 1.0, 0.0, 0.0)"><path d="M 0.0 0.0 L 0.03125 0.0 L 0.03125 0.03125 L 0.0 0.03125 L 0.0 0.0 Z" style="vector-effect: non-scaling-stroke;" /></g><g style="fill: #7f80ff;stroke: #7f80ff;stroke-width: 0.945;" transform="matrix(1.0, 0.0, 0.0, 1.0, 0.03125, 0.0)"><path d="M 0.0 0.0 L 0.03125 0.0 L 0.03125 0.03125 L 0.0 0.03125 L 0.0 0.0 Z" style="vector-effect: non-scaling-stroke;" /></g></g><g transform="matrix(1.0, 0.0, 0.0, 1.0, 0.0, 0.03125)"><g><g style="fill: #fd7f7f;stroke: #fd7f7f;stroke-width: 0.945;" transform="matrix(1.0, 0.0, 0.0, 1.0, 0.0, 0.0)"><path d="M 0.0 0.0 L 0.03125 0.0 L 0.03125 0.03125 L 0.0 0.03125 L 0.0 0.0 Z" style="vector-effect: non-scaling-stroke;" /></g><g style="fill: #7f80ff;stroke: #7f80ff;stroke-width: 0.945;" transform="matrix(1.0, 0.0, 0.0, 1.0, 0.03125, 0.0)"><path d="M 0.0 0.0 L 0.03125 0.0 L 0.03125 0.03125 L 0.0 0.03125 L 0.0 0.0 Z" style="vector-effect: non-scaling-stroke;" /></g></g></g></g><g style="fill: #7f80ff;stroke: #7f80ff;stroke-width: 0.945;" transform="matrix(1.0, 0.0, 0.0, 1.0, 0.0625, 0.0)"><path d="M 0.0 0.0 L 0.0625 0.0 L 0.0625 0.0625 L 0.0 0.0625 L 0.0 0.0 Z" style="vector-effect: non-scaling-stroke;" /></g></g><g transform="matrix(1.0, 0.0, 0.0, 1.0, 0.0, 0.0625)"><g><g><g><g style="fill: #fd7f7f;stroke: #fd7f7f;stroke-width: 0.945;" transform="matrix(1.0, 0.0, 0.0, 1.0, 0.0, 0.0)"><path d="M 0.0 0.0 L 0.03125 0.0 L 0.03125 0.03125 L 0.0 0.03125 L 0.0 0.0 Z" style="vector-effect: non-scaling-stroke;" /></g><g style="fill: #7f80ff;stroke: #7f80ff;stroke-width: 0.945;" transform="matrix(1.0, 0.0, 0.0, 1.0, 0.03125, 0.0)"><path d="M 0.0 0.0 L 0.03125 0.0 L 0.03125 0.03125 L 0.0 0.03125 L 0.0 0.0 Z" style="vector-effect: non-scaling-stroke;" /></g></g><g transform="matrix(1.0, 0.0, 0.0, 1.0, 0.0, 0.03125)"><g><g style="fill: #fd7f7f;stroke: #fd7f7f;stroke-width: 0.945;" transform="matrix(1.0, 0.0, 0.0, 1.0, 0.0, 0.0)"><path d="M 0.0 0.0 L 0.03125 0.0 L 0.03125 0.03125 L 0.0 0.03125 L 0.0 0.0 Z" style="vector-effect: non-scaling-stroke;" /></g><g style="fill: #7f80ff;stroke: #7f80ff;stroke-width: 0.945;" transform="matrix(1.0, 0.0, 0.0, 1.0, 0.03125, 0.0)"><path d="M 0.0 0.0 L 0.03125 0.0 L 0.03125 0.03125 L 0.0 0.03125 L 0.0 0.0 Z" style="vector-effect: non-scaling-stroke;" /></g></g></g></g><g style="fill: #7f80ff;stroke: #7f80ff;stroke-width: 0.945;" transform="matrix(1.0, 0.0, 0.0, 1.0, 0.0625, 0.0)"><path d="M 0.0 0.0 L 0.0625 0.0 L 0.0625 0.0625 L 0.0 0.0625 L 0.0 0.0 Z" style="vector-effect: non-scaling-stroke;" /></g></g></g></g></g></g></g></g><g style="fill: #7f80ff;stroke: #7f80ff;stroke-width: 0.945;" transform="matrix(1.0, 0.0, 0.0, 1.0, 0.25, 0.0)"><path d="M 0.0 0.0 L 0.25 0.0 L 0.25 0.25 L 0.0 0.25 L 0.0 0.0 Z" style="vector-effect: non-scaling-stroke;" /></g></g></g></g><g transform="matrix(1.0, 0.0, 0.0, 1.0, 0.5, 0.0)"><g><g><g style="fill: #7f80ff;stroke: #7f80ff;stroke-width: 0.945;" transform="matrix(1.0, 0.0, 0.0, 1.0, 0.0, 0.0)"><path d="M 0.0 0.0 L 0.25 0.0 L 0.25 0.25 L 0.0 0.25 L 0.0 0.0 Z" style="vector-effect: non-scaling-stroke;" /></g><g transform="matrix(1.0, 0.0, 0.0, 1.0, 0.25, 0.0)"><g><g><g style="fill: #7f80ff;stroke: #7f80ff;stroke-width: 0.945;" transform="matrix(1.0, 0.0, 0.0, 1.0, 0.0, 0.0)"><path d="M 0.0 0.0 L 0.125 0.0 L 0.125 0.125 L 0.0 0.125 L 0.0 0.0 Z" style="vector-effect: non-scaling-stroke;" /></g><g transform="matrix(1.0, 0.0, 0.0, 1.0, 0.125, 0.0)"><g><g><g><g><g style="fill: #7f80ff;stroke: #7f80ff;stroke-width: 0.945;" transform="matrix(1.0, 0.0, 0.0, 1.0, 0.0, 0.0)"><path d="M 0.0 0.0 L 0.03125 0.0 L 0.03125 0.03125 L 0.0 0.03125 L 0.0 0.0 Z" style="vector-effect: non-scaling-stroke;" /></g><g style="fill: #fd7f7f;stroke: #fd7f7f;stroke-width: 0.945;" transform="matrix(1.0, 0.0, 0.0, 1.0, 0.03125, 0.0)"><path d="M 0.0 0.0 L 0.03125 0.0 L 0.03125 0.03125 L 0.0 0.03125 L 0.0 0.0 Z" style="vector-effect: non-scaling-stroke;" /></g></g><g transform="matrix(1.0, 0.0, 0.0, 1.0, 0.0, 0.03125)"><g><g style="fill: #7f80ff;stroke: #7f80ff;stroke-width: 0.945;" transform="matrix(1.0, 0.0, 0.0, 1.0, 0.0, 0.0)"><path d="M 0.0 0.0 L 0.03125 0.0 L 0.03125 0.03125 L 0.0 0.03125 L 0.0 0.0 Z" style="vector-effect: non-scaling-stroke;" /></g><g style="fill: #fd7f7f;stroke: #fd7f7f;stroke-width: 0.945;" transform="matrix(1.0, 0.0, 0.0, 1.0, 0.03125, 0.0)"><path d="M 0.0 0.0 L 0.03125 0.0 L 0.03125 0.03125 L 0.0 0.03125 L 0.0 0.0 Z" style="vector-effect: non-scaling-stroke;" /></g></g></g></g><g style="fill: #fd7f7f;stroke: #fd7f7f;stroke-width: 0.945;" transform="matrix(1.0, 0.0, 0.0, 1.0, 0.0625, 0.0)"><path d="M 0.0 0.0 L 0.0625 0.0 L 0.0625 0.0625 L 0.0 0.0625 L 0.0 0.0 Z" style="vector-effect: non-scaling-stroke;" /></g></g><g transform="matrix(1.0, 0.0, 0.0, 1.0, 0.0, 0.0625)"><g><g><g><g style="fill: #7f80ff;stroke: #7f80ff;stroke-width: 0.945;" transform="matrix(1.0, 0.0, 0.0, 1.0, 0.0, 0.0)"><path d="M 0.0 0.0 L 0.03125 0.0 L 0.03125 0.03125 L 0.0 0.03125 L 0.0 0.0 Z" style="vector-effect: non-scaling-stroke;" /></g><g style="fill: #fd7f7f;stroke: #fd7f7f;stroke-width: 0.945;" transform="matrix(1.0, 0.0, 0.0, 1.0, 0.03125, 0.0)"><path d="M 0.0 0.0 L 0.03125 0.0 L 0.03125 0.03125 L 0.0 0.03125 L 0.0 0.0 Z" style="vector-effect: non-scaling-stroke;" /></g></g><g transform="matrix(1.0, 0.0, 0.0, 1.0, 0.0, 0.03125)"><g><g style="fill: #7f80ff;stroke: #7f80ff;stroke-width: 0.945;" transform="matrix(1.0, 0.0, 0.0, 1.0, 0.0, 0.0)"><path d="M 0.0 0.0 L 0.03125 0.0 L 0.03125 0.03125 L 0.0 0.03125 L 0.0 0.0 Z" style="vector-effect: non-scaling-stroke;" /></g><g style="fill: #fd7f7f;stroke: #fd7f7f;stroke-width: 0.945;" transform="matrix(1.0, 0.0, 0.0, 1.0, 0.03125, 0.0)"><path d="M 0.0 0.0 L 0.03125 0.0 L 0.03125 0.03125 L 0.0 0.03125 L 0.0 0.0 Z" style="vector-effect: non-scaling-stroke;" /></g></g></g></g><g style="fill: #fd7f7f;stroke: #fd7f7f;stroke-width: 0.945;" transform="matrix(1.0, 0.0, 0.0, 1.0, 0.0625, 0.0)"><path d="M 0.0 0.0 L 0.0625 0.0 L 0.0625 0.0625 L 0.0 0.0625 L 0.0 0.0 Z" style="vector-effect: non-scaling-stroke;" /></g></g></g></g></g></g><g transform="matrix(1.0, 0.0, 0.0, 1.0, 0.0, 0.125)"><g><g style="fill: #7f80ff;stroke: #7f80ff;stroke-width: 0.945;" transform="matrix(1.0, 0.0, 0.0, 1.0, 0.0, 0.0)"><path d="M 0.0 0.0 L 0.125 0.0 L 0.125 0.125 L 0.0 0.125 L 0.0 0.0 Z" style="vector-effect: non-scaling-stroke;" /></g><g transform="matrix(1.0, 0.0, 0.0, 1.0, 0.125, 0.0)"><g><g><g><g><g style="fill: #7f80ff;stroke: #7f80ff;stroke-width: 0.945;" transform="matrix(1.0, 0.0, 0.0, 1.0, 0.0, 0.0)"><path d="M 0.0 0.0 L 0.03125 0.0 L 0.03125 0.03125 L 0.0 0.03125 L 0.0 0.0 Z" style="vector-effect: non-scaling-stroke;" /></g><g style="fill: #fd7f7f;stroke: #fd7f7f;stroke-width: 0.945;" transform="matrix(1.0, 0.0, 0.0, 1.0, 0.03125, 0.0)"><path d="M 0.0 0.0 L 0.03125 0.0 L 0.03125 0.03125 L 0.0 0.03125 L 0.0 0.0 Z" style="vector-effect: non-scaling-stroke;" /></g></g><g transform="matrix(1.0, 0.0, 0.0, 1.0, 0.0, 0.03125)"><g><g style="fill: #7f80ff;stroke: #7f80ff;stroke-width: 0.945;" transform="matrix(1.0, 0.0, 0.0, 1.0, 0.0, 0.0)"><path d="M 0.0 0.0 L 0.03125 0.0 L 0.03125 0.03125 L 0.0 0.03125 L 0.0 0.0 Z" style="vector-effect: non-scaling-stroke;" /></g><g style="fill: #fd7f7f;stroke: #fd7f7f;stroke-width: 0.945;" transform="matrix(1.0, 0.0, 0.0, 1.0, 0.03125, 0.0)"><path d="M 0.0 0.0 L 0.03125 0.0 L 0.03125 0.03125 L 0.0 0.03125 L 0.0 0.0 Z" style="vector-effect: non-scaling-stroke;" /></g></g></g></g><g style="fill: #fd7f7f;stroke: #fd7f7f;stroke-width: 0.945;" transform="matrix(1.0, 0.0, 0.0, 1.0, 0.0625, 0.0)"><path d="M 0.0 0.0 L 0.0625 0.0 L 0.0625 0.0625 L 0.0 0.0625 L 0.0 0.0 Z" style="vector-effect: non-scaling-stroke;" /></g></g><g transform="matrix(1.0, 0.0, 0.0, 1.0, 0.0, 0.0625)"><g><g><g><g style="fill: #7f80ff;stroke: #7f80ff;stroke-width: 0.945;" transform="matrix(1.0, 0.0, 0.0, 1.0, 0.0, 0.0)"><path d="M 0.0 0.0 L 0.03125 0.0 L 0.03125 0.03125 L 0.0 0.03125 L 0.0 0.0 Z" style="vector-effect: non-scaling-stroke;" /></g><g style="fill: #fd7f7f;stroke: #fd7f7f;stroke-width: 0.945;" transform="matrix(1.0, 0.0, 0.0, 1.0, 0.03125, 0.0)"><path d="M 0.0 0.0 L 0.03125 0.0 L 0.03125 0.03125 L 0.0 0.03125 L 0.0 0.0 Z" style="vector-effect: non-scaling-stroke;" /></g></g><g transform="matrix(1.0, 0.0, 0.0, 1.0, 0.0, 0.03125)"><g><g style="fill: #7f80ff;stroke: #7f80ff;stroke-width: 0.945;" transform="matrix(1.0, 0.0, 0.0, 1.0, 0.0, 0.0)"><path d="M 0.0 0.0 L 0.03125 0.0 L 0.03125 0.03125 L 0.0 0.03125 L 0.0 0.0 Z" style="vector-effect: non-scaling-stroke;" /></g><g style="fill: #fd7f7f;stroke: #fd7f7f;stroke-width: 0.945;" transform="matrix(1.0, 0.0, 0.0, 1.0, 0.03125, 0.0)"><path d="M 0.0 0.0 L 0.03125 0.0 L 0.03125 0.03125 L 0.0 0.03125 L 0.0 0.0 Z" style="vector-effect: non-scaling-stroke;" /></g></g></g></g><g style="fill: #fd7f7f;stroke: #fd7f7f;stroke-width: 0.945;" transform="matrix(1.0, 0.0, 0.0, 1.0, 0.0625, 0.0)"><path d="M 0.0 0.0 L 0.0625 0.0 L 0.0625 0.0625 L 0.0 0.0625 L 0.0 0.0 Z" style="vector-effect: non-scaling-stroke;" /></g></g></g></g></g></g></g></g></g></g><g transform="matrix(1.0, 0.0, 0.0, 1.0, 0.0, 0.25)"><g><g style="fill: #7f80ff;stroke: #7f80ff;stroke-width: 0.945;" transform="matrix(1.0, 0.0, 0.0, 1.0, 0.0, 0.0)"><path d="M 0.0 0.0 L 0.25 0.0 L 0.25 0.25 L 0.0 0.25 L 0.0 0.0 Z" style="vector-effect: non-scaling-stroke;" /></g><g transform="matrix(1.0, 0.0, 0.0, 1.0, 0.25, 0.0)"><g><g><g style="fill: #7f80ff;stroke: #7f80ff;stroke-width: 0.945;" transform="matrix(1.0, 0.0, 0.0, 1.0, 0.0, 0.0)"><path d="M 0.0 0.0 L 0.125 0.0 L 0.125 0.125 L 0.0 0.125 L 0.0 0.0 Z" style="vector-effect: non-scaling-stroke;" /></g><g transform="matrix(1.0, 0.0, 0.0, 1.0, 0.125, 0.0)"><g><g><g><g><g style="fill: #7f80ff;stroke: #7f80ff;stroke-width: 0.945;" transform="matrix(1.0, 0.0, 0.0, 1.0, 0.0, 0.0)"><path d="M 0.0 0.0 L 0.03125 0.0 L 0.03125 0.03125 L 0.0 0.03125 L 0.0 0.0 Z" style="vector-effect: non-scaling-stroke;" /></g><g style="fill: #fd7f7f;stroke: #fd7f7f;stroke-width: 0.945;" transform="matrix(1.0, 0.0, 0.0, 1.0, 0.03125, 0.0)"><path d="M 0.0 0.0 L 0.03125 0.0 L 0.03125 0.03125 L 0.0 0.03125 L 0.0 0.0 Z" style="vector-effect: non-scaling-stroke;" /></g></g><g transform="matrix(1.0, 0.0, 0.0, 1.0, 0.0, 0.03125)"><g><g style="fill: #7f80ff;stroke: #7f80ff;stroke-width: 0.945;" transform="matrix(1.0, 0.0, 0.0, 1.0, 0.0, 0.0)"><path d="M 0.0 0.0 L 0.03125 0.0 L 0.03125 0.03125 L 0.0 0.03125 L 0.0 0.0 Z" style="vector-effect: non-scaling-stroke;" /></g><g style="fill: #fd7f7f;stroke: #fd7f7f;stroke-width: 0.945;" transform="matrix(1.0, 0.0, 0.0, 1.0, 0.03125, 0.0)"><path d="M 0.0 0.0 L 0.03125 0.0 L 0.03125 0.03125 L 0.0 0.03125 L 0.0 0.0 Z" style="vector-effect: non-scaling-stroke;" /></g></g></g></g><g style="fill: #fd7f7f;stroke: #fd7f7f;stroke-width: 0.945;" transform="matrix(1.0, 0.0, 0.0, 1.0, 0.0625, 0.0)"><path d="M 0.0 0.0 L 0.0625 0.0 L 0.0625 0.0625 L 0.0 0.0625 L 0.0 0.0 Z" style="vector-effect: non-scaling-stroke;" /></g></g><g transform="matrix(1.0, 0.0, 0.0, 1.0, 0.0, 0.0625)"><g><g><g><g style="fill: #7f80ff;stroke: #7f80ff;stroke-width: 0.945;" transform="matrix(1.0, 0.0, 0.0, 1.0, 0.0, 0.0)"><path d="M 0.0 0.0 L 0.03125 0.0 L 0.03125 0.03125 L 0.0 0.03125 L 0.0 0.0 Z" style="vector-effect: non-scaling-stroke;" /></g><g style="fill: #fd7f7f;stroke: #fd7f7f;stroke-width: 0.945;" transform="matrix(1.0, 0.0, 0.0, 1.0, 0.03125, 0.0)"><path d="M 0.0 0.0 L 0.03125 0.0 L 0.03125 0.03125 L 0.0 0.03125 L 0.0 0.0 Z" style="vector-effect: non-scaling-stroke;" /></g></g><g transform="matrix(1.0, 0.0, 0.0, 1.0, 0.0, 0.03125)"><g><g style="fill: #7f80ff;stroke: #7f80ff;stroke-width: 0.945;" transform="matrix(1.0, 0.0, 0.0, 1.0, 0.0, 0.0)"><path d="M 0.0 0.0 L 0.03125 0.0 L 0.03125 0.03125 L 0.0 0.03125 L 0.0 0.0 Z" style="vector-effect: non-scaling-stroke;" /></g><g style="fill: #fd7f7f;stroke: #fd7f7f;stroke-width: 0.945;" transform="matrix(1.0, 0.0, 0.0, 1.0, 0.03125, 0.0)"><path d="M 0.0 0.0 L 0.03125 0.0 L 0.03125 0.03125 L 0.0 0.03125 L 0.0 0.0 Z" style="vector-effect: non-scaling-stroke;" /></g></g></g></g><g style="fill: #fd7f7f;stroke: #fd7f7f;stroke-width: 0.945;" transform="matrix(1.0, 0.0, 0.0, 1.0, 0.0625, 0.0)"><path d="M 0.0 0.0 L 0.0625 0.0 L 0.0625 0.0625 L 0.0 0.0625 L 0.0 0.0 Z" style="vector-effect: non-scaling-stroke;" /></g></g></g></g></g></g><g transform="matrix(1.0, 0.0, 0.0, 1.0, 0.0, 0.125)"><g><g style="fill: #7f80ff;stroke: #7f80ff;stroke-width: 0.945;" transform="matrix(1.0, 0.0, 0.0, 1.0, 0.0, 0.0)"><path d="M 0.0 0.0 L 0.125 0.0 L 0.125 0.125 L 0.0 0.125 L 0.0 0.0 Z" style="vector-effect: non-scaling-stroke;" /></g><g transform="matrix(1.0, 0.0, 0.0, 1.0, 0.125, 0.0)"><g><g><g><g><g style="fill: #7f80ff;stroke: #7f80ff;stroke-width: 0.945;" transform="matrix(1.0, 0.0, 0.0, 1.0, 0.0, 0.0)"><path d="M 0.0 0.0 L 0.03125 0.0 L 0.03125 0.03125 L 0.0 0.03125 L 0.0 0.0 Z" style="vector-effect: non-scaling-stroke;" /></g><g style="fill: #fd7f7f;stroke: #fd7f7f;stroke-width: 0.945;" transform="matrix(1.0, 0.0, 0.0, 1.0, 0.03125, 0.0)"><path d="M 0.0 0.0 L 0.03125 0.0 L 0.03125 0.03125 L 0.0 0.03125 L 0.0 0.0 Z" style="vector-effect: non-scaling-stroke;" /></g></g><g transform="matrix(1.0, 0.0, 0.0, 1.0, 0.0, 0.03125)"><g><g style="fill: #7f80ff;stroke: #7f80ff;stroke-width: 0.945;" transform="matrix(1.0, 0.0, 0.0, 1.0, 0.0, 0.0)"><path d="M 0.0 0.0 L 0.03125 0.0 L 0.03125 0.03125 L 0.0 0.03125 L 0.0 0.0 Z" style="vector-effect: non-scaling-stroke;" /></g><g style="fill: #fd7f7f;stroke: #fd7f7f;stroke-width: 0.945;" transform="matrix(1.0, 0.0, 0.0, 1.0, 0.03125, 0.0)"><path d="M 0.0 0.0 L 0.03125 0.0 L 0.03125 0.03125 L 0.0 0.03125 L 0.0 0.0 Z" style="vector-effect: non-scaling-stroke;" /></g></g></g></g><g style="fill: #fd7f7f;stroke: #fd7f7f;stroke-width: 0.945;" transform="matrix(1.0, 0.0, 0.0, 1.0, 0.0625, 0.0)"><path d="M 0.0 0.0 L 0.0625 0.0 L 0.0625 0.0625 L 0.0 0.0625 L 0.0 0.0 Z" style="vector-effect: non-scaling-stroke;" /></g></g><g transform="matrix(1.0, 0.0, 0.0, 1.0, 0.0, 0.0625)"><g><g><g><g style="fill: #7f80ff;stroke: #7f80ff;stroke-width: 0.945;" transform="matrix(1.0, 0.0, 0.0, 1.0, 0.0, 0.0)"><path d="M 0.0 0.0 L 0.03125 0.0 L 0.03125 0.03125 L 0.0 0.03125 L 0.0 0.0 Z" style="vector-effect: non-scaling-stroke;" /></g><g style="fill: #fd7f7f;stroke: #fd7f7f;stroke-width: 0.945;" transform="matrix(1.0, 0.0, 0.0, 1.0, 0.03125, 0.0)"><path d="M 0.0 0.0 L 0.03125 0.0 L 0.03125 0.03125 L 0.0 0.03125 L 0.0 0.0 Z" style="vector-effect: non-scaling-stroke;" /></g></g><g transform="matrix(1.0, 0.0, 0.0, 1.0, 0.0, 0.03125)"><g><g style="fill: #7f80ff;stroke: #7f80ff;stroke-width: 0.945;" transform="matrix(1.0, 0.0, 0.0, 1.0, 0.0, 0.0)"><path d="M 0.0 0.0 L 0.03125 0.0 L 0.03125 0.03125 L 0.0 0.03125 L 0.0 0.0 Z" style="vector-effect: non-scaling-stroke;" /></g><g style="fill: #fd7f7f;stroke: #fd7f7f;stroke-width: 0.945;" transform="matrix(1.0, 0.0, 0.0, 1.0, 0.03125, 0.0)"><path d="M 0.0 0.0 L 0.03125 0.0 L 0.03125 0.03125 L 0.0 0.03125 L 0.0 0.0 Z" style="vector-effect: non-scaling-stroke;" /></g></g></g></g><g style="fill: #fd7f7f;stroke: #fd7f7f;stroke-width: 0.945;" transform="matrix(1.0, 0.0, 0.0, 1.0, 0.0625, 0.0)"><path d="M 0.0 0.0 L 0.0625 0.0 L 0.0625 0.0625 L 0.0 0.0625 L 0.0 0.0 Z" style="vector-effect: non-scaling-stroke;" /></g></g></g></g></g></g></g></g></g></g></g></g></g></g></g></g></g><g><g style="stroke: black;stroke-width: 1.89;" transform="matrix(1.0, 0.0, 0.0, 1.0, 0.0, -1.0)"><path d="M 0.0 0.0 L 0.0 1.0" style="vector-effect: non-scaling-stroke;fill:none;" /></g><g style="stroke: black;stroke-width: 1.89;" transform="matrix(1.0, 0.0, 0.0, 1.0, 0.0, 0.0)"><path d="M 0.0 0.0 L 1.0 0.0" style="vector-effect: non-scaling-stroke;fill:none;" /></g></g></g><g><g><g /><g><g><g><g><g><g><g /><g style="fill: #69bac9;stroke: black;stroke-width: 1.89;" transform="matrix(0.025, 0.0, 0.0, 0.025, 0.6858614854745947, -0.6618463200523511)"><path d="M 2.0 -0.0 A 2.0 2.0 0.0 0 0 0.0 -2.0 A 2.0 2.0 -90.0 0 0 -2.0 0.0 A 2.0 2.0 180.0 0 0 0.0 2.0 A 2.0 2.0 90.0 0 0 2.0 0.0 Z M 1.0 -0.0 A 1.0 1.0 0.0 0 1 0.0 1.0 A 1.0 1.0 90.0 0 1 -1.0 0.0 A 1.0 1.0 180.0 0 1 0.0 -1.0 A 1.0 1.0 -90.0 0 1 1.0 0.0 Z" style="vector-effect: non-scaling-stroke;" /></g></g><g style="fill: #69bac9;stroke: black;stroke-width: 1.89;" transform="matrix(0.025, 0.0, 0.0, 0.025, 0.613326820546709, -0.0442606328646209)"><path d="M 2.0 -0.0 A 2.0 2.0 0.0 0 0 0.0 -2.0 A 2.0 2.0 -90.0 0 0 -2.0 0.0 A 2.0 2.0 180.0 0 0 0.0 2.0 A 2.0 2.0 90.0 0 0 2.0 0.0 Z M 1.0 -0.0 A 1.0 1.0 0.0 0 1 0.0 1.0 A 1.0 1.0 90.0 0 1 -1.0 0.0 A 1.0 1.0 180.0 0 1 0.0 -1.0 A 1.0 1.0 -90.0 0 1 1.0 0.0 Z" style="vector-effect: non-scaling-stroke;" /></g></g><g style="fill: #69bac9;stroke: black;stroke-width: 1.89;" transform="matrix(0.025, 0.0, 0.0, 0.025, 0.3661456016604264, -0.8981962445391883)"><path d="M 2.0 -0.0 A 2.0 2.0 0.0 0 0 0.0 -2.0 A 2.0 2.0 -90.0 0 0 -2.0 0.0 A 2.0 2.0 180.0 0 0 0.0 2.0 A 2.0 2.0 90.0 0 0 2.0 0.0 Z M 1.0 -0.0 A 1.0 1.0 0.0 0 1 0.0 1.0 A 1.0 1.0 90.0 0 1 -1.0 0.0 A 1.0 1.0 180.0 0 1 0.0 -1.0 A 1.0 1.0 -90.0 0 1 1.0 0.0 Z" style="vector-effect: non-scaling-stroke;" /></g></g><g style="fill: #69bac9;stroke: black;stroke-width: 1.89;" transform="matrix(0.025, 0.0, 0.0, 0.025, 0.31436380495645067, -0.5489821840124055)"><path d="M 2.0 -0.0 A 2.0 2.0 0.0 0 0 0.0 -2.0 A 2.0 2.0 -90.0 0 0 -2.0 0.0 A 2.0 2.0 180.0 0 0 0.0 2.0 A 2.0 2.0 90.0 0 0 2.0 0.0 Z M 1.0 -0.0 A 1.0 1.0 0.0 0 1 0.0 1.0 A 1.0 1.0 90.0 0 1 -1.0 0.0 A 1.0 1.0 180.0 0 1 0.0 -1.0 A 1.0 1.0 -90.0 0 1 1.0 0.0 Z" style="vector-effect: non-scaling-stroke;" /></g></g><g style="fill: #69bac9;stroke: black;stroke-width: 1.89;" transform="matrix(0.025, 0.0, 0.0, 0.025, 0.43603095762412225, -0.06499417612685054)"><path d="M 2.0 -0.0 A 2.0 2.0 0.0 0 0 0.0 -2.0 A 2.0 2.0 -90.0 0 0 -2.0 0.0 A 2.0 2.0 180.0 0 0 0.0 2.0 A 2.0 2.0 90.0 0 0 2.0 0.0 Z M 1.0 -0.0 A 1.0 1.0 0.0 0 1 0.0 1.0 A 1.0 1.0 90.0 0 1 -1.0 0.0 A 1.0 1.0 180.0 0 1 0.0 -1.0 A 1.0 1.0 -90.0 0 1 1.0 0.0 Z" style="vector-effect: non-scaling-stroke;" /></g></g><g style="fill: #69bac9;stroke: black;stroke-width: 1.89;" transform="matrix(0.025, 0.0, 0.0, 0.025, 0.5845462257019302, -0.8440678976619022)"><path d="M 2.0 -0.0 A 2.0 2.0 0.0 0 0 0.0 -2.0 A 2.0 2.0 -90.0 0 0 -2.0 0.0 A 2.0 2.0 180.0 0 0 0.0 2.0 A 2.0 2.0 90.0 0 0 2.0 0.0 Z M 1.0 -0.0 A 1.0 1.0 0.0 0 1 0.0 1.0 A 1.0 1.0 90.0 0 1 -1.0 0.0 A 1.0 1.0 180.0 0 1 0.0 -1.0 A 1.0 1.0 -90.0 0 1 1.0 0.0 Z" style="vector-effect: non-scaling-stroke;" /></g></g></g><g><g><g><g><g /><g style="fill: #ff0000;stroke: black;stroke-width: 1.89;" transform="matrix(0.024999999999999998, -0.02499999999999999, 0.02499999999999999, 0.024999999999999998, 0.08297814471221282, -0.7928378139439906)"><path d="M 0.0 0.0 L 1.0 0.0 L 1.0 1.0 L 2.0 1.0 L 2.0 2.0 L 1.0 2.0 L 1.0 3.0 L 0.0 3.0 L 0.0 2.0 L -1.0 2.0 L -1.0 1.0 L 0.0 1.0 L 0.0 0.0 Z" style="vector-effect: non-scaling-stroke;" /></g></g><g style="fill: #ff0000;stroke: black;stroke-width: 1.89;" transform="matrix(0.024999999999999998, -0.02499999999999999, 0.02499999999999999, 0.024999999999999998, 0.9324132490111908, -0.9943881604049188)"><path d="M 0.0 0.0 L 1.0 0.0 L 1.0 1.0 L 2.0 1.0 L 2.0 2.0 L 1.0 2.0 L 1.0 3.0 L 0.0 3.0 L 0.0 2.0 L -1.0 2.0 L -1.0 1.0 L 0.0 1.0 L 0.0 0.0 Z" style="vector-effect: non-scaling-stroke;" /></g></g><g style="fill: #ff0000;stroke: black;stroke-width: 1.89;" transform="matrix(0.024999999999999998, -0.02499999999999999, 0.02499999999999999, 0.024999999999999998, -0.04594485584159253, -0.15897252704913387)"><path d="M 0.0 0.0 L 1.0 0.0 L 1.0 1.0 L 2.0 1.0 L 2.0 2.0 L 1.0 2.0 L 1.0 3.0 L 0.0 3.0 L 0.0 2.0 L -1.0 2.0 L -1.0 1.0 L 0.0 1.0 L 0.0 0.0 Z" style="vector-effect: non-scaling-stroke;" /></g></g><g style="fill: #ff0000;stroke: black;stroke-width: 1.89;" transform="matrix(0.024999999999999998, -0.02499999999999999, 0.02499999999999999, 0.024999999999999998, 0.891002271395834, -0.3278605620290723)"><path d="M 0.0 0.0 L 1.0 0.0 L 1.0 1.0 L 2.0 1.0 L 2.0 2.0 L 1.0 2.0 L 1.0 3.0 L 0.0 3.0 L 0.0 2.0 L -1.0 2.0 L -1.0 1.0 L 0.0 1.0 L 0.0 0.0 Z" style="vector-effect: non-scaling-stroke;" /></g></g></g></g></g><g /></g></g></g></g></svg>