<?xml version="1.0" encoding="utf-8" ?>
<svg baseProfile="full" height="300" version="1.1" width="300" xmlns="http://www.w3.org/2000/svg" xmlns:ev="http://www.w3.org/2001/xml-events" xmlns:xlink="http://www.w3.org/1999/xlink"><defs><marker id="arrow" markerHeight="3.5" markerWidth="5" orient="auto" refX="5.0" refY="1.7"><polygon points="0,0 5,1.75 0,3.5" /></marker></defs><g style="fill:white;"><g transform="matrix(1.0, 0.0, 0.0, 1.0, 150.0, 150.0)"><g transform="matrix(285.7142857142857, 0.0, 0.0, 285.7142857142857, 0.0, 0.0)"><g><g transform="matrix(1.0, 0.0, 0.0, 1.0, -0.5, 0.5)"><g><g><g><g transform="matrix(1.0, 0.0, 0.0, -1.0, 0.0, 0.0)"><g><g><g style="fill: #7f80ff;stroke: #7f80ff;stroke-width: 0.9;" transform="matrix(1.0, 0.0, 0.0, 1.0, 0.0, 0.0)"><path d="M 0.0 0.0 L 0.5 0.0 L 0.5 0.5 L 0.0 0.5 L 0.0 0.0 Z" style="vector-effect: non-scaling-stroke;" /></g><g style="fill: #7f80ff;stroke: #7f80ff;stroke-width: 0.9;" transform="matrix(1.0, 0.0, 0.0, 1.0, 0.5, 0.0)"><path d="M 0.0 0.0 L 0.5 0.0 L 0.5 0.5 L 0.0 0.5 L 0.0 0.0 Z" style="vector-effect: non-scaling-stroke;" /></g></g><g transform="matrix(1.0, 0.0, 0.0, 1.0, 0.0, 0.5)"><g><g style="fill: #7f80ff;stroke: #7f80ff;stroke-width: 0.9;" transform="matrix(1.0, 0.0, 0.0, 1.0, 0.0, 0.0)"><path d="M 0.0 0.0 L 0.5 0.0 L 0.5 0.5 L 0.0 0.5 L 0.0 0.0 Z" style="vector-effect: non-scaling-stroke;" /></g><g transform="matrix(1.0, 0.0, 0.0, 1.0, 0.5, 0.0)"><g><g><g style="fill: #7f80ff;stroke: #7f80ff;stroke-width: 0.9;" transform="matrix(1.0, 0.0, 0.0, 1.0, 0.0, 0.0)"><path d="M 0.0 0.0 L 0.25 0.0 L 0.25 0.25 L 0.0 0.25 L 0.0 0.0 Z" style="vector-effect: non-scaling-stroke;" /></g><g transform="matrix(1.0, 0.0, 0.0, 1.0, 0.25, 0.0)"><g><g><g style="fill: #7f80ff;stroke: #7f80ff;stroke-width: 0.9;" transform="matrix(1.0, 0.0, 0.0, 1.0, 0.0, 0.0)"><path d="M 0.0 0.0 L 0.125 0.0 L 0.125 0.125 L 0.0 0.125 L 0.0 0.0 Z" style="vector-effect: non-scaling-stroke;" /></g><g transform="matrix(1.0, 0.0, 0.0, 1.0, 0.125, 0.0)"><g><g><g style="fill: #7f80ff;stroke: #7f80ff;stroke-width: 0.9;" transform="matrix(1.0, 0.0, 0.0, 1.0, 0.0, 0.0)"><path d="M 0.0 0.0 L 0.0625 0.0 L 0.0625 0.0625 L 0.0 0.0625 L 0.0 0.0 Z" style="vector-effect: non-scaling-stroke;" /></g><g transform="matrix(1.0, 0.0, 0.0, 1.0, 0.0625, 0.0)"><g><g><g style="fill: #7f80ff;stroke: #7f80ff;stroke-width: 0.9;" transform="matrix(1.0, 0.0, 0.0, 1.0, 0.0, 0.0)"><path d="M 0.0 0.0 L 0.03125 0.0 L 0.03125 0.03125 L 0.0 0.03125 L 0.0 0.0 Z" style="vector-effect: non-scaling-stroke;" /></g><g style="fill: #7f80ff;stroke: #7f80ff;stroke-width: 0.9;" transform="matrix(1.0, 0.0, 0.0, 1.0, 0.03125, 0.0)"><path d="M 0.0 0.0 L 0.03125 0.0 L 0.03125 0.03125 L 0.0 0.03125 L 0.0 0.0 Z" style="vector-effect: non-scaling-stroke;" /></g></g><g transform="matrix(1.0, 0.0, 0.0, 1.0, 0.0, 0.03125)"><g><g style="fill: #7f80ff;stroke: #7f80ff;stroke-width: 0.9;" transform="matrix(1.0, 0.0, 0.0, 1.0, 0.0, 0.0)"><path d="M 0.0 0.0 L 0.03125 0.0 L 0.03125 0.03125 L 0.0 0.03125 L 0.0 0.0 Z" style="vector-effect: non-scaling-stroke;" /></g><g style="fill: #7f80ff;stroke: #7f80ff;stroke-width: 0.9;" transform="matrix(1.0, 0.0, 0.0, 1.0, 0.03125, 0.0)"><path d="M 0.0 0.0 L 0.03125 0.0 L 0.03125 0.03125 L 0.0 0.03125 L 0.0 0.0 Z" style="vector-effect: non-scaling-stroke;" /></g></g></g></g></g></g><g transform="matrix(1.0, 0.0, 0.0, 1.0, 0.0, 0.0625)"><g><g><g><g style="fill: #7f80ff;stroke: #7f80ff;stroke-width: 0.9;" transform="matrix(1.0, 0.0, 0.0, 1.0, 0.0, 0.0)"><path d="M 0.0 0.0 L 0.03125 0.0 L 0.03125 0.03125 L 0.0 0.03125 L 0.0 0.0 Z" style="vector-effect: non-scaling-stroke;" /></g><g style="fill: #7f80ff;stroke: #7f80ff;stroke-width: 0.9;" transform="matrix(1.0, 0.0, 0.0, 1.0, 0.03125, 0.0)"><path d="M 0.0 0.0 L 0.03125 0.0 L 0.03125 0.03125 L 0.0 0.03125 L 0.0 0.0 Z" style="vector-effect: non-scaling-stroke;" /></g></g><g transform="matrix(1.0, 0.0, 0.0, 1.0, 0.0, 0.03125)"><g><g style="fill: #7f80ff;stroke: #7f80ff;stroke-width: 0.9;" transform="matrix(1.0, 0.0, 0.0, 1.0, 0.0, 0.0)"><path d="M 0.0 0.0 L 0.03125 0.0 L 0.03125 0.03125 L 0.0 0.03125 L 0.0 0.0 Z" style="vector-effect: non-scaling-stroke;" /></g><g style="fill: #7f80ff;stroke: #7f80ff;stroke-width: 0.9;" transform="matrix(1.0, 0.0, 0.0, 1.0, 0.03125, 0.0)"><path d="M 0.0 0.0 L 0.03125 0.0 L 0.03125 0.03125 L 0.0 0.03125 L 0.0 0.0 Z" style="vector-effect: non-scaling-stroke;" /></g></g></g></g><g transform="matrix(1.0, 0.0, 0.0, 1.0, 0.0625, 0.0)"><g><g><g style="fill: #7f80ff;stroke: #7f80ff;stroke-width: 0.9;" transform="matrix(1.0, 0.0, 0.0, 1.0, 0.0, 0.0)"><path d="M 0.0 0.0 L 0.03125 0.0 L 0.03125 0.03125 L 0.0 0.03125 L 0.0 0.0 Z" style="vector-effect: non-scaling-stroke;" /></g><g style="fill: #fd7f7f;stroke: #fd7f7f;stroke-width: 0.9;" transform="matrix(1.0, 0.0, 0.0, 1.0, 0.03125, 0.0)"><path d="M 0.0 0.0 L 0.03125 0.0 L 0.03125 0.03125 L 0.0 0.03125 L 0.0 0.0 Z" style="vector-effect: non-scaling-stroke;" /></g></g><g transform="matrix(1.0, 0.0, 0.0, 1.0, 0.0, 0.03125)"><g><g style="fill: #fd7f7f;stroke: #fd7f7f;stroke-width: 0.9;" transform="matrix(1.0, 0.0, 0.0, 1.0, 0.0, 0.0)"><path d="M 0.0 0.0 L 0.03125 0.0 L 0.03125 0.03125 L 0.0 0.03125 L 0.0 0.0 Z" style="vector-effect: non-scaling-stroke;" /></g><g style="fill: #fd7f7f;stroke: #fd7f7f;stroke-width: 0.9;" transform="matrix(1.0, 0.0, 0.0, 1.0, 0.03125, 0.0)"><path d="M 0.0 0.0 L 0.03125 0.0 L 0.03125 0.03125 L 0.0 0.03125 L 0.0 0.0 Z" style="vector-effect: non-scaling-stroke;" /></g></g></g></g></g></g></g></g></g></g><g transform="matrix(1.0, 0.0, 0.0, 1.0, 0.0, 0.125)"><g><g><g><g style="fill: #7f80ff;stroke: #7f80ff;stroke-width: 0.9;" transform="matrix(1.0, 0.0, 0.0, 1.0, 0.0, 0.0)"><path d="M 0.0 0.0 L 0.0625 0.0 L 0.0625 0.0625 L 0.0 0.0625 L 0.0 0.0 Z" style="vector-effect: non-scaling-stroke;" /></g><g transform="matrix(1.0, 0.0, 0.0, 1.0, 0.0625, 0.0)"><g><g><g style="fill: #7f80ff;stroke: #7f80ff;stroke-width: 0.9;" transform="matrix(1.0, 0.0, 0.0, 1.0, 0.0, 0.0)"><path d="M 0.0 0.0 L 0.03125 0.0 L 0.03125 0.03125 L 0.0 0.03125 L 0.0 0.0 Z" style="vector-effect: non-scaling-stroke;" /></g><g style="fill: #7f80ff;stroke: #7f80ff;stroke-width: 0.9;" transform="matrix(1.0, 0.0, 0.0, 1.0, 0.03125, 0.0)"><path d="M 0.0 0.0 L 0.03125 0.0 L 0.03125 0.03125 L 0.0 0.03125 L 0.0 0.0 Z" style="vector-effect: non-scaling-stroke;" /></g></g><g transform="matrix(1.0, 0.0, 0.0, 1.0, 0.0, 0.03125)"><g><g style="fill: #7f80ff;stroke: #7f80ff;stroke-width: 0.9;" transform="matrix(1.0, 0.0, 0.0, 1.0, 0.0, 0.0)"><path d="M 0.0 0.0 L 0.03125 0.0 L 0.03125 0.03125 L 0.0 0.03125 L 0.0 0.0 Z" style="vector-effect: non-scaling-stroke;" /></g><g style="fill: #7f80ff;stroke: #7f80ff;stroke-width: 0.9;" transform="matrix(1.0, 0.0, 0.0, 1.0, 0.03125, 0.0)"><path d="M 0.0 0.0 L 0.03125 0.0 L 0.03125 0.03125 L 0.0 0.03125 L 0.0 0.0 Z" style="vector-effect: non-scaling-stroke;" /></g></g></g></g></g></g><g transform="matrix(1.0, 0.0, 0.0, 1.0, 0.0, 0.0625)"><g><g><g><g style="fill: #7f80ff;stroke: #7f80ff;stroke-width: 0.9;" transform="matrix(1.0, 0.0, 0.0, 1.0, 0.0, 0.0)"><path d="M 0.0 0.0 L 0.03125 0.0 L 0.03125 0.03125 L 0.0 0.03125 L 0.0 0.0 Z" style="vector-effect: non-scaling-stroke;" /></g><g style="fill: #7f80ff;stroke: #7f80ff;stroke-width: 0.9;" transform="matrix(1.0, 0.0, 0.0, 1.0, 0.03125, 0.0)"><path d="M 0.0 0.0 L 0.03125 0.0 L 0.03125 0.03125 L 0.0 0.03125 L 0.0 0.0 Z" style="vector-effect: non-scaling-stroke;" /></g></g><g transform="matrix(1.0, 0.0, 0.0, 1.0, 0.0, 0.03125)"><g><g style="fill: #7f80ff;stroke: #7f80ff;stroke-width: 0.9;" transform="matrix(1.0, 0.0, 0.0, 1.0, 0.0, 0.0)"><path d="M 0.0 0.0 L 0.03125 0.0 L 0.03125 0.03125 L 0.0 0.03125 L 0.0 0.0 Z" style="vector-effect: non-scaling-stroke;" /></g><g style="fill: #7f80ff;stroke: #7f80ff;stroke-width: 0.9;" transform="matrix(1.0, 0.0, 0.0, 1.0, 0.03125, 0.0)"><path d="M 0.0 0.0 L 0.03125 0.0 L 0.03125 0.03125 L 0.0 0.03125 L 0.0 0.0 Z" style="vector-effect: non-scaling-stroke;" /></g></g></g></g><g transform="matrix(1.0, 0.0, 0.0, 1.0, 0.0625, 0.0)"><g><g><g style="fill: #7f80ff;stroke: #7f80ff;stroke-width: 0.9;" transform="matrix(1.0, 0.0, 0.0, 1.0, 0.0, 0.0)"><path d="M 0.0 0.0 L 0.03125 0.0 L 0.03125 0.03125 L 0.0 0.03125 L 0.0 0.0 Z" style="vector-effect: non-scaling-stroke;" /></g><g style="fill: #fd7f7f;stroke: #fd7f7f;stroke-width: 0.9;" transform="matrix(1.0, 0.0, 0.0, 1.0, 0.03125, 0.0)"><path d="M 0.0 0.0 L 0.03125 0.0 L 0.03125 0.03125 L 0.0 0.03125 L 0.0 0.0 Z" style="vector-effect: non-scaling-stroke;" /></g></g><g transform="matrix(1.0, 0.0, 0.0, 1.0, 0.0, 0.03125)"><g><g style="fill: #fd7f7f;stroke: #fd7f7f;stroke-width: 0.9;" transform="matrix(1.0, 0.0, 0.0, 1.0, 0.0, 0.0)"><path d="M 0.0 0.0 L 0.03125 0.0 L 0.03125 0.03125 L 0.0 0.03125 L 0.0 0.0 Z" style="vector-effect: non-scaling-stroke;" /></g><g style="fill: #fd7f7f;stroke: #fd7f7f;stroke-width: 0.9;" transform="matrix(1.0, 0.0, 0.0, 1.0, 0.03125, 0.0)"><path d="M 0.0 0.0 L 0.03125 0.0 L 0.03125 0.03125 L 0.0 0.03125 L 0.0 0.0 Z" style="vector-effect: non-scaling-stroke;" /></g></g></g></g></g></g></g></g><g transform="matrix(1.0, 0.0, 0.0, 1.0, 0.125, 0.0)"><g><g><g><g><g style="fill: #7f80ff;stroke: #7f80ff;stroke-width: 0.9;" transform="matrix(1.0, 0.0, 0.0, 1.0, 0.0, 0.0)"><path d="M 0.0 0.0 L 0.03125 0.0 L 0.03125 0.03125 L 0.0 0.03125 L 0.0 0.0 Z" style="vector-effect: non-scaling-stroke;" /></g><g style="fill: #fd7f7f;stroke: #fd7f7f;stroke-width: 0.9;" transform="matrix(1.0, 0.0, 0.0, 1.0, 0.03125, 0.0)"><path d="M 0.0 0.0 L 0.03125 0.0 L 0.03125 0.03125 L 0.0 0.03125 L 0.0 0.0 Z" style="vector-effect: non-scaling-stroke;" /></g></g><g transform="matrix(1.0, 0.0, 0.0, 1.0, 0.0, 0.03125)"><g><g style="fill: #fd7f7f;stroke: #fd7f7f;stroke-width: 0.9;" transform="matrix(1.0, 0.0, 0.0, 1.0, 0.0, 0.0)"><path d="M 0.0 0.0 L 0.03125 0.0 L 0.03125 0.03125 L 0.0 0.03125 L 0.0 0.0 Z" style="vector-effect: non-scaling-stroke;" /></g><g style="fill: #fd7f7f;stroke: #fd7f7f;stroke-width: 0.9;" transform="matrix(1.0, 0.0, 0.0, 1.0, 0.03125, 0.0)"><path d="M 0.0 0.0 L 0.03125 0.0 L 0.03125 0.03125 L 0.0 0.03125 L 0.0 0.0 Z" style="vector-effect: non-scaling-stroke;" /></g></g></g></g><g style="fill: #fd7f7f;stroke: #fd7f7f;stroke-width: 0.9;" transform="matrix(1.0, 0.0, 0.0, 1.0, 0.0625, 0.0)"><path d="M 0.0 0.0 L 0.0625 0.0 L 0.0625 0.0625 L 0.0 0.0625 L 0.0 0.0 Z" style="vector-effect: non-scaling-stroke;" /></g></g><g transform="matrix(1.0, 0.0, 0.0, 1.0, 0.0, 0.0625)"><g><g style="fill: #fd7f7f;stroke: #fd7f7f;stroke-width: 0.9;" transform="matrix(1.0, 0.0, 0.0, 1.0, 0.0, 0.0)"><path d="M 0.0 0.0 L 0.0625 0.0 L 0.0625 0.0625 L 0.0 0.0625 L 0.0 0.0 Z" style="vector-effect: non-scaling-stroke;" /></g><g style="fill: #fd7f7f;stroke: #fd7f7f;stroke-width: 0.9;" transform="matrix(1.0, 0.0, 0.0, 1.0, 0.0625, 0.0)"><path d="M 0.0 0.0 L 0.0625 0.0 L 0.0625 0.0625 L 0.0 0.0625 L 0.0 0.0 Z" style="vector-effect: non-scaling-stroke;" /></g></g></g></g></g></g></g></g></g></g><g transform="matrix(1.0, 0.0, 0.0, 1.0, 0.0, 0.25)"><g><g><g><g style="fill: #7f80ff;stroke: #7f80ff;stroke-width: 0.9;" transform="matrix(1.0, 0.0, 0.0, 1.0, 0.0, 0.0)"><path d="M 0.0 0.0 L 0.125 0.0 L 0.125 0.125 L 0.0 0.125 L 0.0 0.0 Z" style="vector-effect: non-scaling-stroke;" /></g><g transform="matrix(1.0, 0.0, 0.0, 1.0, 0.125, 0.0)"><g><g><g style="fill: #7f80ff;stroke: #7f80ff;stroke-width: 0.9;" transform="matrix(1.0, 0.0, 0.0, 1.0, 0.0, 0.0)"><path d="M 0.0 0.0 L 0.0625 0.0 L 0.0625 0.0625 L 0.0 0.0625 L 0.0 0.0 Z" style="vector-effect: non-scaling-stroke;" /></g><g transform="matrix(1.0, 0.0, 0.0, 1.0, 0.0625, 0.0)"><g><g><g style="fill: #7f80ff;stroke: #7f80ff;stroke-width: 0.9;" transform="matrix(1.0, 0.0, 0.0, 1.0, 0.0, 0.0)"><path d="M 0.0 0.0 L 0.03125 0.0 L 0.03125 0.03125 L 0.0 0.03125 L 0.0 0.0 Z" style="vector-effect: non-scaling-stroke;" /></g><g style="fill: #7f80ff;stroke: #7f80ff;stroke-width: 0.9;" transform="matrix(1.0, 0.0, 0.0, 1.0, 0.03125, 0.0)"><path d="M 0.0 0.0 L 0.03125 0.0 L 0.03125 0.03125 L 0.0 0.03125 L 0.0 0.0 Z" style="vector-effect: non-scaling-stroke;" /></g></g><g transform="matrix(1.0, 0.0, 0.0, 1.0, 0.0, 0.03125)"><g><g style="fill: #7f80ff;stroke: #7f80ff;stroke-width: 0.9;" transform="matrix(1.0, 0.0, 0.0, 1.0, 0.0, 0.0)"><path d="M 0.0 0.0 L 0.03125 0.0 L 0.03125 0.03125 L 0.0 0.03125 L 0.0 0.0 Z" style="vector-effect: non-scaling-stroke;" /></g><g style="fill: #7f80ff;stroke: #7f80ff;stroke-width: 0.9;" transform="matrix(1.0, 0.0, 0.0, 1.0, 0.03125, 0.0)"><path d="M 0.0 0.0 L 0.03125 0.0 L 0.03125 0.03125 L 0.0 0.03125 L 0.0 0.0 Z" style="vector-effect: non-scaling-stroke;" /></g></g></g></g></g></g><g transform="matrix(1.0, 0.0, 0.0, 1.0, 0.0, 0.0625)"><g><g><g><g style="fill: #7f80ff;stroke: #7f80ff;stroke-width: 0.9;" transform="matrix(1.0, 0.0, 0.0, 1.0, 0.0, 0.0)"><path d="M 0.0 0.0 L 0.03125 0.0 L 0.03125 0.03125 L 0.0 0.03125 L 0.0 0.0 Z" style="vector-effect: non-scaling-stroke;" /></g><g style="fill: #7f80ff;stroke: #7f80ff;stroke-width: 0.9;" transform="matrix(1.0, 0.0, 0.0, 1.0, 0.03125, 0.0)"><path d="M 0.0 0.0 L 0.03125 0.0 L 0.03125 0.03125 L 0.0 0.03125 L 0.0 0.0 Z" style="vector-effect: non-scaling-stroke;" /></g></g><g transform="matrix(1.0, 0.0, 0.0, 1.0, 0.0, 0.03125)"><g><g style="fill: #7f80ff;stroke: #7f80ff;stroke-width: 0.9;" transform="matrix(1.0, 0.0, 0.0, 1.0, 0.0, 0.0)"><path d="M 0.0 0.0 L 0.03125 0.0 L 0.03125 0.03125 L 0.0 0.03125 L 0.0 0.0 Z" style="vector-effect: non-scaling-stroke;" /></g><g style="fill: #7f80ff;stroke: #7f80ff;stroke-width: 0.9;" transform="matrix(1.0, 0.0, 0.0, 1.0, 0.03125, 0.0)"><path d="M 0.0 0.0 L 0.03125 0.0 L 0.03125 0.03125 L 0.0 0.03125 L 0.0 0.0 Z" style="vector-effect: non-scaling-stroke;" /></g></g></g></g><g transform="matrix(1.0, 0.0, 0.0, 1.0, 0.0625, 0.0)"><g><g><g style="fill: #7f80ff;stroke: #7f80ff;stroke-width: 0.9;" transform="matrix(1.0, 0.0, 0.0, 1.0, 0.0, 0.0)"><path d="M 0.0 0.0 L 0.03125 0.0 L 0.03125 0.03125 L 0.0 0.03125 L 0.0 0.0 Z" style="vector-effect: non-scaling-stroke;" /></g><g style="fill: #fd7f7f;stroke: #fd7f7f;stroke-width: 0.9;" transform="matrix(1.0, 0.0, 0.0, 1.0, 0.03125, 0.0)"><path d="M 0.0 0.0 L 0.03125 0.0 L 0.03125 0.03125 L 0.0 0.03125 L 0.0 0.0 Z" style="vector-effect: non-scaling-stroke;" /></g></g><g transform="matrix(1.0, 0.0, 0.0, 1.0, 0.0, 0.03125)"><g><g style="fill: #fd7f7f;stroke: #fd7f7f;stroke-width: 0.9;" transform="matrix(1.0, 0.0, 0.0, 1.0, 0.0, 0.0)"><path d="M 0.0 0.0 L 0.03125 0.0 L 0.03125 0.03125 L 0.0 0.03125 L 0.0 0.0 Z" style="vector-effect: non-scaling-stroke;" /></g><g style="fill: #fd7f7f;stroke: #fd7f7f;stroke-width: 0.9;" transform="matrix(1.0, 0.0, 0.0, 1.0, 0.03125, 0.0)"><path d="M 0.0 0.0 L 0.03125 0.0 L 0.03125 0.03125 L 0.0 0.03125 L 0.0 0.0 Z" style="vector-effect: non-scaling-stroke;" /></g></g></g></g></g></g></g></g></g></g><g transform="matrix(1.0, 0.0, 0.0, 1.0, 0.0, 0.125)"><g><g><g><g style="fill: #7f80ff;stroke: #7f80ff;stroke-width: 0.9;" transform="matrix(1.0, 0.0, 0.0, 1.0, 0.0, 0.0)"><path d="M 0.0 0.0 L 0.0625 0.0 L 0.0625 0.0625 L 0.0 0.0625 L 0.0 0.0 Z" style="vector-effect: non-scaling-stroke;" /></g><g transform="matrix(1.0, 0.0, 0.0, 1.0, 0.0625, 0.0)"><g><g><g style="fill: #7f80ff;stroke: #7f80ff;stroke-width: 0.9;" transform="matrix(1.0, 0.0, 0.0, 1.0, 0.0, 0.0)"><path d="M 0.0 0.0 L 0.03125 0.0 L 0.03125 0.03125 L 0.0 0.03125 L 0.0 0.0 Z" style="vector-effect: non-scaling-stroke;" /></g><g style="fill: #7f80ff;stroke: #7f80ff;stroke-width: 0.9;" transform="matrix(1.0, 0.0, 0.0, 1.0, 0.03125, 0.0)"><path d="M 0.0 0.0 L 0.03125 0.0 L 0.03125 0.03125 L 0.0 0.03125 L 0.0 0.0 Z" style="vector-effect: non-scaling-stroke;" /></g></g><g transform="matrix(1.0, 0.0, 0.0, 1.0, 0.0, 0.03125)"><g><g style="fill: #7f80ff;stroke: #7f80ff;stroke-width: 0.9;" transform="matrix(1.0, 0.0, 0.0, 1.0, 0.0, 0.0)"><path d="M 0.0 0.0 L 0.03125 0.0 L 0.03125 0.03125 L 0.0 0.03125 L 0.0 0.0 Z" style="vector-effect: non-scaling-stroke;" /></g><g style="fill: #7f80ff;stroke: #7f80ff;stroke-width: 0.9;" transform="matrix(1.0, 0.0, 0.0, 1.0, 0.03125, 0.0)"><path d="M 0.0 0.0 L 0.03125 0.0 L 0.03125 0.03125 L 0.0 0.03125 L 0.0 0.0 Z" style="vector-effect: non-scaling-stroke;" /></g></g></g></g></g></g><g transform="matrix(1.0, 0.0, 0.0, 1.0, 0.0, 0.0625)"><g><g><g><g style="fill: #7f80ff;stroke: #7f80ff;stroke-width: 0.9;" transform="matrix(1.0, 0.0, 0.0, 1.0, 0.0, 0.0)"><path d="M 0.0 0.0 L 0.03125 0.0 L 0.03125 0.03125 L 0.0 0.03125 L 0.0 0.0 Z" style="vector-effect: non-scaling-stroke;" /></g><g style="fill: #7f80ff;stroke: #7f80ff;stroke-width: 0.9;" transform="matrix(1.0, 0.0, 0.0, 1.0, 0.03125, 0.0)"><path d="M 0.0 0.0 L 0.03125 0.0 L 0.03125 0.03125 L 0.0 0.03125 L 0.0 0.0 Z" style="vector-effect: non-scaling-stroke;" /></g></g><g transform="matrix(1.0, 0.0, 0.0, 1.0, 0.0, 0.03125)"><g><g style="fill: #7f80ff;stroke: #7f80ff;stroke-width: 0.9;" transform="matrix(1.0, 0.0, 0.0, 1.0, 0.0, 0.0)"><path d="M 0.0 0.0 L 0.03125 0.0 L 0.03125 0.03125 L 0.0 0.03125 L 0.0 0.0 Z" style="vector-effect: non-scaling-stroke;" /></g><g style="fill: #7f80ff;stroke: #7f80ff;stroke-width: 0.9;" transform="matrix(1.0, 0.0, 0.0, 1.0, 0.03125, 0.0)"><path d="M 0.0 0.0 L 0.03125 0.0 L 0.03125 0.03125 L 0.0 0.03125 L 0.0 0.0 Z" style="vector-effect: non-scaling-stroke;" /></g></g></g></g><g transform="matrix(1.0, 0.0, 0.0, 1.0, 0.0625, 0.0)"><g><g><g style="fill: #7f80ff;stroke: #7f80ff;stroke-width: 0.9;" transform="matrix(1.0, 0.0, 0.0, 1.0, 0.0, 0.0)"><path d="M 0.0 0.0 L 0.03125 0.0 L 0.03125 0.03125 L 0.0 0.03125 L 0.0 0.0 Z" style="vector-effect: non-scaling-stroke;" /></g><g style="fill: #fd7f7f;stroke: #fd7f7f;stroke-width: 0.9;" transform="matrix(1.0, 0.0, 0.0, 1.0, 0.03125, 0.0)"><path d="M 0.0 0.0 L 0.03125 0.0 L 0.03125 0.03125 L 0.0 0.03125 L 0.0 0.0 Z" style="vector-effect: non-scaling-stroke;" /></g></g><g transform="matrix(1.0, 0.0, 0.0, 1.0, 0.0, 0.03125)"><g><g style="fill: #fd7f7f;stroke: #fd7f7f;stroke-width: 0.9;" transform="matrix(1.0, 0.0, 0.0, 1.0, 0.0, 0.0)"><path d="M 0.0 0.0 L 0.03125 0.0 L 0.03125 0.03125 L 0.0 0.03125 L 0.0 0.0 Z" style="vector-effect: non-scaling-stroke;" /></g><g style="fill: #fd7f7f;stroke: #fd7f7f;stroke-width: 0.9;" transform="matrix(1.0, 0.0, 0.0, 1.0, 0.03125, 0.0)"><path d="M 0.0 0.0 L 0.03125 0.0 L 0.03125 0.03125 L 0.0 0.03125 L 0.0 0.0 Z" style="vector-effect: non-scaling-stroke;" /></g></g></g></g></g></g></g></g><g transform="matrix(1.0, 0.0, 0.0, 1.0, 0.125, 0.0)"><g><g><g><g><g style="fill: #7f80ff;stroke: #7f80ff;stroke-width: 0.9;" transform="matrix(1.0, 0.0, 0.0, 1.0, 0.0, 0.0)"><path d="M 0.0 0.0 L 0.03125 0.0 L 0.03125 0.03125 L 0.0 0.03125 L 0.0 0.0 Z" style="vector-effect: non-scaling-stroke;" /></g><g style="fill: #fd7f7f;stroke: #fd7f7f;stroke-width: 0.9;" transform="matrix(1.0, 0.0, 0.0, 1.0, 0.03125, 0.0)"><path d="M 0.0 0.0 L 0.03125 0.0 L 0.03125 0.03125 L 0.0 0.03125 L 0.0 0.0 Z" style="vector-effect: non-scaling-stroke;" /></g></g><g transform="matrix(1.0, 0.0, 0.0, 1.0, 0.0, 0.03125)"><g><g style="fill: #fd7f7f;stroke: #fd7f7f;stroke-width: 0.9;" transform="matrix(1.0, 0.0, 0.0, 1.0, 0.0, 0.0)"><path d="M 0.0 0.0 L 0.03125 0.0 L 0.03125 0.03125 L 0.0 0.03125 L 0.0 0.0 Z" style="vector-effect: non-scaling-stroke;" /></g><g style="fill: #fd7f7f;stroke: #fd7f7f;stroke-width: 0.9;" transform="matrix(1.0, 0.0, 0.0, 1.0, 0.03125, 0.0)"><path d="M 0.0 0.0 L 0.03125 0.0 L 0.03125 0.03125 L 0.0 0.03125 L 0.0 0.0 Z" style="vector-effect: non-scaling-stroke;" /></g></g></g></g><g style="fill: #fd7f7f;stroke: #fd7f7f;stroke-width: 0.9;" transform="matrix(1.0, 0.0, 0.0, 1.0, 0.0625, 0.0)"><path d="M 0.0 0.0 L 0.0625 0.0 L 0.0625 0.0625 L 0.0 0.0625 L 0.0 0.0 Z" style="vector-effect: non-scaling-stroke;" /></g></g><g transform="matrix(1.0, 0.0, 0.0, 1.0, 0.0, 0.0625)"><g><g style="fill: #fd7f7f;stroke: #fd7f7f;stroke-width: 0.9;" transform="matrix(1.0, 0.0, 0.0, 1.0, 0.0, 0.0)"><path d="M 0.0 0.0 L 0.0625 0.0 L 0.0625 0.0625 L 0.0 0.0625 L 0.0 0.0 Z" style="vector-effect: non-scaling-stroke;" /></g><g style="fill: #fd7f7f;stroke: #fd7f7f;stroke-width: 0.9;" transform="matrix(1.0, 0.0, 0.0, 1.0, 0.0625, 0.0)"><path d="M 0.0 0.0 L 0.0625 0.0 L 0.0625 0.0625 L 0.0 0.0625 L 0.0 0.0 Z" style="vector-effect: non-scaling-stroke;" /></g></g></g></g></g></g></g></g><g transform="matrix(1.0, 0.0, 0.0, 1.0, 0.25, 0.0)"><g><g><g><g><g><g><g style="fill: #7f80ff;stroke: #7f80ff;stroke-width: 0.9;" transform="matrix(1.0, 0.0, 0.0, 1.0, 0.0, 0.0)"><path d="M 0.0 0.0 L 0.03125 0.0 L 0.03125 0.03125 L 0.0 0.03125 L 0.0 0.0 Z" style="vector-effect: non-scaling-stroke;" /></g><g style="fill: #fd7f7f;stroke: #fd7f7f;stroke-width: 0.9;" transform="matrix(1.0, 0.0, 0.0, 1.0, 0.03125, 0.0)"><path d="M 0.0 0.0 L 0.03125 0.0 L 0.03125 0.03125 L 0.0 0.03125 L 0.0 0.0 Z" style="vector-effect: non-scaling-stroke;" /></g></g><g transform="matrix(1.0, 0.0, 0.0, 1.0, 0.0, 0.03125)"><g><g style="fill: #fd7f7f;stroke: #fd7f7f;stroke-width: 0.9;" transform="matrix(1.0, 0.0, 0.0, 1.0, 0.0, 0.0)"><path d="M 0.0 0.0 L 0.03125 0.0 L 0.03125 0.03125 L 0.0 0.03125 L 0.0 0.0 Z" style="vector-effect: non-scaling-stroke;" /></g><g style="fill: #fd7f7f;stroke: #fd7f7f;stroke-width: 0.9;" transform="matrix(1.0, 0.0, 0.0, 1.0, 0.03125, 0.0)"><path d="M 0.0 0.0 L 0.03125 0.0 L 0.03125 0.03125 L 0.0 0.03125 L 0.0 0.0 Z" style="vector-effect: non-scaling-stroke;" /></g></g></g></g><g style="fill: #fd7f7f;stroke: #fd7f7f;stroke-width: 0.9;" transform="matrix(1.0, 0.0, 0.0, 1.0, 0.0625, 0.0)"><path d="M 0.0 0.0 L 0.0625 0.0 L 0.0625 0.0625 L 0.0 0.0625 L 0.0 0.0 Z" style="vector-effect: non-scaling-stroke;" /></g></g><g transform="matrix(1.0, 0.0, 0.0, 1.0, 0.0, 0.0625)"><g><g style="fill: #fd7f7f;stroke: #fd7f7f;stroke-width: 0.9;" transform="matrix(1.0, 0.0, 0.0, 1.0, 0.0, 0.0)"><path d="M 0.0 0.0 L 0.0625 0.0 L 0.0625 0.0625 L 0.0 0.0625 L 0.0 0.0 Z" style="vector-effect: non-scaling-stroke;" /></g><g style="fill: #fd7f7f;stroke: #fd7f7f;stroke-width: 0.9;" transform="matrix(1.0, 0.0, 0.0, 1.0, 0.0625, 0.0)"><path d="M 0.0 0.0 L 0.0625 0.0 L 0.0625 0.0625 L 0.0 0.0625 L 0.0 0.0 Z" style="vector-effect: non-scaling-stroke;" /></g></g></g></g><g style="fill: #fd7f7f;stroke: #fd7f7f;stroke-width: 0.9;" transform="matrix(1.0, 0.0, 0.0, 1.0, 0.125, 0.0)"><path d="M 0.0 0.0 L 0.125 0.0 L 0.125 0.125 L 0.0 0.125 L 0.0 0.0 Z" style="vector-effect: non-scaling-stroke;" /></g></g><g transform="matrix(1.0, 0.0, 0.0, 1.0, 0.0, 0.125)"><g><g style="fill: #fd7f7f;stroke: #fd7f7f;stroke-width: 0.9;" transform="matrix(1.0, 0.0, 0.0, 1.0, 0.0, 0.0)"><path d="M 0.0 0.0 L 0.125 0.0 L 0.125 0.125 L 0.0 0.125 L 0.0 0.0 Z" style="vector-effect: non-scaling-stroke;" /></g><g style="fill: #fd7f7f;stroke: #fd7f7f;stroke-width: 0.9;" transform="matrix(1.0, 0.0, 0.0, 1.0, 0.125, 0.0)"><path d="M 0.0 0.0 L 0.125 0.0 L 0.125 0.125 L 0.0 0.125 L 0.0 0.0 Z" style="vector-effect: non-scaling-stroke;" /></g></g></g></g></g></g></g></g></g></g></g></g></g><g><g style="stroke: black;stroke-width: 1.8;" transform="matrix(1.0, 0.0, 0.0, 1.0, 0.0, -1.0)"><path d="M 0.0 0.0 L 0.0 1.0" style="vector-effect: non-scaling-stroke;fill:none;" /></g><g style="stroke: black;stroke-width: 1.8;" transform="matrix(1.0, 0.0, 0.0, 1.0, 0.0, 0.0)"><path d="M 0.0 0.0 L 1.0 0.0" style="vector-effect: non-scaling-stroke;fill:none;" /></g></g></g><g><g><g /><g><g /><g style="fill: #69bac9;stroke: black;stroke-width: 1.8;" transform="matrix(0.025, 0.0, 0.0, 0.025, 0.5780913011344704, -0.20609823213950174)"><path d="M 2.0 -0.0 A 2.0 2.0 0.0 0 0 0.0 -2.0 A 2.0 2.0 -90.0 0 0 -2.0 0.0 A 2.0 2.0 180.0 0 0 0.0 2.0 A 2.0 2.0 90.0 0 0 2.0 0.0 Z M 1.0 -0.0 A 1.0 1.0 0.0 0 1 0.0 1.0 A 1.0 1.0 90.0 0 1 -1.0 0.0 A 1.0 1.0 180.0 0 1 0.0 -1.0 A 1.0 1.0 -90.0 0 1 1.0 0.0 Z" style="vector-effect: non-scaling-stroke;" /></g></g></g><g /></g></g><g style="stroke: black;stroke-width: 0.9;stroke-dasharray: 5 5;" transform="matrix(1.0, 0.0, 0.0, 1.0, 0.0, 0.0)"><path d="M 0.5780913011344704 -0.20609823213950174 L 0.9359965344974843 -0.5640034655025157" style="vector-effect: non-scaling-stroke;fill:none;" /></g></g></g><g /></g></g></g></g></svg>