<?xml version="1.0" encoding="utf-8" ?>
<svg baseProfile="full" height="300" version="1.1" width="564" xmlns="http://www.w3.org/2000/svg" xmlns:ev="http://www.w3.org/2001/xml-events" xmlns:xlink="http://www.w3.org/1999/xlink"><defs><marker id="arrow" markerHeight="3.5" markerWidth="5" orient="auto" refX="5.0" refY="1.7"><polygon points="0,0 5,1.75 0,3.5" /></marker></defs><g style="fill:white;"><g transform="matrix(1.0, 0.0, 0.0, 1.0, 282.0969947665415, 150.0)"><g transform="matrix(134.33190226978166, 0.0, 0.0, 134.33190226978166, 0.0, 0.0)"><g><g transform="matrix(1.0, 0.0, 0.0, 1.0, -0.0, 1.0634640055214863)"><g transform="matrix(1.0, 0.0, 0.0, -1.0, 0.0, 0.0)"><g><g><g><g><g><g style="stroke: black;stroke-width: 1.692;" transform="matrix(1.0, 0.0, 0.0, 1.0, 0.0, 0.0)"><path d="M 0.0 0.0 L 0.0 2.1269280110429727" style="vector-effect: non-scaling-stroke;fill:none;" /></g><g style="stroke: black;stroke-width: 1.692;" transform="matrix(1.0, 0.0, 0.0, 1.0, 0.0, 0.0)"><path d="M -2.0 0.0 L 2.0 0.0" style="vector-effect: non-scaling-stroke;fill:none;" /></g></g><g style="stroke: #ff0000;stroke-width: 3.384;" transform="matrix(1.0, 0.0, 0.0, 1.0, 0.0, 0.0)"><path d="M -2.0 2.1269280110429727 L -1.96 2.0917809798514693 L -1.92 2.056807113452038 L -1.88 2.0220116757018585 L -1.84 1.9874000248625705 L -1.8 1.952977610526074 L -1.76 1.9187499701346717 L -1.72 1.8847227250802085 L -1.68 1.8509015763678704 L -1.6400000000000001 1.8172922998314602 L -1.6 1.783900740888339 L -1.56 1.7507328088238219 L -1.52 1.7177944705965964 L -1.48 1.6850917441587614 L -1.44 1.6526306912863233 L -1.4 1.620417409918451 L -1.3599999999999999 1.5884580260064678 L -1.3199999999999998 1.5567586848764665 L -1.28 1.5253255421125171 L -1.24 1.4941647539707477 L -1.2 1.4632824673380311 L -1.1600000000000001 1.4326848092526394 L -1.12 1.402377876007976 L -1.08 1.3723677218643584 L -1.04 1.3426603473977388 L -1.0 1.3132616875182228 L -0.96 1.2841775991951887 L -0.9199999999999999 1.2554138489297306 L -0.8799999999999999 1.2269761000189523 L -0.8400000000000001 1.1988698996603233 L -0.8 1.1711006659477778 L -0.76 1.1436736748144938 L -0.72 1.1165940469802242 L -0.6799999999999999 1.0898667349636622 L -0.6399999999999999 1.0634965102225342 L -0.6000000000000001 1.0374879504858858 L -0.56 1.0118454273443065 L -0.52 0.9865730941646179 L -0.48 0.9616748743957434 L -0.43999999999999995 0.9371544503321096 L -0.3999999999999999 0.9130152523999524 L -0.3600000000000001 0.8892604490302841 L -0.32000000000000006 0.8658929371800752 L -0.28 0.8429153335603463 L -0.24 0.8203299666264257 L -0.19999999999999996 0.7981388693815917 L -0.15999999999999992 0.7763437730407395 L -0.1200000000000001 0.7549461015956138 L -0.08000000000000007 0.7339469673175901 L -0.040000000000000036 0.7133471672280339 L 0.0 0.6931471805599452 L 0.040000000000000036 0.6733471672280338 L 0.08000000000000007 0.6539469673175898 L 0.1200000000000001 0.6349461015956136 L 0.16000000000000014 0.6163437730407395 L 0.20000000000000018 0.5981388693815917 L 0.2400000000000002 0.5803299666264258 L 0.2799999999999998 0.5629153335603466 L 0.31999999999999984 0.5458929371800756 L 0.3599999999999999 0.5292604490302844 L 0.3999999999999999 0.5130152523999527 L 0.43999999999999995 0.4971544503321101 L 0.48 0.4816748743957435 L 0.52 0.4665730941646182 L 0.56 0.45184542734430655 L 0.6000000000000001 0.43748795048588607 L 0.6400000000000001 0.4234965102225345 L 0.6800000000000002 0.4098667349636623 L 0.7200000000000002 0.3965940469802247 L 0.7599999999999998 0.3836736748144943 L 0.7999999999999998 0.37110066594777813 L 0.8399999999999999 0.3588698996603237 L 0.8799999999999999 0.3469761000189529 L 0.9199999999999999 0.335413848929731 L 0.96 0.32417759919518907 L 1.0 0.3132616875182232 L 1.04 0.3026603473977394 L 1.08 0.2923677218643588 L 1.12 0.2823778760079764 L 1.1600000000000001 0.27268480925263994 L 1.2000000000000002 0.2632824673380315 L 1.2400000000000002 0.254164753970748 L 1.2799999999999998 0.24532554211251764 L 1.3199999999999998 0.2367586848764671 L 1.3599999999999999 0.22845802600646842 L 1.4 0.22041740991845138 L 1.44 0.2126306912863238 L 1.48 0.20509174415876189 L 1.52 0.1977944705965968 L 1.56 0.19073280882382232 L 1.6 0.18390074088833933 L 1.6400000000000001 0.1772922998314607 L 1.6800000000000002 0.17090157636787112 L 1.7200000000000002 0.1647227250802091 L 1.7599999999999998 0.15874997013467226 L 1.7999999999999998 0.15297761052607445 L 1.8399999999999999 0.1474000248625707 L 1.88 0.1420116757018593 L 1.92 0.13680711345203858 L 1.96 0.13178097985146975" style="vector-effect: non-scaling-stroke;fill:none;" /></g></g><g style="fill: #ff0000;stroke: black;stroke-width: 3.384;" transform="matrix(0.049999999999999996, -0.04999999999999998, 0.04999999999999998, 0.049999999999999996, -1.1, 1.2632616875182228)"><path d="M 0.0 0.0 L 1.0 0.0 L 1.0 1.0 L 2.0 1.0 L 2.0 2.0 L 1.0 2.0 L 1.0 3.0 L 0.0 3.0 L 0.0 2.0 L -1.0 2.0 L -1.0 1.0 L 0.0 1.0 L 0.0 0.0 Z" style="vector-effect: non-scaling-stroke;" /></g></g><g style="fill: #ff0000;stroke: black;stroke-width: 3.384;" transform="matrix(0.049999999999999996, -0.04999999999999998, 0.04999999999999998, 0.049999999999999996, 0.30000000000000004, 0.4630152523999526)"><path d="M 0.0 0.0 L 1.0 0.0 L 1.0 1.0 L 2.0 1.0 L 2.0 2.0 L 1.0 2.0 L 1.0 3.0 L 0.0 3.0 L 0.0 2.0 L -1.0 2.0 L -1.0 1.0 L 0.0 1.0 L 0.0 0.0 Z" style="vector-effect: non-scaling-stroke;" /></g></g><g style="fill: #ff0000;stroke: black;stroke-width: 3.384;" transform="matrix(0.049999999999999996, -0.04999999999999998, 0.04999999999999998, 0.049999999999999996, 1.2, 0.1910084538329922)"><path d="M 0.0 0.0 L 1.0 0.0 L 1.0 1.0 L 2.0 1.0 L 2.0 2.0 L 1.0 2.0 L 1.0 3.0 L 0.0 3.0 L 0.0 2.0 L -1.0 2.0 L -1.0 1.0 L 0.0 1.0 L 0.0 0.0 Z" style="vector-effect: non-scaling-stroke;" /></g></g></g></g><g /></g></g></g></g></svg>