<?xml version="1.0" encoding="utf-8" ?>
<svg baseProfile="full" height="300" version="1.1" width="573" xmlns="http://www.w3.org/2000/svg" xmlns:ev="http://www.w3.org/2001/xml-events" xmlns:xlink="http://www.w3.org/1999/xlink"><defs><marker id="arrow" markerHeight="3.5" markerWidth="5" orient="auto" refX="5.0" refY="1.7"><polygon points="0,0 5,1.75 0,3.5" /></marker></defs><g style="fill:white;"><g transform="matrix(1.0, 0.0, 0.0, 1.0, 286.83691351023, 150.0)"><g transform="matrix(136.58900643344285, 0.0, 0.0, 136.58900643344285, 0.0, 0.0)"><g><g transform="matrix(1.0, 0.0, 0.0, 1.0, -0.0, 1.0458904899257346)"><g transform="matrix(1.0, 0.0, 0.0, -1.0, 0.0, 0.0)"><g><g><g style="stroke: black;stroke-width: 1.7189999999999999;" transform="matrix(1.0, 0.0, 0.0, 1.0, 0.0, 0.0)"><path d="M 0.0 0.0 L 0.0 2.0917809798514693" style="vector-effect: non-scaling-stroke;fill:none;" /></g><g style="stroke: black;stroke-width: 1.7189999999999999;" transform="matrix(1.0, 0.0, 0.0, 1.0, 0.0, 0.0)"><path d="M -2.0 0.0 L 2.0 0.0" style="vector-effect: non-scaling-stroke;fill:none;" /></g></g><g style="stroke: #ff0000;stroke-width: 3.4379999999999997;" transform="matrix(1.0, 0.0, 0.0, 1.0, 0.0, 0.0)"><path d="M -2.0 0.12692801104297263 L -1.96 0.13178097985146942 L -1.92 0.13680711345203822 L -1.88 0.14201167570185888 L -1.84 0.14740002486257023 L -1.8 0.15297761052607403 L -1.76 0.15874997013467176 L -1.72 0.16472272508020852 L -1.68 0.1709015763678706 L -1.6400000000000001 0.17729229983146025 L -1.6 0.18390074088833885 L -1.56 0.1907328088238218 L -1.52 0.1977944705965963 L -1.48 0.20509174415876136 L -1.44 0.2126306912863233 L -1.4 0.220417409918451 L -1.3599999999999999 0.22845802600646797 L -1.3199999999999998 0.23675868487646667 L -1.28 0.24532554211251714 L -1.24 0.25416475397074767 L -1.2 0.26328246733803135 L -1.1600000000000001 0.27268480925263944 L -1.12 0.282377876007976 L -1.08 0.29236772186435833 L -1.04 0.30266034739773895 L -1.0 0.3132616875182228 L -0.96 0.3241775991951888 L -0.9199999999999999 0.33541384892973064 L -0.8799999999999999 0.3469761000189525 L -0.8400000000000001 0.3588698996603233 L -0.8 0.37110066594777763 L -0.76 0.38367367481449377 L -0.72 0.3965940469802245 L -0.6799999999999999 0.4098667349636622 L -0.6399999999999999 0.42349651022253443 L -0.6000000000000001 0.43748795048588573 L -0.56 0.4518454273443063 L -0.52 0.466573094164618 L -0.48 0.48167487439574336 L -0.43999999999999995 0.49715445033211 L -0.3999999999999999 0.5130152523999526 L -0.3600000000000001 0.5292604490302842 L -0.32000000000000006 0.5458929371800753 L -0.28 0.5629153335603464 L -0.24 0.5803299666264259 L -0.19999999999999996 0.598138869381592 L -0.15999999999999992 0.6163437730407396 L -0.1200000000000001 0.6349461015956136 L -0.08000000000000007 0.65394696731759 L -0.040000000000000036 0.6733471672280339 L 0.0 0.6931471805599454 L 0.040000000000000036 0.713347167228034 L 0.08000000000000007 0.7339469673175901 L 0.1200000000000001 0.7549461015956137 L 0.16000000000000014 0.7763437730407399 L 0.20000000000000018 0.7981388693815921 L 0.2400000000000002 0.8203299666264261 L 0.2799999999999998 0.8429153335603465 L 0.31999999999999984 0.8658929371800754 L 0.3599999999999999 0.8892604490302842 L 0.3999999999999999 0.9130152523999527 L 0.43999999999999995 0.9371544503321099 L 0.48 0.9616748743957435 L 0.52 0.9865730941646179 L 0.56 1.0118454273443067 L 0.6000000000000001 1.0374879504858858 L 0.6400000000000001 1.0634965102225342 L 0.6800000000000002 1.0898667349636622 L 0.7200000000000002 1.1165940469802245 L 0.7599999999999998 1.1436736748144938 L 0.7999999999999998 1.1711006659477776 L 0.8399999999999999 1.198869899660323 L 0.8799999999999999 1.2269761000189523 L 0.9199999999999999 1.2554138489297306 L 0.96 1.2841775991951887 L 1.0 1.3132616875182228 L 1.04 1.3426603473977388 L 1.08 1.3723677218643584 L 1.12 1.402377876007976 L 1.1600000000000001 1.4326848092526394 L 1.2000000000000002 1.4632824673380314 L 1.2400000000000002 1.4941647539707477 L 1.2799999999999998 1.5253255421125167 L 1.3199999999999998 1.5567586848764665 L 1.3599999999999999 1.5884580260064678 L 1.4 1.620417409918451 L 1.44 1.6526306912863233 L 1.48 1.6850917441587614 L 1.52 1.7177944705965964 L 1.56 1.7507328088238219 L 1.6 1.783900740888339 L 1.6400000000000001 1.8172922998314602 L 1.6800000000000002 1.8509015763678707 L 1.7200000000000002 1.8847227250802085 L 1.7599999999999998 1.9187499701346715 L 1.7999999999999998 1.9529776105260739 L 1.8399999999999999 1.9874000248625703 L 1.88 2.0220116757018585 L 1.92 2.056807113452038 L 1.96 2.0917809798514693" style="vector-effect: non-scaling-stroke;fill:none;" /></g></g></g></g><g /></g></g></g></g></svg>