<?xml version="1.0" encoding="UTF-8" standalone="no"?><!DOCTYPE svg PUBLIC "-//W3C//DTD SVG 1.1//EN" "http://www.w3.org/Graphics/SVG/1.1/DTD/svg11.dtd"><svg width="100%" height="100%" viewBox="0 0 1338 1448" version="1.1" xmlns="http://www.w3.org/2000/svg" xmlns:xlink="http://www.w3.org/1999/xlink" xml:space="preserve" xmlns:serif="http://www.serif.com/" style="fill-rule:evenodd;clip-rule:evenodd;stroke-linecap:round;stroke-linejoin:round;stroke-miterlimit:1.5;"><path d="M29.167,289.791l-0,1072.71l1250,0l-0,-68.75" style="fill:#ea8484;fill-opacity:0.4;"/><path d="M29.167,112.5l-0,177.291l1250,1003.96l-0,-1181.25" style="fill:#69bac9;fill-opacity:0.4;"/><path d="M29.167,112.5l-0,1250" style="fill:none;stroke:#000;stroke-width:10.16px;"/><path d="M207.907,566.017l29.593,29.593l-26.81,26.81l26.81,26.81l-29.593,29.593l-26.81,-26.81l-26.81,26.81l-29.593,-29.593l26.81,-26.81l-26.81,-26.81l29.593,-29.593l26.81,26.81l26.81,-26.81Z" style="fill:#ea8484;stroke:#000;stroke-width:17.78px;"/><path d="M979.789,1107.01l29.593,29.593l-26.811,26.81l26.811,26.81l-29.593,29.593l-26.81,-26.811l-26.811,26.811l-29.592,-29.593l26.81,-26.81l-26.81,-26.81l29.592,-29.593l26.811,26.81l26.81,-26.81Z" style="fill:#ea8484;stroke:#000;stroke-width:17.78px;"/><path d="M464.701,1104.16l29.592,29.593l-26.81,26.81l26.81,26.81l-29.592,29.593l-26.811,-26.81l-26.81,26.81l-29.593,-29.593l26.811,-26.81l-26.811,-26.81l29.593,-29.593l26.81,26.81l26.811,-26.81Z" style="fill:#ea8484;stroke:#000;stroke-width:17.78px;"/><path d="M587.482,884.567l29.593,29.593l-26.81,26.81l26.81,26.81l-29.593,29.593l-26.81,-26.811l-26.81,26.811l-29.593,-29.593l26.81,-26.81l-26.81,-26.81l29.593,-29.593l26.81,26.81l26.81,-26.81Z" style="fill:#ea8484;stroke:#000;stroke-width:17.78px;"/><path d="M207.907,860.492l29.593,29.592l-26.81,26.811l26.81,26.81l-29.593,29.592l-26.81,-26.81l-26.81,26.81l-29.593,-29.592l26.81,-26.81l-26.81,-26.811l29.593,-29.592l26.81,26.81l26.81,-26.81Z" style="fill:#ea8484;stroke:#000;stroke-width:17.78px;"/><path d="M29.167,1362.5l1250,0" style="fill:none;stroke:#000;stroke-width:10.16px;"/><path d="M798.255,395.271c35.458,0 64.245,29.999 64.245,66.948c-0,36.949 -28.787,66.948 -64.245,66.948c-35.458,-0 -64.246,-29.999 -64.246,-66.948c0,-36.949 28.788,-66.948 64.246,-66.948Zm-0,33.474c17.729,0 32.122,14.999 32.122,33.474c0,18.475 -14.393,33.474 -32.122,33.474c-17.729,-0 -32.123,-14.999 -32.123,-33.474c-0,-18.475 14.394,-33.474 32.123,-33.474Z" style="fill:#69bac9;stroke:#000;stroke-width:10.16px;"/><path d="M889.418,186.938c35.458,0 64.245,29.998 64.245,66.948c0,36.949 -28.787,66.947 -64.245,66.947c-35.458,0 -64.246,-29.998 -64.246,-66.947c0,-36.95 28.788,-66.948 64.246,-66.948Zm-0,33.474c17.729,-0 32.122,14.999 32.122,33.474c0,18.474 -14.393,33.474 -32.122,33.474c-17.729,-0 -32.123,-15 -32.123,-33.474c0,-18.475 14.394,-33.474 32.123,-33.474Z" style="fill:#69bac9;stroke:#000;stroke-width:10.16px;"/><path d="M510.079,432.707c35.458,-0 64.245,29.998 64.245,66.947c0,36.95 -28.787,66.948 -64.245,66.948c-35.458,-0 -64.246,-29.998 -64.246,-66.948c0,-36.949 28.788,-66.947 64.246,-66.947Zm-0,33.473c17.729,0 32.122,15 32.122,33.474c0,18.475 -14.393,33.474 -32.122,33.474c-17.729,0 -32.123,-14.999 -32.123,-33.474c0,-18.474 14.394,-33.474 32.123,-33.474Z" style="fill:#69bac9;stroke:#000;stroke-width:10.16px;"/><path d="M476.622,145.887c35.458,-0 64.245,29.998 64.245,66.947c0,36.95 -28.787,66.948 -64.245,66.948c-35.458,0 -64.246,-29.998 -64.246,-66.948c0,-36.949 28.788,-66.947 64.246,-66.947Zm-0,33.474c17.729,-0 32.122,14.999 32.122,33.473c0,18.475 -14.393,33.474 -32.122,33.474c-17.729,0 -32.123,-14.999 -32.123,-33.474c0,-18.474 14.394,-33.473 32.123,-33.473Z" style="fill:#69bac9;stroke:#000;stroke-width:10.16px;"/><path d="M1135.08,427.693c35.458,0 64.245,29.999 64.245,66.948c0,36.949 -28.787,66.948 -64.245,66.948c-35.458,-0 -64.246,-29.999 -64.246,-66.948c0,-36.949 28.788,-66.948 64.246,-66.948Zm-0,33.474c17.729,0 32.122,14.999 32.122,33.474c0,18.475 -14.393,33.474 -32.122,33.474c-17.729,-0 -32.123,-14.999 -32.123,-33.474c0,-18.475 14.394,-33.474 32.123,-33.474Z" style="fill:#69bac9;stroke:#000;stroke-width:10.16px;"/><path d="M926.745,737.5c35.458,-0 64.246,29.998 64.246,66.948c-0,36.949 -28.788,66.947 -64.246,66.947c-35.458,0 -64.245,-29.998 -64.245,-66.947c-0,-36.95 28.787,-66.948 64.245,-66.948Zm0,33.474c17.729,-0 32.123,14.999 32.123,33.474c0,18.474 -14.394,33.473 -32.123,33.473c-17.729,0 -32.122,-14.999 -32.122,-33.473c-0,-18.475 14.393,-33.474 32.122,-33.474Z" style="fill:#69bac9;stroke:#000;stroke-width:10.16px;"/><path d="M1214.92,689.644c35.458,0 64.246,29.998 64.246,66.948c-0,36.949 -28.788,66.947 -64.246,66.947c-35.458,0 -64.245,-29.998 -64.245,-66.947c-0,-36.95 28.787,-66.948 64.245,-66.948Zm0,33.474c17.729,0 32.123,14.999 32.123,33.474c-0,18.475 -14.394,33.474 -32.123,33.474c-17.729,-0 -32.122,-14.999 -32.122,-33.474c-0,-18.475 14.393,-33.474 32.122,-33.474Z" style="fill:#69bac9;stroke:#000;stroke-width:10.16px;"/><path d="M29.167,112.5l1250,1250" style="fill:none;"/><path d="M1279.17,1362.5l-0,-1250" style="fill:none;"/><path d="M1279.17,112.5l-1250,0" style="fill:none;"/><path d="M29.167,112.5l1250,1250" style="fill:none;"/><path d="M1279.17,1362.5l-0,-1250" style="fill:none;"/></svg>