<?xml version="1.0" encoding="UTF-8" standalone="no"?><!DOCTYPE svg PUBLIC "-//W3C//DTD SVG 1.1//EN" "http://www.w3.org/Graphics/SVG/1.1/DTD/svg11.dtd"><svg width="100%" height="100%" viewBox="0 0 1405 1336" version="1.1" xmlns="http://www.w3.org/2000/svg" xmlns:xlink="http://www.w3.org/1999/xlink" xml:space="preserve" xmlns:serif="http://www.serif.com/" style="fill-rule:evenodd;clip-rule:evenodd;stroke-linecap:round;stroke-linejoin:round;stroke-miterlimit:1.5;"><path d="M95.833,241.875l0,1072.71l1250,0l0,-68.75" style="fill:#ea8484;fill-opacity:0.4;"/><path d="M599.19,64.583l746.643,0l0,668.379" style="fill:#ea8484;fill-opacity:0.4;"/><path d="M95.833,64.583l0,177.292l1250,1003.96l0,-512.871l-746.643,-668.379" style="fill:#69bac9;fill-opacity:0.4;"/><path d="M95.833,64.583l0,1250" style="fill:none;stroke:#000;stroke-width:10.16px;"/><path d="M274.574,518.1l29.593,29.593l-26.811,26.81l26.811,26.811l-29.593,29.592l-26.81,-26.81l-26.81,26.81l-29.593,-29.592l26.81,-26.811l-26.81,-26.81l29.593,-29.593l26.81,26.811l26.81,-26.811Z" style="fill:#ea8484;stroke:#000;stroke-width:17.78px;"/><path d="M1046.46,1059.09l29.592,29.593l-26.81,26.81l26.81,26.81l-29.592,29.593l-26.811,-26.81l-26.81,26.81l-29.593,-29.593l26.811,-26.81l-26.811,-26.81l29.593,-29.593l26.81,26.81l26.811,-26.81Z" style="fill:#ea8484;stroke:#000;stroke-width:17.78px;"/><path d="M1012.38,100.426l29.593,29.593l-26.811,26.81l26.811,26.811l-29.593,29.592l-26.81,-26.81l-26.811,26.81l-29.592,-29.592l26.81,-26.811l-26.81,-26.81l29.592,-29.593l26.811,26.811l26.81,-26.811Z" style="fill:#ea8484;stroke:#000;stroke-width:17.78px;"/><path d="M482.907,1056.83l29.593,29.592l-26.81,26.811l26.81,26.81l-29.593,29.593l-26.81,-26.811l-26.81,26.811l-29.593,-29.593l26.81,-26.81l-26.81,-26.811l29.593,-29.592l26.81,26.81l26.81,-26.81Z" style="fill:#ea8484;stroke:#000;stroke-width:17.78px;"/><path d="M1220.71,414.401l29.593,29.593l-26.81,26.81l26.81,26.81l-29.593,29.593l-26.81,-26.81l-26.81,26.81l-29.593,-29.593l26.81,-26.81l-26.81,-26.81l29.593,-29.593l26.81,26.81l26.81,-26.81Z" style="fill:#ea8484;stroke:#000;stroke-width:17.78px;"/><path d="M654.149,836.65l29.593,29.593l-26.81,26.81l26.81,26.81l-29.593,29.593l-26.81,-26.81l-26.81,26.81l-29.593,-29.593l26.81,-26.81l-26.81,-26.81l29.593,-29.593l26.81,26.81l26.81,-26.81Z" style="fill:#ea8484;stroke:#000;stroke-width:17.78px;"/><path d="M1169.78,160.111l29.592,29.593l-26.81,26.81l26.81,26.81l-29.592,29.593l-26.81,-26.811l-26.811,26.811l-29.592,-29.593l26.81,-26.81l-26.81,-26.81l29.592,-29.593l26.811,26.81l26.81,-26.81Z" style="fill:#ea8484;stroke:#000;stroke-width:17.78px;"/><path d="M274.574,812.575l29.593,29.593l-26.811,26.81l26.811,26.81l-29.593,29.593l-26.81,-26.81l-26.81,26.81l-29.593,-29.593l26.81,-26.81l-26.81,-26.81l29.593,-29.593l26.81,26.81l26.81,-26.81Z" style="fill:#ea8484;stroke:#000;stroke-width:17.78px;"/><path d="M95.833,1314.58l1250,0" style="fill:none;stroke:#000;stroke-width:10.16px;"/><path d="M864.921,635.884c35.458,-0 64.246,29.998 64.246,66.948c-0,36.949 -28.788,66.947 -64.246,66.947c-35.458,0 -64.245,-29.998 -64.245,-66.947c-0,-36.95 28.787,-66.948 64.245,-66.948Zm0,33.474c17.729,-0 32.123,14.999 32.123,33.474c-0,18.474 -14.394,33.473 -32.123,33.473c-17.729,0 -32.122,-14.999 -32.122,-33.473c-0,-18.475 14.393,-33.474 32.122,-33.474Z" style="fill:#69bac9;stroke:#000;stroke-width:10.16px;"/><path d="M313.443,196.171c35.458,0 64.245,29.998 64.245,66.948c0,36.949 -28.787,66.947 -64.245,66.947c-35.458,0 -64.245,-29.998 -64.245,-66.947c-0,-36.95 28.787,-66.948 64.245,-66.948Zm-0,33.474c17.729,-0 32.123,14.999 32.123,33.474c-0,18.474 -14.394,33.474 -32.123,33.474c-17.729,-0 -32.123,-15 -32.123,-33.474c0,-18.475 14.394,-33.474 32.123,-33.474Z" style="fill:#69bac9;stroke:#000;stroke-width:10.16px;"/><path d="M576.745,384.79c35.458,-0 64.246,29.998 64.246,66.948c-0,36.949 -28.788,66.947 -64.246,66.947c-35.458,0 -64.245,-29.998 -64.245,-66.947c0,-36.95 28.787,-66.948 64.245,-66.948Zm0,33.474c17.729,-0 32.123,14.999 32.123,33.474c0,18.474 -14.394,33.473 -32.123,33.473c-17.729,0 -32.122,-14.999 -32.122,-33.473c-0,-18.475 14.393,-33.474 32.122,-33.474Z" style="fill:#69bac9;stroke:#000;stroke-width:10.16px;"/><path d="M543.288,97.97c35.458,0 64.246,29.998 64.246,66.948c-0,36.949 -28.788,66.947 -64.246,66.947c-35.458,0 -64.245,-29.998 -64.245,-66.947c0,-36.95 28.787,-66.948 64.245,-66.948Zm0,33.474c17.729,-0 32.123,14.999 32.123,33.474c0,18.475 -14.394,33.474 -32.123,33.474c-17.729,-0 -32.122,-14.999 -32.122,-33.474c-0,-18.475 14.393,-33.474 32.122,-33.474Z" style="fill:#69bac9;stroke:#000;stroke-width:10.16px;"/><path d="M830.295,347.355c35.458,-0 64.245,29.998 64.245,66.947c-0,36.95 -28.787,66.948 -64.245,66.948c-35.458,0 -64.246,-29.998 -64.246,-66.948c0,-36.949 28.788,-66.947 64.246,-66.947Zm-0,33.474c17.729,-0 32.122,14.999 32.122,33.473c0,18.475 -14.393,33.474 -32.122,33.474c-17.729,0 -32.123,-14.999 -32.123,-33.474c-0,-18.474 14.394,-33.473 32.123,-33.473Z" style="fill:#69bac9;stroke:#000;stroke-width:10.16px;"/><path d="M1073.26,643.469c35.458,0 64.245,29.998 64.245,66.948c-0,36.949 -28.787,66.947 -64.245,66.947c-35.458,0 -64.246,-29.998 -64.246,-66.947c0,-36.95 28.788,-66.948 64.246,-66.948Zm-0,33.474c17.729,-0 32.122,14.999 32.122,33.474c0,18.474 -14.393,33.473 -32.122,33.473c-17.729,0 -32.123,-14.999 -32.123,-33.473c-0,-18.475 14.394,-33.474 32.123,-33.474Z" style="fill:#69bac9;stroke:#000;stroke-width:10.16px;"/><path d="M1201.75,897.917c35.458,-0 64.246,29.998 64.246,66.947c-0,36.95 -28.788,66.948 -64.246,66.948c-35.458,-0 -64.245,-29.998 -64.245,-66.948c0,-36.949 28.787,-66.947 64.245,-66.947Zm0,33.473c17.729,0 32.123,15 32.123,33.474c0,18.475 -14.394,33.474 -32.123,33.474c-17.729,0 -32.122,-14.999 -32.122,-33.474c-0,-18.474 14.393,-33.474 32.122,-33.474Z" style="fill:#69bac9;stroke:#000;stroke-width:10.16px;"/><path d="M95.833,64.583l1250,1250" style="fill:none;"/><path d="M1345.83,1314.58l0,-1250" style="fill:none;"/><path d="M1345.83,64.583l-1250,0" style="fill:url(#_Linear1);"/><path d="M95.833,64.583l1250,1250" style="fill:none;"/><path d="M1345.83,1314.58l0,-1250" style="fill:url(#_Linear2);"/><defs><linearGradient id="_Linear1" x1="0" y1="0" x2="-974289" y2="-64.5833" gradientUnits="userSpaceOnUse" gradientTransform="matrix(45206.8,0,0,2e-06,974289,64.5833)"><stop offset="0" style="stop-color:#ff00b3;stop-opacity:1"/><stop offset="1" style="stop-color:#99006b;stop-opacity:1"/></linearGradient><linearGradient id="_Linear2" x1="0" y1="0" x2="-1345.83" y2="-1.25006e+06" gradientUnits="userSpaceOnUse" gradientTransform="matrix(1.21243e-11,2e-06,-198006,1.22465e-22,1345.83,1.25006e+06)"><stop offset="0" style="stop-color:#ff00b3;stop-opacity:1"/><stop offset="1" style="stop-color:#99006b;stop-opacity:1"/></linearGradient></defs></svg>