<?xml version="1.0" encoding="utf-8" ?>
<svg baseProfile="full" height="300" version="1.1" width="299" xmlns="http://www.w3.org/2000/svg" xmlns:ev="http://www.w3.org/2001/xml-events" xmlns:xlink="http://www.w3.org/1999/xlink"><defs><marker id="arrow" markerHeight="3.5" markerWidth="5" orient="auto" refX="5.0" refY="1.7"><polygon points="0,0 5,1.75 0,3.5" /></marker></defs><g style="fill:white;"><g transform="matrix(1.0, 0.0, 0.0, 1.0, 149.5, 149.9116069120623)"><g transform="matrix(272.09402525794053, 0.0, 0.0, 272.09402525794053, 0.0, 0.0)"><g><g transform="matrix(1.0, 0.0, 0.0, 1.0, -0.5232784962697276, 0.4780977102273668)"><g><g><g><g><g><g><g transform="matrix(1.0, 0.0, 0.0, -1.0, 0.0, 0.0)"><g><g><g><g><g><g><g style="fill: #7f80ff;stroke: #7f80ff;stroke-width: 0.9;" transform="matrix(1.0, 0.0, 0.0, 1.0, 0.0, 0.0)"><path d="M 0.0 0.0 L 0.125 0.0 L 0.125 0.125 L 0.0 0.125 L 0.0 0.0 Z" style="vector-effect: non-scaling-stroke;" /></g><g style="fill: #7f80ff;stroke: #7f80ff;stroke-width: 0.9;" transform="matrix(1.0, 0.0, 0.0, 1.0, 0.125, 0.0)"><path d="M 0.0 0.0 L 0.125 0.0 L 0.125 0.125 L 0.0 0.125 L 0.0 0.0 Z" style="vector-effect: non-scaling-stroke;" /></g></g><g transform="matrix(1.0, 0.0, 0.0, 1.0, 0.0, 0.125)"><g><g style="fill: #7f80ff;stroke: #7f80ff;stroke-width: 0.9;" transform="matrix(1.0, 0.0, 0.0, 1.0, 0.0, 0.0)"><path d="M 0.0 0.0 L 0.125 0.0 L 0.125 0.125 L 0.0 0.125 L 0.0 0.0 Z" style="vector-effect: non-scaling-stroke;" /></g><g transform="matrix(1.0, 0.0, 0.0, 1.0, 0.125, 0.0)"><g><g><g style="fill: #7f80ff;stroke: #7f80ff;stroke-width: 0.9;" transform="matrix(1.0, 0.0, 0.0, 1.0, 0.0, 0.0)"><path d="M 0.0 0.0 L 0.0625 0.0 L 0.0625 0.0625 L 0.0 0.0625 L 0.0 0.0 Z" style="vector-effect: non-scaling-stroke;" /></g><g transform="matrix(1.0, 0.0, 0.0, 1.0, 0.0625, 0.0)"><g><g><g style="fill: #7f80ff;stroke: #7f80ff;stroke-width: 0.9;" transform="matrix(1.0, 0.0, 0.0, 1.0, 0.0, 0.0)"><path d="M 0.0 0.0 L 0.03125 0.0 L 0.03125 0.03125 L 0.0 0.03125 L 0.0 0.0 Z" style="vector-effect: non-scaling-stroke;" /></g><g style="fill: #7f80ff;stroke: #7f80ff;stroke-width: 0.9;" transform="matrix(1.0, 0.0, 0.0, 1.0, 0.03125, 0.0)"><path d="M 0.0 0.0 L 0.03125 0.0 L 0.03125 0.03125 L 0.0 0.03125 L 0.0 0.0 Z" style="vector-effect: non-scaling-stroke;" /></g></g><g transform="matrix(1.0, 0.0, 0.0, 1.0, 0.0, 0.03125)"><g><g style="fill: #7f80ff;stroke: #7f80ff;stroke-width: 0.9;" transform="matrix(1.0, 0.0, 0.0, 1.0, 0.0, 0.0)"><path d="M 0.0 0.0 L 0.03125 0.0 L 0.03125 0.03125 L 0.0 0.03125 L 0.0 0.0 Z" style="vector-effect: non-scaling-stroke;" /></g><g style="fill: #7f80ff;stroke: #7f80ff;stroke-width: 0.9;" transform="matrix(1.0, 0.0, 0.0, 1.0, 0.03125, 0.0)"><path d="M 0.0 0.0 L 0.03125 0.0 L 0.03125 0.03125 L 0.0 0.03125 L 0.0 0.0 Z" style="vector-effect: non-scaling-stroke;" /></g></g></g></g></g></g><g transform="matrix(1.0, 0.0, 0.0, 1.0, 0.0, 0.0625)"><g><g><g><g style="fill: #7f80ff;stroke: #7f80ff;stroke-width: 0.9;" transform="matrix(1.0, 0.0, 0.0, 1.0, 0.0, 0.0)"><path d="M 0.0 0.0 L 0.03125 0.0 L 0.03125 0.03125 L 0.0 0.03125 L 0.0 0.0 Z" style="vector-effect: non-scaling-stroke;" /></g><g style="fill: #7f80ff;stroke: #7f80ff;stroke-width: 0.9;" transform="matrix(1.0, 0.0, 0.0, 1.0, 0.03125, 0.0)"><path d="M 0.0 0.0 L 0.03125 0.0 L 0.03125 0.03125 L 0.0 0.03125 L 0.0 0.0 Z" style="vector-effect: non-scaling-stroke;" /></g></g><g transform="matrix(1.0, 0.0, 0.0, 1.0, 0.0, 0.03125)"><g><g style="fill: #7f80ff;stroke: #7f80ff;stroke-width: 0.9;" transform="matrix(1.0, 0.0, 0.0, 1.0, 0.0, 0.0)"><path d="M 0.0 0.0 L 0.03125 0.0 L 0.03125 0.03125 L 0.0 0.03125 L 0.0 0.0 Z" style="vector-effect: non-scaling-stroke;" /></g><g style="fill: #7f80ff;stroke: #7f80ff;stroke-width: 0.9;" transform="matrix(1.0, 0.0, 0.0, 1.0, 0.03125, 0.0)"><path d="M 0.0 0.0 L 0.03125 0.0 L 0.03125 0.03125 L 0.0 0.03125 L 0.0 0.0 Z" style="vector-effect: non-scaling-stroke;" /></g></g></g></g><g transform="matrix(1.0, 0.0, 0.0, 1.0, 0.0625, 0.0)"><g><g><g style="fill: #7f80ff;stroke: #7f80ff;stroke-width: 0.9;" transform="matrix(1.0, 0.0, 0.0, 1.0, 0.0, 0.0)"><path d="M 0.0 0.0 L 0.03125 0.0 L 0.03125 0.03125 L 0.0 0.03125 L 0.0 0.0 Z" style="vector-effect: non-scaling-stroke;" /></g><g style="fill: #fd7f7f;stroke: #fd7f7f;stroke-width: 0.9;" transform="matrix(1.0, 0.0, 0.0, 1.0, 0.03125, 0.0)"><path d="M 0.0 0.0 L 0.03125 0.0 L 0.03125 0.03125 L 0.0 0.03125 L 0.0 0.0 Z" style="vector-effect: non-scaling-stroke;" /></g></g><g transform="matrix(1.0, 0.0, 0.0, 1.0, 0.0, 0.03125)"><g><g style="fill: #fd7f7f;stroke: #fd7f7f;stroke-width: 0.9;" transform="matrix(1.0, 0.0, 0.0, 1.0, 0.0, 0.0)"><path d="M 0.0 0.0 L 0.03125 0.0 L 0.03125 0.03125 L 0.0 0.03125 L 0.0 0.0 Z" style="vector-effect: non-scaling-stroke;" /></g><g style="fill: #fd7f7f;stroke: #fd7f7f;stroke-width: 0.9;" transform="matrix(1.0, 0.0, 0.0, 1.0, 0.03125, 0.0)"><path d="M 0.0 0.0 L 0.03125 0.0 L 0.03125 0.03125 L 0.0 0.03125 L 0.0 0.0 Z" style="vector-effect: non-scaling-stroke;" /></g></g></g></g></g></g></g></g></g></g></g></g><g transform="matrix(1.0, 0.0, 0.0, 1.0, 0.25, 0.0)"><g><g><g><g><g style="fill: #7f80ff;stroke: #7f80ff;stroke-width: 0.9;" transform="matrix(1.0, 0.0, 0.0, 1.0, 0.0, 0.0)"><path d="M 0.0 0.0 L 0.0625 0.0 L 0.0625 0.0625 L 0.0 0.0625 L 0.0 0.0 Z" style="vector-effect: non-scaling-stroke;" /></g><g transform="matrix(1.0, 0.0, 0.0, 1.0, 0.0625, 0.0)"><g><g><g style="fill: #7f80ff;stroke: #7f80ff;stroke-width: 0.9;" transform="matrix(1.0, 0.0, 0.0, 1.0, 0.0, 0.0)"><path d="M 0.0 0.0 L 0.03125 0.0 L 0.03125 0.03125 L 0.0 0.03125 L 0.0 0.0 Z" style="vector-effect: non-scaling-stroke;" /></g><g style="fill: #7f80ff;stroke: #7f80ff;stroke-width: 0.9;" transform="matrix(1.0, 0.0, 0.0, 1.0, 0.03125, 0.0)"><path d="M 0.0 0.0 L 0.03125 0.0 L 0.03125 0.03125 L 0.0 0.03125 L 0.0 0.0 Z" style="vector-effect: non-scaling-stroke;" /></g></g><g transform="matrix(1.0, 0.0, 0.0, 1.0, 0.0, 0.03125)"><g><g style="fill: #7f80ff;stroke: #7f80ff;stroke-width: 0.9;" transform="matrix(1.0, 0.0, 0.0, 1.0, 0.0, 0.0)"><path d="M 0.0 0.0 L 0.03125 0.0 L 0.03125 0.03125 L 0.0 0.03125 L 0.0 0.0 Z" style="vector-effect: non-scaling-stroke;" /></g><g style="fill: #7f80ff;stroke: #7f80ff;stroke-width: 0.9;" transform="matrix(1.0, 0.0, 0.0, 1.0, 0.03125, 0.0)"><path d="M 0.0 0.0 L 0.03125 0.0 L 0.03125 0.03125 L 0.0 0.03125 L 0.0 0.0 Z" style="vector-effect: non-scaling-stroke;" /></g></g></g></g></g></g><g transform="matrix(1.0, 0.0, 0.0, 1.0, 0.0, 0.0625)"><g><g><g><g style="fill: #7f80ff;stroke: #7f80ff;stroke-width: 0.9;" transform="matrix(1.0, 0.0, 0.0, 1.0, 0.0, 0.0)"><path d="M 0.0 0.0 L 0.03125 0.0 L 0.03125 0.03125 L 0.0 0.03125 L 0.0 0.0 Z" style="vector-effect: non-scaling-stroke;" /></g><g style="fill: #7f80ff;stroke: #7f80ff;stroke-width: 0.9;" transform="matrix(1.0, 0.0, 0.0, 1.0, 0.03125, 0.0)"><path d="M 0.0 0.0 L 0.03125 0.0 L 0.03125 0.03125 L 0.0 0.03125 L 0.0 0.0 Z" style="vector-effect: non-scaling-stroke;" /></g></g><g transform="matrix(1.0, 0.0, 0.0, 1.0, 0.0, 0.03125)"><g><g style="fill: #7f80ff;stroke: #7f80ff;stroke-width: 0.9;" transform="matrix(1.0, 0.0, 0.0, 1.0, 0.0, 0.0)"><path d="M 0.0 0.0 L 0.03125 0.0 L 0.03125 0.03125 L 0.0 0.03125 L 0.0 0.0 Z" style="vector-effect: non-scaling-stroke;" /></g><g style="fill: #7f80ff;stroke: #7f80ff;stroke-width: 0.9;" transform="matrix(1.0, 0.0, 0.0, 1.0, 0.03125, 0.0)"><path d="M 0.0 0.0 L 0.03125 0.0 L 0.03125 0.03125 L 0.0 0.03125 L 0.0 0.0 Z" style="vector-effect: non-scaling-stroke;" /></g></g></g></g><g transform="matrix(1.0, 0.0, 0.0, 1.0, 0.0625, 0.0)"><g><g><g style="fill: #7f80ff;stroke: #7f80ff;stroke-width: 0.9;" transform="matrix(1.0, 0.0, 0.0, 1.0, 0.0, 0.0)"><path d="M 0.0 0.0 L 0.03125 0.0 L 0.03125 0.03125 L 0.0 0.03125 L 0.0 0.0 Z" style="vector-effect: non-scaling-stroke;" /></g><g style="fill: #fd7f7f;stroke: #fd7f7f;stroke-width: 0.9;" transform="matrix(1.0, 0.0, 0.0, 1.0, 0.03125, 0.0)"><path d="M 0.0 0.0 L 0.03125 0.0 L 0.03125 0.03125 L 0.0 0.03125 L 0.0 0.0 Z" style="vector-effect: non-scaling-stroke;" /></g></g><g transform="matrix(1.0, 0.0, 0.0, 1.0, 0.0, 0.03125)"><g><g style="fill: #fd7f7f;stroke: #fd7f7f;stroke-width: 0.9;" transform="matrix(1.0, 0.0, 0.0, 1.0, 0.0, 0.0)"><path d="M 0.0 0.0 L 0.03125 0.0 L 0.03125 0.03125 L 0.0 0.03125 L 0.0 0.0 Z" style="vector-effect: non-scaling-stroke;" /></g><g style="fill: #fd7f7f;stroke: #fd7f7f;stroke-width: 0.9;" transform="matrix(1.0, 0.0, 0.0, 1.0, 0.03125, 0.0)"><path d="M 0.0 0.0 L 0.03125 0.0 L 0.03125 0.03125 L 0.0 0.03125 L 0.0 0.0 Z" style="vector-effect: non-scaling-stroke;" /></g></g></g></g></g></g></g></g><g transform="matrix(1.0, 0.0, 0.0, 1.0, 0.125, 0.0)"><g><g><g><g><g style="fill: #7f80ff;stroke: #7f80ff;stroke-width: 0.9;" transform="matrix(1.0, 0.0, 0.0, 1.0, 0.0, 0.0)"><path d="M 0.0 0.0 L 0.03125 0.0 L 0.03125 0.03125 L 0.0 0.03125 L 0.0 0.0 Z" style="vector-effect: non-scaling-stroke;" /></g><g style="fill: #fd7f7f;stroke: #fd7f7f;stroke-width: 0.9;" transform="matrix(1.0, 0.0, 0.0, 1.0, 0.03125, 0.0)"><path d="M 0.0 0.0 L 0.03125 0.0 L 0.03125 0.03125 L 0.0 0.03125 L 0.0 0.0 Z" style="vector-effect: non-scaling-stroke;" /></g></g><g transform="matrix(1.0, 0.0, 0.0, 1.0, 0.0, 0.03125)"><g><g style="fill: #fd7f7f;stroke: #fd7f7f;stroke-width: 0.9;" transform="matrix(1.0, 0.0, 0.0, 1.0, 0.0, 0.0)"><path d="M 0.0 0.0 L 0.03125 0.0 L 0.03125 0.03125 L 0.0 0.03125 L 0.0 0.0 Z" style="vector-effect: non-scaling-stroke;" /></g><g style="fill: #fd7f7f;stroke: #fd7f7f;stroke-width: 0.9;" transform="matrix(1.0, 0.0, 0.0, 1.0, 0.03125, 0.0)"><path d="M 0.0 0.0 L 0.03125 0.0 L 0.03125 0.03125 L 0.0 0.03125 L 0.0 0.0 Z" style="vector-effect: non-scaling-stroke;" /></g></g></g></g><g style="fill: #fd7f7f;stroke: #fd7f7f;stroke-width: 0.9;" transform="matrix(1.0, 0.0, 0.0, 1.0, 0.0625, 0.0)"><path d="M 0.0 0.0 L 0.0625 0.0 L 0.0625 0.0625 L 0.0 0.0625 L 0.0 0.0 Z" style="vector-effect: non-scaling-stroke;" /></g></g><g transform="matrix(1.0, 0.0, 0.0, 1.0, 0.0, 0.0625)"><g><g style="fill: #fd7f7f;stroke: #fd7f7f;stroke-width: 0.9;" transform="matrix(1.0, 0.0, 0.0, 1.0, 0.0, 0.0)"><path d="M 0.0 0.0 L 0.0625 0.0 L 0.0625 0.0625 L 0.0 0.0625 L 0.0 0.0 Z" style="vector-effect: non-scaling-stroke;" /></g><g style="fill: #fd7f7f;stroke: #fd7f7f;stroke-width: 0.9;" transform="matrix(1.0, 0.0, 0.0, 1.0, 0.0625, 0.0)"><path d="M 0.0 0.0 L 0.0625 0.0 L 0.0625 0.0625 L 0.0 0.0625 L 0.0 0.0 Z" style="vector-effect: non-scaling-stroke;" /></g></g></g></g></g></g><g transform="matrix(1.0, 0.0, 0.0, 1.0, 0.0, 0.125)"><g><g><g><g><g><g style="fill: #7f80ff;stroke: #7f80ff;stroke-width: 0.9;" transform="matrix(1.0, 0.0, 0.0, 1.0, 0.0, 0.0)"><path d="M 0.0 0.0 L 0.03125 0.0 L 0.03125 0.03125 L 0.0 0.03125 L 0.0 0.0 Z" style="vector-effect: non-scaling-stroke;" /></g><g style="fill: #fd7f7f;stroke: #fd7f7f;stroke-width: 0.9;" transform="matrix(1.0, 0.0, 0.0, 1.0, 0.03125, 0.0)"><path d="M 0.0 0.0 L 0.03125 0.0 L 0.03125 0.03125 L 0.0 0.03125 L 0.0 0.0 Z" style="vector-effect: non-scaling-stroke;" /></g></g><g transform="matrix(1.0, 0.0, 0.0, 1.0, 0.0, 0.03125)"><g><g style="fill: #fd7f7f;stroke: #fd7f7f;stroke-width: 0.9;" transform="matrix(1.0, 0.0, 0.0, 1.0, 0.0, 0.0)"><path d="M 0.0 0.0 L 0.03125 0.0 L 0.03125 0.03125 L 0.0 0.03125 L 0.0 0.0 Z" style="vector-effect: non-scaling-stroke;" /></g><g style="fill: #fd7f7f;stroke: #fd7f7f;stroke-width: 0.9;" transform="matrix(1.0, 0.0, 0.0, 1.0, 0.03125, 0.0)"><path d="M 0.0 0.0 L 0.03125 0.0 L 0.03125 0.03125 L 0.0 0.03125 L 0.0 0.0 Z" style="vector-effect: non-scaling-stroke;" /></g></g></g></g><g style="fill: #fd7f7f;stroke: #fd7f7f;stroke-width: 0.9;" transform="matrix(1.0, 0.0, 0.0, 1.0, 0.0625, 0.0)"><path d="M 0.0 0.0 L 0.0625 0.0 L 0.0625 0.0625 L 0.0 0.0625 L 0.0 0.0 Z" style="vector-effect: non-scaling-stroke;" /></g></g><g transform="matrix(1.0, 0.0, 0.0, 1.0, 0.0, 0.0625)"><g><g style="fill: #fd7f7f;stroke: #fd7f7f;stroke-width: 0.9;" transform="matrix(1.0, 0.0, 0.0, 1.0, 0.0, 0.0)"><path d="M 0.0 0.0 L 0.0625 0.0 L 0.0625 0.0625 L 0.0 0.0625 L 0.0 0.0 Z" style="vector-effect: non-scaling-stroke;" /></g><g style="fill: #fd7f7f;stroke: #fd7f7f;stroke-width: 0.9;" transform="matrix(1.0, 0.0, 0.0, 1.0, 0.0625, 0.0)"><path d="M 0.0 0.0 L 0.0625 0.0 L 0.0625 0.0625 L 0.0 0.0625 L 0.0 0.0 Z" style="vector-effect: non-scaling-stroke;" /></g></g></g></g><g style="fill: #fd7f7f;stroke: #fd7f7f;stroke-width: 0.9;" transform="matrix(1.0, 0.0, 0.0, 1.0, 0.125, 0.0)"><path d="M 0.0 0.0 L 0.125 0.0 L 0.125 0.125 L 0.0 0.125 L 0.0 0.0 Z" style="vector-effect: non-scaling-stroke;" /></g></g></g></g></g></g><g transform="matrix(1.0, 0.0, 0.0, 1.0, 0.0, 0.25)"><g><g><g><g><g><g style="fill: #7f80ff;stroke: #7f80ff;stroke-width: 0.9;" transform="matrix(1.0, 0.0, 0.0, 1.0, 0.0, 0.0)"><path d="M 0.0 0.0 L 0.0625 0.0 L 0.0625 0.0625 L 0.0 0.0625 L 0.0 0.0 Z" style="vector-effect: non-scaling-stroke;" /></g><g transform="matrix(1.0, 0.0, 0.0, 1.0, 0.0625, 0.0)"><g><g><g style="fill: #7f80ff;stroke: #7f80ff;stroke-width: 0.9;" transform="matrix(1.0, 0.0, 0.0, 1.0, 0.0, 0.0)"><path d="M 0.0 0.0 L 0.03125 0.0 L 0.03125 0.03125 L 0.0 0.03125 L 0.0 0.0 Z" style="vector-effect: non-scaling-stroke;" /></g><g style="fill: #7f80ff;stroke: #7f80ff;stroke-width: 0.9;" transform="matrix(1.0, 0.0, 0.0, 1.0, 0.03125, 0.0)"><path d="M 0.0 0.0 L 0.03125 0.0 L 0.03125 0.03125 L 0.0 0.03125 L 0.0 0.0 Z" style="vector-effect: non-scaling-stroke;" /></g></g><g transform="matrix(1.0, 0.0, 0.0, 1.0, 0.0, 0.03125)"><g><g style="fill: #7f80ff;stroke: #7f80ff;stroke-width: 0.9;" transform="matrix(1.0, 0.0, 0.0, 1.0, 0.0, 0.0)"><path d="M 0.0 0.0 L 0.03125 0.0 L 0.03125 0.03125 L 0.0 0.03125 L 0.0 0.0 Z" style="vector-effect: non-scaling-stroke;" /></g><g style="fill: #7f80ff;stroke: #7f80ff;stroke-width: 0.9;" transform="matrix(1.0, 0.0, 0.0, 1.0, 0.03125, 0.0)"><path d="M 0.0 0.0 L 0.03125 0.0 L 0.03125 0.03125 L 0.0 0.03125 L 0.0 0.0 Z" style="vector-effect: non-scaling-stroke;" /></g></g></g></g></g></g><g transform="matrix(1.0, 0.0, 0.0, 1.0, 0.0, 0.0625)"><g><g><g><g style="fill: #7f80ff;stroke: #7f80ff;stroke-width: 0.9;" transform="matrix(1.0, 0.0, 0.0, 1.0, 0.0, 0.0)"><path d="M 0.0 0.0 L 0.03125 0.0 L 0.03125 0.03125 L 0.0 0.03125 L 0.0 0.0 Z" style="vector-effect: non-scaling-stroke;" /></g><g style="fill: #7f80ff;stroke: #7f80ff;stroke-width: 0.9;" transform="matrix(1.0, 0.0, 0.0, 1.0, 0.03125, 0.0)"><path d="M 0.0 0.0 L 0.03125 0.0 L 0.03125 0.03125 L 0.0 0.03125 L 0.0 0.0 Z" style="vector-effect: non-scaling-stroke;" /></g></g><g transform="matrix(1.0, 0.0, 0.0, 1.0, 0.0, 0.03125)"><g><g style="fill: #7f80ff;stroke: #7f80ff;stroke-width: 0.9;" transform="matrix(1.0, 0.0, 0.0, 1.0, 0.0, 0.0)"><path d="M 0.0 0.0 L 0.03125 0.0 L 0.03125 0.03125 L 0.0 0.03125 L 0.0 0.0 Z" style="vector-effect: non-scaling-stroke;" /></g><g style="fill: #7f80ff;stroke: #7f80ff;stroke-width: 0.9;" transform="matrix(1.0, 0.0, 0.0, 1.0, 0.03125, 0.0)"><path d="M 0.0 0.0 L 0.03125 0.0 L 0.03125 0.03125 L 0.0 0.03125 L 0.0 0.0 Z" style="vector-effect: non-scaling-stroke;" /></g></g></g></g><g transform="matrix(1.0, 0.0, 0.0, 1.0, 0.0625, 0.0)"><g><g><g style="fill: #7f80ff;stroke: #7f80ff;stroke-width: 0.9;" transform="matrix(1.0, 0.0, 0.0, 1.0, 0.0, 0.0)"><path d="M 0.0 0.0 L 0.03125 0.0 L 0.03125 0.03125 L 0.0 0.03125 L 0.0 0.0 Z" style="vector-effect: non-scaling-stroke;" /></g><g style="fill: #fd7f7f;stroke: #fd7f7f;stroke-width: 0.9;" transform="matrix(1.0, 0.0, 0.0, 1.0, 0.03125, 0.0)"><path d="M 0.0 0.0 L 0.03125 0.0 L 0.03125 0.03125 L 0.0 0.03125 L 0.0 0.0 Z" style="vector-effect: non-scaling-stroke;" /></g></g><g transform="matrix(1.0, 0.0, 0.0, 1.0, 0.0, 0.03125)"><g><g style="fill: #fd7f7f;stroke: #fd7f7f;stroke-width: 0.9;" transform="matrix(1.0, 0.0, 0.0, 1.0, 0.0, 0.0)"><path d="M 0.0 0.0 L 0.03125 0.0 L 0.03125 0.03125 L 0.0 0.03125 L 0.0 0.0 Z" style="vector-effect: non-scaling-stroke;" /></g><g style="fill: #fd7f7f;stroke: #fd7f7f;stroke-width: 0.9;" transform="matrix(1.0, 0.0, 0.0, 1.0, 0.03125, 0.0)"><path d="M 0.0 0.0 L 0.03125 0.0 L 0.03125 0.03125 L 0.0 0.03125 L 0.0 0.0 Z" style="vector-effect: non-scaling-stroke;" /></g></g></g></g></g></g></g></g><g transform="matrix(1.0, 0.0, 0.0, 1.0, 0.125, 0.0)"><g><g><g><g><g style="fill: #7f80ff;stroke: #7f80ff;stroke-width: 0.9;" transform="matrix(1.0, 0.0, 0.0, 1.0, 0.0, 0.0)"><path d="M 0.0 0.0 L 0.03125 0.0 L 0.03125 0.03125 L 0.0 0.03125 L 0.0 0.0 Z" style="vector-effect: non-scaling-stroke;" /></g><g style="fill: #fd7f7f;stroke: #fd7f7f;stroke-width: 0.9;" transform="matrix(1.0, 0.0, 0.0, 1.0, 0.03125, 0.0)"><path d="M 0.0 0.0 L 0.03125 0.0 L 0.03125 0.03125 L 0.0 0.03125 L 0.0 0.0 Z" style="vector-effect: non-scaling-stroke;" /></g></g><g transform="matrix(1.0, 0.0, 0.0, 1.0, 0.0, 0.03125)"><g><g style="fill: #fd7f7f;stroke: #fd7f7f;stroke-width: 0.9;" transform="matrix(1.0, 0.0, 0.0, 1.0, 0.0, 0.0)"><path d="M 0.0 0.0 L 0.03125 0.0 L 0.03125 0.03125 L 0.0 0.03125 L 0.0 0.0 Z" style="vector-effect: non-scaling-stroke;" /></g><g style="fill: #fd7f7f;stroke: #fd7f7f;stroke-width: 0.9;" transform="matrix(1.0, 0.0, 0.0, 1.0, 0.03125, 0.0)"><path d="M 0.0 0.0 L 0.03125 0.0 L 0.03125 0.03125 L 0.0 0.03125 L 0.0 0.0 Z" style="vector-effect: non-scaling-stroke;" /></g></g></g></g><g style="fill: #fd7f7f;stroke: #fd7f7f;stroke-width: 0.9;" transform="matrix(1.0, 0.0, 0.0, 1.0, 0.0625, 0.0)"><path d="M 0.0 0.0 L 0.0625 0.0 L 0.0625 0.0625 L 0.0 0.0625 L 0.0 0.0 Z" style="vector-effect: non-scaling-stroke;" /></g></g><g transform="matrix(1.0, 0.0, 0.0, 1.0, 0.0, 0.0625)"><g><g style="fill: #fd7f7f;stroke: #fd7f7f;stroke-width: 0.9;" transform="matrix(1.0, 0.0, 0.0, 1.0, 0.0, 0.0)"><path d="M 0.0 0.0 L 0.0625 0.0 L 0.0625 0.0625 L 0.0 0.0625 L 0.0 0.0 Z" style="vector-effect: non-scaling-stroke;" /></g><g style="fill: #fd7f7f;stroke: #fd7f7f;stroke-width: 0.9;" transform="matrix(1.0, 0.0, 0.0, 1.0, 0.0625, 0.0)"><path d="M 0.0 0.0 L 0.0625 0.0 L 0.0625 0.0625 L 0.0 0.0625 L 0.0 0.0 Z" style="vector-effect: non-scaling-stroke;" /></g></g></g></g></g></g><g transform="matrix(1.0, 0.0, 0.0, 1.0, 0.0, 0.125)"><g><g><g><g><g><g style="fill: #7f80ff;stroke: #7f80ff;stroke-width: 0.9;" transform="matrix(1.0, 0.0, 0.0, 1.0, 0.0, 0.0)"><path d="M 0.0 0.0 L 0.03125 0.0 L 0.03125 0.03125 L 0.0 0.03125 L 0.0 0.0 Z" style="vector-effect: non-scaling-stroke;" /></g><g style="fill: #fd7f7f;stroke: #fd7f7f;stroke-width: 0.9;" transform="matrix(1.0, 0.0, 0.0, 1.0, 0.03125, 0.0)"><path d="M 0.0 0.0 L 0.03125 0.0 L 0.03125 0.03125 L 0.0 0.03125 L 0.0 0.0 Z" style="vector-effect: non-scaling-stroke;" /></g></g><g transform="matrix(1.0, 0.0, 0.0, 1.0, 0.0, 0.03125)"><g><g style="fill: #fd7f7f;stroke: #fd7f7f;stroke-width: 0.9;" transform="matrix(1.0, 0.0, 0.0, 1.0, 0.0, 0.0)"><path d="M 0.0 0.0 L 0.03125 0.0 L 0.03125 0.03125 L 0.0 0.03125 L 0.0 0.0 Z" style="vector-effect: non-scaling-stroke;" /></g><g style="fill: #fd7f7f;stroke: #fd7f7f;stroke-width: 0.9;" transform="matrix(1.0, 0.0, 0.0, 1.0, 0.03125, 0.0)"><path d="M 0.0 0.0 L 0.03125 0.0 L 0.03125 0.03125 L 0.0 0.03125 L 0.0 0.0 Z" style="vector-effect: non-scaling-stroke;" /></g></g></g></g><g style="fill: #fd7f7f;stroke: #fd7f7f;stroke-width: 0.9;" transform="matrix(1.0, 0.0, 0.0, 1.0, 0.0625, 0.0)"><path d="M 0.0 0.0 L 0.0625 0.0 L 0.0625 0.0625 L 0.0 0.0625 L 0.0 0.0 Z" style="vector-effect: non-scaling-stroke;" /></g></g><g transform="matrix(1.0, 0.0, 0.0, 1.0, 0.0, 0.0625)"><g><g style="fill: #fd7f7f;stroke: #fd7f7f;stroke-width: 0.9;" transform="matrix(1.0, 0.0, 0.0, 1.0, 0.0, 0.0)"><path d="M 0.0 0.0 L 0.0625 0.0 L 0.0625 0.0625 L 0.0 0.0625 L 0.0 0.0 Z" style="vector-effect: non-scaling-stroke;" /></g><g style="fill: #fd7f7f;stroke: #fd7f7f;stroke-width: 0.9;" transform="matrix(1.0, 0.0, 0.0, 1.0, 0.0625, 0.0)"><path d="M 0.0 0.0 L 0.0625 0.0 L 0.0625 0.0625 L 0.0 0.0625 L 0.0 0.0 Z" style="vector-effect: non-scaling-stroke;" /></g></g></g></g><g style="fill: #fd7f7f;stroke: #fd7f7f;stroke-width: 0.9;" transform="matrix(1.0, 0.0, 0.0, 1.0, 0.125, 0.0)"><path d="M 0.0 0.0 L 0.125 0.0 L 0.125 0.125 L 0.0 0.125 L 0.0 0.0 Z" style="vector-effect: non-scaling-stroke;" /></g></g></g></g><g style="fill: #fd7f7f;stroke: #fd7f7f;stroke-width: 0.9;" transform="matrix(1.0, 0.0, 0.0, 1.0, 0.25, 0.0)"><path d="M 0.0 0.0 L 0.25 0.0 L 0.25 0.25 L 0.0 0.25 L 0.0 0.0 Z" style="vector-effect: non-scaling-stroke;" /></g></g></g></g><g style="fill: #fd7f7f;stroke: #fd7f7f;stroke-width: 0.9;" transform="matrix(1.0, 0.0, 0.0, 1.0, 0.5, 0.0)"><path d="M 0.0 0.0 L 0.5 0.0 L 0.5 0.5 L 0.0 0.5 L 0.0 0.0 Z" style="vector-effect: non-scaling-stroke;" /></g></g><g transform="matrix(1.0, 0.0, 0.0, 1.0, 0.0, 0.5)"><g><g style="fill: #fd7f7f;stroke: #fd7f7f;stroke-width: 0.9;" transform="matrix(1.0, 0.0, 0.0, 1.0, 0.0, 0.0)"><path d="M 0.0 0.0 L 0.5 0.0 L 0.5 0.5 L 0.0 0.5 L 0.0 0.0 Z" style="vector-effect: non-scaling-stroke;" /></g><g style="fill: #fd7f7f;stroke: #fd7f7f;stroke-width: 0.9;" transform="matrix(1.0, 0.0, 0.0, 1.0, 0.5, 0.0)"><path d="M 0.0 0.0 L 0.5 0.0 L 0.5 0.5 L 0.0 0.5 L 0.0 0.0 Z" style="vector-effect: non-scaling-stroke;" /></g></g></g></g></g><g><g style="stroke: black;stroke-width: 1.8;" transform="matrix(1.0, 0.0, 0.0, 1.0, 0.0, -1.0)"><path d="M 0.0 0.0 L 0.0 1.0" style="vector-effect: non-scaling-stroke;fill:none;" /></g><g style="stroke: black;stroke-width: 1.8;" transform="matrix(1.0, 0.0, 0.0, 1.0, 0.0, 0.0)"><path d="M 0.0 0.0 L 1.0 0.0" style="vector-effect: non-scaling-stroke;fill:none;" /></g></g></g><g><g><g /><g><g><g><g><g /><g style="fill: #69bac9;stroke: black;stroke-width: 1.8;" transform="matrix(0.025, 0.0, 0.0, 0.025, 0.5780913011344704, -0.20609823213950174)"><path d="M 2.0 -0.0 A 2.0 2.0 0.0 0 0 0.0 -2.0 A 2.0 2.0 -90.0 0 0 -2.0 0.0 A 2.0 2.0 180.0 0 0 0.0 2.0 A 2.0 2.0 90.0 0 0 2.0 0.0 Z M 1.0 -0.0 A 1.0 1.0 0.0 0 1 0.0 1.0 A 1.0 1.0 90.0 0 1 -1.0 0.0 A 1.0 1.0 180.0 0 1 0.0 -1.0 A 1.0 1.0 -90.0 0 1 1.0 0.0 Z" style="vector-effect: non-scaling-stroke;" /></g></g><g style="fill: #69bac9;stroke: black;stroke-width: 1.8;" transform="matrix(0.025, 0.0, 0.0, 0.025, 0.6534725339011758, -0.16022955651881965)"><path d="M 2.0 -0.0 A 2.0 2.0 0.0 0 0 0.0 -2.0 A 2.0 2.0 -90.0 0 0 -2.0 0.0 A 2.0 2.0 180.0 0 0 0.0 2.0 A 2.0 2.0 90.0 0 0 2.0 0.0 Z M 1.0 -0.0 A 1.0 1.0 0.0 0 1 0.0 1.0 A 1.0 1.0 90.0 0 1 -1.0 0.0 A 1.0 1.0 180.0 0 1 0.0 -1.0 A 1.0 1.0 -90.0 0 1 1.0 0.0 Z" style="vector-effect: non-scaling-stroke;" /></g></g><g style="fill: #69bac9;stroke: black;stroke-width: 1.8;" transform="matrix(0.025, 0.0, 0.0, 0.025, 0.5206693596399246, -0.32777281162209315)"><path d="M 2.0 -0.0 A 2.0 2.0 0.0 0 0 0.0 -2.0 A 2.0 2.0 -90.0 0 0 -2.0 0.0 A 2.0 2.0 180.0 0 0 0.0 2.0 A 2.0 2.0 90.0 0 0 2.0 0.0 Z M 1.0 -0.0 A 1.0 1.0 0.0 0 1 0.0 1.0 A 1.0 1.0 90.0 0 1 -1.0 0.0 A 1.0 1.0 180.0 0 1 0.0 -1.0 A 1.0 1.0 -90.0 0 1 1.0 0.0 Z" style="vector-effect: non-scaling-stroke;" /></g></g><g style="fill: #69bac9;stroke: black;stroke-width: 1.8;" transform="matrix(0.025, 0.0, 0.0, 0.025, 0.3816059859191179, -0.28361821790671515)"><path d="M 2.0 -0.0 A 2.0 2.0 0.0 0 0 0.0 -2.0 A 2.0 2.0 -90.0 0 0 -2.0 0.0 A 2.0 2.0 180.0 0 0 0.0 2.0 A 2.0 2.0 90.0 0 0 2.0 0.0 Z M 1.0 -0.0 A 1.0 1.0 0.0 0 1 0.0 1.0 A 1.0 1.0 90.0 0 1 -1.0 0.0 A 1.0 1.0 180.0 0 1 0.0 -1.0 A 1.0 1.0 -90.0 0 1 1.0 0.0 Z" style="vector-effect: non-scaling-stroke;" /></g></g></g><g><g><g><g><g><g><g /><g style="fill: #ff0000;stroke: black;stroke-width: 1.8;" transform="matrix(0.024999999999999998, -0.02499999999999999, 0.02499999999999999, 0.024999999999999998, 0.5214025946899135, -0.45388905467511464)"><path d="M 0.0 0.0 L 1.0 0.0 L 1.0 1.0 L 2.0 1.0 L 2.0 2.0 L 1.0 2.0 L 1.0 3.0 L 0.0 3.0 L 0.0 2.0 L -1.0 2.0 L -1.0 1.0 L 0.0 1.0 L 0.0 0.0 Z" style="vector-effect: non-scaling-stroke;" /></g></g><g style="fill: #ff0000;stroke: black;stroke-width: 1.8;" transform="matrix(0.024999999999999998, -0.02499999999999999, 0.02499999999999999, 0.024999999999999998, 0.76332125135732, -0.8485888725334455)"><path d="M 0.0 0.0 L 1.0 0.0 L 1.0 1.0 L 2.0 1.0 L 2.0 2.0 L 1.0 2.0 L 1.0 3.0 L 0.0 3.0 L 0.0 2.0 L -1.0 2.0 L -1.0 1.0 L 0.0 1.0 L 0.0 0.0 Z" style="vector-effect: non-scaling-stroke;" /></g></g><g style="fill: #ff0000;stroke: black;stroke-width: 1.8;" transform="matrix(0.024999999999999998, -0.02499999999999999, 0.02499999999999999, 0.024999999999999998, 0.19999667668640037, -0.9778169091459117)"><path d="M 0.0 0.0 L 1.0 0.0 L 1.0 1.0 L 2.0 1.0 L 2.0 2.0 L 1.0 2.0 L 1.0 3.0 L 0.0 3.0 L 0.0 2.0 L -1.0 2.0 L -1.0 1.0 L 0.0 1.0 L 0.0 0.0 Z" style="vector-effect: non-scaling-stroke;" /></g></g><g style="fill: #ff0000;stroke: black;stroke-width: 1.8;" transform="matrix(0.024999999999999998, -0.02499999999999999, 0.02499999999999999, 0.024999999999999998, 0.9465569925394551, -0.06955638245043302)"><path d="M 0.0 0.0 L 1.0 0.0 L 1.0 1.0 L 2.0 1.0 L 2.0 2.0 L 1.0 2.0 L 1.0 3.0 L 0.0 3.0 L 0.0 2.0 L -1.0 2.0 L -1.0 1.0 L 0.0 1.0 L 0.0 0.0 Z" style="vector-effect: non-scaling-stroke;" /></g></g><g style="fill: #ff0000;stroke: black;stroke-width: 1.8;" transform="matrix(0.024999999999999998, -0.02499999999999999, 0.02499999999999999, 0.024999999999999998, 0.810161037286291, -0.6281906109681851)"><path d="M 0.0 0.0 L 1.0 0.0 L 1.0 1.0 L 2.0 1.0 L 2.0 2.0 L 1.0 2.0 L 1.0 3.0 L 0.0 3.0 L 0.0 2.0 L -1.0 2.0 L -1.0 1.0 L 0.0 1.0 L 0.0 0.0 Z" style="vector-effect: non-scaling-stroke;" /></g></g><g style="fill: #ff0000;stroke: black;stroke-width: 1.8;" transform="matrix(0.024999999999999998, -0.02499999999999999, 0.02499999999999999, 0.024999999999999998, 0.6249648471349559, -0.48183115105830565)"><path d="M 0.0 0.0 L 1.0 0.0 L 1.0 1.0 L 2.0 1.0 L 2.0 2.0 L 1.0 2.0 L 1.0 3.0 L 0.0 3.0 L 0.0 2.0 L -1.0 2.0 L -1.0 1.0 L 0.0 1.0 L 0.0 0.0 Z" style="vector-effect: non-scaling-stroke;" /></g></g></g></g><g style="stroke: black;stroke-width: 0.9;stroke-dasharray: 5 5;" transform="matrix(1.0, 0.0, 0.0, 1.0, 0.0, 0.0)"><path d="M 0.5780913011344704 -0.20609823213950174 L 0.38599653449748433 -0.014003465502515688" style="vector-effect: non-scaling-stroke;fill:none;" /></g></g><g style="stroke: black;stroke-width: 0.9;stroke-dasharray: 5 5;" transform="matrix(1.0, 0.0, 0.0, 1.0, 0.0, 0.0)"><path d="M 0.6534725339011758 -0.16022955651881965 L 0.4466214886911781 0.04662148869117802" style="vector-effect: non-scaling-stroke;fill:none;" /></g></g><g style="stroke: black;stroke-width: 0.9;stroke-dasharray: 5 5;" transform="matrix(1.0, 0.0, 0.0, 1.0, 0.0, 0.0)"><path d="M 0.5206693596399246 -0.32777281162209315 L 0.2964482740089158 -0.10355172599108439" style="vector-effect: non-scaling-stroke;fill:none;" /></g></g><g style="stroke: black;stroke-width: 0.9;stroke-dasharray: 5 5;" transform="matrix(1.0, 0.0, 0.0, 1.0, 0.0, 0.0)"><path d="M 0.3816059859191179 -0.28361821790671515 L 0.2489938840062014 -0.15100611599379868" style="vector-effect: non-scaling-stroke;fill:none;" /></g></g></g><g /></g></g></g></g></svg>