<?xml version="1.0" encoding="utf-8" ?>
<svg baseProfile="full" height="300" version="1.1" width="900" xmlns="http://www.w3.org/2000/svg" xmlns:ev="http://www.w3.org/2001/xml-events" xmlns:xlink="http://www.w3.org/1999/xlink"><defs><marker id="arrow" markerHeight="3.5" markerWidth="5" orient="auto" refX="5.0" refY="1.7"><polygon points="0,0 5,1.75 0,3.5" /></marker></defs><g style="fill:white;"><g transform="matrix(1.0, 0.0, 0.0, 1.0, 450.015, 150.0)"><g transform="matrix(285.7142857142857, 0.0, 0.0, 285.7142857142857, 0.0, 0.0)"><g><g transform="matrix(1.0, 0.0, 0.0, 1.0, -1.0000499999999999, -0.0)"><g><g><g><g><g transform="matrix(1.0, 0.0, 0.0, 1.0, -0.5, 0.5)"><g><g transform="matrix(1.0, 0.0, 0.0, -1.0, 0.0, 0.0)"><g><g><g style="fill: #7f80ff;stroke: #7f80ff;stroke-width: 2.7;" transform="matrix(1.0, 0.0, 0.0, 1.0, 0.0, 0.0)"><path d="M 0.0 0.0 L 0.5 0.0 L 0.5 0.5 L 0.0 0.5 L 0.0 0.0 Z" style="vector-effect: non-scaling-stroke;" /></g><g transform="matrix(1.0, 0.0, 0.0, 1.0, 0.5, 0.0)"><g><g><g style="fill: #7f80ff;stroke: #7f80ff;stroke-width: 2.7;" transform="matrix(1.0, 0.0, 0.0, 1.0, 0.0, 0.0)"><path d="M 0.0 0.0 L 0.25 0.0 L 0.25 0.25 L 0.0 0.25 L 0.0 0.0 Z" style="vector-effect: non-scaling-stroke;" /></g><g transform="matrix(1.0, 0.0, 0.0, 1.0, 0.25, 0.0)"><g><g><g style="fill: #7f80ff;stroke: #7f80ff;stroke-width: 2.7;" transform="matrix(1.0, 0.0, 0.0, 1.0, 0.0, 0.0)"><path d="M 0.0 0.0 L 0.125 0.0 L 0.125 0.125 L 0.0 0.125 L 0.0 0.0 Z" style="vector-effect: non-scaling-stroke;" /></g><g transform="matrix(1.0, 0.0, 0.0, 1.0, 0.125, 0.0)"><g><g><g style="fill: #7f80ff;stroke: #7f80ff;stroke-width: 2.7;" transform="matrix(1.0, 0.0, 0.0, 1.0, 0.0, 0.0)"><path d="M 0.0 0.0 L 0.0625 0.0 L 0.0625 0.0625 L 0.0 0.0625 L 0.0 0.0 Z" style="vector-effect: non-scaling-stroke;" /></g><g transform="matrix(1.0, 0.0, 0.0, 1.0, 0.0625, 0.0)"><g><g><g style="fill: #7f80ff;stroke: #7f80ff;stroke-width: 2.7;" transform="matrix(1.0, 0.0, 0.0, 1.0, 0.0, 0.0)"><path d="M 0.0 0.0 L 0.03125 0.0 L 0.03125 0.03125 L 0.0 0.03125 L 0.0 0.0 Z" style="vector-effect: non-scaling-stroke;" /></g><g style="fill: #7f80ff;stroke: #7f80ff;stroke-width: 2.7;" transform="matrix(1.0, 0.0, 0.0, 1.0, 0.03125, 0.0)"><path d="M 0.0 0.0 L 0.03125 0.0 L 0.03125 0.03125 L 0.0 0.03125 L 0.0 0.0 Z" style="vector-effect: non-scaling-stroke;" /></g></g><g transform="matrix(1.0, 0.0, 0.0, 1.0, 0.0, 0.03125)"><g><g style="fill: #7f80ff;stroke: #7f80ff;stroke-width: 2.7;" transform="matrix(1.0, 0.0, 0.0, 1.0, 0.0, 0.0)"><path d="M 0.0 0.0 L 0.03125 0.0 L 0.03125 0.03125 L 0.0 0.03125 L 0.0 0.0 Z" style="vector-effect: non-scaling-stroke;" /></g><g style="fill: #7f80ff;stroke: #7f80ff;stroke-width: 2.7;" transform="matrix(1.0, 0.0, 0.0, 1.0, 0.03125, 0.0)"><path d="M 0.0 0.0 L 0.03125 0.0 L 0.03125 0.03125 L 0.0 0.03125 L 0.0 0.0 Z" style="vector-effect: non-scaling-stroke;" /></g></g></g></g></g></g><g transform="matrix(1.0, 0.0, 0.0, 1.0, 0.0, 0.0625)"><g><g><g><g style="fill: #7f80ff;stroke: #7f80ff;stroke-width: 2.7;" transform="matrix(1.0, 0.0, 0.0, 1.0, 0.0, 0.0)"><path d="M 0.0 0.0 L 0.03125 0.0 L 0.03125 0.03125 L 0.0 0.03125 L 0.0 0.0 Z" style="vector-effect: non-scaling-stroke;" /></g><g style="fill: #7f80ff;stroke: #7f80ff;stroke-width: 2.7;" transform="matrix(1.0, 0.0, 0.0, 1.0, 0.03125, 0.0)"><path d="M 0.0 0.0 L 0.03125 0.0 L 0.03125 0.03125 L 0.0 0.03125 L 0.0 0.0 Z" style="vector-effect: non-scaling-stroke;" /></g></g><g transform="matrix(1.0, 0.0, 0.0, 1.0, 0.0, 0.03125)"><g><g style="fill: #7f80ff;stroke: #7f80ff;stroke-width: 2.7;" transform="matrix(1.0, 0.0, 0.0, 1.0, 0.0, 0.0)"><path d="M 0.0 0.0 L 0.03125 0.0 L 0.03125 0.03125 L 0.0 0.03125 L 0.0 0.0 Z" style="vector-effect: non-scaling-stroke;" /></g><g style="fill: #7f80ff;stroke: #7f80ff;stroke-width: 2.7;" transform="matrix(1.0, 0.0, 0.0, 1.0, 0.03125, 0.0)"><path d="M 0.0 0.0 L 0.03125 0.0 L 0.03125 0.03125 L 0.0 0.03125 L 0.0 0.0 Z" style="vector-effect: non-scaling-stroke;" /></g></g></g></g><g transform="matrix(1.0, 0.0, 0.0, 1.0, 0.0625, 0.0)"><g><g><g style="fill: #7f80ff;stroke: #7f80ff;stroke-width: 2.7;" transform="matrix(1.0, 0.0, 0.0, 1.0, 0.0, 0.0)"><path d="M 0.0 0.0 L 0.03125 0.0 L 0.03125 0.03125 L 0.0 0.03125 L 0.0 0.0 Z" style="vector-effect: non-scaling-stroke;" /></g><g style="fill: #fd7f7f;stroke: #fd7f7f;stroke-width: 2.7;" transform="matrix(1.0, 0.0, 0.0, 1.0, 0.03125, 0.0)"><path d="M 0.0 0.0 L 0.03125 0.0 L 0.03125 0.03125 L 0.0 0.03125 L 0.0 0.0 Z" style="vector-effect: non-scaling-stroke;" /></g></g><g transform="matrix(1.0, 0.0, 0.0, 1.0, 0.0, 0.03125)"><g><g style="fill: #fd7f7f;stroke: #fd7f7f;stroke-width: 2.7;" transform="matrix(1.0, 0.0, 0.0, 1.0, 0.0, 0.0)"><path d="M 0.0 0.0 L 0.03125 0.0 L 0.03125 0.03125 L 0.0 0.03125 L 0.0 0.0 Z" style="vector-effect: non-scaling-stroke;" /></g><g style="fill: #fd7f7f;stroke: #fd7f7f;stroke-width: 2.7;" transform="matrix(1.0, 0.0, 0.0, 1.0, 0.03125, 0.0)"><path d="M 0.0 0.0 L 0.03125 0.0 L 0.03125 0.03125 L 0.0 0.03125 L 0.0 0.0 Z" style="vector-effect: non-scaling-stroke;" /></g></g></g></g></g></g></g></g></g></g><g transform="matrix(1.0, 0.0, 0.0, 1.0, 0.0, 0.125)"><g><g><g><g style="fill: #7f80ff;stroke: #7f80ff;stroke-width: 2.7;" transform="matrix(1.0, 0.0, 0.0, 1.0, 0.0, 0.0)"><path d="M 0.0 0.0 L 0.0625 0.0 L 0.0625 0.0625 L 0.0 0.0625 L 0.0 0.0 Z" style="vector-effect: non-scaling-stroke;" /></g><g transform="matrix(1.0, 0.0, 0.0, 1.0, 0.0625, 0.0)"><g><g><g style="fill: #7f80ff;stroke: #7f80ff;stroke-width: 2.7;" transform="matrix(1.0, 0.0, 0.0, 1.0, 0.0, 0.0)"><path d="M 0.0 0.0 L 0.03125 0.0 L 0.03125 0.03125 L 0.0 0.03125 L 0.0 0.0 Z" style="vector-effect: non-scaling-stroke;" /></g><g style="fill: #7f80ff;stroke: #7f80ff;stroke-width: 2.7;" transform="matrix(1.0, 0.0, 0.0, 1.0, 0.03125, 0.0)"><path d="M 0.0 0.0 L 0.03125 0.0 L 0.03125 0.03125 L 0.0 0.03125 L 0.0 0.0 Z" style="vector-effect: non-scaling-stroke;" /></g></g><g transform="matrix(1.0, 0.0, 0.0, 1.0, 0.0, 0.03125)"><g><g style="fill: #7f80ff;stroke: #7f80ff;stroke-width: 2.7;" transform="matrix(1.0, 0.0, 0.0, 1.0, 0.0, 0.0)"><path d="M 0.0 0.0 L 0.03125 0.0 L 0.03125 0.03125 L 0.0 0.03125 L 0.0 0.0 Z" style="vector-effect: non-scaling-stroke;" /></g><g style="fill: #7f80ff;stroke: #7f80ff;stroke-width: 2.7;" transform="matrix(1.0, 0.0, 0.0, 1.0, 0.03125, 0.0)"><path d="M 0.0 0.0 L 0.03125 0.0 L 0.03125 0.03125 L 0.0 0.03125 L 0.0 0.0 Z" style="vector-effect: non-scaling-stroke;" /></g></g></g></g></g></g><g transform="matrix(1.0, 0.0, 0.0, 1.0, 0.0, 0.0625)"><g><g><g><g style="fill: #7f80ff;stroke: #7f80ff;stroke-width: 2.7;" transform="matrix(1.0, 0.0, 0.0, 1.0, 0.0, 0.0)"><path d="M 0.0 0.0 L 0.03125 0.0 L 0.03125 0.03125 L 0.0 0.03125 L 0.0 0.0 Z" style="vector-effect: non-scaling-stroke;" /></g><g style="fill: #7f80ff;stroke: #7f80ff;stroke-width: 2.7;" transform="matrix(1.0, 0.0, 0.0, 1.0, 0.03125, 0.0)"><path d="M 0.0 0.0 L 0.03125 0.0 L 0.03125 0.03125 L 0.0 0.03125 L 0.0 0.0 Z" style="vector-effect: non-scaling-stroke;" /></g></g><g transform="matrix(1.0, 0.0, 0.0, 1.0, 0.0, 0.03125)"><g><g style="fill: #7f80ff;stroke: #7f80ff;stroke-width: 2.7;" transform="matrix(1.0, 0.0, 0.0, 1.0, 0.0, 0.0)"><path d="M 0.0 0.0 L 0.03125 0.0 L 0.03125 0.03125 L 0.0 0.03125 L 0.0 0.0 Z" style="vector-effect: non-scaling-stroke;" /></g><g style="fill: #7f80ff;stroke: #7f80ff;stroke-width: 2.7;" transform="matrix(1.0, 0.0, 0.0, 1.0, 0.03125, 0.0)"><path d="M 0.0 0.0 L 0.03125 0.0 L 0.03125 0.03125 L 0.0 0.03125 L 0.0 0.0 Z" style="vector-effect: non-scaling-stroke;" /></g></g></g></g><g transform="matrix(1.0, 0.0, 0.0, 1.0, 0.0625, 0.0)"><g><g><g style="fill: #7f80ff;stroke: #7f80ff;stroke-width: 2.7;" transform="matrix(1.0, 0.0, 0.0, 1.0, 0.0, 0.0)"><path d="M 0.0 0.0 L 0.03125 0.0 L 0.03125 0.03125 L 0.0 0.03125 L 0.0 0.0 Z" style="vector-effect: non-scaling-stroke;" /></g><g style="fill: #fd7f7f;stroke: #fd7f7f;stroke-width: 2.7;" transform="matrix(1.0, 0.0, 0.0, 1.0, 0.03125, 0.0)"><path d="M 0.0 0.0 L 0.03125 0.0 L 0.03125 0.03125 L 0.0 0.03125 L 0.0 0.0 Z" style="vector-effect: non-scaling-stroke;" /></g></g><g transform="matrix(1.0, 0.0, 0.0, 1.0, 0.0, 0.03125)"><g><g style="fill: #fd7f7f;stroke: #fd7f7f;stroke-width: 2.7;" transform="matrix(1.0, 0.0, 0.0, 1.0, 0.0, 0.0)"><path d="M 0.0 0.0 L 0.03125 0.0 L 0.03125 0.03125 L 0.0 0.03125 L 0.0 0.0 Z" style="vector-effect: non-scaling-stroke;" /></g><g style="fill: #fd7f7f;stroke: #fd7f7f;stroke-width: 2.7;" transform="matrix(1.0, 0.0, 0.0, 1.0, 0.03125, 0.0)"><path d="M 0.0 0.0 L 0.03125 0.0 L 0.03125 0.03125 L 0.0 0.03125 L 0.0 0.0 Z" style="vector-effect: non-scaling-stroke;" /></g></g></g></g></g></g></g></g><g transform="matrix(1.0, 0.0, 0.0, 1.0, 0.125, 0.0)"><g><g><g><g><g style="fill: #7f80ff;stroke: #7f80ff;stroke-width: 2.7;" transform="matrix(1.0, 0.0, 0.0, 1.0, 0.0, 0.0)"><path d="M 0.0 0.0 L 0.03125 0.0 L 0.03125 0.03125 L 0.0 0.03125 L 0.0 0.0 Z" style="vector-effect: non-scaling-stroke;" /></g><g style="fill: #fd7f7f;stroke: #fd7f7f;stroke-width: 2.7;" transform="matrix(1.0, 0.0, 0.0, 1.0, 0.03125, 0.0)"><path d="M 0.0 0.0 L 0.03125 0.0 L 0.03125 0.03125 L 0.0 0.03125 L 0.0 0.0 Z" style="vector-effect: non-scaling-stroke;" /></g></g><g transform="matrix(1.0, 0.0, 0.0, 1.0, 0.0, 0.03125)"><g><g style="fill: #fd7f7f;stroke: #fd7f7f;stroke-width: 2.7;" transform="matrix(1.0, 0.0, 0.0, 1.0, 0.0, 0.0)"><path d="M 0.0 0.0 L 0.03125 0.0 L 0.03125 0.03125 L 0.0 0.03125 L 0.0 0.0 Z" style="vector-effect: non-scaling-stroke;" /></g><g style="fill: #fd7f7f;stroke: #fd7f7f;stroke-width: 2.7;" transform="matrix(1.0, 0.0, 0.0, 1.0, 0.03125, 0.0)"><path d="M 0.0 0.0 L 0.03125 0.0 L 0.03125 0.03125 L 0.0 0.03125 L 0.0 0.0 Z" style="vector-effect: non-scaling-stroke;" /></g></g></g></g><g style="fill: #fd7f7f;stroke: #fd7f7f;stroke-width: 2.7;" transform="matrix(1.0, 0.0, 0.0, 1.0, 0.0625, 0.0)"><path d="M 0.0 0.0 L 0.0625 0.0 L 0.0625 0.0625 L 0.0 0.0625 L 0.0 0.0 Z" style="vector-effect: non-scaling-stroke;" /></g></g><g transform="matrix(1.0, 0.0, 0.0, 1.0, 0.0, 0.0625)"><g><g style="fill: #fd7f7f;stroke: #fd7f7f;stroke-width: 2.7;" transform="matrix(1.0, 0.0, 0.0, 1.0, 0.0, 0.0)"><path d="M 0.0 0.0 L 0.0625 0.0 L 0.0625 0.0625 L 0.0 0.0625 L 0.0 0.0 Z" style="vector-effect: non-scaling-stroke;" /></g><g style="fill: #fd7f7f;stroke: #fd7f7f;stroke-width: 2.7;" transform="matrix(1.0, 0.0, 0.0, 1.0, 0.0625, 0.0)"><path d="M 0.0 0.0 L 0.0625 0.0 L 0.0625 0.0625 L 0.0 0.0625 L 0.0 0.0 Z" style="vector-effect: non-scaling-stroke;" /></g></g></g></g></g></g></g></g></g></g><g transform="matrix(1.0, 0.0, 0.0, 1.0, 0.0, 0.25)"><g><g><g><g style="fill: #7f80ff;stroke: #7f80ff;stroke-width: 2.7;" transform="matrix(1.0, 0.0, 0.0, 1.0, 0.0, 0.0)"><path d="M 0.0 0.0 L 0.125 0.0 L 0.125 0.125 L 0.0 0.125 L 0.0 0.0 Z" style="vector-effect: non-scaling-stroke;" /></g><g transform="matrix(1.0, 0.0, 0.0, 1.0, 0.125, 0.0)"><g><g><g style="fill: #7f80ff;stroke: #7f80ff;stroke-width: 2.7;" transform="matrix(1.0, 0.0, 0.0, 1.0, 0.0, 0.0)"><path d="M 0.0 0.0 L 0.0625 0.0 L 0.0625 0.0625 L 0.0 0.0625 L 0.0 0.0 Z" style="vector-effect: non-scaling-stroke;" /></g><g transform="matrix(1.0, 0.0, 0.0, 1.0, 0.0625, 0.0)"><g><g><g style="fill: #7f80ff;stroke: #7f80ff;stroke-width: 2.7;" transform="matrix(1.0, 0.0, 0.0, 1.0, 0.0, 0.0)"><path d="M 0.0 0.0 L 0.03125 0.0 L 0.03125 0.03125 L 0.0 0.03125 L 0.0 0.0 Z" style="vector-effect: non-scaling-stroke;" /></g><g style="fill: #7f80ff;stroke: #7f80ff;stroke-width: 2.7;" transform="matrix(1.0, 0.0, 0.0, 1.0, 0.03125, 0.0)"><path d="M 0.0 0.0 L 0.03125 0.0 L 0.03125 0.03125 L 0.0 0.03125 L 0.0 0.0 Z" style="vector-effect: non-scaling-stroke;" /></g></g><g transform="matrix(1.0, 0.0, 0.0, 1.0, 0.0, 0.03125)"><g><g style="fill: #7f80ff;stroke: #7f80ff;stroke-width: 2.7;" transform="matrix(1.0, 0.0, 0.0, 1.0, 0.0, 0.0)"><path d="M 0.0 0.0 L 0.03125 0.0 L 0.03125 0.03125 L 0.0 0.03125 L 0.0 0.0 Z" style="vector-effect: non-scaling-stroke;" /></g><g style="fill: #7f80ff;stroke: #7f80ff;stroke-width: 2.7;" transform="matrix(1.0, 0.0, 0.0, 1.0, 0.03125, 0.0)"><path d="M 0.0 0.0 L 0.03125 0.0 L 0.03125 0.03125 L 0.0 0.03125 L 0.0 0.0 Z" style="vector-effect: non-scaling-stroke;" /></g></g></g></g></g></g><g transform="matrix(1.0, 0.0, 0.0, 1.0, 0.0, 0.0625)"><g><g><g><g style="fill: #7f80ff;stroke: #7f80ff;stroke-width: 2.7;" transform="matrix(1.0, 0.0, 0.0, 1.0, 0.0, 0.0)"><path d="M 0.0 0.0 L 0.03125 0.0 L 0.03125 0.03125 L 0.0 0.03125 L 0.0 0.0 Z" style="vector-effect: non-scaling-stroke;" /></g><g style="fill: #7f80ff;stroke: #7f80ff;stroke-width: 2.7;" transform="matrix(1.0, 0.0, 0.0, 1.0, 0.03125, 0.0)"><path d="M 0.0 0.0 L 0.03125 0.0 L 0.03125 0.03125 L 0.0 0.03125 L 0.0 0.0 Z" style="vector-effect: non-scaling-stroke;" /></g></g><g transform="matrix(1.0, 0.0, 0.0, 1.0, 0.0, 0.03125)"><g><g style="fill: #7f80ff;stroke: #7f80ff;stroke-width: 2.7;" transform="matrix(1.0, 0.0, 0.0, 1.0, 0.0, 0.0)"><path d="M 0.0 0.0 L 0.03125 0.0 L 0.03125 0.03125 L 0.0 0.03125 L 0.0 0.0 Z" style="vector-effect: non-scaling-stroke;" /></g><g style="fill: #7f80ff;stroke: #7f80ff;stroke-width: 2.7;" transform="matrix(1.0, 0.0, 0.0, 1.0, 0.03125, 0.0)"><path d="M 0.0 0.0 L 0.03125 0.0 L 0.03125 0.03125 L 0.0 0.03125 L 0.0 0.0 Z" style="vector-effect: non-scaling-stroke;" /></g></g></g></g><g transform="matrix(1.0, 0.0, 0.0, 1.0, 0.0625, 0.0)"><g><g><g style="fill: #7f80ff;stroke: #7f80ff;stroke-width: 2.7;" transform="matrix(1.0, 0.0, 0.0, 1.0, 0.0, 0.0)"><path d="M 0.0 0.0 L 0.03125 0.0 L 0.03125 0.03125 L 0.0 0.03125 L 0.0 0.0 Z" style="vector-effect: non-scaling-stroke;" /></g><g style="fill: #fd7f7f;stroke: #fd7f7f;stroke-width: 2.7;" transform="matrix(1.0, 0.0, 0.0, 1.0, 0.03125, 0.0)"><path d="M 0.0 0.0 L 0.03125 0.0 L 0.03125 0.03125 L 0.0 0.03125 L 0.0 0.0 Z" style="vector-effect: non-scaling-stroke;" /></g></g><g transform="matrix(1.0, 0.0, 0.0, 1.0, 0.0, 0.03125)"><g><g style="fill: #fd7f7f;stroke: #fd7f7f;stroke-width: 2.7;" transform="matrix(1.0, 0.0, 0.0, 1.0, 0.0, 0.0)"><path d="M 0.0 0.0 L 0.03125 0.0 L 0.03125 0.03125 L 0.0 0.03125 L 0.0 0.0 Z" style="vector-effect: non-scaling-stroke;" /></g><g style="fill: #fd7f7f;stroke: #fd7f7f;stroke-width: 2.7;" transform="matrix(1.0, 0.0, 0.0, 1.0, 0.03125, 0.0)"><path d="M 0.0 0.0 L 0.03125 0.0 L 0.03125 0.03125 L 0.0 0.03125 L 0.0 0.0 Z" style="vector-effect: non-scaling-stroke;" /></g></g></g></g></g></g></g></g></g></g><g transform="matrix(1.0, 0.0, 0.0, 1.0, 0.0, 0.125)"><g><g><g><g style="fill: #7f80ff;stroke: #7f80ff;stroke-width: 2.7;" transform="matrix(1.0, 0.0, 0.0, 1.0, 0.0, 0.0)"><path d="M 0.0 0.0 L 0.0625 0.0 L 0.0625 0.0625 L 0.0 0.0625 L 0.0 0.0 Z" style="vector-effect: non-scaling-stroke;" /></g><g transform="matrix(1.0, 0.0, 0.0, 1.0, 0.0625, 0.0)"><g><g><g style="fill: #7f80ff;stroke: #7f80ff;stroke-width: 2.7;" transform="matrix(1.0, 0.0, 0.0, 1.0, 0.0, 0.0)"><path d="M 0.0 0.0 L 0.03125 0.0 L 0.03125 0.03125 L 0.0 0.03125 L 0.0 0.0 Z" style="vector-effect: non-scaling-stroke;" /></g><g style="fill: #7f80ff;stroke: #7f80ff;stroke-width: 2.7;" transform="matrix(1.0, 0.0, 0.0, 1.0, 0.03125, 0.0)"><path d="M 0.0 0.0 L 0.03125 0.0 L 0.03125 0.03125 L 0.0 0.03125 L 0.0 0.0 Z" style="vector-effect: non-scaling-stroke;" /></g></g><g transform="matrix(1.0, 0.0, 0.0, 1.0, 0.0, 0.03125)"><g><g style="fill: #7f80ff;stroke: #7f80ff;stroke-width: 2.7;" transform="matrix(1.0, 0.0, 0.0, 1.0, 0.0, 0.0)"><path d="M 0.0 0.0 L 0.03125 0.0 L 0.03125 0.03125 L 0.0 0.03125 L 0.0 0.0 Z" style="vector-effect: non-scaling-stroke;" /></g><g style="fill: #7f80ff;stroke: #7f80ff;stroke-width: 2.7;" transform="matrix(1.0, 0.0, 0.0, 1.0, 0.03125, 0.0)"><path d="M 0.0 0.0 L 0.03125 0.0 L 0.03125 0.03125 L 0.0 0.03125 L 0.0 0.0 Z" style="vector-effect: non-scaling-stroke;" /></g></g></g></g></g></g><g transform="matrix(1.0, 0.0, 0.0, 1.0, 0.0, 0.0625)"><g><g><g><g style="fill: #7f80ff;stroke: #7f80ff;stroke-width: 2.7;" transform="matrix(1.0, 0.0, 0.0, 1.0, 0.0, 0.0)"><path d="M 0.0 0.0 L 0.03125 0.0 L 0.03125 0.03125 L 0.0 0.03125 L 0.0 0.0 Z" style="vector-effect: non-scaling-stroke;" /></g><g style="fill: #7f80ff;stroke: #7f80ff;stroke-width: 2.7;" transform="matrix(1.0, 0.0, 0.0, 1.0, 0.03125, 0.0)"><path d="M 0.0 0.0 L 0.03125 0.0 L 0.03125 0.03125 L 0.0 0.03125 L 0.0 0.0 Z" style="vector-effect: non-scaling-stroke;" /></g></g><g transform="matrix(1.0, 0.0, 0.0, 1.0, 0.0, 0.03125)"><g><g style="fill: #7f80ff;stroke: #7f80ff;stroke-width: 2.7;" transform="matrix(1.0, 0.0, 0.0, 1.0, 0.0, 0.0)"><path d="M 0.0 0.0 L 0.03125 0.0 L 0.03125 0.03125 L 0.0 0.03125 L 0.0 0.0 Z" style="vector-effect: non-scaling-stroke;" /></g><g style="fill: #7f80ff;stroke: #7f80ff;stroke-width: 2.7;" transform="matrix(1.0, 0.0, 0.0, 1.0, 0.03125, 0.0)"><path d="M 0.0 0.0 L 0.03125 0.0 L 0.03125 0.03125 L 0.0 0.03125 L 0.0 0.0 Z" style="vector-effect: non-scaling-stroke;" /></g></g></g></g><g transform="matrix(1.0, 0.0, 0.0, 1.0, 0.0625, 0.0)"><g><g><g style="fill: #7f80ff;stroke: #7f80ff;stroke-width: 2.7;" transform="matrix(1.0, 0.0, 0.0, 1.0, 0.0, 0.0)"><path d="M 0.0 0.0 L 0.03125 0.0 L 0.03125 0.03125 L 0.0 0.03125 L 0.0 0.0 Z" style="vector-effect: non-scaling-stroke;" /></g><g style="fill: #fd7f7f;stroke: #fd7f7f;stroke-width: 2.7;" transform="matrix(1.0, 0.0, 0.0, 1.0, 0.03125, 0.0)"><path d="M 0.0 0.0 L 0.03125 0.0 L 0.03125 0.03125 L 0.0 0.03125 L 0.0 0.0 Z" style="vector-effect: non-scaling-stroke;" /></g></g><g transform="matrix(1.0, 0.0, 0.0, 1.0, 0.0, 0.03125)"><g><g style="fill: #fd7f7f;stroke: #fd7f7f;stroke-width: 2.7;" transform="matrix(1.0, 0.0, 0.0, 1.0, 0.0, 0.0)"><path d="M 0.0 0.0 L 0.03125 0.0 L 0.03125 0.03125 L 0.0 0.03125 L 0.0 0.0 Z" style="vector-effect: non-scaling-stroke;" /></g><g style="fill: #fd7f7f;stroke: #fd7f7f;stroke-width: 2.7;" transform="matrix(1.0, 0.0, 0.0, 1.0, 0.03125, 0.0)"><path d="M 0.0 0.0 L 0.03125 0.0 L 0.03125 0.03125 L 0.0 0.03125 L 0.0 0.0 Z" style="vector-effect: non-scaling-stroke;" /></g></g></g></g></g></g></g></g><g transform="matrix(1.0, 0.0, 0.0, 1.0, 0.125, 0.0)"><g><g><g><g><g style="fill: #7f80ff;stroke: #7f80ff;stroke-width: 2.7;" transform="matrix(1.0, 0.0, 0.0, 1.0, 0.0, 0.0)"><path d="M 0.0 0.0 L 0.03125 0.0 L 0.03125 0.03125 L 0.0 0.03125 L 0.0 0.0 Z" style="vector-effect: non-scaling-stroke;" /></g><g style="fill: #fd7f7f;stroke: #fd7f7f;stroke-width: 2.7;" transform="matrix(1.0, 0.0, 0.0, 1.0, 0.03125, 0.0)"><path d="M 0.0 0.0 L 0.03125 0.0 L 0.03125 0.03125 L 0.0 0.03125 L 0.0 0.0 Z" style="vector-effect: non-scaling-stroke;" /></g></g><g transform="matrix(1.0, 0.0, 0.0, 1.0, 0.0, 0.03125)"><g><g style="fill: #fd7f7f;stroke: #fd7f7f;stroke-width: 2.7;" transform="matrix(1.0, 0.0, 0.0, 1.0, 0.0, 0.0)"><path d="M 0.0 0.0 L 0.03125 0.0 L 0.03125 0.03125 L 0.0 0.03125 L 0.0 0.0 Z" style="vector-effect: non-scaling-stroke;" /></g><g style="fill: #fd7f7f;stroke: #fd7f7f;stroke-width: 2.7;" transform="matrix(1.0, 0.0, 0.0, 1.0, 0.03125, 0.0)"><path d="M 0.0 0.0 L 0.03125 0.0 L 0.03125 0.03125 L 0.0 0.03125 L 0.0 0.0 Z" style="vector-effect: non-scaling-stroke;" /></g></g></g></g><g style="fill: #fd7f7f;stroke: #fd7f7f;stroke-width: 2.7;" transform="matrix(1.0, 0.0, 0.0, 1.0, 0.0625, 0.0)"><path d="M 0.0 0.0 L 0.0625 0.0 L 0.0625 0.0625 L 0.0 0.0625 L 0.0 0.0 Z" style="vector-effect: non-scaling-stroke;" /></g></g><g transform="matrix(1.0, 0.0, 0.0, 1.0, 0.0, 0.0625)"><g><g style="fill: #fd7f7f;stroke: #fd7f7f;stroke-width: 2.7;" transform="matrix(1.0, 0.0, 0.0, 1.0, 0.0, 0.0)"><path d="M 0.0 0.0 L 0.0625 0.0 L 0.0625 0.0625 L 0.0 0.0625 L 0.0 0.0 Z" style="vector-effect: non-scaling-stroke;" /></g><g style="fill: #fd7f7f;stroke: #fd7f7f;stroke-width: 2.7;" transform="matrix(1.0, 0.0, 0.0, 1.0, 0.0625, 0.0)"><path d="M 0.0 0.0 L 0.0625 0.0 L 0.0625 0.0625 L 0.0 0.0625 L 0.0 0.0 Z" style="vector-effect: non-scaling-stroke;" /></g></g></g></g></g></g></g></g><g transform="matrix(1.0, 0.0, 0.0, 1.0, 0.25, 0.0)"><g><g><g><g><g><g><g style="fill: #7f80ff;stroke: #7f80ff;stroke-width: 2.7;" transform="matrix(1.0, 0.0, 0.0, 1.0, 0.0, 0.0)"><path d="M 0.0 0.0 L 0.03125 0.0 L 0.03125 0.03125 L 0.0 0.03125 L 0.0 0.0 Z" style="vector-effect: non-scaling-stroke;" /></g><g style="fill: #fd7f7f;stroke: #fd7f7f;stroke-width: 2.7;" transform="matrix(1.0, 0.0, 0.0, 1.0, 0.03125, 0.0)"><path d="M 0.0 0.0 L 0.03125 0.0 L 0.03125 0.03125 L 0.0 0.03125 L 0.0 0.0 Z" style="vector-effect: non-scaling-stroke;" /></g></g><g transform="matrix(1.0, 0.0, 0.0, 1.0, 0.0, 0.03125)"><g><g style="fill: #fd7f7f;stroke: #fd7f7f;stroke-width: 2.7;" transform="matrix(1.0, 0.0, 0.0, 1.0, 0.0, 0.0)"><path d="M 0.0 0.0 L 0.03125 0.0 L 0.03125 0.03125 L 0.0 0.03125 L 0.0 0.0 Z" style="vector-effect: non-scaling-stroke;" /></g><g style="fill: #fd7f7f;stroke: #fd7f7f;stroke-width: 2.7;" transform="matrix(1.0, 0.0, 0.0, 1.0, 0.03125, 0.0)"><path d="M 0.0 0.0 L 0.03125 0.0 L 0.03125 0.03125 L 0.0 0.03125 L 0.0 0.0 Z" style="vector-effect: non-scaling-stroke;" /></g></g></g></g><g style="fill: #fd7f7f;stroke: #fd7f7f;stroke-width: 2.7;" transform="matrix(1.0, 0.0, 0.0, 1.0, 0.0625, 0.0)"><path d="M 0.0 0.0 L 0.0625 0.0 L 0.0625 0.0625 L 0.0 0.0625 L 0.0 0.0 Z" style="vector-effect: non-scaling-stroke;" /></g></g><g transform="matrix(1.0, 0.0, 0.0, 1.0, 0.0, 0.0625)"><g><g style="fill: #fd7f7f;stroke: #fd7f7f;stroke-width: 2.7;" transform="matrix(1.0, 0.0, 0.0, 1.0, 0.0, 0.0)"><path d="M 0.0 0.0 L 0.0625 0.0 L 0.0625 0.0625 L 0.0 0.0625 L 0.0 0.0 Z" style="vector-effect: non-scaling-stroke;" /></g><g style="fill: #fd7f7f;stroke: #fd7f7f;stroke-width: 2.7;" transform="matrix(1.0, 0.0, 0.0, 1.0, 0.0625, 0.0)"><path d="M 0.0 0.0 L 0.0625 0.0 L 0.0625 0.0625 L 0.0 0.0625 L 0.0 0.0 Z" style="vector-effect: non-scaling-stroke;" /></g></g></g></g><g style="fill: #fd7f7f;stroke: #fd7f7f;stroke-width: 2.7;" transform="matrix(1.0, 0.0, 0.0, 1.0, 0.125, 0.0)"><path d="M 0.0 0.0 L 0.125 0.0 L 0.125 0.125 L 0.0 0.125 L 0.0 0.0 Z" style="vector-effect: non-scaling-stroke;" /></g></g><g transform="matrix(1.0, 0.0, 0.0, 1.0, 0.0, 0.125)"><g><g style="fill: #fd7f7f;stroke: #fd7f7f;stroke-width: 2.7;" transform="matrix(1.0, 0.0, 0.0, 1.0, 0.0, 0.0)"><path d="M 0.0 0.0 L 0.125 0.0 L 0.125 0.125 L 0.0 0.125 L 0.0 0.0 Z" style="vector-effect: non-scaling-stroke;" /></g><g style="fill: #fd7f7f;stroke: #fd7f7f;stroke-width: 2.7;" transform="matrix(1.0, 0.0, 0.0, 1.0, 0.125, 0.0)"><path d="M 0.0 0.0 L 0.125 0.0 L 0.125 0.125 L 0.0 0.125 L 0.0 0.0 Z" style="vector-effect: non-scaling-stroke;" /></g></g></g></g></g></g></g></g></g></g><g transform="matrix(1.0, 0.0, 0.0, 1.0, 0.0, 0.5)"><g><g><g><g style="fill: #7f80ff;stroke: #7f80ff;stroke-width: 2.7;" transform="matrix(1.0, 0.0, 0.0, 1.0, 0.0, 0.0)"><path d="M 0.0 0.0 L 0.25 0.0 L 0.25 0.25 L 0.0 0.25 L 0.0 0.0 Z" style="vector-effect: non-scaling-stroke;" /></g><g transform="matrix(1.0, 0.0, 0.0, 1.0, 0.25, 0.0)"><g><g><g style="fill: #7f80ff;stroke: #7f80ff;stroke-width: 2.7;" transform="matrix(1.0, 0.0, 0.0, 1.0, 0.0, 0.0)"><path d="M 0.0 0.0 L 0.125 0.0 L 0.125 0.125 L 0.0 0.125 L 0.0 0.0 Z" style="vector-effect: non-scaling-stroke;" /></g><g transform="matrix(1.0, 0.0, 0.0, 1.0, 0.125, 0.0)"><g><g><g style="fill: #7f80ff;stroke: #7f80ff;stroke-width: 2.7;" transform="matrix(1.0, 0.0, 0.0, 1.0, 0.0, 0.0)"><path d="M 0.0 0.0 L 0.0625 0.0 L 0.0625 0.0625 L 0.0 0.0625 L 0.0 0.0 Z" style="vector-effect: non-scaling-stroke;" /></g><g transform="matrix(1.0, 0.0, 0.0, 1.0, 0.0625, 0.0)"><g><g><g style="fill: #7f80ff;stroke: #7f80ff;stroke-width: 2.7;" transform="matrix(1.0, 0.0, 0.0, 1.0, 0.0, 0.0)"><path d="M 0.0 0.0 L 0.03125 0.0 L 0.03125 0.03125 L 0.0 0.03125 L 0.0 0.0 Z" style="vector-effect: non-scaling-stroke;" /></g><g style="fill: #7f80ff;stroke: #7f80ff;stroke-width: 2.7;" transform="matrix(1.0, 0.0, 0.0, 1.0, 0.03125, 0.0)"><path d="M 0.0 0.0 L 0.03125 0.0 L 0.03125 0.03125 L 0.0 0.03125 L 0.0 0.0 Z" style="vector-effect: non-scaling-stroke;" /></g></g><g transform="matrix(1.0, 0.0, 0.0, 1.0, 0.0, 0.03125)"><g><g style="fill: #7f80ff;stroke: #7f80ff;stroke-width: 2.7;" transform="matrix(1.0, 0.0, 0.0, 1.0, 0.0, 0.0)"><path d="M 0.0 0.0 L 0.03125 0.0 L 0.03125 0.03125 L 0.0 0.03125 L 0.0 0.0 Z" style="vector-effect: non-scaling-stroke;" /></g><g style="fill: #7f80ff;stroke: #7f80ff;stroke-width: 2.7;" transform="matrix(1.0, 0.0, 0.0, 1.0, 0.03125, 0.0)"><path d="M 0.0 0.0 L 0.03125 0.0 L 0.03125 0.03125 L 0.0 0.03125 L 0.0 0.0 Z" style="vector-effect: non-scaling-stroke;" /></g></g></g></g></g></g><g transform="matrix(1.0, 0.0, 0.0, 1.0, 0.0, 0.0625)"><g><g><g><g style="fill: #7f80ff;stroke: #7f80ff;stroke-width: 2.7;" transform="matrix(1.0, 0.0, 0.0, 1.0, 0.0, 0.0)"><path d="M 0.0 0.0 L 0.03125 0.0 L 0.03125 0.03125 L 0.0 0.03125 L 0.0 0.0 Z" style="vector-effect: non-scaling-stroke;" /></g><g style="fill: #7f80ff;stroke: #7f80ff;stroke-width: 2.7;" transform="matrix(1.0, 0.0, 0.0, 1.0, 0.03125, 0.0)"><path d="M 0.0 0.0 L 0.03125 0.0 L 0.03125 0.03125 L 0.0 0.03125 L 0.0 0.0 Z" style="vector-effect: non-scaling-stroke;" /></g></g><g transform="matrix(1.0, 0.0, 0.0, 1.0, 0.0, 0.03125)"><g><g style="fill: #7f80ff;stroke: #7f80ff;stroke-width: 2.7;" transform="matrix(1.0, 0.0, 0.0, 1.0, 0.0, 0.0)"><path d="M 0.0 0.0 L 0.03125 0.0 L 0.03125 0.03125 L 0.0 0.03125 L 0.0 0.0 Z" style="vector-effect: non-scaling-stroke;" /></g><g style="fill: #7f80ff;stroke: #7f80ff;stroke-width: 2.7;" transform="matrix(1.0, 0.0, 0.0, 1.0, 0.03125, 0.0)"><path d="M 0.0 0.0 L 0.03125 0.0 L 0.03125 0.03125 L 0.0 0.03125 L 0.0 0.0 Z" style="vector-effect: non-scaling-stroke;" /></g></g></g></g><g transform="matrix(1.0, 0.0, 0.0, 1.0, 0.0625, 0.0)"><g><g><g style="fill: #7f80ff;stroke: #7f80ff;stroke-width: 2.7;" transform="matrix(1.0, 0.0, 0.0, 1.0, 0.0, 0.0)"><path d="M 0.0 0.0 L 0.03125 0.0 L 0.03125 0.03125 L 0.0 0.03125 L 0.0 0.0 Z" style="vector-effect: non-scaling-stroke;" /></g><g style="fill: #fd7f7f;stroke: #fd7f7f;stroke-width: 2.7;" transform="matrix(1.0, 0.0, 0.0, 1.0, 0.03125, 0.0)"><path d="M 0.0 0.0 L 0.03125 0.0 L 0.03125 0.03125 L 0.0 0.03125 L 0.0 0.0 Z" style="vector-effect: non-scaling-stroke;" /></g></g><g transform="matrix(1.0, 0.0, 0.0, 1.0, 0.0, 0.03125)"><g><g style="fill: #fd7f7f;stroke: #fd7f7f;stroke-width: 2.7;" transform="matrix(1.0, 0.0, 0.0, 1.0, 0.0, 0.0)"><path d="M 0.0 0.0 L 0.03125 0.0 L 0.03125 0.03125 L 0.0 0.03125 L 0.0 0.0 Z" style="vector-effect: non-scaling-stroke;" /></g><g style="fill: #fd7f7f;stroke: #fd7f7f;stroke-width: 2.7;" transform="matrix(1.0, 0.0, 0.0, 1.0, 0.03125, 0.0)"><path d="M 0.0 0.0 L 0.03125 0.0 L 0.03125 0.03125 L 0.0 0.03125 L 0.0 0.0 Z" style="vector-effect: non-scaling-stroke;" /></g></g></g></g></g></g></g></g></g></g><g transform="matrix(1.0, 0.0, 0.0, 1.0, 0.0, 0.125)"><g><g><g><g style="fill: #7f80ff;stroke: #7f80ff;stroke-width: 2.7;" transform="matrix(1.0, 0.0, 0.0, 1.0, 0.0, 0.0)"><path d="M 0.0 0.0 L 0.0625 0.0 L 0.0625 0.0625 L 0.0 0.0625 L 0.0 0.0 Z" style="vector-effect: non-scaling-stroke;" /></g><g transform="matrix(1.0, 0.0, 0.0, 1.0, 0.0625, 0.0)"><g><g><g style="fill: #7f80ff;stroke: #7f80ff;stroke-width: 2.7;" transform="matrix(1.0, 0.0, 0.0, 1.0, 0.0, 0.0)"><path d="M 0.0 0.0 L 0.03125 0.0 L 0.03125 0.03125 L 0.0 0.03125 L 0.0 0.0 Z" style="vector-effect: non-scaling-stroke;" /></g><g style="fill: #7f80ff;stroke: #7f80ff;stroke-width: 2.7;" transform="matrix(1.0, 0.0, 0.0, 1.0, 0.03125, 0.0)"><path d="M 0.0 0.0 L 0.03125 0.0 L 0.03125 0.03125 L 0.0 0.03125 L 0.0 0.0 Z" style="vector-effect: non-scaling-stroke;" /></g></g><g transform="matrix(1.0, 0.0, 0.0, 1.0, 0.0, 0.03125)"><g><g style="fill: #7f80ff;stroke: #7f80ff;stroke-width: 2.7;" transform="matrix(1.0, 0.0, 0.0, 1.0, 0.0, 0.0)"><path d="M 0.0 0.0 L 0.03125 0.0 L 0.03125 0.03125 L 0.0 0.03125 L 0.0 0.0 Z" style="vector-effect: non-scaling-stroke;" /></g><g style="fill: #7f80ff;stroke: #7f80ff;stroke-width: 2.7;" transform="matrix(1.0, 0.0, 0.0, 1.0, 0.03125, 0.0)"><path d="M 0.0 0.0 L 0.03125 0.0 L 0.03125 0.03125 L 0.0 0.03125 L 0.0 0.0 Z" style="vector-effect: non-scaling-stroke;" /></g></g></g></g></g></g><g transform="matrix(1.0, 0.0, 0.0, 1.0, 0.0, 0.0625)"><g><g><g><g style="fill: #7f80ff;stroke: #7f80ff;stroke-width: 2.7;" transform="matrix(1.0, 0.0, 0.0, 1.0, 0.0, 0.0)"><path d="M 0.0 0.0 L 0.03125 0.0 L 0.03125 0.03125 L 0.0 0.03125 L 0.0 0.0 Z" style="vector-effect: non-scaling-stroke;" /></g><g style="fill: #7f80ff;stroke: #7f80ff;stroke-width: 2.7;" transform="matrix(1.0, 0.0, 0.0, 1.0, 0.03125, 0.0)"><path d="M 0.0 0.0 L 0.03125 0.0 L 0.03125 0.03125 L 0.0 0.03125 L 0.0 0.0 Z" style="vector-effect: non-scaling-stroke;" /></g></g><g transform="matrix(1.0, 0.0, 0.0, 1.0, 0.0, 0.03125)"><g><g style="fill: #7f80ff;stroke: #7f80ff;stroke-width: 2.7;" transform="matrix(1.0, 0.0, 0.0, 1.0, 0.0, 0.0)"><path d="M 0.0 0.0 L 0.03125 0.0 L 0.03125 0.03125 L 0.0 0.03125 L 0.0 0.0 Z" style="vector-effect: non-scaling-stroke;" /></g><g style="fill: #7f80ff;stroke: #7f80ff;stroke-width: 2.7;" transform="matrix(1.0, 0.0, 0.0, 1.0, 0.03125, 0.0)"><path d="M 0.0 0.0 L 0.03125 0.0 L 0.03125 0.03125 L 0.0 0.03125 L 0.0 0.0 Z" style="vector-effect: non-scaling-stroke;" /></g></g></g></g><g transform="matrix(1.0, 0.0, 0.0, 1.0, 0.0625, 0.0)"><g><g><g style="fill: #7f80ff;stroke: #7f80ff;stroke-width: 2.7;" transform="matrix(1.0, 0.0, 0.0, 1.0, 0.0, 0.0)"><path d="M 0.0 0.0 L 0.03125 0.0 L 0.03125 0.03125 L 0.0 0.03125 L 0.0 0.0 Z" style="vector-effect: non-scaling-stroke;" /></g><g style="fill: #fd7f7f;stroke: #fd7f7f;stroke-width: 2.7;" transform="matrix(1.0, 0.0, 0.0, 1.0, 0.03125, 0.0)"><path d="M 0.0 0.0 L 0.03125 0.0 L 0.03125 0.03125 L 0.0 0.03125 L 0.0 0.0 Z" style="vector-effect: non-scaling-stroke;" /></g></g><g transform="matrix(1.0, 0.0, 0.0, 1.0, 0.0, 0.03125)"><g><g style="fill: #fd7f7f;stroke: #fd7f7f;stroke-width: 2.7;" transform="matrix(1.0, 0.0, 0.0, 1.0, 0.0, 0.0)"><path d="M 0.0 0.0 L 0.03125 0.0 L 0.03125 0.03125 L 0.0 0.03125 L 0.0 0.0 Z" style="vector-effect: non-scaling-stroke;" /></g><g style="fill: #fd7f7f;stroke: #fd7f7f;stroke-width: 2.7;" transform="matrix(1.0, 0.0, 0.0, 1.0, 0.03125, 0.0)"><path d="M 0.0 0.0 L 0.03125 0.0 L 0.03125 0.03125 L 0.0 0.03125 L 0.0 0.0 Z" style="vector-effect: non-scaling-stroke;" /></g></g></g></g></g></g></g></g><g transform="matrix(1.0, 0.0, 0.0, 1.0, 0.125, 0.0)"><g><g><g><g><g style="fill: #7f80ff;stroke: #7f80ff;stroke-width: 2.7;" transform="matrix(1.0, 0.0, 0.0, 1.0, 0.0, 0.0)"><path d="M 0.0 0.0 L 0.03125 0.0 L 0.03125 0.03125 L 0.0 0.03125 L 0.0 0.0 Z" style="vector-effect: non-scaling-stroke;" /></g><g style="fill: #fd7f7f;stroke: #fd7f7f;stroke-width: 2.7;" transform="matrix(1.0, 0.0, 0.0, 1.0, 0.03125, 0.0)"><path d="M 0.0 0.0 L 0.03125 0.0 L 0.03125 0.03125 L 0.0 0.03125 L 0.0 0.0 Z" style="vector-effect: non-scaling-stroke;" /></g></g><g transform="matrix(1.0, 0.0, 0.0, 1.0, 0.0, 0.03125)"><g><g style="fill: #fd7f7f;stroke: #fd7f7f;stroke-width: 2.7;" transform="matrix(1.0, 0.0, 0.0, 1.0, 0.0, 0.0)"><path d="M 0.0 0.0 L 0.03125 0.0 L 0.03125 0.03125 L 0.0 0.03125 L 0.0 0.0 Z" style="vector-effect: non-scaling-stroke;" /></g><g style="fill: #fd7f7f;stroke: #fd7f7f;stroke-width: 2.7;" transform="matrix(1.0, 0.0, 0.0, 1.0, 0.03125, 0.0)"><path d="M 0.0 0.0 L 0.03125 0.0 L 0.03125 0.03125 L 0.0 0.03125 L 0.0 0.0 Z" style="vector-effect: non-scaling-stroke;" /></g></g></g></g><g style="fill: #fd7f7f;stroke: #fd7f7f;stroke-width: 2.7;" transform="matrix(1.0, 0.0, 0.0, 1.0, 0.0625, 0.0)"><path d="M 0.0 0.0 L 0.0625 0.0 L 0.0625 0.0625 L 0.0 0.0625 L 0.0 0.0 Z" style="vector-effect: non-scaling-stroke;" /></g></g><g transform="matrix(1.0, 0.0, 0.0, 1.0, 0.0, 0.0625)"><g><g style="fill: #fd7f7f;stroke: #fd7f7f;stroke-width: 2.7;" transform="matrix(1.0, 0.0, 0.0, 1.0, 0.0, 0.0)"><path d="M 0.0 0.0 L 0.0625 0.0 L 0.0625 0.0625 L 0.0 0.0625 L 0.0 0.0 Z" style="vector-effect: non-scaling-stroke;" /></g><g style="fill: #fd7f7f;stroke: #fd7f7f;stroke-width: 2.7;" transform="matrix(1.0, 0.0, 0.0, 1.0, 0.0625, 0.0)"><path d="M 0.0 0.0 L 0.0625 0.0 L 0.0625 0.0625 L 0.0 0.0625 L 0.0 0.0 Z" style="vector-effect: non-scaling-stroke;" /></g></g></g></g></g></g></g></g></g></g><g transform="matrix(1.0, 0.0, 0.0, 1.0, 0.0, 0.25)"><g><g><g><g style="fill: #7f80ff;stroke: #7f80ff;stroke-width: 2.7;" transform="matrix(1.0, 0.0, 0.0, 1.0, 0.0, 0.0)"><path d="M 0.0 0.0 L 0.125 0.0 L 0.125 0.125 L 0.0 0.125 L 0.0 0.0 Z" style="vector-effect: non-scaling-stroke;" /></g><g transform="matrix(1.0, 0.0, 0.0, 1.0, 0.125, 0.0)"><g><g><g style="fill: #7f80ff;stroke: #7f80ff;stroke-width: 2.7;" transform="matrix(1.0, 0.0, 0.0, 1.0, 0.0, 0.0)"><path d="M 0.0 0.0 L 0.0625 0.0 L 0.0625 0.0625 L 0.0 0.0625 L 0.0 0.0 Z" style="vector-effect: non-scaling-stroke;" /></g><g transform="matrix(1.0, 0.0, 0.0, 1.0, 0.0625, 0.0)"><g><g><g style="fill: #7f80ff;stroke: #7f80ff;stroke-width: 2.7;" transform="matrix(1.0, 0.0, 0.0, 1.0, 0.0, 0.0)"><path d="M 0.0 0.0 L 0.03125 0.0 L 0.03125 0.03125 L 0.0 0.03125 L 0.0 0.0 Z" style="vector-effect: non-scaling-stroke;" /></g><g style="fill: #7f80ff;stroke: #7f80ff;stroke-width: 2.7;" transform="matrix(1.0, 0.0, 0.0, 1.0, 0.03125, 0.0)"><path d="M 0.0 0.0 L 0.03125 0.0 L 0.03125 0.03125 L 0.0 0.03125 L 0.0 0.0 Z" style="vector-effect: non-scaling-stroke;" /></g></g><g transform="matrix(1.0, 0.0, 0.0, 1.0, 0.0, 0.03125)"><g><g style="fill: #7f80ff;stroke: #7f80ff;stroke-width: 2.7;" transform="matrix(1.0, 0.0, 0.0, 1.0, 0.0, 0.0)"><path d="M 0.0 0.0 L 0.03125 0.0 L 0.03125 0.03125 L 0.0 0.03125 L 0.0 0.0 Z" style="vector-effect: non-scaling-stroke;" /></g><g style="fill: #7f80ff;stroke: #7f80ff;stroke-width: 2.7;" transform="matrix(1.0, 0.0, 0.0, 1.0, 0.03125, 0.0)"><path d="M 0.0 0.0 L 0.03125 0.0 L 0.03125 0.03125 L 0.0 0.03125 L 0.0 0.0 Z" style="vector-effect: non-scaling-stroke;" /></g></g></g></g></g></g><g transform="matrix(1.0, 0.0, 0.0, 1.0, 0.0, 0.0625)"><g><g><g><g style="fill: #7f80ff;stroke: #7f80ff;stroke-width: 2.7;" transform="matrix(1.0, 0.0, 0.0, 1.0, 0.0, 0.0)"><path d="M 0.0 0.0 L 0.03125 0.0 L 0.03125 0.03125 L 0.0 0.03125 L 0.0 0.0 Z" style="vector-effect: non-scaling-stroke;" /></g><g style="fill: #7f80ff;stroke: #7f80ff;stroke-width: 2.7;" transform="matrix(1.0, 0.0, 0.0, 1.0, 0.03125, 0.0)"><path d="M 0.0 0.0 L 0.03125 0.0 L 0.03125 0.03125 L 0.0 0.03125 L 0.0 0.0 Z" style="vector-effect: non-scaling-stroke;" /></g></g><g transform="matrix(1.0, 0.0, 0.0, 1.0, 0.0, 0.03125)"><g><g style="fill: #7f80ff;stroke: #7f80ff;stroke-width: 2.7;" transform="matrix(1.0, 0.0, 0.0, 1.0, 0.0, 0.0)"><path d="M 0.0 0.0 L 0.03125 0.0 L 0.03125 0.03125 L 0.0 0.03125 L 0.0 0.0 Z" style="vector-effect: non-scaling-stroke;" /></g><g style="fill: #7f80ff;stroke: #7f80ff;stroke-width: 2.7;" transform="matrix(1.0, 0.0, 0.0, 1.0, 0.03125, 0.0)"><path d="M 0.0 0.0 L 0.03125 0.0 L 0.03125 0.03125 L 0.0 0.03125 L 0.0 0.0 Z" style="vector-effect: non-scaling-stroke;" /></g></g></g></g><g transform="matrix(1.0, 0.0, 0.0, 1.0, 0.0625, 0.0)"><g><g><g style="fill: #7f80ff;stroke: #7f80ff;stroke-width: 2.7;" transform="matrix(1.0, 0.0, 0.0, 1.0, 0.0, 0.0)"><path d="M 0.0 0.0 L 0.03125 0.0 L 0.03125 0.03125 L 0.0 0.03125 L 0.0 0.0 Z" style="vector-effect: non-scaling-stroke;" /></g><g style="fill: #fd7f7f;stroke: #fd7f7f;stroke-width: 2.7;" transform="matrix(1.0, 0.0, 0.0, 1.0, 0.03125, 0.0)"><path d="M 0.0 0.0 L 0.03125 0.0 L 0.03125 0.03125 L 0.0 0.03125 L 0.0 0.0 Z" style="vector-effect: non-scaling-stroke;" /></g></g><g transform="matrix(1.0, 0.0, 0.0, 1.0, 0.0, 0.03125)"><g><g style="fill: #fd7f7f;stroke: #fd7f7f;stroke-width: 2.7;" transform="matrix(1.0, 0.0, 0.0, 1.0, 0.0, 0.0)"><path d="M 0.0 0.0 L 0.03125 0.0 L 0.03125 0.03125 L 0.0 0.03125 L 0.0 0.0 Z" style="vector-effect: non-scaling-stroke;" /></g><g style="fill: #fd7f7f;stroke: #fd7f7f;stroke-width: 2.7;" transform="matrix(1.0, 0.0, 0.0, 1.0, 0.03125, 0.0)"><path d="M 0.0 0.0 L 0.03125 0.0 L 0.03125 0.03125 L 0.0 0.03125 L 0.0 0.0 Z" style="vector-effect: non-scaling-stroke;" /></g></g></g></g></g></g></g></g></g></g><g transform="matrix(1.0, 0.0, 0.0, 1.0, 0.0, 0.125)"><g><g><g><g style="fill: #7f80ff;stroke: #7f80ff;stroke-width: 2.7;" transform="matrix(1.0, 0.0, 0.0, 1.0, 0.0, 0.0)"><path d="M 0.0 0.0 L 0.0625 0.0 L 0.0625 0.0625 L 0.0 0.0625 L 0.0 0.0 Z" style="vector-effect: non-scaling-stroke;" /></g><g transform="matrix(1.0, 0.0, 0.0, 1.0, 0.0625, 0.0)"><g><g><g style="fill: #7f80ff;stroke: #7f80ff;stroke-width: 2.7;" transform="matrix(1.0, 0.0, 0.0, 1.0, 0.0, 0.0)"><path d="M 0.0 0.0 L 0.03125 0.0 L 0.03125 0.03125 L 0.0 0.03125 L 0.0 0.0 Z" style="vector-effect: non-scaling-stroke;" /></g><g style="fill: #7f80ff;stroke: #7f80ff;stroke-width: 2.7;" transform="matrix(1.0, 0.0, 0.0, 1.0, 0.03125, 0.0)"><path d="M 0.0 0.0 L 0.03125 0.0 L 0.03125 0.03125 L 0.0 0.03125 L 0.0 0.0 Z" style="vector-effect: non-scaling-stroke;" /></g></g><g transform="matrix(1.0, 0.0, 0.0, 1.0, 0.0, 0.03125)"><g><g style="fill: #7f80ff;stroke: #7f80ff;stroke-width: 2.7;" transform="matrix(1.0, 0.0, 0.0, 1.0, 0.0, 0.0)"><path d="M 0.0 0.0 L 0.03125 0.0 L 0.03125 0.03125 L 0.0 0.03125 L 0.0 0.0 Z" style="vector-effect: non-scaling-stroke;" /></g><g style="fill: #7f80ff;stroke: #7f80ff;stroke-width: 2.7;" transform="matrix(1.0, 0.0, 0.0, 1.0, 0.03125, 0.0)"><path d="M 0.0 0.0 L 0.03125 0.0 L 0.03125 0.03125 L 0.0 0.03125 L 0.0 0.0 Z" style="vector-effect: non-scaling-stroke;" /></g></g></g></g></g></g><g transform="matrix(1.0, 0.0, 0.0, 1.0, 0.0, 0.0625)"><g><g><g><g style="fill: #7f80ff;stroke: #7f80ff;stroke-width: 2.7;" transform="matrix(1.0, 0.0, 0.0, 1.0, 0.0, 0.0)"><path d="M 0.0 0.0 L 0.03125 0.0 L 0.03125 0.03125 L 0.0 0.03125 L 0.0 0.0 Z" style="vector-effect: non-scaling-stroke;" /></g><g style="fill: #7f80ff;stroke: #7f80ff;stroke-width: 2.7;" transform="matrix(1.0, 0.0, 0.0, 1.0, 0.03125, 0.0)"><path d="M 0.0 0.0 L 0.03125 0.0 L 0.03125 0.03125 L 0.0 0.03125 L 0.0 0.0 Z" style="vector-effect: non-scaling-stroke;" /></g></g><g transform="matrix(1.0, 0.0, 0.0, 1.0, 0.0, 0.03125)"><g><g style="fill: #7f80ff;stroke: #7f80ff;stroke-width: 2.7;" transform="matrix(1.0, 0.0, 0.0, 1.0, 0.0, 0.0)"><path d="M 0.0 0.0 L 0.03125 0.0 L 0.03125 0.03125 L 0.0 0.03125 L 0.0 0.0 Z" style="vector-effect: non-scaling-stroke;" /></g><g style="fill: #7f80ff;stroke: #7f80ff;stroke-width: 2.7;" transform="matrix(1.0, 0.0, 0.0, 1.0, 0.03125, 0.0)"><path d="M 0.0 0.0 L 0.03125 0.0 L 0.03125 0.03125 L 0.0 0.03125 L 0.0 0.0 Z" style="vector-effect: non-scaling-stroke;" /></g></g></g></g><g transform="matrix(1.0, 0.0, 0.0, 1.0, 0.0625, 0.0)"><g><g><g style="fill: #7f80ff;stroke: #7f80ff;stroke-width: 2.7;" transform="matrix(1.0, 0.0, 0.0, 1.0, 0.0, 0.0)"><path d="M 0.0 0.0 L 0.03125 0.0 L 0.03125 0.03125 L 0.0 0.03125 L 0.0 0.0 Z" style="vector-effect: non-scaling-stroke;" /></g><g style="fill: #fd7f7f;stroke: #fd7f7f;stroke-width: 2.7;" transform="matrix(1.0, 0.0, 0.0, 1.0, 0.03125, 0.0)"><path d="M 0.0 0.0 L 0.03125 0.0 L 0.03125 0.03125 L 0.0 0.03125 L 0.0 0.0 Z" style="vector-effect: non-scaling-stroke;" /></g></g><g transform="matrix(1.0, 0.0, 0.0, 1.0, 0.0, 0.03125)"><g><g style="fill: #fd7f7f;stroke: #fd7f7f;stroke-width: 2.7;" transform="matrix(1.0, 0.0, 0.0, 1.0, 0.0, 0.0)"><path d="M 0.0 0.0 L 0.03125 0.0 L 0.03125 0.03125 L 0.0 0.03125 L 0.0 0.0 Z" style="vector-effect: non-scaling-stroke;" /></g><g style="fill: #fd7f7f;stroke: #fd7f7f;stroke-width: 2.7;" transform="matrix(1.0, 0.0, 0.0, 1.0, 0.03125, 0.0)"><path d="M 0.0 0.0 L 0.03125 0.0 L 0.03125 0.03125 L 0.0 0.03125 L 0.0 0.0 Z" style="vector-effect: non-scaling-stroke;" /></g></g></g></g></g></g></g></g><g transform="matrix(1.0, 0.0, 0.0, 1.0, 0.125, 0.0)"><g><g><g><g><g style="fill: #7f80ff;stroke: #7f80ff;stroke-width: 2.7;" transform="matrix(1.0, 0.0, 0.0, 1.0, 0.0, 0.0)"><path d="M 0.0 0.0 L 0.03125 0.0 L 0.03125 0.03125 L 0.0 0.03125 L 0.0 0.0 Z" style="vector-effect: non-scaling-stroke;" /></g><g style="fill: #fd7f7f;stroke: #fd7f7f;stroke-width: 2.7;" transform="matrix(1.0, 0.0, 0.0, 1.0, 0.03125, 0.0)"><path d="M 0.0 0.0 L 0.03125 0.0 L 0.03125 0.03125 L 0.0 0.03125 L 0.0 0.0 Z" style="vector-effect: non-scaling-stroke;" /></g></g><g transform="matrix(1.0, 0.0, 0.0, 1.0, 0.0, 0.03125)"><g><g style="fill: #fd7f7f;stroke: #fd7f7f;stroke-width: 2.7;" transform="matrix(1.0, 0.0, 0.0, 1.0, 0.0, 0.0)"><path d="M 0.0 0.0 L 0.03125 0.0 L 0.03125 0.03125 L 0.0 0.03125 L 0.0 0.0 Z" style="vector-effect: non-scaling-stroke;" /></g><g style="fill: #fd7f7f;stroke: #fd7f7f;stroke-width: 2.7;" transform="matrix(1.0, 0.0, 0.0, 1.0, 0.03125, 0.0)"><path d="M 0.0 0.0 L 0.03125 0.0 L 0.03125 0.03125 L 0.0 0.03125 L 0.0 0.0 Z" style="vector-effect: non-scaling-stroke;" /></g></g></g></g><g style="fill: #fd7f7f;stroke: #fd7f7f;stroke-width: 2.7;" transform="matrix(1.0, 0.0, 0.0, 1.0, 0.0625, 0.0)"><path d="M 0.0 0.0 L 0.0625 0.0 L 0.0625 0.0625 L 0.0 0.0625 L 0.0 0.0 Z" style="vector-effect: non-scaling-stroke;" /></g></g><g transform="matrix(1.0, 0.0, 0.0, 1.0, 0.0, 0.0625)"><g><g style="fill: #fd7f7f;stroke: #fd7f7f;stroke-width: 2.7;" transform="matrix(1.0, 0.0, 0.0, 1.0, 0.0, 0.0)"><path d="M 0.0 0.0 L 0.0625 0.0 L 0.0625 0.0625 L 0.0 0.0625 L 0.0 0.0 Z" style="vector-effect: non-scaling-stroke;" /></g><g style="fill: #fd7f7f;stroke: #fd7f7f;stroke-width: 2.7;" transform="matrix(1.0, 0.0, 0.0, 1.0, 0.0625, 0.0)"><path d="M 0.0 0.0 L 0.0625 0.0 L 0.0625 0.0625 L 0.0 0.0625 L 0.0 0.0 Z" style="vector-effect: non-scaling-stroke;" /></g></g></g></g></g></g></g></g><g transform="matrix(1.0, 0.0, 0.0, 1.0, 0.25, 0.0)"><g><g><g><g><g><g><g style="fill: #7f80ff;stroke: #7f80ff;stroke-width: 2.7;" transform="matrix(1.0, 0.0, 0.0, 1.0, 0.0, 0.0)"><path d="M 0.0 0.0 L 0.03125 0.0 L 0.03125 0.03125 L 0.0 0.03125 L 0.0 0.0 Z" style="vector-effect: non-scaling-stroke;" /></g><g style="fill: #fd7f7f;stroke: #fd7f7f;stroke-width: 2.7;" transform="matrix(1.0, 0.0, 0.0, 1.0, 0.03125, 0.0)"><path d="M 0.0 0.0 L 0.03125 0.0 L 0.03125 0.03125 L 0.0 0.03125 L 0.0 0.0 Z" style="vector-effect: non-scaling-stroke;" /></g></g><g transform="matrix(1.0, 0.0, 0.0, 1.0, 0.0, 0.03125)"><g><g style="fill: #fd7f7f;stroke: #fd7f7f;stroke-width: 2.7;" transform="matrix(1.0, 0.0, 0.0, 1.0, 0.0, 0.0)"><path d="M 0.0 0.0 L 0.03125 0.0 L 0.03125 0.03125 L 0.0 0.03125 L 0.0 0.0 Z" style="vector-effect: non-scaling-stroke;" /></g><g style="fill: #fd7f7f;stroke: #fd7f7f;stroke-width: 2.7;" transform="matrix(1.0, 0.0, 0.0, 1.0, 0.03125, 0.0)"><path d="M 0.0 0.0 L 0.03125 0.0 L 0.03125 0.03125 L 0.0 0.03125 L 0.0 0.0 Z" style="vector-effect: non-scaling-stroke;" /></g></g></g></g><g style="fill: #fd7f7f;stroke: #fd7f7f;stroke-width: 2.7;" transform="matrix(1.0, 0.0, 0.0, 1.0, 0.0625, 0.0)"><path d="M 0.0 0.0 L 0.0625 0.0 L 0.0625 0.0625 L 0.0 0.0625 L 0.0 0.0 Z" style="vector-effect: non-scaling-stroke;" /></g></g><g transform="matrix(1.0, 0.0, 0.0, 1.0, 0.0, 0.0625)"><g><g style="fill: #fd7f7f;stroke: #fd7f7f;stroke-width: 2.7;" transform="matrix(1.0, 0.0, 0.0, 1.0, 0.0, 0.0)"><path d="M 0.0 0.0 L 0.0625 0.0 L 0.0625 0.0625 L 0.0 0.0625 L 0.0 0.0 Z" style="vector-effect: non-scaling-stroke;" /></g><g style="fill: #fd7f7f;stroke: #fd7f7f;stroke-width: 2.7;" transform="matrix(1.0, 0.0, 0.0, 1.0, 0.0625, 0.0)"><path d="M 0.0 0.0 L 0.0625 0.0 L 0.0625 0.0625 L 0.0 0.0625 L 0.0 0.0 Z" style="vector-effect: non-scaling-stroke;" /></g></g></g></g><g style="fill: #fd7f7f;stroke: #fd7f7f;stroke-width: 2.7;" transform="matrix(1.0, 0.0, 0.0, 1.0, 0.125, 0.0)"><path d="M 0.0 0.0 L 0.125 0.0 L 0.125 0.125 L 0.0 0.125 L 0.0 0.0 Z" style="vector-effect: non-scaling-stroke;" /></g></g><g transform="matrix(1.0, 0.0, 0.0, 1.0, 0.0, 0.125)"><g><g style="fill: #fd7f7f;stroke: #fd7f7f;stroke-width: 2.7;" transform="matrix(1.0, 0.0, 0.0, 1.0, 0.0, 0.0)"><path d="M 0.0 0.0 L 0.125 0.0 L 0.125 0.125 L 0.0 0.125 L 0.0 0.0 Z" style="vector-effect: non-scaling-stroke;" /></g><g style="fill: #fd7f7f;stroke: #fd7f7f;stroke-width: 2.7;" transform="matrix(1.0, 0.0, 0.0, 1.0, 0.125, 0.0)"><path d="M 0.0 0.0 L 0.125 0.0 L 0.125 0.125 L 0.0 0.125 L 0.0 0.0 Z" style="vector-effect: non-scaling-stroke;" /></g></g></g></g></g></g></g></g><g transform="matrix(1.0, 0.0, 0.0, 1.0, 0.5, 0.0)"><g><g><g><g><g><g><g><g><g style="fill: #7f80ff;stroke: #7f80ff;stroke-width: 2.7;" transform="matrix(1.0, 0.0, 0.0, 1.0, 0.0, 0.0)"><path d="M 0.0 0.0 L 0.03125 0.0 L 0.03125 0.03125 L 0.0 0.03125 L 0.0 0.0 Z" style="vector-effect: non-scaling-stroke;" /></g><g style="fill: #fd7f7f;stroke: #fd7f7f;stroke-width: 2.7;" transform="matrix(1.0, 0.0, 0.0, 1.0, 0.03125, 0.0)"><path d="M 0.0 0.0 L 0.03125 0.0 L 0.03125 0.03125 L 0.0 0.03125 L 0.0 0.0 Z" style="vector-effect: non-scaling-stroke;" /></g></g><g transform="matrix(1.0, 0.0, 0.0, 1.0, 0.0, 0.03125)"><g><g style="fill: #fd7f7f;stroke: #fd7f7f;stroke-width: 2.7;" transform="matrix(1.0, 0.0, 0.0, 1.0, 0.0, 0.0)"><path d="M 0.0 0.0 L 0.03125 0.0 L 0.03125 0.03125 L 0.0 0.03125 L 0.0 0.0 Z" style="vector-effect: non-scaling-stroke;" /></g><g style="fill: #fd7f7f;stroke: #fd7f7f;stroke-width: 2.7;" transform="matrix(1.0, 0.0, 0.0, 1.0, 0.03125, 0.0)"><path d="M 0.0 0.0 L 0.03125 0.0 L 0.03125 0.03125 L 0.0 0.03125 L 0.0 0.0 Z" style="vector-effect: non-scaling-stroke;" /></g></g></g></g><g style="fill: #fd7f7f;stroke: #fd7f7f;stroke-width: 2.7;" transform="matrix(1.0, 0.0, 0.0, 1.0, 0.0625, 0.0)"><path d="M 0.0 0.0 L 0.0625 0.0 L 0.0625 0.0625 L 0.0 0.0625 L 0.0 0.0 Z" style="vector-effect: non-scaling-stroke;" /></g></g><g transform="matrix(1.0, 0.0, 0.0, 1.0, 0.0, 0.0625)"><g><g style="fill: #fd7f7f;stroke: #fd7f7f;stroke-width: 2.7;" transform="matrix(1.0, 0.0, 0.0, 1.0, 0.0, 0.0)"><path d="M 0.0 0.0 L 0.0625 0.0 L 0.0625 0.0625 L 0.0 0.0625 L 0.0 0.0 Z" style="vector-effect: non-scaling-stroke;" /></g><g style="fill: #fd7f7f;stroke: #fd7f7f;stroke-width: 2.7;" transform="matrix(1.0, 0.0, 0.0, 1.0, 0.0625, 0.0)"><path d="M 0.0 0.0 L 0.0625 0.0 L 0.0625 0.0625 L 0.0 0.0625 L 0.0 0.0 Z" style="vector-effect: non-scaling-stroke;" /></g></g></g></g><g style="fill: #fd7f7f;stroke: #fd7f7f;stroke-width: 2.7;" transform="matrix(1.0, 0.0, 0.0, 1.0, 0.125, 0.0)"><path d="M 0.0 0.0 L 0.125 0.0 L 0.125 0.125 L 0.0 0.125 L 0.0 0.0 Z" style="vector-effect: non-scaling-stroke;" /></g></g><g transform="matrix(1.0, 0.0, 0.0, 1.0, 0.0, 0.125)"><g><g style="fill: #fd7f7f;stroke: #fd7f7f;stroke-width: 2.7;" transform="matrix(1.0, 0.0, 0.0, 1.0, 0.0, 0.0)"><path d="M 0.0 0.0 L 0.125 0.0 L 0.125 0.125 L 0.0 0.125 L 0.0 0.0 Z" style="vector-effect: non-scaling-stroke;" /></g><g style="fill: #fd7f7f;stroke: #fd7f7f;stroke-width: 2.7;" transform="matrix(1.0, 0.0, 0.0, 1.0, 0.125, 0.0)"><path d="M 0.0 0.0 L 0.125 0.0 L 0.125 0.125 L 0.0 0.125 L 0.0 0.0 Z" style="vector-effect: non-scaling-stroke;" /></g></g></g></g><g style="fill: #fd7f7f;stroke: #fd7f7f;stroke-width: 2.7;" transform="matrix(1.0, 0.0, 0.0, 1.0, 0.25, 0.0)"><path d="M 0.0 0.0 L 0.25 0.0 L 0.25 0.25 L 0.0 0.25 L 0.0 0.0 Z" style="vector-effect: non-scaling-stroke;" /></g></g><g transform="matrix(1.0, 0.0, 0.0, 1.0, 0.0, 0.25)"><g><g style="fill: #fd7f7f;stroke: #fd7f7f;stroke-width: 2.7;" transform="matrix(1.0, 0.0, 0.0, 1.0, 0.0, 0.0)"><path d="M 0.0 0.0 L 0.25 0.0 L 0.25 0.25 L 0.0 0.25 L 0.0 0.0 Z" style="vector-effect: non-scaling-stroke;" /></g><g style="fill: #fd7f7f;stroke: #fd7f7f;stroke-width: 2.7;" transform="matrix(1.0, 0.0, 0.0, 1.0, 0.25, 0.0)"><path d="M 0.0 0.0 L 0.25 0.0 L 0.25 0.25 L 0.0 0.25 L 0.0 0.0 Z" style="vector-effect: non-scaling-stroke;" /></g></g></g></g></g></g></g></g></g><g><g style="stroke: black;stroke-width: 5.4;" transform="matrix(1.0, 0.0, 0.0, 1.0, 0.0, -1.0)"><path d="M 0.0 0.0 L 0.0 1.0" style="vector-effect: non-scaling-stroke;fill:none;" /></g><g style="stroke: black;stroke-width: 5.4;" transform="matrix(1.0, 0.0, 0.0, 1.0, 0.0, 0.0)"><path d="M 0.0 0.0 L 1.0 0.0" style="vector-effect: non-scaling-stroke;fill:none;" /></g></g></g></g><g style="stroke: black;stroke-width: 2.7;" transform="matrix(1.0, 0.0, 0.0, 1.0, 0.75, 0.0)"><g /></g></g><g style="fill: #000000;stroke: black;stroke-width: 2.7;" transform="matrix(1.0, 0.0, 0.0, 1.0, 1.0, 0.0)"><text style="text-align:center; text-anchor:middle; dominant-baseline:middle;&#10;                      font-family:sans-serif; font-weight: bold;&#10;                      font-size:0.5px;&#10;                      vector-effect: non-scaling-stroke;" transform="translate(-5e-05, 0)">→</text></g></g><g style="stroke: black;stroke-width: 2.7;" transform="matrix(1.0, 0.0, 0.0, 1.0, 1.2501, 0.0)"><g /></g></g><g transform="matrix(1.0, 0.0, 0.0, 1.0, 2.0000999999999998, 0.0)"><g transform="matrix(1.0, 0.0, 0.0, 1.0, -0.5, 0.5)"><g><g transform="matrix(1.0, 0.0, 0.0, -1.0, 0.0, 0.0)"><g><g><g style="fill: #7f80ff;stroke: #7f80ff;stroke-width: 2.7;" transform="matrix(1.0, 0.0, 0.0, 1.0, 0.0, 0.0)"><path d="M 0.0 0.0 L 0.5 0.0 L 0.5 0.5 L 0.0 0.5 L 0.0 0.0 Z" style="vector-effect: non-scaling-stroke;" /></g><g transform="matrix(1.0, 0.0, 0.0, 1.0, 0.5, 0.0)"><g><g><g style="fill: #7f80ff;stroke: #7f80ff;stroke-width: 2.7;" transform="matrix(1.0, 0.0, 0.0, 1.0, 0.0, 0.0)"><path d="M 0.0 0.0 L 0.25 0.0 L 0.25 0.25 L 0.0 0.25 L 0.0 0.0 Z" style="vector-effect: non-scaling-stroke;" /></g><g style="fill: #7f80ff;stroke: #7f80ff;stroke-width: 2.7;" transform="matrix(1.0, 0.0, 0.0, 1.0, 0.25, 0.0)"><path d="M 0.0 0.0 L 0.25 0.0 L 0.25 0.25 L 0.0 0.25 L 0.0 0.0 Z" style="vector-effect: non-scaling-stroke;" /></g></g><g transform="matrix(1.0, 0.0, 0.0, 1.0, 0.0, 0.25)"><g><g><g><g style="fill: #7f80ff;stroke: #7f80ff;stroke-width: 2.7;" transform="matrix(1.0, 0.0, 0.0, 1.0, 0.0, 0.0)"><path d="M 0.0 0.0 L 0.125 0.0 L 0.125 0.125 L 0.0 0.125 L 0.0 0.0 Z" style="vector-effect: non-scaling-stroke;" /></g><g style="fill: #7f80ff;stroke: #7f80ff;stroke-width: 2.7;" transform="matrix(1.0, 0.0, 0.0, 1.0, 0.125, 0.0)"><path d="M 0.0 0.0 L 0.125 0.0 L 0.125 0.125 L 0.0 0.125 L 0.0 0.0 Z" style="vector-effect: non-scaling-stroke;" /></g></g><g transform="matrix(1.0, 0.0, 0.0, 1.0, 0.0, 0.125)"><g><g><g><g style="fill: #7f80ff;stroke: #7f80ff;stroke-width: 2.7;" transform="matrix(1.0, 0.0, 0.0, 1.0, 0.0, 0.0)"><path d="M 0.0 0.0 L 0.0625 0.0 L 0.0625 0.0625 L 0.0 0.0625 L 0.0 0.0 Z" style="vector-effect: non-scaling-stroke;" /></g><g style="fill: #7f80ff;stroke: #7f80ff;stroke-width: 2.7;" transform="matrix(1.0, 0.0, 0.0, 1.0, 0.0625, 0.0)"><path d="M 0.0 0.0 L 0.0625 0.0 L 0.0625 0.0625 L 0.0 0.0625 L 0.0 0.0 Z" style="vector-effect: non-scaling-stroke;" /></g></g><g transform="matrix(1.0, 0.0, 0.0, 1.0, 0.0, 0.0625)"><g><g><g><g style="fill: #7f80ff;stroke: #7f80ff;stroke-width: 2.7;" transform="matrix(1.0, 0.0, 0.0, 1.0, 0.0, 0.0)"><path d="M 0.0 0.0 L 0.03125 0.0 L 0.03125 0.03125 L 0.0 0.03125 L 0.0 0.0 Z" style="vector-effect: non-scaling-stroke;" /></g><g style="fill: #7f80ff;stroke: #7f80ff;stroke-width: 2.7;" transform="matrix(1.0, 0.0, 0.0, 1.0, 0.03125, 0.0)"><path d="M 0.0 0.0 L 0.03125 0.0 L 0.03125 0.03125 L 0.0 0.03125 L 0.0 0.0 Z" style="vector-effect: non-scaling-stroke;" /></g></g><g transform="matrix(1.0, 0.0, 0.0, 1.0, 0.0, 0.03125)"><g><g style="fill: #7f80ff;stroke: #7f80ff;stroke-width: 2.7;" transform="matrix(1.0, 0.0, 0.0, 1.0, 0.0, 0.0)"><path d="M 0.0 0.0 L 0.03125 0.0 L 0.03125 0.03125 L 0.0 0.03125 L 0.0 0.0 Z" style="vector-effect: non-scaling-stroke;" /></g><g style="fill: #7f80ff;stroke: #7f80ff;stroke-width: 2.7;" transform="matrix(1.0, 0.0, 0.0, 1.0, 0.03125, 0.0)"><path d="M 0.0 0.0 L 0.03125 0.0 L 0.03125 0.03125 L 0.0 0.03125 L 0.0 0.0 Z" style="vector-effect: non-scaling-stroke;" /></g></g></g></g><g transform="matrix(1.0, 0.0, 0.0, 1.0, 0.0625, 0.0)"><g><g><g style="fill: #7f80ff;stroke: #7f80ff;stroke-width: 2.7;" transform="matrix(1.0, 0.0, 0.0, 1.0, 0.0, 0.0)"><path d="M 0.0 0.0 L 0.03125 0.0 L 0.03125 0.03125 L 0.0 0.03125 L 0.0 0.0 Z" style="vector-effect: non-scaling-stroke;" /></g><g style="fill: #7f80ff;stroke: #7f80ff;stroke-width: 2.7;" transform="matrix(1.0, 0.0, 0.0, 1.0, 0.03125, 0.0)"><path d="M 0.0 0.0 L 0.03125 0.0 L 0.03125 0.03125 L 0.0 0.03125 L 0.0 0.0 Z" style="vector-effect: non-scaling-stroke;" /></g></g><g transform="matrix(1.0, 0.0, 0.0, 1.0, 0.0, 0.03125)"><g><g style="fill: #7f80ff;stroke: #7f80ff;stroke-width: 2.7;" transform="matrix(1.0, 0.0, 0.0, 1.0, 0.0, 0.0)"><path d="M 0.0 0.0 L 0.03125 0.0 L 0.03125 0.03125 L 0.0 0.03125 L 0.0 0.0 Z" style="vector-effect: non-scaling-stroke;" /></g><g style="fill: #7f80ff;stroke: #7f80ff;stroke-width: 2.7;" transform="matrix(1.0, 0.0, 0.0, 1.0, 0.03125, 0.0)"><path d="M 0.0 0.0 L 0.03125 0.0 L 0.03125 0.03125 L 0.0 0.03125 L 0.0 0.0 Z" style="vector-effect: non-scaling-stroke;" /></g></g></g></g></g></g></g></g><g transform="matrix(1.0, 0.0, 0.0, 1.0, 0.125, 0.0)"><g><g><g style="fill: #7f80ff;stroke: #7f80ff;stroke-width: 2.7;" transform="matrix(1.0, 0.0, 0.0, 1.0, 0.0, 0.0)"><path d="M 0.0 0.0 L 0.0625 0.0 L 0.0625 0.0625 L 0.0 0.0625 L 0.0 0.0 Z" style="vector-effect: non-scaling-stroke;" /></g><g transform="matrix(1.0, 0.0, 0.0, 1.0, 0.0625, 0.0)"><g><g><g style="fill: #7f80ff;stroke: #7f80ff;stroke-width: 2.7;" transform="matrix(1.0, 0.0, 0.0, 1.0, 0.0, 0.0)"><path d="M 0.0 0.0 L 0.03125 0.0 L 0.03125 0.03125 L 0.0 0.03125 L 0.0 0.0 Z" style="vector-effect: non-scaling-stroke;" /></g><g style="fill: #7f80ff;stroke: #7f80ff;stroke-width: 2.7;" transform="matrix(1.0, 0.0, 0.0, 1.0, 0.03125, 0.0)"><path d="M 0.0 0.0 L 0.03125 0.0 L 0.03125 0.03125 L 0.0 0.03125 L 0.0 0.0 Z" style="vector-effect: non-scaling-stroke;" /></g></g><g transform="matrix(1.0, 0.0, 0.0, 1.0, 0.0, 0.03125)"><g><g style="fill: #7f80ff;stroke: #7f80ff;stroke-width: 2.7;" transform="matrix(1.0, 0.0, 0.0, 1.0, 0.0, 0.0)"><path d="M 0.0 0.0 L 0.03125 0.0 L 0.03125 0.03125 L 0.0 0.03125 L 0.0 0.0 Z" style="vector-effect: non-scaling-stroke;" /></g><g style="fill: #7f80ff;stroke: #7f80ff;stroke-width: 2.7;" transform="matrix(1.0, 0.0, 0.0, 1.0, 0.03125, 0.0)"><path d="M 0.0 0.0 L 0.03125 0.0 L 0.03125 0.03125 L 0.0 0.03125 L 0.0 0.0 Z" style="vector-effect: non-scaling-stroke;" /></g></g></g></g></g></g><g transform="matrix(1.0, 0.0, 0.0, 1.0, 0.0, 0.0625)"><g><g><g><g style="fill: #7f80ff;stroke: #7f80ff;stroke-width: 2.7;" transform="matrix(1.0, 0.0, 0.0, 1.0, 0.0, 0.0)"><path d="M 0.0 0.0 L 0.03125 0.0 L 0.03125 0.03125 L 0.0 0.03125 L 0.0 0.0 Z" style="vector-effect: non-scaling-stroke;" /></g><g style="fill: #7f80ff;stroke: #7f80ff;stroke-width: 2.7;" transform="matrix(1.0, 0.0, 0.0, 1.0, 0.03125, 0.0)"><path d="M 0.0 0.0 L 0.03125 0.0 L 0.03125 0.03125 L 0.0 0.03125 L 0.0 0.0 Z" style="vector-effect: non-scaling-stroke;" /></g></g><g transform="matrix(1.0, 0.0, 0.0, 1.0, 0.0, 0.03125)"><g><g style="fill: #fd7f7f;stroke: #fd7f7f;stroke-width: 2.7;" transform="matrix(1.0, 0.0, 0.0, 1.0, 0.0, 0.0)"><path d="M 0.0 0.0 L 0.03125 0.0 L 0.03125 0.03125 L 0.0 0.03125 L 0.0 0.0 Z" style="vector-effect: non-scaling-stroke;" /></g><g style="fill: #fd7f7f;stroke: #fd7f7f;stroke-width: 2.7;" transform="matrix(1.0, 0.0, 0.0, 1.0, 0.03125, 0.0)"><path d="M 0.0 0.0 L 0.03125 0.0 L 0.03125 0.03125 L 0.0 0.03125 L 0.0 0.0 Z" style="vector-effect: non-scaling-stroke;" /></g></g></g></g><g transform="matrix(1.0, 0.0, 0.0, 1.0, 0.0625, 0.0)"><g><g><g style="fill: #7f80ff;stroke: #7f80ff;stroke-width: 2.7;" transform="matrix(1.0, 0.0, 0.0, 1.0, 0.0, 0.0)"><path d="M 0.0 0.0 L 0.03125 0.0 L 0.03125 0.03125 L 0.0 0.03125 L 0.0 0.0 Z" style="vector-effect: non-scaling-stroke;" /></g><g style="fill: #fd7f7f;stroke: #fd7f7f;stroke-width: 2.7;" transform="matrix(1.0, 0.0, 0.0, 1.0, 0.03125, 0.0)"><path d="M 0.0 0.0 L 0.03125 0.0 L 0.03125 0.03125 L 0.0 0.03125 L 0.0 0.0 Z" style="vector-effect: non-scaling-stroke;" /></g></g><g transform="matrix(1.0, 0.0, 0.0, 1.0, 0.0, 0.03125)"><g><g style="fill: #fd7f7f;stroke: #fd7f7f;stroke-width: 2.7;" transform="matrix(1.0, 0.0, 0.0, 1.0, 0.0, 0.0)"><path d="M 0.0 0.0 L 0.03125 0.0 L 0.03125 0.03125 L 0.0 0.03125 L 0.0 0.0 Z" style="vector-effect: non-scaling-stroke;" /></g><g style="fill: #fd7f7f;stroke: #fd7f7f;stroke-width: 2.7;" transform="matrix(1.0, 0.0, 0.0, 1.0, 0.03125, 0.0)"><path d="M 0.0 0.0 L 0.03125 0.0 L 0.03125 0.03125 L 0.0 0.03125 L 0.0 0.0 Z" style="vector-effect: non-scaling-stroke;" /></g></g></g></g></g></g></g></g></g></g></g></g><g transform="matrix(1.0, 0.0, 0.0, 1.0, 0.25, 0.0)"><g><g><g style="fill: #7f80ff;stroke: #7f80ff;stroke-width: 2.7;" transform="matrix(1.0, 0.0, 0.0, 1.0, 0.0, 0.0)"><path d="M 0.0 0.0 L 0.125 0.0 L 0.125 0.125 L 0.0 0.125 L 0.0 0.0 Z" style="vector-effect: non-scaling-stroke;" /></g><g transform="matrix(1.0, 0.0, 0.0, 1.0, 0.125, 0.0)"><g><g><g style="fill: #7f80ff;stroke: #7f80ff;stroke-width: 2.7;" transform="matrix(1.0, 0.0, 0.0, 1.0, 0.0, 0.0)"><path d="M 0.0 0.0 L 0.0625 0.0 L 0.0625 0.0625 L 0.0 0.0625 L 0.0 0.0 Z" style="vector-effect: non-scaling-stroke;" /></g><g style="fill: #7f80ff;stroke: #7f80ff;stroke-width: 2.7;" transform="matrix(1.0, 0.0, 0.0, 1.0, 0.0625, 0.0)"><path d="M 0.0 0.0 L 0.0625 0.0 L 0.0625 0.0625 L 0.0 0.0625 L 0.0 0.0 Z" style="vector-effect: non-scaling-stroke;" /></g></g><g transform="matrix(1.0, 0.0, 0.0, 1.0, 0.0, 0.0625)"><g><g><g><g style="fill: #7f80ff;stroke: #7f80ff;stroke-width: 2.7;" transform="matrix(1.0, 0.0, 0.0, 1.0, 0.0, 0.0)"><path d="M 0.0 0.0 L 0.03125 0.0 L 0.03125 0.03125 L 0.0 0.03125 L 0.0 0.0 Z" style="vector-effect: non-scaling-stroke;" /></g><g style="fill: #7f80ff;stroke: #7f80ff;stroke-width: 2.7;" transform="matrix(1.0, 0.0, 0.0, 1.0, 0.03125, 0.0)"><path d="M 0.0 0.0 L 0.03125 0.0 L 0.03125 0.03125 L 0.0 0.03125 L 0.0 0.0 Z" style="vector-effect: non-scaling-stroke;" /></g></g><g transform="matrix(1.0, 0.0, 0.0, 1.0, 0.0, 0.03125)"><g><g style="fill: #7f80ff;stroke: #7f80ff;stroke-width: 2.7;" transform="matrix(1.0, 0.0, 0.0, 1.0, 0.0, 0.0)"><path d="M 0.0 0.0 L 0.03125 0.0 L 0.03125 0.03125 L 0.0 0.03125 L 0.0 0.0 Z" style="vector-effect: non-scaling-stroke;" /></g><g style="fill: #7f80ff;stroke: #7f80ff;stroke-width: 2.7;" transform="matrix(1.0, 0.0, 0.0, 1.0, 0.03125, 0.0)"><path d="M 0.0 0.0 L 0.03125 0.0 L 0.03125 0.03125 L 0.0 0.03125 L 0.0 0.0 Z" style="vector-effect: non-scaling-stroke;" /></g></g></g></g><g transform="matrix(1.0, 0.0, 0.0, 1.0, 0.0625, 0.0)"><g><g><g style="fill: #7f80ff;stroke: #7f80ff;stroke-width: 2.7;" transform="matrix(1.0, 0.0, 0.0, 1.0, 0.0, 0.0)"><path d="M 0.0 0.0 L 0.03125 0.0 L 0.03125 0.03125 L 0.0 0.03125 L 0.0 0.0 Z" style="vector-effect: non-scaling-stroke;" /></g><g style="fill: #7f80ff;stroke: #7f80ff;stroke-width: 2.7;" transform="matrix(1.0, 0.0, 0.0, 1.0, 0.03125, 0.0)"><path d="M 0.0 0.0 L 0.03125 0.0 L 0.03125 0.03125 L 0.0 0.03125 L 0.0 0.0 Z" style="vector-effect: non-scaling-stroke;" /></g></g><g transform="matrix(1.0, 0.0, 0.0, 1.0, 0.0, 0.03125)"><g><g style="fill: #7f80ff;stroke: #7f80ff;stroke-width: 2.7;" transform="matrix(1.0, 0.0, 0.0, 1.0, 0.0, 0.0)"><path d="M 0.0 0.0 L 0.03125 0.0 L 0.03125 0.03125 L 0.0 0.03125 L 0.0 0.0 Z" style="vector-effect: non-scaling-stroke;" /></g><g style="fill: #7f80ff;stroke: #7f80ff;stroke-width: 2.7;" transform="matrix(1.0, 0.0, 0.0, 1.0, 0.03125, 0.0)"><path d="M 0.0 0.0 L 0.03125 0.0 L 0.03125 0.03125 L 0.0 0.03125 L 0.0 0.0 Z" style="vector-effect: non-scaling-stroke;" /></g></g></g></g></g></g></g></g></g></g><g transform="matrix(1.0, 0.0, 0.0, 1.0, 0.0, 0.125)"><g><g><g><g><g><g style="fill: #7f80ff;stroke: #7f80ff;stroke-width: 2.7;" transform="matrix(1.0, 0.0, 0.0, 1.0, 0.0, 0.0)"><path d="M 0.0 0.0 L 0.03125 0.0 L 0.03125 0.03125 L 0.0 0.03125 L 0.0 0.0 Z" style="vector-effect: non-scaling-stroke;" /></g><g style="fill: #7f80ff;stroke: #7f80ff;stroke-width: 2.7;" transform="matrix(1.0, 0.0, 0.0, 1.0, 0.03125, 0.0)"><path d="M 0.0 0.0 L 0.03125 0.0 L 0.03125 0.03125 L 0.0 0.03125 L 0.0 0.0 Z" style="vector-effect: non-scaling-stroke;" /></g></g><g transform="matrix(1.0, 0.0, 0.0, 1.0, 0.0, 0.03125)"><g><g style="fill: #7f80ff;stroke: #7f80ff;stroke-width: 2.7;" transform="matrix(1.0, 0.0, 0.0, 1.0, 0.0, 0.0)"><path d="M 0.0 0.0 L 0.03125 0.0 L 0.03125 0.03125 L 0.0 0.03125 L 0.0 0.0 Z" style="vector-effect: non-scaling-stroke;" /></g><g style="fill: #7f80ff;stroke: #7f80ff;stroke-width: 2.7;" transform="matrix(1.0, 0.0, 0.0, 1.0, 0.03125, 0.0)"><path d="M 0.0 0.0 L 0.03125 0.0 L 0.03125 0.03125 L 0.0 0.03125 L 0.0 0.0 Z" style="vector-effect: non-scaling-stroke;" /></g></g></g></g><g transform="matrix(1.0, 0.0, 0.0, 1.0, 0.0625, 0.0)"><g><g><g style="fill: #7f80ff;stroke: #7f80ff;stroke-width: 2.7;" transform="matrix(1.0, 0.0, 0.0, 1.0, 0.0, 0.0)"><path d="M 0.0 0.0 L 0.03125 0.0 L 0.03125 0.03125 L 0.0 0.03125 L 0.0 0.0 Z" style="vector-effect: non-scaling-stroke;" /></g><g style="fill: #7f80ff;stroke: #7f80ff;stroke-width: 2.7;" transform="matrix(1.0, 0.0, 0.0, 1.0, 0.03125, 0.0)"><path d="M 0.0 0.0 L 0.03125 0.0 L 0.03125 0.03125 L 0.0 0.03125 L 0.0 0.0 Z" style="vector-effect: non-scaling-stroke;" /></g></g><g transform="matrix(1.0, 0.0, 0.0, 1.0, 0.0, 0.03125)"><g><g style="fill: #fd7f7f;stroke: #fd7f7f;stroke-width: 2.7;" transform="matrix(1.0, 0.0, 0.0, 1.0, 0.0, 0.0)"><path d="M 0.0 0.0 L 0.03125 0.0 L 0.03125 0.03125 L 0.0 0.03125 L 0.0 0.0 Z" style="vector-effect: non-scaling-stroke;" /></g><g style="fill: #fd7f7f;stroke: #fd7f7f;stroke-width: 2.7;" transform="matrix(1.0, 0.0, 0.0, 1.0, 0.03125, 0.0)"><path d="M 0.0 0.0 L 0.03125 0.0 L 0.03125 0.03125 L 0.0 0.03125 L 0.0 0.0 Z" style="vector-effect: non-scaling-stroke;" /></g></g></g></g></g></g><g transform="matrix(1.0, 0.0, 0.0, 1.0, 0.0, 0.0625)"><g><g style="fill: #fd7f7f;stroke: #fd7f7f;stroke-width: 2.7;" transform="matrix(1.0, 0.0, 0.0, 1.0, 0.0, 0.0)"><path d="M 0.0 0.0 L 0.0625 0.0 L 0.0625 0.0625 L 0.0 0.0625 L 0.0 0.0 Z" style="vector-effect: non-scaling-stroke;" /></g><g style="fill: #fd7f7f;stroke: #fd7f7f;stroke-width: 2.7;" transform="matrix(1.0, 0.0, 0.0, 1.0, 0.0625, 0.0)"><path d="M 0.0 0.0 L 0.0625 0.0 L 0.0625 0.0625 L 0.0 0.0625 L 0.0 0.0 Z" style="vector-effect: non-scaling-stroke;" /></g></g></g></g><g transform="matrix(1.0, 0.0, 0.0, 1.0, 0.125, 0.0)"><g><g><g><g><g style="fill: #7f80ff;stroke: #7f80ff;stroke-width: 2.7;" transform="matrix(1.0, 0.0, 0.0, 1.0, 0.0, 0.0)"><path d="M 0.0 0.0 L 0.03125 0.0 L 0.03125 0.03125 L 0.0 0.03125 L 0.0 0.0 Z" style="vector-effect: non-scaling-stroke;" /></g><g style="fill: #fd7f7f;stroke: #fd7f7f;stroke-width: 2.7;" transform="matrix(1.0, 0.0, 0.0, 1.0, 0.03125, 0.0)"><path d="M 0.0 0.0 L 0.03125 0.0 L 0.03125 0.03125 L 0.0 0.03125 L 0.0 0.0 Z" style="vector-effect: non-scaling-stroke;" /></g></g><g transform="matrix(1.0, 0.0, 0.0, 1.0, 0.0, 0.03125)"><g><g style="fill: #fd7f7f;stroke: #fd7f7f;stroke-width: 2.7;" transform="matrix(1.0, 0.0, 0.0, 1.0, 0.0, 0.0)"><path d="M 0.0 0.0 L 0.03125 0.0 L 0.03125 0.03125 L 0.0 0.03125 L 0.0 0.0 Z" style="vector-effect: non-scaling-stroke;" /></g><g style="fill: #fd7f7f;stroke: #fd7f7f;stroke-width: 2.7;" transform="matrix(1.0, 0.0, 0.0, 1.0, 0.03125, 0.0)"><path d="M 0.0 0.0 L 0.03125 0.0 L 0.03125 0.03125 L 0.0 0.03125 L 0.0 0.0 Z" style="vector-effect: non-scaling-stroke;" /></g></g></g></g><g style="fill: #fd7f7f;stroke: #fd7f7f;stroke-width: 2.7;" transform="matrix(1.0, 0.0, 0.0, 1.0, 0.0625, 0.0)"><path d="M 0.0 0.0 L 0.0625 0.0 L 0.0625 0.0625 L 0.0 0.0625 L 0.0 0.0 Z" style="vector-effect: non-scaling-stroke;" /></g></g><g transform="matrix(1.0, 0.0, 0.0, 1.0, 0.0, 0.0625)"><g><g style="fill: #fd7f7f;stroke: #fd7f7f;stroke-width: 2.7;" transform="matrix(1.0, 0.0, 0.0, 1.0, 0.0, 0.0)"><path d="M 0.0 0.0 L 0.0625 0.0 L 0.0625 0.0625 L 0.0 0.0625 L 0.0 0.0 Z" style="vector-effect: non-scaling-stroke;" /></g><g style="fill: #fd7f7f;stroke: #fd7f7f;stroke-width: 2.7;" transform="matrix(1.0, 0.0, 0.0, 1.0, 0.0625, 0.0)"><path d="M 0.0 0.0 L 0.0625 0.0 L 0.0625 0.0625 L 0.0 0.0625 L 0.0 0.0 Z" style="vector-effect: non-scaling-stroke;" /></g></g></g></g></g></g></g></g></g></g></g></g></g></g><g transform="matrix(1.0, 0.0, 0.0, 1.0, 0.0, 0.5)"><g><g><g><g><g><g style="fill: #7f80ff;stroke: #7f80ff;stroke-width: 2.7;" transform="matrix(1.0, 0.0, 0.0, 1.0, 0.0, 0.0)"><path d="M 0.0 0.0 L 0.125 0.0 L 0.125 0.125 L 0.0 0.125 L 0.0 0.0 Z" style="vector-effect: non-scaling-stroke;" /></g><g transform="matrix(1.0, 0.0, 0.0, 1.0, 0.125, 0.0)"><g><g><g style="fill: #7f80ff;stroke: #7f80ff;stroke-width: 2.7;" transform="matrix(1.0, 0.0, 0.0, 1.0, 0.0, 0.0)"><path d="M 0.0 0.0 L 0.0625 0.0 L 0.0625 0.0625 L 0.0 0.0625 L 0.0 0.0 Z" style="vector-effect: non-scaling-stroke;" /></g><g style="fill: #7f80ff;stroke: #7f80ff;stroke-width: 2.7;" transform="matrix(1.0, 0.0, 0.0, 1.0, 0.0625, 0.0)"><path d="M 0.0 0.0 L 0.0625 0.0 L 0.0625 0.0625 L 0.0 0.0625 L 0.0 0.0 Z" style="vector-effect: non-scaling-stroke;" /></g></g><g transform="matrix(1.0, 0.0, 0.0, 1.0, 0.0, 0.0625)"><g><g><g><g style="fill: #7f80ff;stroke: #7f80ff;stroke-width: 2.7;" transform="matrix(1.0, 0.0, 0.0, 1.0, 0.0, 0.0)"><path d="M 0.0 0.0 L 0.03125 0.0 L 0.03125 0.03125 L 0.0 0.03125 L 0.0 0.0 Z" style="vector-effect: non-scaling-stroke;" /></g><g style="fill: #7f80ff;stroke: #7f80ff;stroke-width: 2.7;" transform="matrix(1.0, 0.0, 0.0, 1.0, 0.03125, 0.0)"><path d="M 0.0 0.0 L 0.03125 0.0 L 0.03125 0.03125 L 0.0 0.03125 L 0.0 0.0 Z" style="vector-effect: non-scaling-stroke;" /></g></g><g transform="matrix(1.0, 0.0, 0.0, 1.0, 0.0, 0.03125)"><g><g style="fill: #7f80ff;stroke: #7f80ff;stroke-width: 2.7;" transform="matrix(1.0, 0.0, 0.0, 1.0, 0.0, 0.0)"><path d="M 0.0 0.0 L 0.03125 0.0 L 0.03125 0.03125 L 0.0 0.03125 L 0.0 0.0 Z" style="vector-effect: non-scaling-stroke;" /></g><g style="fill: #7f80ff;stroke: #7f80ff;stroke-width: 2.7;" transform="matrix(1.0, 0.0, 0.0, 1.0, 0.03125, 0.0)"><path d="M 0.0 0.0 L 0.03125 0.0 L 0.03125 0.03125 L 0.0 0.03125 L 0.0 0.0 Z" style="vector-effect: non-scaling-stroke;" /></g></g></g></g><g transform="matrix(1.0, 0.0, 0.0, 1.0, 0.0625, 0.0)"><g><g><g style="fill: #7f80ff;stroke: #7f80ff;stroke-width: 2.7;" transform="matrix(1.0, 0.0, 0.0, 1.0, 0.0, 0.0)"><path d="M 0.0 0.0 L 0.03125 0.0 L 0.03125 0.03125 L 0.0 0.03125 L 0.0 0.0 Z" style="vector-effect: non-scaling-stroke;" /></g><g style="fill: #7f80ff;stroke: #7f80ff;stroke-width: 2.7;" transform="matrix(1.0, 0.0, 0.0, 1.0, 0.03125, 0.0)"><path d="M 0.0 0.0 L 0.03125 0.0 L 0.03125 0.03125 L 0.0 0.03125 L 0.0 0.0 Z" style="vector-effect: non-scaling-stroke;" /></g></g><g transform="matrix(1.0, 0.0, 0.0, 1.0, 0.0, 0.03125)"><g><g style="fill: #7f80ff;stroke: #7f80ff;stroke-width: 2.7;" transform="matrix(1.0, 0.0, 0.0, 1.0, 0.0, 0.0)"><path d="M 0.0 0.0 L 0.03125 0.0 L 0.03125 0.03125 L 0.0 0.03125 L 0.0 0.0 Z" style="vector-effect: non-scaling-stroke;" /></g><g style="fill: #7f80ff;stroke: #7f80ff;stroke-width: 2.7;" transform="matrix(1.0, 0.0, 0.0, 1.0, 0.03125, 0.0)"><path d="M 0.0 0.0 L 0.03125 0.0 L 0.03125 0.03125 L 0.0 0.03125 L 0.0 0.0 Z" style="vector-effect: non-scaling-stroke;" /></g></g></g></g></g></g></g></g></g></g><g transform="matrix(1.0, 0.0, 0.0, 1.0, 0.0, 0.125)"><g><g><g><g><g><g style="fill: #7f80ff;stroke: #7f80ff;stroke-width: 2.7;" transform="matrix(1.0, 0.0, 0.0, 1.0, 0.0, 0.0)"><path d="M 0.0 0.0 L 0.03125 0.0 L 0.03125 0.03125 L 0.0 0.03125 L 0.0 0.0 Z" style="vector-effect: non-scaling-stroke;" /></g><g style="fill: #7f80ff;stroke: #7f80ff;stroke-width: 2.7;" transform="matrix(1.0, 0.0, 0.0, 1.0, 0.03125, 0.0)"><path d="M 0.0 0.0 L 0.03125 0.0 L 0.03125 0.03125 L 0.0 0.03125 L 0.0 0.0 Z" style="vector-effect: non-scaling-stroke;" /></g></g><g transform="matrix(1.0, 0.0, 0.0, 1.0, 0.0, 0.03125)"><g><g style="fill: #7f80ff;stroke: #7f80ff;stroke-width: 2.7;" transform="matrix(1.0, 0.0, 0.0, 1.0, 0.0, 0.0)"><path d="M 0.0 0.0 L 0.03125 0.0 L 0.03125 0.03125 L 0.0 0.03125 L 0.0 0.0 Z" style="vector-effect: non-scaling-stroke;" /></g><g style="fill: #7f80ff;stroke: #7f80ff;stroke-width: 2.7;" transform="matrix(1.0, 0.0, 0.0, 1.0, 0.03125, 0.0)"><path d="M 0.0 0.0 L 0.03125 0.0 L 0.03125 0.03125 L 0.0 0.03125 L 0.0 0.0 Z" style="vector-effect: non-scaling-stroke;" /></g></g></g></g><g transform="matrix(1.0, 0.0, 0.0, 1.0, 0.0625, 0.0)"><g><g><g style="fill: #7f80ff;stroke: #7f80ff;stroke-width: 2.7;" transform="matrix(1.0, 0.0, 0.0, 1.0, 0.0, 0.0)"><path d="M 0.0 0.0 L 0.03125 0.0 L 0.03125 0.03125 L 0.0 0.03125 L 0.0 0.0 Z" style="vector-effect: non-scaling-stroke;" /></g><g style="fill: #7f80ff;stroke: #7f80ff;stroke-width: 2.7;" transform="matrix(1.0, 0.0, 0.0, 1.0, 0.03125, 0.0)"><path d="M 0.0 0.0 L 0.03125 0.0 L 0.03125 0.03125 L 0.0 0.03125 L 0.0 0.0 Z" style="vector-effect: non-scaling-stroke;" /></g></g><g transform="matrix(1.0, 0.0, 0.0, 1.0, 0.0, 0.03125)"><g><g style="fill: #fd7f7f;stroke: #fd7f7f;stroke-width: 2.7;" transform="matrix(1.0, 0.0, 0.0, 1.0, 0.0, 0.0)"><path d="M 0.0 0.0 L 0.03125 0.0 L 0.03125 0.03125 L 0.0 0.03125 L 0.0 0.0 Z" style="vector-effect: non-scaling-stroke;" /></g><g style="fill: #fd7f7f;stroke: #fd7f7f;stroke-width: 2.7;" transform="matrix(1.0, 0.0, 0.0, 1.0, 0.03125, 0.0)"><path d="M 0.0 0.0 L 0.03125 0.0 L 0.03125 0.03125 L 0.0 0.03125 L 0.0 0.0 Z" style="vector-effect: non-scaling-stroke;" /></g></g></g></g></g></g><g transform="matrix(1.0, 0.0, 0.0, 1.0, 0.0, 0.0625)"><g><g style="fill: #fd7f7f;stroke: #fd7f7f;stroke-width: 2.7;" transform="matrix(1.0, 0.0, 0.0, 1.0, 0.0, 0.0)"><path d="M 0.0 0.0 L 0.0625 0.0 L 0.0625 0.0625 L 0.0 0.0625 L 0.0 0.0 Z" style="vector-effect: non-scaling-stroke;" /></g><g style="fill: #fd7f7f;stroke: #fd7f7f;stroke-width: 2.7;" transform="matrix(1.0, 0.0, 0.0, 1.0, 0.0625, 0.0)"><path d="M 0.0 0.0 L 0.0625 0.0 L 0.0625 0.0625 L 0.0 0.0625 L 0.0 0.0 Z" style="vector-effect: non-scaling-stroke;" /></g></g></g></g><g transform="matrix(1.0, 0.0, 0.0, 1.0, 0.125, 0.0)"><g><g><g><g><g style="fill: #7f80ff;stroke: #7f80ff;stroke-width: 2.7;" transform="matrix(1.0, 0.0, 0.0, 1.0, 0.0, 0.0)"><path d="M 0.0 0.0 L 0.03125 0.0 L 0.03125 0.03125 L 0.0 0.03125 L 0.0 0.0 Z" style="vector-effect: non-scaling-stroke;" /></g><g style="fill: #fd7f7f;stroke: #fd7f7f;stroke-width: 2.7;" transform="matrix(1.0, 0.0, 0.0, 1.0, 0.03125, 0.0)"><path d="M 0.0 0.0 L 0.03125 0.0 L 0.03125 0.03125 L 0.0 0.03125 L 0.0 0.0 Z" style="vector-effect: non-scaling-stroke;" /></g></g><g transform="matrix(1.0, 0.0, 0.0, 1.0, 0.0, 0.03125)"><g><g style="fill: #fd7f7f;stroke: #fd7f7f;stroke-width: 2.7;" transform="matrix(1.0, 0.0, 0.0, 1.0, 0.0, 0.0)"><path d="M 0.0 0.0 L 0.03125 0.0 L 0.03125 0.03125 L 0.0 0.03125 L 0.0 0.0 Z" style="vector-effect: non-scaling-stroke;" /></g><g style="fill: #fd7f7f;stroke: #fd7f7f;stroke-width: 2.7;" transform="matrix(1.0, 0.0, 0.0, 1.0, 0.03125, 0.0)"><path d="M 0.0 0.0 L 0.03125 0.0 L 0.03125 0.03125 L 0.0 0.03125 L 0.0 0.0 Z" style="vector-effect: non-scaling-stroke;" /></g></g></g></g><g style="fill: #fd7f7f;stroke: #fd7f7f;stroke-width: 2.7;" transform="matrix(1.0, 0.0, 0.0, 1.0, 0.0625, 0.0)"><path d="M 0.0 0.0 L 0.0625 0.0 L 0.0625 0.0625 L 0.0 0.0625 L 0.0 0.0 Z" style="vector-effect: non-scaling-stroke;" /></g></g><g transform="matrix(1.0, 0.0, 0.0, 1.0, 0.0, 0.0625)"><g><g style="fill: #fd7f7f;stroke: #fd7f7f;stroke-width: 2.7;" transform="matrix(1.0, 0.0, 0.0, 1.0, 0.0, 0.0)"><path d="M 0.0 0.0 L 0.0625 0.0 L 0.0625 0.0625 L 0.0 0.0625 L 0.0 0.0 Z" style="vector-effect: non-scaling-stroke;" /></g><g style="fill: #fd7f7f;stroke: #fd7f7f;stroke-width: 2.7;" transform="matrix(1.0, 0.0, 0.0, 1.0, 0.0625, 0.0)"><path d="M 0.0 0.0 L 0.0625 0.0 L 0.0625 0.0625 L 0.0 0.0625 L 0.0 0.0 Z" style="vector-effect: non-scaling-stroke;" /></g></g></g></g></g></g></g></g><g transform="matrix(1.0, 0.0, 0.0, 1.0, 0.25, 0.0)"><g><g><g><g><g style="fill: #7f80ff;stroke: #7f80ff;stroke-width: 2.7;" transform="matrix(1.0, 0.0, 0.0, 1.0, 0.0, 0.0)"><path d="M 0.0 0.0 L 0.0625 0.0 L 0.0625 0.0625 L 0.0 0.0625 L 0.0 0.0 Z" style="vector-effect: non-scaling-stroke;" /></g><g transform="matrix(1.0, 0.0, 0.0, 1.0, 0.0625, 0.0)"><g><g><g style="fill: #7f80ff;stroke: #7f80ff;stroke-width: 2.7;" transform="matrix(1.0, 0.0, 0.0, 1.0, 0.0, 0.0)"><path d="M 0.0 0.0 L 0.03125 0.0 L 0.03125 0.03125 L 0.0 0.03125 L 0.0 0.0 Z" style="vector-effect: non-scaling-stroke;" /></g><g style="fill: #7f80ff;stroke: #7f80ff;stroke-width: 2.7;" transform="matrix(1.0, 0.0, 0.0, 1.0, 0.03125, 0.0)"><path d="M 0.0 0.0 L 0.03125 0.0 L 0.03125 0.03125 L 0.0 0.03125 L 0.0 0.0 Z" style="vector-effect: non-scaling-stroke;" /></g></g><g transform="matrix(1.0, 0.0, 0.0, 1.0, 0.0, 0.03125)"><g><g style="fill: #7f80ff;stroke: #7f80ff;stroke-width: 2.7;" transform="matrix(1.0, 0.0, 0.0, 1.0, 0.0, 0.0)"><path d="M 0.0 0.0 L 0.03125 0.0 L 0.03125 0.03125 L 0.0 0.03125 L 0.0 0.0 Z" style="vector-effect: non-scaling-stroke;" /></g><g style="fill: #7f80ff;stroke: #7f80ff;stroke-width: 2.7;" transform="matrix(1.0, 0.0, 0.0, 1.0, 0.03125, 0.0)"><path d="M 0.0 0.0 L 0.03125 0.0 L 0.03125 0.03125 L 0.0 0.03125 L 0.0 0.0 Z" style="vector-effect: non-scaling-stroke;" /></g></g></g></g></g></g><g transform="matrix(1.0, 0.0, 0.0, 1.0, 0.0, 0.0625)"><g><g><g><g style="fill: #7f80ff;stroke: #7f80ff;stroke-width: 2.7;" transform="matrix(1.0, 0.0, 0.0, 1.0, 0.0, 0.0)"><path d="M 0.0 0.0 L 0.03125 0.0 L 0.03125 0.03125 L 0.0 0.03125 L 0.0 0.0 Z" style="vector-effect: non-scaling-stroke;" /></g><g style="fill: #7f80ff;stroke: #7f80ff;stroke-width: 2.7;" transform="matrix(1.0, 0.0, 0.0, 1.0, 0.03125, 0.0)"><path d="M 0.0 0.0 L 0.03125 0.0 L 0.03125 0.03125 L 0.0 0.03125 L 0.0 0.0 Z" style="vector-effect: non-scaling-stroke;" /></g></g><g transform="matrix(1.0, 0.0, 0.0, 1.0, 0.0, 0.03125)"><g><g style="fill: #fd7f7f;stroke: #fd7f7f;stroke-width: 2.7;" transform="matrix(1.0, 0.0, 0.0, 1.0, 0.0, 0.0)"><path d="M 0.0 0.0 L 0.03125 0.0 L 0.03125 0.03125 L 0.0 0.03125 L 0.0 0.0 Z" style="vector-effect: non-scaling-stroke;" /></g><g style="fill: #fd7f7f;stroke: #fd7f7f;stroke-width: 2.7;" transform="matrix(1.0, 0.0, 0.0, 1.0, 0.03125, 0.0)"><path d="M 0.0 0.0 L 0.03125 0.0 L 0.03125 0.03125 L 0.0 0.03125 L 0.0 0.0 Z" style="vector-effect: non-scaling-stroke;" /></g></g></g></g><g transform="matrix(1.0, 0.0, 0.0, 1.0, 0.0625, 0.0)"><g><g><g style="fill: #7f80ff;stroke: #7f80ff;stroke-width: 2.7;" transform="matrix(1.0, 0.0, 0.0, 1.0, 0.0, 0.0)"><path d="M 0.0 0.0 L 0.03125 0.0 L 0.03125 0.03125 L 0.0 0.03125 L 0.0 0.0 Z" style="vector-effect: non-scaling-stroke;" /></g><g style="fill: #fd7f7f;stroke: #fd7f7f;stroke-width: 2.7;" transform="matrix(1.0, 0.0, 0.0, 1.0, 0.03125, 0.0)"><path d="M 0.0 0.0 L 0.03125 0.0 L 0.03125 0.03125 L 0.0 0.03125 L 0.0 0.0 Z" style="vector-effect: non-scaling-stroke;" /></g></g><g transform="matrix(1.0, 0.0, 0.0, 1.0, 0.0, 0.03125)"><g><g style="fill: #fd7f7f;stroke: #fd7f7f;stroke-width: 2.7;" transform="matrix(1.0, 0.0, 0.0, 1.0, 0.0, 0.0)"><path d="M 0.0 0.0 L 0.03125 0.0 L 0.03125 0.03125 L 0.0 0.03125 L 0.0 0.0 Z" style="vector-effect: non-scaling-stroke;" /></g><g style="fill: #fd7f7f;stroke: #fd7f7f;stroke-width: 2.7;" transform="matrix(1.0, 0.0, 0.0, 1.0, 0.03125, 0.0)"><path d="M 0.0 0.0 L 0.03125 0.0 L 0.03125 0.03125 L 0.0 0.03125 L 0.0 0.0 Z" style="vector-effect: non-scaling-stroke;" /></g></g></g></g></g></g></g></g><g transform="matrix(1.0, 0.0, 0.0, 1.0, 0.125, 0.0)"><g><g><g><g><g style="fill: #7f80ff;stroke: #7f80ff;stroke-width: 2.7;" transform="matrix(1.0, 0.0, 0.0, 1.0, 0.0, 0.0)"><path d="M 0.0 0.0 L 0.03125 0.0 L 0.03125 0.03125 L 0.0 0.03125 L 0.0 0.0 Z" style="vector-effect: non-scaling-stroke;" /></g><g style="fill: #7f80ff;stroke: #7f80ff;stroke-width: 2.7;" transform="matrix(1.0, 0.0, 0.0, 1.0, 0.03125, 0.0)"><path d="M 0.0 0.0 L 0.03125 0.0 L 0.03125 0.03125 L 0.0 0.03125 L 0.0 0.0 Z" style="vector-effect: non-scaling-stroke;" /></g></g><g transform="matrix(1.0, 0.0, 0.0, 1.0, 0.0, 0.03125)"><g><g style="fill: #7f80ff;stroke: #7f80ff;stroke-width: 2.7;" transform="matrix(1.0, 0.0, 0.0, 1.0, 0.0, 0.0)"><path d="M 0.0 0.0 L 0.03125 0.0 L 0.03125 0.03125 L 0.0 0.03125 L 0.0 0.0 Z" style="vector-effect: non-scaling-stroke;" /></g><g style="fill: #7f80ff;stroke: #7f80ff;stroke-width: 2.7;" transform="matrix(1.0, 0.0, 0.0, 1.0, 0.03125, 0.0)"><path d="M 0.0 0.0 L 0.03125 0.0 L 0.03125 0.03125 L 0.0 0.03125 L 0.0 0.0 Z" style="vector-effect: non-scaling-stroke;" /></g></g></g></g><g transform="matrix(1.0, 0.0, 0.0, 1.0, 0.0625, 0.0)"><g><g><g style="fill: #7f80ff;stroke: #7f80ff;stroke-width: 2.7;" transform="matrix(1.0, 0.0, 0.0, 1.0, 0.0, 0.0)"><path d="M 0.0 0.0 L 0.03125 0.0 L 0.03125 0.03125 L 0.0 0.03125 L 0.0 0.0 Z" style="vector-effect: non-scaling-stroke;" /></g><g style="fill: #7f80ff;stroke: #7f80ff;stroke-width: 2.7;" transform="matrix(1.0, 0.0, 0.0, 1.0, 0.03125, 0.0)"><path d="M 0.0 0.0 L 0.03125 0.0 L 0.03125 0.03125 L 0.0 0.03125 L 0.0 0.0 Z" style="vector-effect: non-scaling-stroke;" /></g></g><g transform="matrix(1.0, 0.0, 0.0, 1.0, 0.0, 0.03125)"><g><g style="fill: #fd7f7f;stroke: #fd7f7f;stroke-width: 2.7;" transform="matrix(1.0, 0.0, 0.0, 1.0, 0.0, 0.0)"><path d="M 0.0 0.0 L 0.03125 0.0 L 0.03125 0.03125 L 0.0 0.03125 L 0.0 0.0 Z" style="vector-effect: non-scaling-stroke;" /></g><g style="fill: #fd7f7f;stroke: #fd7f7f;stroke-width: 2.7;" transform="matrix(1.0, 0.0, 0.0, 1.0, 0.03125, 0.0)"><path d="M 0.0 0.0 L 0.03125 0.0 L 0.03125 0.03125 L 0.0 0.03125 L 0.0 0.0 Z" style="vector-effect: non-scaling-stroke;" /></g></g></g></g></g></g><g transform="matrix(1.0, 0.0, 0.0, 1.0, 0.0, 0.0625)"><g><g style="fill: #fd7f7f;stroke: #fd7f7f;stroke-width: 2.7;" transform="matrix(1.0, 0.0, 0.0, 1.0, 0.0, 0.0)"><path d="M 0.0 0.0 L 0.0625 0.0 L 0.0625 0.0625 L 0.0 0.0625 L 0.0 0.0 Z" style="vector-effect: non-scaling-stroke;" /></g><g style="fill: #fd7f7f;stroke: #fd7f7f;stroke-width: 2.7;" transform="matrix(1.0, 0.0, 0.0, 1.0, 0.0625, 0.0)"><path d="M 0.0 0.0 L 0.0625 0.0 L 0.0625 0.0625 L 0.0 0.0625 L 0.0 0.0 Z" style="vector-effect: non-scaling-stroke;" /></g></g></g></g></g></g><g transform="matrix(1.0, 0.0, 0.0, 1.0, 0.0, 0.125)"><g><g style="fill: #fd7f7f;stroke: #fd7f7f;stroke-width: 2.7;" transform="matrix(1.0, 0.0, 0.0, 1.0, 0.0, 0.0)"><path d="M 0.0 0.0 L 0.125 0.0 L 0.125 0.125 L 0.0 0.125 L 0.0 0.0 Z" style="vector-effect: non-scaling-stroke;" /></g><g style="fill: #fd7f7f;stroke: #fd7f7f;stroke-width: 2.7;" transform="matrix(1.0, 0.0, 0.0, 1.0, 0.125, 0.0)"><path d="M 0.0 0.0 L 0.125 0.0 L 0.125 0.125 L 0.0 0.125 L 0.0 0.0 Z" style="vector-effect: non-scaling-stroke;" /></g></g></g></g></g></g><g transform="matrix(1.0, 0.0, 0.0, 1.0, 0.0, 0.25)"><g><g style="fill: #fd7f7f;stroke: #fd7f7f;stroke-width: 2.7;" transform="matrix(1.0, 0.0, 0.0, 1.0, 0.0, 0.0)"><path d="M 0.0 0.0 L 0.25 0.0 L 0.25 0.25 L 0.0 0.25 L 0.0 0.0 Z" style="vector-effect: non-scaling-stroke;" /></g><g style="fill: #fd7f7f;stroke: #fd7f7f;stroke-width: 2.7;" transform="matrix(1.0, 0.0, 0.0, 1.0, 0.25, 0.0)"><path d="M 0.0 0.0 L 0.25 0.0 L 0.25 0.25 L 0.0 0.25 L 0.0 0.0 Z" style="vector-effect: non-scaling-stroke;" /></g></g></g></g><g transform="matrix(1.0, 0.0, 0.0, 1.0, 0.5, 0.0)"><g><g><g><g><g><g><g><g><g style="fill: #7f80ff;stroke: #7f80ff;stroke-width: 2.7;" transform="matrix(1.0, 0.0, 0.0, 1.0, 0.0, 0.0)"><path d="M 0.0 0.0 L 0.03125 0.0 L 0.03125 0.03125 L 0.0 0.03125 L 0.0 0.0 Z" style="vector-effect: non-scaling-stroke;" /></g><g style="fill: #fd7f7f;stroke: #fd7f7f;stroke-width: 2.7;" transform="matrix(1.0, 0.0, 0.0, 1.0, 0.03125, 0.0)"><path d="M 0.0 0.0 L 0.03125 0.0 L 0.03125 0.03125 L 0.0 0.03125 L 0.0 0.0 Z" style="vector-effect: non-scaling-stroke;" /></g></g><g transform="matrix(1.0, 0.0, 0.0, 1.0, 0.0, 0.03125)"><g><g style="fill: #fd7f7f;stroke: #fd7f7f;stroke-width: 2.7;" transform="matrix(1.0, 0.0, 0.0, 1.0, 0.0, 0.0)"><path d="M 0.0 0.0 L 0.03125 0.0 L 0.03125 0.03125 L 0.0 0.03125 L 0.0 0.0 Z" style="vector-effect: non-scaling-stroke;" /></g><g style="fill: #fd7f7f;stroke: #fd7f7f;stroke-width: 2.7;" transform="matrix(1.0, 0.0, 0.0, 1.0, 0.03125, 0.0)"><path d="M 0.0 0.0 L 0.03125 0.0 L 0.03125 0.03125 L 0.0 0.03125 L 0.0 0.0 Z" style="vector-effect: non-scaling-stroke;" /></g></g></g></g><g style="fill: #fd7f7f;stroke: #fd7f7f;stroke-width: 2.7;" transform="matrix(1.0, 0.0, 0.0, 1.0, 0.0625, 0.0)"><path d="M 0.0 0.0 L 0.0625 0.0 L 0.0625 0.0625 L 0.0 0.0625 L 0.0 0.0 Z" style="vector-effect: non-scaling-stroke;" /></g></g><g transform="matrix(1.0, 0.0, 0.0, 1.0, 0.0, 0.0625)"><g><g style="fill: #fd7f7f;stroke: #fd7f7f;stroke-width: 2.7;" transform="matrix(1.0, 0.0, 0.0, 1.0, 0.0, 0.0)"><path d="M 0.0 0.0 L 0.0625 0.0 L 0.0625 0.0625 L 0.0 0.0625 L 0.0 0.0 Z" style="vector-effect: non-scaling-stroke;" /></g><g style="fill: #fd7f7f;stroke: #fd7f7f;stroke-width: 2.7;" transform="matrix(1.0, 0.0, 0.0, 1.0, 0.0625, 0.0)"><path d="M 0.0 0.0 L 0.0625 0.0 L 0.0625 0.0625 L 0.0 0.0625 L 0.0 0.0 Z" style="vector-effect: non-scaling-stroke;" /></g></g></g></g><g style="fill: #fd7f7f;stroke: #fd7f7f;stroke-width: 2.7;" transform="matrix(1.0, 0.0, 0.0, 1.0, 0.125, 0.0)"><path d="M 0.0 0.0 L 0.125 0.0 L 0.125 0.125 L 0.0 0.125 L 0.0 0.0 Z" style="vector-effect: non-scaling-stroke;" /></g></g><g transform="matrix(1.0, 0.0, 0.0, 1.0, 0.0, 0.125)"><g><g style="fill: #fd7f7f;stroke: #fd7f7f;stroke-width: 2.7;" transform="matrix(1.0, 0.0, 0.0, 1.0, 0.0, 0.0)"><path d="M 0.0 0.0 L 0.125 0.0 L 0.125 0.125 L 0.0 0.125 L 0.0 0.0 Z" style="vector-effect: non-scaling-stroke;" /></g><g style="fill: #fd7f7f;stroke: #fd7f7f;stroke-width: 2.7;" transform="matrix(1.0, 0.0, 0.0, 1.0, 0.125, 0.0)"><path d="M 0.0 0.0 L 0.125 0.0 L 0.125 0.125 L 0.0 0.125 L 0.0 0.0 Z" style="vector-effect: non-scaling-stroke;" /></g></g></g></g><g style="fill: #fd7f7f;stroke: #fd7f7f;stroke-width: 2.7;" transform="matrix(1.0, 0.0, 0.0, 1.0, 0.25, 0.0)"><path d="M 0.0 0.0 L 0.25 0.0 L 0.25 0.25 L 0.0 0.25 L 0.0 0.0 Z" style="vector-effect: non-scaling-stroke;" /></g></g><g transform="matrix(1.0, 0.0, 0.0, 1.0, 0.0, 0.25)"><g><g style="fill: #fd7f7f;stroke: #fd7f7f;stroke-width: 2.7;" transform="matrix(1.0, 0.0, 0.0, 1.0, 0.0, 0.0)"><path d="M 0.0 0.0 L 0.25 0.0 L 0.25 0.25 L 0.0 0.25 L 0.0 0.0 Z" style="vector-effect: non-scaling-stroke;" /></g><g style="fill: #fd7f7f;stroke: #fd7f7f;stroke-width: 2.7;" transform="matrix(1.0, 0.0, 0.0, 1.0, 0.25, 0.0)"><path d="M 0.0 0.0 L 0.25 0.0 L 0.25 0.25 L 0.0 0.25 L 0.0 0.0 Z" style="vector-effect: non-scaling-stroke;" /></g></g></g></g></g></g></g></g></g><g><g style="stroke: black;stroke-width: 5.4;" transform="matrix(1.0, 0.0, 0.0, 1.0, 0.0, -1.0)"><path d="M 0.0 0.0 L 0.0 1.0" style="vector-effect: non-scaling-stroke;fill:none;" /></g><g style="stroke: black;stroke-width: 5.4;" transform="matrix(1.0, 0.0, 0.0, 1.0, 0.0, 0.0)"><path d="M 0.0 0.0 L 1.0 0.0" style="vector-effect: non-scaling-stroke;fill:none;" /></g></g></g></g></g></g></g><g /></g></g></g></g></svg>