<?xml version="1.0" encoding="UTF-8" standalone="no"?><!DOCTYPE svg PUBLIC "-//W3C//DTD SVG 1.1//EN" "http://www.w3.org/Graphics/SVG/1.1/DTD/svg11.dtd"><svg width="100%" height="100%" viewBox="0 0 2267 2246" version="1.1" xmlns="http://www.w3.org/2000/svg" xmlns:xlink="http://www.w3.org/1999/xlink" xml:space="preserve" xmlns:serif="http://www.serif.com/" style="fill-rule:evenodd;clip-rule:evenodd;stroke-linecap:round;stroke-linejoin:round;stroke-miterlimit:1.5;"><path d="M1262.05,673.138c5.612,-0.004 10.159,-4.557 10.155,-10.17l-2.568,-212.628c-0.003,-4.281 -3.476,-7.748 -7.756,-7.745l-212.63,0.595c-4.038,0.003 -7.309,3.278 -7.307,7.317l-0.2,212.63c0.004,4.235 3.439,7.665 7.674,7.662c-0,-0 28.057,0.081 63.789,0.43c62.641,0.613 148.843,1.909 148.843,1.909Zm-10.064,-20.163l2.068,-194.889l-197.468,-0.263l0.475,197.598c10.704,-0.061 31.612,-0.205 56.134,-0.481c49.711,-0.559 114.26,-1.57 138.791,-1.965Z"/><path d="M1262.05,1306.73c5.612,-0.004 10.159,-4.557 10.155,-10.17l-2.568,-212.629c-0.003,-4.28 -3.476,-7.748 -7.756,-7.745l-212.63,0.595c-4.038,0.003 -7.309,3.279 -7.307,7.317l-0.2,212.631c0.004,4.234 3.439,7.665 7.674,7.662c-0,-0 28.057,0.08 63.789,0.43c62.641,0.613 148.843,1.909 148.843,1.909Zm-10.064,-20.163l2.068,-194.89l-197.468,-0.263l0.475,197.599c10.704,-0.061 31.612,-0.205 56.134,-0.481c49.711,-0.559 114.26,-1.571 138.791,-1.965Z"/><path d="M1262.05,1515.07c5.612,-0.004 10.159,-4.557 10.155,-10.17l-2.568,-212.628c-0.003,-4.281 -3.476,-7.748 -7.756,-7.745l-212.63,0.595c-4.038,0.003 -7.309,3.278 -7.307,7.317l-0.2,212.63c0.004,4.235 3.439,7.665 7.674,7.662c-0,-0 28.057,0.081 63.789,0.43c62.641,0.613 148.843,1.909 148.843,1.909Zm-10.064,-20.163l2.068,-194.889l-197.468,-0.263l0.475,197.598c10.704,-0.061 31.612,-0.205 56.134,-0.481c49.711,-0.559 114.26,-1.57 138.791,-1.965Z"/><path d="M1049.42,673.294c5.613,-0.004 10.16,-4.557 10.156,-10.17l-2.568,-212.628c-0.003,-4.281 -3.476,-7.749 -7.756,-7.745l-212.63,0.594c-4.038,0.003 -7.31,3.279 -7.307,7.317l-0.2,212.631c0.003,4.234 3.439,7.665 7.673,7.662c0,-0 28.058,0.08 63.79,0.43c62.64,0.613 148.842,1.909 148.842,1.909Zm-10.063,-20.163l2.067,-194.889l-197.468,-0.263l0.476,197.598c10.704,-0.061 31.612,-0.205 56.134,-0.481c49.711,-0.559 114.26,-1.571 138.791,-1.965Z"/><path d="M216.082,1926.18l-0.156,-212.631l-212.63,0.156l0.155,212.63l212.631,-0.155Z" style="fill:url(#_Linear1);"/><path d="M216.089,1936.34c5.613,-0.004 10.159,-4.557 10.155,-10.17l-2.567,-212.628c-0.004,-4.281 -3.476,-7.748 -7.757,-7.745l-212.63,0.595c-4.038,0.003 -7.309,3.278 -7.306,7.317l-0.2,212.63c0.003,4.235 3.438,7.665 7.673,7.662c0,-0 28.058,0.081 63.789,0.43c62.641,0.613 148.843,1.909 148.843,1.909Zm-10.064,-20.163l2.068,-194.889l-197.468,-0.263l0.475,197.598c10.704,-0.061 31.612,-0.205 56.135,-0.481c49.71,-0.559 114.26,-1.57 138.79,-1.965Z"/><path d="M424.415,1926.18l-0.156,-212.631l-212.63,0.156l0.156,212.63l212.63,-0.155Z" style="fill:url(#_Linear2);"/><path d="M424.422,1936.34c5.613,-0.004 10.16,-4.557 10.156,-10.17l-2.568,-212.628c-0.003,-4.281 -3.476,-7.748 -7.756,-7.745l-212.63,0.595c-4.038,0.003 -7.31,3.278 -7.307,7.317l-0.2,212.63c0.003,4.235 3.439,7.665 7.673,7.662c0,-0 28.058,0.081 63.79,0.43c62.64,0.613 148.842,1.909 148.842,1.909Zm-10.063,-20.163l2.067,-194.889l-197.468,-0.263l0.476,197.598c10.704,-0.061 31.612,-0.205 56.134,-0.481c49.711,-0.559 114.26,-1.57 138.791,-1.965Z"/><path d="M632.748,1926.18l-0.155,-212.631l-212.631,0.156l0.156,212.63l212.63,-0.155Z" style="fill:url(#_Linear3);"/><path d="M632.756,1936.34c5.612,-0.004 10.159,-4.557 10.155,-10.17l-2.568,-212.628c-0.003,-4.281 -3.476,-7.748 -7.756,-7.745l-212.63,0.595c-4.038,0.003 -7.309,3.278 -7.306,7.317l-0.2,212.63c0.003,4.235 3.438,7.665 7.673,7.662c-0,-0 28.058,0.081 63.789,0.43c62.641,0.613 148.843,1.909 148.843,1.909Zm-10.064,-20.163l2.068,-194.889l-197.468,-0.263l0.475,197.598c10.704,-0.061 31.612,-0.205 56.134,-0.481c49.711,-0.559 114.26,-1.57 138.791,-1.965Z"/><path d="M841.082,1926.18l-0.156,-212.631l-212.63,0.156l0.155,212.63l212.631,-0.155Z" style="fill:url(#_Linear4);"/><path d="M841.089,1936.34c5.613,-0.004 10.159,-4.557 10.155,-10.17l-2.567,-212.628c-0.004,-4.281 -3.476,-7.748 -7.757,-7.745l-212.63,0.595c-4.038,0.003 -7.309,3.278 -7.306,7.317l-0.2,212.63c0.003,4.235 3.438,7.665 7.673,7.662c0,-0 28.058,0.081 63.789,0.43c62.641,0.613 148.843,1.909 148.843,1.909Zm-10.064,-20.163l2.068,-194.889l-197.468,-0.263l0.475,197.598c10.704,-0.061 31.612,-0.205 56.135,-0.481c49.71,-0.559 114.26,-1.57 138.79,-1.965Z"/><path d="M1049.41,1926.18l-0.156,-212.631l-212.63,0.156l0.156,212.63l212.63,-0.155Z" style="fill:url(#_Linear5);"/><path d="M1049.42,1936.34c5.613,-0.004 10.16,-4.557 10.156,-10.17l-2.568,-212.628c-0.003,-4.281 -3.476,-7.748 -7.756,-7.745l-212.63,0.595c-4.038,0.003 -7.31,3.278 -7.307,7.317l-0.2,212.63c0.003,4.235 3.439,7.665 7.673,7.662c0,-0 28.058,0.081 63.79,0.43c62.64,0.613 148.842,1.909 148.842,1.909Zm-10.063,-20.163l2.067,-194.889l-197.468,-0.263l0.476,197.598c10.704,-0.061 31.612,-0.205 56.134,-0.481c49.711,-0.559 114.26,-1.57 138.791,-1.965Z"/><path d="M1257.75,1926.18l-0.155,-212.631l-212.631,0.156l0.156,212.63l212.63,-0.155Z" style="fill:url(#_Linear6);"/><path d="M1257.76,1936.34c5.612,-0.004 10.159,-4.557 10.155,-10.17l-2.568,-212.628c-0.003,-4.281 -3.476,-7.748 -7.756,-7.745l-212.63,0.595c-4.038,0.003 -7.309,3.278 -7.306,7.317l-0.2,212.63c0.003,4.235 3.438,7.665 7.673,7.662c-0,-0 28.058,0.081 63.789,0.43c62.641,0.613 148.843,1.909 148.843,1.909Zm-10.064,-20.163l2.068,-194.889l-197.468,-0.263l0.475,197.598c10.704,-0.061 31.612,-0.205 56.134,-0.481c49.711,-0.559 114.26,-1.57 138.791,-1.965Z"/><path d="M1466.08,1926.18l-0.156,-212.631l-212.63,0.156l0.155,212.63l212.631,-0.155Z" style="fill:url(#_Linear7);"/><path d="M1466.09,1936.34c5.613,-0.004 10.159,-4.557 10.155,-10.17l-2.567,-212.628c-0.004,-4.281 -3.476,-7.748 -7.757,-7.745l-212.63,0.595c-4.038,0.003 -7.309,3.278 -7.306,7.317l-0.2,212.63c0.003,4.235 3.438,7.665 7.673,7.662c0,-0 28.058,0.081 63.789,0.43c62.641,0.613 148.843,1.909 148.843,1.909Zm-10.064,-20.163l2.068,-194.889l-197.468,-0.263l0.475,197.598c10.704,-0.061 31.612,-0.205 56.135,-0.481c49.71,-0.559 114.26,-1.57 138.79,-1.965Z"/><path d="M1674.41,1926.18l-0.156,-212.631l-212.63,0.156l0.156,212.63l212.63,-0.155Z" style="fill:url(#_Linear8);"/><path d="M1674.42,1936.34c5.613,-0.004 10.16,-4.557 10.156,-10.17l-2.568,-212.628c-0.003,-4.281 -3.476,-7.748 -7.756,-7.745l-212.63,0.595c-4.038,0.003 -7.31,3.278 -7.307,7.317l-0.2,212.63c0.003,4.235 3.439,7.665 7.673,7.662c0,-0 28.058,0.081 63.79,0.43c62.64,0.613 148.842,1.909 148.842,1.909Zm-10.063,-20.163l2.067,-194.889l-197.468,-0.263l0.476,197.598c10.704,-0.061 31.612,-0.205 56.134,-0.481c49.711,-0.559 114.26,-1.57 138.791,-1.965Z"/><path d="M1882.75,1926.18l-0.155,-212.631l-212.631,0.156l0.156,212.63l212.63,-0.155Z" style="fill:url(#_Linear9);"/><path d="M1882.76,1936.34c5.612,-0.004 10.159,-4.557 10.155,-10.17l-2.568,-212.628c-0.003,-4.281 -3.476,-7.748 -7.756,-7.745l-212.63,0.595c-4.038,0.003 -7.309,3.278 -7.306,7.317l-0.2,212.63c0.003,4.235 3.438,7.665 7.673,7.662c-0,-0 28.058,0.081 63.789,0.43c62.641,0.613 148.843,1.909 148.843,1.909Zm-10.064,-20.163l2.068,-194.889l-197.468,-0.263l0.475,197.598c10.704,-0.061 31.612,-0.205 56.134,-0.481c49.711,-0.559 114.26,-1.57 138.791,-1.965Z"/><path d="M2091.08,1926.18l-0.156,-212.631l-212.63,0.156l0.155,212.63l212.631,-0.155Z" style="fill:url(#_Linear10);"/><path d="M2091.09,1936.34c5.613,-0.004 10.159,-4.557 10.155,-10.17l-2.567,-212.628c-0.004,-4.281 -3.476,-7.748 -7.757,-7.745l-212.63,0.595c-4.038,0.003 -7.309,3.278 -7.306,7.317l-0.2,212.63c0.003,4.235 3.438,7.665 7.673,7.662c0,-0 28.058,0.081 63.789,0.43c62.641,0.613 148.843,1.909 148.843,1.909Zm-10.064,-20.163l2.068,-194.889l-197.468,-0.263l0.475,197.598c10.704,-0.061 31.612,-0.205 56.135,-0.481c49.71,-0.559 114.26,-1.57 138.79,-1.965Z"/><path d="M1049.42,1306.89c5.613,-0.004 10.16,-4.558 10.156,-10.17l-2.568,-212.629c-0.003,-4.28 -3.476,-7.748 -7.756,-7.745l-212.63,0.595c-4.038,0.003 -7.31,3.279 -7.307,7.317l-0.2,212.63c0.003,4.235 3.439,7.665 7.673,7.662c0,0 28.058,0.081 63.79,0.431c62.64,0.613 148.842,1.909 148.842,1.909Zm-10.063,-20.163l2.067,-194.89l-197.468,-0.263l0.476,197.599c10.704,-0.062 31.612,-0.206 56.134,-0.481c49.711,-0.56 114.26,-1.571 138.791,-1.965Z"/><path d="M1049.42,1515.22c5.613,-0.004 10.16,-4.557 10.156,-10.17l-2.568,-212.628c-0.003,-4.281 -3.476,-7.749 -7.756,-7.745l-212.63,0.594c-4.038,0.003 -7.31,3.279 -7.307,7.317l-0.2,212.631c0.003,4.234 3.439,7.665 7.673,7.662c0,-0 28.058,0.08 63.79,0.43c62.64,0.613 148.842,1.909 148.842,1.909Zm-10.063,-20.163l2.067,-194.889l-197.468,-0.264l0.476,197.599c10.704,-0.061 31.612,-0.205 56.134,-0.481c49.711,-0.559 114.26,-1.571 138.791,-1.965Z"/><path d="M1262.21,885.768c5.613,-0.004 10.16,-4.557 10.155,-10.17l-2.567,-212.628c-0.003,-4.281 -3.476,-7.748 -7.757,-7.745l-212.629,0.595c-4.039,0.003 -7.31,3.279 -7.307,7.317l-0.2,212.63c0.003,4.235 3.439,7.665 7.673,7.662c0,0 28.058,0.081 63.79,0.43c62.64,0.613 148.842,1.909 148.842,1.909Zm-10.064,-20.163l2.068,-194.889l-197.468,-0.263l0.476,197.599c10.704,-0.062 31.612,-0.206 56.134,-0.482c49.711,-0.559 114.26,-1.57 138.79,-1.965Z"/><path d="M1049.58,885.924c5.613,-0.004 10.159,-4.557 10.155,-10.17l-2.567,-212.628c-0.003,-4.281 -3.476,-7.748 -7.757,-7.745l-212.63,0.594c-4.038,0.003 -7.309,3.279 -7.306,7.318l-0.2,212.63c0.003,4.235 3.439,7.665 7.673,7.662c0,-0 28.058,0.08 63.79,0.43c62.64,0.613 148.842,1.909 148.842,1.909Zm-10.064,-20.163l2.068,-194.889l-197.468,-0.263l0.476,197.598c10.703,-0.061 31.611,-0.205 56.134,-0.481c49.71,-0.559 114.26,-1.57 138.79,-1.965Z"/><path d="M1262.36,1098.4c5.613,-0.005 10.159,-4.558 10.155,-10.17l-2.567,-212.629c-0.004,-4.28 -3.476,-7.748 -7.757,-7.745l-212.63,0.595c-4.038,0.003 -7.309,3.279 -7.306,7.317l-0.2,212.63c0.003,4.235 3.438,7.665 7.673,7.662c0,0 28.058,0.081 63.789,0.431c62.641,0.613 148.843,1.909 148.843,1.909Zm-10.064,-20.163l2.068,-194.89l-197.468,-0.263l0.475,197.599c10.704,-0.062 31.612,-0.206 56.135,-0.482c49.71,-0.559 114.26,-1.57 138.79,-1.964Z"/><path d="M1049.73,1098.55c5.613,-0.004 10.159,-4.557 10.155,-10.17l-2.568,-212.628c-0.003,-4.281 -3.475,-7.748 -7.756,-7.745l-212.63,0.595c-4.038,0.003 -7.309,3.279 -7.306,7.317l-0.2,212.63c0.003,4.235 3.438,7.665 7.673,7.662c-0,-0 28.058,0.081 63.789,0.43c62.641,0.613 148.843,1.909 148.843,1.909Zm-10.064,-20.163l2.068,-194.889l-197.468,-0.263l0.475,197.599c10.704,-0.062 31.612,-0.206 56.134,-0.482c49.711,-0.559 114.26,-1.57 138.791,-1.965Z"/><path d="M1049.73,1098.55c5.613,-0.004 10.159,-4.557 10.155,-10.17l-2.568,-212.628c-0.003,-4.281 -3.475,-7.748 -7.756,-7.745l-212.63,0.595c-4.038,0.003 -7.309,3.279 -7.306,7.317l-0.2,212.63c0.003,4.235 3.438,7.665 7.673,7.662c-0,-0 28.058,0.081 63.789,0.43c62.641,0.613 148.843,1.909 148.843,1.909Zm-10.064,-20.163l2.068,-194.889l-197.468,-0.263l0.475,197.599c10.704,-0.062 31.612,-0.206 56.134,-0.482c49.711,-0.559 114.26,-1.57 138.791,-1.965Z"/><text x="831.879px" y="2134.1px" style="font-family:'AmericanTypewriter', 'American Typewriter', serif;font-size:154.421px;">storage</text><text x="791.357px" y="296.485px" style="font-family:'AmericanTypewriter', 'American Typewriter', serif;font-size:154.421px;">tensor</text><g transform="matrix(6.4342,0,0,6.4342,-2906.9,-7046.74)"><text x="677.922px" y="1186.77px" style="font-family:'AmericanTypewriter', 'American Typewriter', serif;font-size:24px;">shape</text><text x="682.29px" y="1210.77px" style="font-family:'AmericanTypewriter', 'American Typewriter', serif;font-size:24px;">(5,2)</text></g><g transform="matrix(6.4342,0,0,6.4342,-2934.62,-6396.6)"><text x="677.922px" y="1186.77px" style="font-family:'AmericanTypewriter', 'American Typewriter', serif;font-size:24px;">strides</text><text x="688.194px" y="1210.77px" style="font-family:'AmericanTypewriter', 'American Typewriter', serif;font-size:24px;">(5,1)</text></g><path d="M107.07,1763.37l-7.094,54.934l48.204,-27.285c-17.19,3.365 -37.744,-10.46 -41.11,-27.649Z" style="fill:#808080;"/><path d="M122.095,1785.42c133.524,-198.529 826.291,-1228.57 826.291,-1228.57" style="fill:none;stroke:#808080;stroke-width:16.51px;stroke-dasharray:88.76,52.43,0,0;stroke-dashoffset:1244.76;"/><path d="M1101.2,1784.57l32.856,44.594l15.961,-53.041c-10.092,14.316 -34.501,18.539 -48.817,8.447Z" style="fill:#808080;"/><path d="M1127.3,1790.11c-32.838,-189.778 -174.18,-1006.62 -174.18,-1006.62" style="fill:none;stroke:#808080;stroke-width:16.51px;stroke-dasharray:88.76,52.43,0,0;stroke-dashoffset:1244.76;"/><path d="M321.002,1762.57l-5.206,55.145l47.24,-28.922c-17.064,3.953 -38.081,-9.159 -42.034,-26.223Z" style="fill:#808080;"/><path d="M336.774,1784.09c197.269,-313.988 568.352,-847.901 800.229,-1236.41" style="fill:none;stroke:#808080;stroke-width:16.51px;stroke-dasharray:88.76,52.43,0,0;stroke-dashoffset:1244.76;"/><path d="M1927.08,1818.35l55.386,-0.631l-33.736,-43.931c5.728,16.553 -5.097,38.834 -21.65,44.562Z" style="fill:#808080;"/><path d="M1946.81,1800.39c-243.065,-118.394 -492.133,-245.762 -797.684,-399.347" style="fill:none;stroke:#808080;stroke-width:16.51px;stroke-dasharray:88.76,52.43,0,0;stroke-dashoffset:1244.76;"/><defs><linearGradient id="_Linear1" x1="0" y1="0" x2="1" y2="0" gradientUnits="userSpaceOnUse" gradientTransform="matrix(0.0778776,106.315,-106.315,0.0778776,109.689,1819.94)"><stop offset="0" style="stop-color:#69bac9;stop-opacity:1"/><stop offset="1" style="stop-color:#33808f;stop-opacity:1"/></linearGradient><linearGradient id="_Linear2" x1="0" y1="0" x2="1" y2="0" gradientUnits="userSpaceOnUse" gradientTransform="matrix(0.0778776,106.315,-106.315,0.0778776,318.022,1819.94)"><stop offset="0" style="stop-color:#69bac9;stop-opacity:1"/><stop offset="1" style="stop-color:#33808f;stop-opacity:1"/></linearGradient><linearGradient id="_Linear3" x1="0" y1="0" x2="1" y2="0" gradientUnits="userSpaceOnUse" gradientTransform="matrix(0.0778776,106.315,-106.315,0.0778776,526.355,1819.94)"><stop offset="0" style="stop-color:#69bac9;stop-opacity:1"/><stop offset="1" style="stop-color:#33808f;stop-opacity:1"/></linearGradient><linearGradient id="_Linear4" x1="0" y1="0" x2="1" y2="0" gradientUnits="userSpaceOnUse" gradientTransform="matrix(0.0778776,106.315,-106.315,0.0778776,734.689,1819.94)"><stop offset="0" style="stop-color:#69bac9;stop-opacity:1"/><stop offset="1" style="stop-color:#33808f;stop-opacity:1"/></linearGradient><linearGradient id="_Linear5" x1="0" y1="0" x2="1" y2="0" gradientUnits="userSpaceOnUse" gradientTransform="matrix(0.0778776,106.315,-106.315,0.0778776,943.022,1819.94)"><stop offset="0" style="stop-color:#69bac9;stop-opacity:1"/><stop offset="1" style="stop-color:#33808f;stop-opacity:1"/></linearGradient><linearGradient id="_Linear6" x1="0" y1="0" x2="1" y2="0" gradientUnits="userSpaceOnUse" gradientTransform="matrix(0.0778776,106.315,-106.315,0.0778776,1151.36,1819.94)"><stop offset="0" style="stop-color:#69bac9;stop-opacity:1"/><stop offset="1" style="stop-color:#33808f;stop-opacity:1"/></linearGradient><linearGradient id="_Linear7" x1="0" y1="0" x2="1" y2="0" gradientUnits="userSpaceOnUse" gradientTransform="matrix(0.0778776,106.315,-106.315,0.0778776,1359.69,1819.94)"><stop offset="0" style="stop-color:#69bac9;stop-opacity:1"/><stop offset="1" style="stop-color:#33808f;stop-opacity:1"/></linearGradient><linearGradient id="_Linear8" x1="0" y1="0" x2="1" y2="0" gradientUnits="userSpaceOnUse" gradientTransform="matrix(0.0778776,106.315,-106.315,0.0778776,1568.02,1819.94)"><stop offset="0" style="stop-color:#69bac9;stop-opacity:1"/><stop offset="1" style="stop-color:#33808f;stop-opacity:1"/></linearGradient><linearGradient id="_Linear9" x1="0" y1="0" x2="1" y2="0" gradientUnits="userSpaceOnUse" gradientTransform="matrix(0.0778776,106.315,-106.315,0.0778776,1776.36,1819.94)"><stop offset="0" style="stop-color:#69bac9;stop-opacity:1"/><stop offset="1" style="stop-color:#33808f;stop-opacity:1"/></linearGradient><linearGradient id="_Linear10" x1="0" y1="0" x2="1" y2="0" gradientUnits="userSpaceOnUse" gradientTransform="matrix(0.0778776,106.315,-106.315,0.0778776,1984.69,1819.94)"><stop offset="0" style="stop-color:#69bac9;stop-opacity:1"/><stop offset="1" style="stop-color:#33808f;stop-opacity:1"/></linearGradient></defs></svg>