<?xml version="1.0" encoding="UTF-8" standalone="no"?><!DOCTYPE svg PUBLIC "-//W3C//DTD SVG 1.1//EN" "http://www.w3.org/Graphics/SVG/1.1/DTD/svg11.dtd"><svg width="100%" height="100%" viewBox="0 0 2328 2246" version="1.1" xmlns="http://www.w3.org/2000/svg" xmlns:xlink="http://www.w3.org/1999/xlink" xml:space="preserve" xmlns:serif="http://www.serif.com/" style="fill-rule:evenodd;clip-rule:evenodd;stroke-linecap:round;stroke-linejoin:round;stroke-miterlimit:1.5;"><path d="M1335.21,1295.06c-0,5.613 4.55,10.162 10.162,10.162l212.631,-2.411c4.28,-0 7.75,-3.471 7.75,-7.751l-0.439,-212.63c0,-4.038 -3.273,-7.312 -7.311,-7.312l-212.631,-0.356c-4.234,0 -7.667,3.433 -7.667,7.668c-0,-0 -0.101,28.057 -0.477,63.789c-0.659,62.64 -2.018,148.841 -2.018,148.841Zm20.17,-10.049l194.888,2.21l0.408,-197.467l-197.599,0.33c0.053,10.704 0.182,31.612 0.44,56.135c0.523,49.711 1.487,114.261 1.863,138.792Z"/><path d="M701.621,1294.59c0,5.612 4.55,10.162 10.163,10.162l212.63,-2.412c4.281,0 7.751,-3.47 7.751,-7.75l-0.439,-212.63c-0,-4.039 -3.274,-7.312 -7.312,-7.312l-212.63,-0.356c-4.235,0 -7.668,3.433 -7.668,7.668c0,-0 -0.101,28.057 -0.477,63.789c-0.659,62.64 -2.018,148.841 -2.018,148.841Zm20.171,-10.049l194.888,2.21l0.407,-197.467l-197.599,0.33c0.054,10.704 0.182,31.612 0.44,56.135c0.523,49.711 1.487,114.261 1.864,138.792Z"/><path d="M493.288,1294.44c0,5.613 4.55,10.163 10.163,10.163l212.63,-2.412c4.28,-0 7.751,-3.47 7.751,-7.751l-0.439,-212.63c-0,-4.038 -3.274,-7.312 -7.312,-7.312l-212.63,-0.356c-4.235,0 -7.668,3.433 -7.668,7.668c0,-0 -0.101,28.058 -0.477,63.789c-0.659,62.64 -2.018,148.841 -2.018,148.841Zm20.17,-10.049l194.888,2.211l0.408,-197.468l-197.599,0.331c0.054,10.704 0.182,31.612 0.44,56.134c0.523,49.711 1.487,114.261 1.863,138.792Z"/><path d="M1335.21,1082.42c-0,5.612 4.55,10.162 10.162,10.162l212.631,-2.412c4.28,0 7.75,-3.47 7.75,-7.75l-0.439,-212.631c0,-4.038 -3.273,-7.311 -7.311,-7.311l-212.631,-0.356c-4.234,-0 -7.667,3.433 -7.667,7.667c-0,0 -0.101,28.058 -0.477,63.79c-0.659,62.64 -2.018,148.841 -2.018,148.841Zm20.17,-10.049l194.888,2.21l0.408,-197.468l-197.599,0.331c0.053,10.704 0.182,31.612 0.44,56.135c0.523,49.711 1.487,114.261 1.863,138.792Z"/><path d="M320.068,1917.29l-0.156,-212.63l-212.63,0.156l0.156,212.63l212.63,-0.156Z" style="fill:url(#_Linear1);"/><path d="M320.076,1927.45c5.612,-0.004 10.159,-4.557 10.155,-10.17l-2.568,-212.628c-0.003,-4.281 -3.476,-7.749 -7.756,-7.745l-212.63,0.594c-4.038,0.003 -7.309,3.279 -7.307,7.317l-0.2,212.631c0.004,4.234 3.439,7.665 7.674,7.662c-0,-0 28.057,0.08 63.789,0.43c62.641,0.613 148.843,1.909 148.843,1.909Zm-10.064,-20.163l2.068,-194.889l-197.468,-0.263l0.475,197.598c10.704,-0.061 31.612,-0.205 56.134,-0.481c49.711,-0.559 114.26,-1.571 138.791,-1.965Z"/><path d="M528.401,1917.29l-0.155,-212.63l-212.63,0.156l0.155,212.63l212.63,-0.156Z" style="fill:url(#_Linear2);"/><path d="M528.409,1927.45c5.613,-0.004 10.159,-4.557 10.155,-10.17l-2.568,-212.628c-0.003,-4.281 -3.475,-7.749 -7.756,-7.745l-212.63,0.594c-4.038,0.003 -7.309,3.279 -7.306,7.317l-0.2,212.631c0.003,4.234 3.438,7.665 7.673,7.662c-0,-0 28.058,0.08 63.789,0.43c62.641,0.613 148.843,1.909 148.843,1.909Zm-10.064,-20.163l2.068,-194.889l-197.468,-0.263l0.475,197.598c10.704,-0.061 31.612,-0.205 56.134,-0.481c49.711,-0.559 114.26,-1.571 138.791,-1.965Z"/><path d="M736.735,1917.29l-0.156,-212.63l-212.63,0.156l0.156,212.63l212.63,-0.156Z" style="fill:url(#_Linear3);"/><path d="M736.742,1927.45c5.613,-0.004 10.159,-4.557 10.155,-10.17l-2.567,-212.628c-0.003,-4.281 -3.476,-7.749 -7.757,-7.745l-212.63,0.594c-4.038,0.003 -7.309,3.279 -7.306,7.317l-0.2,212.631c0.003,4.234 3.439,7.665 7.673,7.662c0,-0 28.058,0.08 63.79,0.43c62.64,0.613 148.842,1.909 148.842,1.909Zm-10.064,-20.163l2.068,-194.889l-197.468,-0.263l0.476,197.598c10.703,-0.061 31.611,-0.205 56.134,-0.481c49.711,-0.559 114.26,-1.571 138.79,-1.965Z"/><path d="M945.068,1917.29l-0.156,-212.63l-212.63,0.156l0.156,212.63l212.63,-0.156Z" style="fill:url(#_Linear4);"/><path d="M945.076,1927.45c5.612,-0.004 10.159,-4.557 10.155,-10.17l-2.568,-212.628c-0.003,-4.281 -3.476,-7.749 -7.756,-7.745l-212.63,0.594c-4.038,0.003 -7.309,3.279 -7.307,7.317l-0.2,212.631c0.004,4.234 3.439,7.665 7.674,7.662c-0,-0 28.057,0.08 63.789,0.43c62.641,0.613 148.843,1.909 148.843,1.909Zm-10.064,-20.163l2.068,-194.889l-197.468,-0.263l0.475,197.598c10.704,-0.061 31.612,-0.205 56.134,-0.481c49.711,-0.559 114.26,-1.571 138.791,-1.965Z"/><path d="M1153.4,1917.29l-0.155,-212.63l-212.63,0.156l0.155,212.63l212.63,-0.156Z" style="fill:url(#_Linear5);"/><path d="M1153.41,1927.45c5.613,-0.004 10.159,-4.557 10.155,-10.17l-2.568,-212.628c-0.003,-4.281 -3.475,-7.749 -7.756,-7.745l-212.63,0.594c-4.038,0.003 -7.309,3.279 -7.306,7.317l-0.2,212.631c0.003,4.234 3.438,7.665 7.673,7.662c-0,-0 28.058,0.08 63.789,0.43c62.641,0.613 148.843,1.909 148.843,1.909Zm-10.064,-20.163l2.068,-194.889l-197.468,-0.263l0.475,197.598c10.704,-0.061 31.612,-0.205 56.134,-0.481c49.711,-0.559 114.26,-1.571 138.791,-1.965Z"/><path d="M1361.74,1917.29l-0.156,-212.63l-212.63,0.156l0.156,212.63l212.63,-0.156Z" style="fill:url(#_Linear6);"/><path d="M1361.74,1927.45c5.613,-0.004 10.159,-4.557 10.155,-10.17l-2.567,-212.628c-0.003,-4.281 -3.476,-7.749 -7.757,-7.745l-212.63,0.594c-4.038,0.003 -7.309,3.279 -7.306,7.317l-0.2,212.631c0.003,4.234 3.439,7.665 7.673,7.662c0,-0 28.058,0.08 63.79,0.43c62.64,0.613 148.842,1.909 148.842,1.909Zm-10.064,-20.163l2.068,-194.889l-197.468,-0.263l0.476,197.598c10.703,-0.061 31.611,-0.205 56.134,-0.481c49.711,-0.559 114.26,-1.571 138.79,-1.965Z"/><path d="M1570.07,1917.29l-0.156,-212.63l-212.63,0.156l0.156,212.63l212.63,-0.156Z" style="fill:url(#_Linear7);"/><path d="M1570.08,1927.45c5.612,-0.004 10.159,-4.557 10.155,-10.17l-2.568,-212.628c-0.003,-4.281 -3.476,-7.749 -7.756,-7.745l-212.63,0.594c-4.038,0.003 -7.309,3.279 -7.307,7.317l-0.2,212.631c0.004,4.234 3.439,7.665 7.674,7.662c-0,-0 28.057,0.08 63.789,0.43c62.641,0.613 148.843,1.909 148.843,1.909Zm-10.064,-20.163l2.068,-194.889l-197.468,-0.263l0.475,197.598c10.704,-0.061 31.612,-0.205 56.134,-0.481c49.711,-0.559 114.26,-1.571 138.791,-1.965Z"/><path d="M1778.4,1917.29l-0.155,-212.63l-212.63,0.156l0.155,212.63l212.63,-0.156Z" style="fill:url(#_Linear8);"/><path d="M1778.41,1927.45c5.613,-0.004 10.159,-4.557 10.155,-10.17c0,0 -2.568,-212.628 -2.568,-212.628c-0.003,-4.281 -3.475,-7.749 -7.756,-7.745l-212.63,0.594c-4.038,0.003 -7.309,3.279 -7.306,7.317l-0.2,212.631c0.003,4.234 3.438,7.665 7.673,7.662c-0,-0 28.058,0.08 63.789,0.43c62.641,0.613 148.843,1.909 148.843,1.909Zm-10.064,-20.163l2.068,-194.889l-197.468,-0.263l0.475,197.598c10.704,-0.061 31.612,-0.205 56.134,-0.481c49.711,-0.559 114.26,-1.571 138.791,-1.965Z"/><path d="M1986.74,1917.29l-0.156,-212.63l-212.63,0.156l0.156,212.63l212.63,-0.156Z" style="fill:url(#_Linear9);"/><path d="M1986.74,1927.45c5.613,-0.004 10.159,-4.557 10.155,-10.17l-2.567,-212.628c-0.003,-4.281 -3.476,-7.749 -7.757,-7.745l-212.63,0.594c-4.038,0.003 -7.309,3.279 -7.306,7.317l-0.2,212.631c0.003,4.234 3.439,7.665 7.673,7.662c0,-0 28.058,0.08 63.79,0.43c62.64,0.613 148.842,1.909 148.842,1.909Zm-10.064,-20.163l2.068,-194.889l-197.468,-0.263l0.476,197.598c10.703,-0.061 31.611,-0.205 56.134,-0.481c49.711,-0.559 114.26,-1.571 138.79,-1.965Z"/><path d="M2195.07,1917.29l-0.156,-212.63l-212.63,0.156l0.156,212.63l212.63,-0.156Z" style="fill:url(#_Linear10);"/><path d="M2195.08,1927.45c5.612,-0.004 10.159,-4.557 10.155,-10.17l-2.568,-212.628c-0.003,-4.281 -3.476,-7.749 -7.756,-7.745l-212.63,0.594c-4.038,0.003 -7.309,3.279 -7.307,7.317l-0.2,212.631c0.004,4.234 3.439,7.665 7.674,7.662c-0,-0 28.057,0.08 63.789,0.43c62.641,0.613 148.843,1.909 148.843,1.909Zm-10.064,-20.163l2.068,-194.889l-197.468,-0.263l0.475,197.598c10.704,-0.061 31.612,-0.205 56.134,-0.481c49.711,-0.559 114.26,-1.571 138.791,-1.965Z"/><path d="M701.621,1081.96c0,5.612 4.55,10.162 10.163,10.162l212.63,-2.412c4.281,0 7.751,-3.47 7.751,-7.75l-0.439,-212.631c-0,-4.038 -3.274,-7.311 -7.312,-7.311l-212.63,-0.356c-4.235,-0 -7.668,3.433 -7.668,7.667c0,0 -0.101,28.058 -0.477,63.789c-0.659,62.641 -2.018,148.842 -2.018,148.842Zm20.171,-10.05l194.888,2.211l0.407,-197.468l-197.599,0.331c0.054,10.704 0.182,31.612 0.44,56.134c0.523,49.712 1.487,114.262 1.864,138.792Z"/><path d="M493.288,1081.81c0,5.613 4.55,10.163 10.163,10.163l212.63,-2.412c4.28,-0 7.751,-3.47 7.751,-7.751l-0.439,-212.63c-0,-4.038 -3.274,-7.312 -7.312,-7.312l-212.63,-0.356c-4.235,0 -7.668,3.433 -7.668,7.668c0,-0 -0.101,28.058 -0.477,63.789c-0.659,62.64 -2.018,148.841 -2.018,148.841Zm20.17,-10.049l194.888,2.21l0.408,-197.467l-197.599,0.33c0.054,10.704 0.182,31.612 0.44,56.135c0.523,49.711 1.487,114.261 1.863,138.792Z"/><path d="M1122.59,1295.06c-0,5.613 4.549,10.162 10.162,10.162l212.63,-2.411c4.281,-0 7.751,-3.471 7.751,-7.751l-0.439,-212.63c0,-4.038 -3.274,-7.312 -7.312,-7.312l-212.63,-0.356c-4.234,0 -7.667,3.433 -7.667,7.668c-0,-0 -0.102,28.057 -0.477,63.789c-0.659,62.64 -2.018,148.841 -2.018,148.841Zm20.17,-10.049l194.888,2.21l0.408,-197.467l-197.599,0.33c0.053,10.704 0.182,31.612 0.44,56.135c0.523,49.711 1.487,114.261 1.863,138.792Z"/><path d="M1122.59,1082.42c-0,5.612 4.549,10.162 10.162,10.162l212.63,-2.412c4.281,0 7.751,-3.47 7.751,-7.75l-0.439,-212.631c0,-4.038 -3.274,-7.311 -7.312,-7.311l-212.63,-0.356c-4.234,-0 -7.667,3.433 -7.667,7.667c-0,0 -0.102,28.058 -0.477,63.79c-0.659,62.64 -2.018,148.841 -2.018,148.841Zm20.17,-10.049l194.888,2.21l0.408,-197.468l-197.599,0.331c0.053,10.704 0.182,31.612 0.44,56.135c0.523,49.711 1.487,114.261 1.863,138.792Z"/><path d="M909.954,1295.06c0,5.613 4.55,10.162 10.163,10.162l212.63,-2.411c4.281,-0 7.751,-3.471 7.751,-7.751l-0.439,-212.63c-0,-4.038 -3.274,-7.312 -7.312,-7.312l-212.63,-0.356c-4.235,0 -7.668,3.433 -7.668,7.668c0,-0 -0.101,28.057 -0.477,63.789c-0.658,62.64 -2.018,148.841 -2.018,148.841Zm20.171,-10.049l194.888,2.21l0.407,-197.467l-197.599,0.33c0.054,10.704 0.183,31.612 0.44,56.135c0.523,49.711 1.487,114.261 1.864,138.792Z"/><path d="M909.954,1082.42c0,5.612 4.55,10.162 10.163,10.162l212.63,-2.412c4.281,0 7.751,-3.47 7.751,-7.75l-0.439,-212.631c-0,-4.038 -3.274,-7.311 -7.312,-7.311l-212.63,-0.356c-4.235,-0 -7.668,3.433 -7.668,7.667c0,0 -0.101,28.058 -0.477,63.79c-0.658,62.64 -2.018,148.841 -2.018,148.841Zm20.171,-10.049l194.888,2.21l0.407,-197.468l-197.599,0.331c0.054,10.704 0.183,31.612 0.44,56.135c0.523,49.711 1.487,114.261 1.864,138.792Z"/><path d="M909.954,1082.42c0,5.612 4.55,10.162 10.163,10.162l212.63,-2.412c4.281,0 7.751,-3.47 7.751,-7.75l-0.439,-212.631c-0,-4.038 -3.274,-7.311 -7.312,-7.311l-212.63,-0.356c-4.235,-0 -7.668,3.433 -7.668,7.667c0,0 -0.101,28.058 -0.477,63.79c-0.658,62.64 -2.018,148.841 -2.018,148.841Zm20.171,-10.049l194.888,2.21l0.407,-197.468l-197.599,0.331c0.054,10.704 0.183,31.612 0.44,56.135c0.523,49.711 1.487,114.261 1.864,138.792Z"/><text x="935.865px" y="2125.21px" style="font-family:'AmericanTypewriter', 'American Typewriter', serif;font-size:154.421px;">storage</text><text x="895.344px" y="287.6px" style="font-family:'AmericanTypewriter', 'American Typewriter', serif;font-size:154.421px;">tensor</text><g transform="matrix(6.4342,0,0,6.4342,-2694.69,-6927.08)"><text x="677.922px" y="1186.77px" style="font-family:'AmericanTypewriter', 'American Typewriter', serif;font-size:24px;">shape</text><text x="682.29px" y="1210.77px" style="font-family:'AmericanTypewriter', 'American Typewriter', serif;font-size:24px;">(2,5)</text></g><g transform="matrix(6.4342,0,0,6.4342,-2714.74,-6303.89)"><text x="677.922px" y="1186.77px" style="font-family:'AmericanTypewriter', 'American Typewriter', serif;font-size:24px;">strides</text><text x="688.194px" y="1210.77px" style="font-family:'AmericanTypewriter', 'American Typewriter', serif;font-size:24px;">(2,1)</text></g><path d="M188.003,1751l23.051,50.366l26.462,-48.661c-12.805,11.952 -37.561,11.099 -49.513,-1.705Z" style="fill:#808080;"/><path d="M212.418,1761.75c15.359,-241.3 159.324,-508.27 416.727,-797.884" style="fill:none;stroke:#808080;stroke-width:16.51px;stroke-dasharray:88.76,52.43,0,0;stroke-dashoffset:1244.76;"/><path d="M593.482,1765.93l25.19,49.331l24.351,-49.751c-12.281,12.49 -37.051,12.7 -49.541,0.42Z" style="fill:#808080;"/><path d="M618.336,1775.63c-4.871,-241.445 -54.77,-509.826 202.63,-799.436" style="fill:none;stroke:#808080;stroke-width:16.51px;stroke-dasharray:88.76,52.43,0,0;stroke-dashoffset:1244.76;"/><path d="M384.433,1760.7l25.851,48.988l23.679,-50.074c-12.111,12.654 -36.876,13.197 -49.53,1.086Z" style="fill:#808080;"/><path d="M409.415,1770.07c-7.808,-203.835 -58.931,-276.51 200.306,-588.884" style="fill:none;stroke:#808080;stroke-width:16.51px;stroke-dasharray:88.76,52.43,0,0;stroke-dashoffset:1244.76;"/><defs><linearGradient id="_Linear1" x1="0" y1="0" x2="1" y2="0" gradientUnits="userSpaceOnUse" gradientTransform="matrix(0.155755,212.63,-212.63,0.155755,213.597,1704.74)"><stop offset="0" style="stop-color:#69bac9;stop-opacity:1"/><stop offset="1" style="stop-color:#33808f;stop-opacity:1"/></linearGradient><linearGradient id="_Linear2" x1="0" y1="0" x2="1" y2="0" gradientUnits="userSpaceOnUse" gradientTransform="matrix(0.155755,212.63,-212.63,0.155755,421.931,1704.74)"><stop offset="0" style="stop-color:#69bac9;stop-opacity:1"/><stop offset="1" style="stop-color:#33808f;stop-opacity:1"/></linearGradient><linearGradient id="_Linear3" x1="0" y1="0" x2="1" y2="0" gradientUnits="userSpaceOnUse" gradientTransform="matrix(0.155755,212.63,-212.63,0.155755,630.264,1704.74)"><stop offset="0" style="stop-color:#69bac9;stop-opacity:1"/><stop offset="1" style="stop-color:#33808f;stop-opacity:1"/></linearGradient><linearGradient id="_Linear4" x1="0" y1="0" x2="1" y2="0" gradientUnits="userSpaceOnUse" gradientTransform="matrix(0.155755,212.63,-212.63,0.155755,838.597,1704.74)"><stop offset="0" style="stop-color:#69bac9;stop-opacity:1"/><stop offset="1" style="stop-color:#33808f;stop-opacity:1"/></linearGradient><linearGradient id="_Linear5" x1="0" y1="0" x2="1" y2="0" gradientUnits="userSpaceOnUse" gradientTransform="matrix(0.155755,212.63,-212.63,0.155755,1046.93,1704.74)"><stop offset="0" style="stop-color:#69bac9;stop-opacity:1"/><stop offset="1" style="stop-color:#33808f;stop-opacity:1"/></linearGradient><linearGradient id="_Linear6" x1="0" y1="0" x2="1" y2="0" gradientUnits="userSpaceOnUse" gradientTransform="matrix(0.155755,212.63,-212.63,0.155755,1255.26,1704.74)"><stop offset="0" style="stop-color:#69bac9;stop-opacity:1"/><stop offset="1" style="stop-color:#33808f;stop-opacity:1"/></linearGradient><linearGradient id="_Linear7" x1="0" y1="0" x2="1" y2="0" gradientUnits="userSpaceOnUse" gradientTransform="matrix(0.155755,212.63,-212.63,0.155755,1463.6,1704.74)"><stop offset="0" style="stop-color:#69bac9;stop-opacity:1"/><stop offset="1" style="stop-color:#33808f;stop-opacity:1"/></linearGradient><linearGradient id="_Linear8" x1="0" y1="0" x2="1" y2="0" gradientUnits="userSpaceOnUse" gradientTransform="matrix(0.155755,212.63,-212.63,0.155755,1671.93,1704.74)"><stop offset="0" style="stop-color:#69bac9;stop-opacity:1"/><stop offset="1" style="stop-color:#33808f;stop-opacity:1"/></linearGradient><linearGradient id="_Linear9" x1="0" y1="0" x2="1" y2="0" gradientUnits="userSpaceOnUse" gradientTransform="matrix(0.155755,212.63,-212.63,0.155755,1880.26,1704.74)"><stop offset="0" style="stop-color:#69bac9;stop-opacity:1"/><stop offset="1" style="stop-color:#33808f;stop-opacity:1"/></linearGradient><linearGradient id="_Linear10" x1="0" y1="0" x2="1" y2="0" gradientUnits="userSpaceOnUse" gradientTransform="matrix(0.155755,212.63,-212.63,0.155755,2088.6,1704.74)"><stop offset="0" style="stop-color:#69bac9;stop-opacity:1"/><stop offset="1" style="stop-color:#33808f;stop-opacity:1"/></linearGradient></defs></svg>